%MOIN*%
%OFA0B0*%
%FSLAX46Y46*%
%IPPOS*%
%LPD*%
%ADD10C,0.0039370078740157488*%
%ADD11R,0.062992125984251982X0.062992125984251982*%
%ADD12R,0.082677165354330714X0.082677165354330714*%
%ADD13O,0.082677165354330714X0.082677165354330714*%
%ADD24C,0.0039370078740157488*%
%ADD25O,0.043307086614173235X0.084251968503937014*%
%ADD26O,0.084251968503937014X0.043307086614173235*%
%ADD27C,0.14173228346456693*%
%ADD28R,0.082677165354330714X0.082677165354330714*%
%ADD29O,0.082677165354330714X0.082677165354330714*%
%ADD30C,0.07574803149606299*%
%ADD31C,0.0039370078740157488*%
%ADD32R,0.062992125984251982X0.062992125984251982*%
%ADD33R,0.082677165354330714X0.082677165354330714*%
%ADD34O,0.082677165354330714X0.082677165354330714*%
%ADD35C,0.0039370078740157488*%
%ADD36R,0.062992125984251982X0.062992125984251982*%
%ADD37R,0.082677165354330714X0.082677165354330714*%
%ADD38O,0.082677165354330714X0.082677165354330714*%
%ADD39C,0.0039370078740157488*%
%ADD40R,0.062992125984251982X0.062992125984251982*%
%ADD41R,0.082677165354330714X0.082677165354330714*%
%ADD42O,0.082677165354330714X0.082677165354330714*%
%ADD43C,0.0039370078740157488*%
%ADD44R,0.062992125984251982X0.062992125984251982*%
%ADD45R,0.082677165354330714X0.082677165354330714*%
%ADD46O,0.082677165354330714X0.082677165354330714*%
%ADD47C,0.0039370078740157488*%
%ADD48R,0.062992125984251982X0.062992125984251982*%
%ADD49R,0.082677165354330714X0.082677165354330714*%
%ADD50O,0.082677165354330714X0.082677165354330714*%
%ADD51C,0.0039370078740157488*%
%ADD52R,0.062992125984251982X0.062992125984251982*%
%ADD53R,0.082677165354330714X0.082677165354330714*%
%ADD54O,0.082677165354330714X0.082677165354330714*%
%ADD55C,0.0039370078740157488*%
%ADD56R,0.062992125984251982X0.062992125984251982*%
%ADD57R,0.082677165354330714X0.082677165354330714*%
%ADD58O,0.082677165354330714X0.082677165354330714*%
%ADD59C,0.0039370078740157488*%
%ADD60R,0.062992125984251982X0.062992125984251982*%
%ADD61R,0.082677165354330714X0.082677165354330714*%
%ADD62O,0.082677165354330714X0.082677165354330714*%
%ADD63C,0.0039370078740157488*%
%ADD64R,0.062992125984251982X0.062992125984251982*%
%ADD65R,0.082677165354330714X0.082677165354330714*%
%ADD66O,0.082677165354330714X0.082677165354330714*%
%ADD67C,0.0039370078740157488*%
%ADD68R,0.062992125984251982X0.062992125984251982*%
%ADD69R,0.082677165354330714X0.082677165354330714*%
%ADD70O,0.082677165354330714X0.082677165354330714*%
%ADD71C,0.0039370078740157488*%
%ADD72R,0.062992125984251982X0.062992125984251982*%
%ADD73R,0.082677165354330714X0.082677165354330714*%
%ADD74O,0.082677165354330714X0.082677165354330714*%
%ADD75C,0.0039370078740157488*%
%ADD76R,0.062992125984251982X0.062992125984251982*%
%ADD77R,0.082677165354330714X0.082677165354330714*%
%ADD78O,0.082677165354330714X0.082677165354330714*%
%ADD79C,0.0039370078740157488*%
%ADD80R,0.062992125984251982X0.062992125984251982*%
%ADD81R,0.082677165354330714X0.082677165354330714*%
%ADD82O,0.082677165354330714X0.082677165354330714*%
G01G01*
D10*
D11*
X0002992125Y0000944881D02*
X0003271559Y0000138220D03*
X0003184944Y0000138220D03*
X0003271559Y0000238220D03*
X0003184944Y0000238220D03*
X0003271559Y0000338220D03*
X0003184944Y0000338220D03*
X0003271559Y0000438220D03*
X0003184944Y0000438220D03*
X0003271559Y0000538220D03*
X0003184944Y0000538220D03*
X0003271559Y0000638220D03*
X0003184944Y0000638220D03*
X0003271559Y0000738220D03*
X0003184944Y0000738220D03*
X0003271559Y0000838220D03*
X0003184944Y0000838220D03*
D12*
X0003385732Y0000838220D03*
D13*
X0003385732Y0000738220D03*
X0003385732Y0000638220D03*
X0003385732Y0000538220D03*
X0003385732Y0000438220D03*
X0003385732Y0000338220D03*
X0003385732Y0000238220D03*
X0003385732Y0000138220D03*
D12*
X0003070771Y0000838220D03*
D13*
X0003070771Y0000738220D03*
X0003070771Y0000638220D03*
X0003070771Y0000538220D03*
X0003070771Y0000438220D03*
X0003070771Y0000338220D03*
X0003070771Y0000238220D03*
X0003070771Y0000138220D03*
G04 next file*
G04 Gerber Fmt 4.6, Leading zero omitted, Abs format (unit mm)*
G04 Created by KiCad (PCBNEW 4.0.7) date 11/27/17 18:36:11*
G01G01*
G04 APERTURE LIST*
G04 APERTURE END LIST*
D24*
D25*
X0000000000Y0003937007D02*
X0001485334Y0001989173D03*
X0001431200Y0001989173D03*
D26*
X0000839960Y0002759350D03*
X0000839960Y0002705216D03*
X0000839960Y0002651082D03*
X0000839960Y0002596948D03*
X0000839960Y0002542814D03*
X0000839960Y0002488681D03*
X0000839960Y0002434547D03*
X0000839960Y0002380413D03*
X0000839960Y0002326279D03*
X0000839960Y0002272145D03*
X0000839960Y0002218011D03*
X0000839960Y0002163877D03*
X0002145472Y0002719980D03*
X0002145472Y0002665846D03*
X0002145472Y0002611712D03*
X0002145472Y0002557578D03*
X0002145472Y0002503444D03*
X0002145472Y0002449311D03*
X0002145472Y0002395177D03*
X0002145472Y0002341043D03*
X0002145472Y0002286909D03*
X0002145472Y0002232775D03*
X0002145472Y0002178641D03*
X0002145472Y0002124507D03*
X0002045472Y0002739665D03*
X0002045472Y0002685531D03*
X0002045472Y0002631397D03*
X0002045472Y0002577263D03*
X0002045472Y0002523129D03*
X0002045472Y0002468996D03*
X0002045472Y0002414862D03*
X0002045472Y0002360728D03*
X0002045472Y0002306594D03*
X0002045472Y0002252460D03*
X0002045472Y0002198326D03*
X0002045472Y0002144192D03*
X0000939960Y0002739665D03*
X0000939960Y0002685531D03*
X0000939960Y0002631397D03*
X0000939960Y0002577263D03*
X0000939960Y0002523129D03*
X0000939960Y0002468996D03*
X0000939960Y0002414862D03*
X0000939960Y0002360728D03*
X0000939960Y0002306594D03*
X0000939960Y0002252460D03*
X0000939960Y0002198326D03*
X0000939960Y0002144192D03*
X0001945472Y0002759350D03*
X0001945472Y0002705216D03*
X0001945472Y0002651082D03*
X0001945472Y0002596948D03*
X0001945472Y0002542814D03*
X0001945472Y0002488681D03*
X0001945472Y0002434547D03*
X0001945472Y0002380413D03*
X0001945472Y0002326279D03*
X0001945472Y0002272145D03*
X0001945472Y0002218011D03*
X0001039960Y0002719980D03*
X0001039960Y0002665846D03*
X0001039960Y0002611712D03*
X0001039960Y0002557578D03*
X0001039960Y0002503444D03*
X0001039960Y0002449311D03*
X0001039960Y0002395177D03*
X0001039960Y0002341043D03*
X0001039960Y0002286909D03*
X0001039960Y0002232775D03*
X0001039960Y0002178641D03*
X0001945472Y0002163877D03*
X0001039960Y0002124507D03*
D25*
X0001214665Y0003094685D03*
X0001214665Y0001989173D03*
X0001268799Y0003094685D03*
X0001322933Y0003094685D03*
X0001377066Y0003094685D03*
X0001431200Y0003094685D03*
X0001485334Y0003094685D03*
X0001539468Y0003094685D03*
X0001593602Y0003094685D03*
X0001647736Y0003094685D03*
X0001701870Y0003094685D03*
X0001756003Y0003094685D03*
X0001810137Y0003094685D03*
X0001268799Y0001989173D03*
X0001322933Y0001989173D03*
X0001377066Y0001989173D03*
X0001539468Y0001989173D03*
X0001593602Y0001989173D03*
X0001647736Y0001989173D03*
X0001701870Y0001989173D03*
X0001756003Y0001989173D03*
X0001810137Y0001989173D03*
X0001194980Y0002994685D03*
X0001249114Y0002994685D03*
X0001303248Y0002994685D03*
X0001357381Y0002994685D03*
X0001411515Y0002994685D03*
X0001465649Y0002994685D03*
X0001519783Y0002994685D03*
X0001573917Y0002994685D03*
X0001628051Y0002994685D03*
X0001682185Y0002994685D03*
X0001736318Y0002994685D03*
X0001790452Y0002994685D03*
X0001194980Y0001889173D03*
X0001249114Y0001889173D03*
X0001303248Y0001889173D03*
X0001357381Y0001889173D03*
X0001411515Y0001889173D03*
X0001465649Y0001889173D03*
X0001519783Y0001889173D03*
X0001573917Y0001889173D03*
X0001628051Y0001889173D03*
X0001682185Y0001889173D03*
X0001736318Y0001889173D03*
X0001790452Y0001889173D03*
X0001175295Y0001789173D03*
X0001229429Y0001789173D03*
X0001283562Y0001789173D03*
X0001337696Y0001789173D03*
X0001391830Y0001789173D03*
X0001445964Y0001789173D03*
X0001500098Y0001789173D03*
X0001554232Y0001789173D03*
X0001608366Y0001789173D03*
X0001662500Y0001789173D03*
X0001716633Y0001789173D03*
X0001770767Y0001789173D03*
X0001175295Y0002894685D03*
X0001229429Y0002894685D03*
X0001283562Y0002894685D03*
X0001337696Y0002894685D03*
X0001391830Y0002894685D03*
X0001445964Y0002894685D03*
X0001500098Y0002894685D03*
X0001554232Y0002894685D03*
X0001608366Y0002894685D03*
X0001662500Y0002894685D03*
X0001716633Y0002894685D03*
X0001770767Y0002894685D03*
D27*
X0002122637Y0003071850D03*
X0002122637Y0001812007D03*
X0000862795Y0001812007D03*
X0000862795Y0003071850D03*
D28*
X0000341338Y0003294881D03*
D29*
X0000241338Y0003294881D03*
X0000341338Y0003194881D03*
X0000241338Y0003194881D03*
X0000341338Y0003094881D03*
X0000241338Y0003094881D03*
X0000341338Y0002994881D03*
X0000241338Y0002994881D03*
X0000341338Y0002894881D03*
X0000241338Y0002894881D03*
X0000341338Y0002794881D03*
X0000241338Y0002794881D03*
X0000341338Y0002694881D03*
X0000241338Y0002694881D03*
X0000341338Y0002594881D03*
X0000241338Y0002594881D03*
X0000341338Y0002494881D03*
X0000241338Y0002494881D03*
X0000341338Y0002394881D03*
X0000241338Y0002394881D03*
X0000341338Y0002294881D03*
X0000241338Y0002294881D03*
X0000341338Y0002194881D03*
X0000241338Y0002194881D03*
X0000341338Y0002094881D03*
X0000241338Y0002094881D03*
X0000341338Y0001994881D03*
X0000241338Y0001994881D03*
X0000341338Y0001894881D03*
X0000241338Y0001894881D03*
X0000341338Y0001794881D03*
X0000241338Y0001794881D03*
X0000341338Y0001694881D03*
X0000241338Y0001694881D03*
X0000341338Y0001594881D03*
X0000241338Y0001594881D03*
D30*
X0000640551Y0001288582D03*
X0000640551Y0001188582D03*
D29*
X0000740551Y0001288582D03*
X0000740551Y0001188582D03*
X0000840551Y0001288582D03*
X0000840551Y0001188582D03*
X0000940551Y0001288582D03*
X0000940551Y0001188582D03*
X0001040551Y0001288582D03*
X0001040551Y0001188582D03*
X0001140551Y0001288582D03*
X0001140551Y0001188582D03*
X0001240551Y0001288582D03*
X0001240551Y0001188582D03*
X0001340551Y0001288582D03*
X0001340551Y0001188582D03*
X0001440551Y0001288582D03*
X0001440551Y0001188582D03*
X0001540551Y0001288582D03*
X0001540551Y0001188582D03*
X0001640551Y0001288582D03*
X0001640551Y0001188582D03*
X0001740551Y0001288582D03*
X0001740551Y0001188582D03*
X0001840551Y0001288582D03*
X0001840551Y0001188582D03*
X0001940551Y0001288582D03*
X0001940551Y0001188582D03*
X0002040551Y0001288582D03*
X0002040551Y0001188582D03*
X0002140551Y0001288582D03*
X0002140551Y0001188582D03*
X0002240551Y0001288582D03*
X0002240551Y0001188582D03*
X0002340551Y0001288582D03*
X0002340551Y0001188582D03*
D30*
X0002744094Y0003289763D03*
X0002644094Y0003289763D03*
D29*
X0002744094Y0003189763D03*
X0002644094Y0003189763D03*
X0002744094Y0003089763D03*
X0002644094Y0003089763D03*
X0002744094Y0002989763D03*
X0002644094Y0002989763D03*
X0002744094Y0002889763D03*
X0002644094Y0002889763D03*
X0002744094Y0002789763D03*
X0002644094Y0002789763D03*
X0002744094Y0002689763D03*
X0002644094Y0002689763D03*
X0002744094Y0002589763D03*
X0002644094Y0002589763D03*
X0002744094Y0002489763D03*
X0002644094Y0002489763D03*
X0002744094Y0002389763D03*
X0002644094Y0002389763D03*
X0002744094Y0002289763D03*
X0002644094Y0002289763D03*
X0002744094Y0002189763D03*
X0002644094Y0002189763D03*
X0002744094Y0002089763D03*
X0002644094Y0002089763D03*
X0002744094Y0001989763D03*
X0002644094Y0001989763D03*
X0002744094Y0001889763D03*
X0002644094Y0001889763D03*
X0002744094Y0001789763D03*
X0002644094Y0001789763D03*
X0002744094Y0001689763D03*
X0002644094Y0001689763D03*
X0002744094Y0001589763D03*
X0002644094Y0001589763D03*
D30*
X0002340551Y0003593307D03*
X0002340551Y0003693307D03*
D29*
X0002240551Y0003593307D03*
X0002240551Y0003693307D03*
X0002140551Y0003593307D03*
X0002140551Y0003693307D03*
X0002040551Y0003593307D03*
X0002040551Y0003693307D03*
X0001940551Y0003593307D03*
X0001940551Y0003693307D03*
X0001840551Y0003593307D03*
X0001840551Y0003693307D03*
X0001740551Y0003593307D03*
X0001740551Y0003693307D03*
X0001640551Y0003593307D03*
X0001640551Y0003693307D03*
X0001540551Y0003593307D03*
X0001540551Y0003693307D03*
X0001440551Y0003593307D03*
X0001440551Y0003693307D03*
X0001340551Y0003593307D03*
X0001340551Y0003693307D03*
X0001240551Y0003593307D03*
X0001240551Y0003693307D03*
X0001140551Y0003593307D03*
X0001140551Y0003693307D03*
X0001040551Y0003593307D03*
X0001040551Y0003693307D03*
X0000940551Y0003593307D03*
X0000940551Y0003693307D03*
X0000840551Y0003593307D03*
X0000840551Y0003693307D03*
X0000740551Y0003593307D03*
X0000740551Y0003693307D03*
X0000640551Y0003593307D03*
X0000640551Y0003693307D03*
G04 next file*
G04 Gerber Fmt 4.6, Leading zero omitted, Abs format (unit mm)*
G04 Created by KiCad (PCBNEW 4.0.7) date 11/27/17 18:36:53*
G01G01*
G04 APERTURE LIST*
G04 APERTURE END LIST*
D31*
D32*
X0003464566Y0000944881D02*
X0003744000Y0000138220D03*
X0003657385Y0000138220D03*
X0003744000Y0000238220D03*
X0003657385Y0000238220D03*
X0003744000Y0000338220D03*
X0003657385Y0000338220D03*
X0003744000Y0000438220D03*
X0003657385Y0000438220D03*
X0003744000Y0000538220D03*
X0003657385Y0000538220D03*
X0003744000Y0000638220D03*
X0003657385Y0000638220D03*
X0003744000Y0000738220D03*
X0003657385Y0000738220D03*
X0003744000Y0000838220D03*
X0003657385Y0000838220D03*
D33*
X0003858173Y0000838220D03*
D34*
X0003858173Y0000738220D03*
X0003858173Y0000638220D03*
X0003858173Y0000538220D03*
X0003858173Y0000438220D03*
X0003858173Y0000338220D03*
X0003858173Y0000238220D03*
X0003858173Y0000138220D03*
D33*
X0003543212Y0000838220D03*
D34*
X0003543212Y0000738220D03*
X0003543212Y0000638220D03*
X0003543212Y0000538220D03*
X0003543212Y0000438220D03*
X0003543212Y0000338220D03*
X0003543212Y0000238220D03*
X0003543212Y0000138220D03*
G04 next file*
G04 Gerber Fmt 4.6, Leading zero omitted, Abs format (unit mm)*
G04 Created by KiCad (PCBNEW 4.0.7) date 11/27/17 18:36:53*
G01G01*
G04 APERTURE LIST*
G04 APERTURE END LIST*
D35*
D36*
X0002519685Y0000944881D02*
X0002799118Y0000138220D03*
X0002712503Y0000138220D03*
X0002799118Y0000238220D03*
X0002712503Y0000238220D03*
X0002799118Y0000338220D03*
X0002712503Y0000338220D03*
X0002799118Y0000438220D03*
X0002712503Y0000438220D03*
X0002799118Y0000538220D03*
X0002712503Y0000538220D03*
X0002799118Y0000638220D03*
X0002712503Y0000638220D03*
X0002799118Y0000738220D03*
X0002712503Y0000738220D03*
X0002799118Y0000838220D03*
X0002712503Y0000838220D03*
D37*
X0002913291Y0000838220D03*
D38*
X0002913291Y0000738220D03*
X0002913291Y0000638220D03*
X0002913291Y0000538220D03*
X0002913291Y0000438220D03*
X0002913291Y0000338220D03*
X0002913291Y0000238220D03*
X0002913291Y0000138220D03*
D37*
X0002598330Y0000838220D03*
D38*
X0002598330Y0000738220D03*
X0002598330Y0000638220D03*
X0002598330Y0000538220D03*
X0002598330Y0000438220D03*
X0002598330Y0000338220D03*
X0002598330Y0000238220D03*
X0002598330Y0000138220D03*
G04 next file*
G04 Gerber Fmt 4.6, Leading zero omitted, Abs format (unit mm)*
G04 Created by KiCad (PCBNEW 4.0.7) date 11/27/17 18:36:53*
G01G01*
G04 APERTURE LIST*
G04 APERTURE END LIST*
D39*
D40*
X0002047244Y0000944881D02*
X0002326677Y0000138220D03*
X0002240062Y0000138220D03*
X0002326677Y0000238220D03*
X0002240062Y0000238220D03*
X0002326677Y0000338220D03*
X0002240062Y0000338220D03*
X0002326677Y0000438220D03*
X0002240062Y0000438220D03*
X0002326677Y0000538220D03*
X0002240062Y0000538220D03*
X0002326677Y0000638220D03*
X0002240062Y0000638220D03*
X0002326677Y0000738220D03*
X0002240062Y0000738220D03*
X0002326677Y0000838220D03*
X0002240062Y0000838220D03*
D41*
X0002440850Y0000838220D03*
D42*
X0002440850Y0000738220D03*
X0002440850Y0000638220D03*
X0002440850Y0000538220D03*
X0002440850Y0000438220D03*
X0002440850Y0000338220D03*
X0002440850Y0000238220D03*
X0002440850Y0000138220D03*
D41*
X0002125889Y0000838220D03*
D42*
X0002125889Y0000738220D03*
X0002125889Y0000638220D03*
X0002125889Y0000538220D03*
X0002125889Y0000438220D03*
X0002125889Y0000338220D03*
X0002125889Y0000238220D03*
X0002125889Y0000138220D03*
G04 next file*
G04 Gerber Fmt 4.6, Leading zero omitted, Abs format (unit mm)*
G04 Created by KiCad (PCBNEW 4.0.7) date 11/27/17 18:36:53*
G01G01*
G04 APERTURE LIST*
G04 APERTURE END LIST*
D43*
D44*
X0001574803Y0000944881D02*
X0001854236Y0000138220D03*
X0001767622Y0000138220D03*
X0001854236Y0000238220D03*
X0001767622Y0000238220D03*
X0001854236Y0000338220D03*
X0001767622Y0000338220D03*
X0001854236Y0000438220D03*
X0001767622Y0000438220D03*
X0001854236Y0000538220D03*
X0001767622Y0000538220D03*
X0001854236Y0000638220D03*
X0001767622Y0000638220D03*
X0001854236Y0000738220D03*
X0001767622Y0000738220D03*
X0001854236Y0000838220D03*
X0001767622Y0000838220D03*
D45*
X0001968409Y0000838220D03*
D46*
X0001968409Y0000738220D03*
X0001968409Y0000638220D03*
X0001968409Y0000538220D03*
X0001968409Y0000438220D03*
X0001968409Y0000338220D03*
X0001968409Y0000238220D03*
X0001968409Y0000138220D03*
D45*
X0001653448Y0000838220D03*
D46*
X0001653448Y0000738220D03*
X0001653448Y0000638220D03*
X0001653448Y0000538220D03*
X0001653448Y0000438220D03*
X0001653448Y0000338220D03*
X0001653448Y0000238220D03*
X0001653448Y0000138220D03*
G04 next file*
G04 Gerber Fmt 4.6, Leading zero omitted, Abs format (unit mm)*
G04 Created by KiCad (PCBNEW 4.0.7) date 11/27/17 18:36:53*
G01G01*
G04 APERTURE LIST*
G04 APERTURE END LIST*
D47*
D48*
X0001102362Y0000944881D02*
X0001381795Y0000138220D03*
X0001295181Y0000138220D03*
X0001381795Y0000238220D03*
X0001295181Y0000238220D03*
X0001381795Y0000338220D03*
X0001295181Y0000338220D03*
X0001381795Y0000438220D03*
X0001295181Y0000438220D03*
X0001381795Y0000538220D03*
X0001295181Y0000538220D03*
X0001381795Y0000638220D03*
X0001295181Y0000638220D03*
X0001381795Y0000738220D03*
X0001295181Y0000738220D03*
X0001381795Y0000838220D03*
X0001295181Y0000838220D03*
D49*
X0001495968Y0000838220D03*
D50*
X0001495968Y0000738220D03*
X0001495968Y0000638220D03*
X0001495968Y0000538220D03*
X0001495968Y0000438220D03*
X0001495968Y0000338220D03*
X0001495968Y0000238220D03*
X0001495968Y0000138220D03*
D49*
X0001181007Y0000838220D03*
D50*
X0001181007Y0000738220D03*
X0001181007Y0000638220D03*
X0001181007Y0000538220D03*
X0001181007Y0000438220D03*
X0001181007Y0000338220D03*
X0001181007Y0000238220D03*
X0001181007Y0000138220D03*
G04 next file*
G04 Gerber Fmt 4.6, Leading zero omitted, Abs format (unit mm)*
G04 Created by KiCad (PCBNEW 4.0.7) date 11/27/17 18:36:53*
G01G01*
G04 APERTURE LIST*
G04 APERTURE END LIST*
D51*
D52*
X0000629921Y0000944881D02*
X0000909354Y0000138220D03*
X0000822740Y0000138220D03*
X0000909354Y0000238220D03*
X0000822740Y0000238220D03*
X0000909354Y0000338220D03*
X0000822740Y0000338220D03*
X0000909354Y0000438220D03*
X0000822740Y0000438220D03*
X0000909354Y0000538220D03*
X0000822740Y0000538220D03*
X0000909354Y0000638220D03*
X0000822740Y0000638220D03*
X0000909354Y0000738220D03*
X0000822740Y0000738220D03*
X0000909354Y0000838220D03*
X0000822740Y0000838220D03*
D53*
X0001023527Y0000838220D03*
D54*
X0001023527Y0000738220D03*
X0001023527Y0000638220D03*
X0001023527Y0000538220D03*
X0001023527Y0000438220D03*
X0001023527Y0000338220D03*
X0001023527Y0000238220D03*
X0001023527Y0000138220D03*
D53*
X0000708566Y0000838220D03*
D54*
X0000708566Y0000738220D03*
X0000708566Y0000638220D03*
X0000708566Y0000538220D03*
X0000708566Y0000438220D03*
X0000708566Y0000338220D03*
X0000708566Y0000238220D03*
X0000708566Y0000138220D03*
G04 next file*
G04 Gerber Fmt 4.6, Leading zero omitted, Abs format (unit mm)*
G04 Created by KiCad (PCBNEW 4.0.7) date 11/27/17 18:36:53*
G01G01*
G04 APERTURE LIST*
G04 APERTURE END LIST*
D55*
D56*
X0000157480Y0000944881D02*
X0000436913Y0000138220D03*
X0000350299Y0000138220D03*
X0000436913Y0000238220D03*
X0000350299Y0000238220D03*
X0000436913Y0000338220D03*
X0000350299Y0000338220D03*
X0000436913Y0000438220D03*
X0000350299Y0000438220D03*
X0000436913Y0000538220D03*
X0000350299Y0000538220D03*
X0000436913Y0000638220D03*
X0000350299Y0000638220D03*
X0000436913Y0000738220D03*
X0000350299Y0000738220D03*
X0000436913Y0000838220D03*
X0000350299Y0000838220D03*
D57*
X0000551086Y0000838220D03*
D58*
X0000551086Y0000738220D03*
X0000551086Y0000638220D03*
X0000551086Y0000538220D03*
X0000551086Y0000438220D03*
X0000551086Y0000338220D03*
X0000551086Y0000238220D03*
X0000551086Y0000138220D03*
D57*
X0000236125Y0000838220D03*
D58*
X0000236125Y0000738220D03*
X0000236125Y0000638220D03*
X0000236125Y0000538220D03*
X0000236125Y0000438220D03*
X0000236125Y0000338220D03*
X0000236125Y0000238220D03*
X0000236125Y0000138220D03*
G04 next file*
G04 Gerber Fmt 4.6, Leading zero omitted, Abs format (unit mm)*
G04 Created by KiCad (PCBNEW 4.0.7) date 11/27/17 18:36:53*
G01G01*
G04 APERTURE LIST*
G04 APERTURE END LIST*
D59*
D60*
X0002992125Y0001858267D02*
X0003271559Y0001051606D03*
X0003184944Y0001051606D03*
X0003271559Y0001151606D03*
X0003184944Y0001151606D03*
X0003271559Y0001251606D03*
X0003184944Y0001251606D03*
X0003271559Y0001351606D03*
X0003184944Y0001351606D03*
X0003271559Y0001451606D03*
X0003184944Y0001451606D03*
X0003271559Y0001551606D03*
X0003184944Y0001551606D03*
X0003271559Y0001651606D03*
X0003184944Y0001651606D03*
X0003271559Y0001751606D03*
X0003184944Y0001751606D03*
D61*
X0003385732Y0001751606D03*
D62*
X0003385732Y0001651606D03*
X0003385732Y0001551606D03*
X0003385732Y0001451606D03*
X0003385732Y0001351606D03*
X0003385732Y0001251606D03*
X0003385732Y0001151606D03*
X0003385732Y0001051606D03*
D61*
X0003070771Y0001751606D03*
D62*
X0003070771Y0001651606D03*
X0003070771Y0001551606D03*
X0003070771Y0001451606D03*
X0003070771Y0001351606D03*
X0003070771Y0001251606D03*
X0003070771Y0001151606D03*
X0003070771Y0001051606D03*
G04 next file*
G04 Gerber Fmt 4.6, Leading zero omitted, Abs format (unit mm)*
G04 Created by KiCad (PCBNEW 4.0.7) date 11/27/17 18:36:53*
G01G01*
G04 APERTURE LIST*
G04 APERTURE END LIST*
D63*
D64*
X0003464566Y0001858267D02*
X0003744000Y0001051606D03*
X0003657385Y0001051606D03*
X0003744000Y0001151606D03*
X0003657385Y0001151606D03*
X0003744000Y0001251606D03*
X0003657385Y0001251606D03*
X0003744000Y0001351606D03*
X0003657385Y0001351606D03*
X0003744000Y0001451606D03*
X0003657385Y0001451606D03*
X0003744000Y0001551606D03*
X0003657385Y0001551606D03*
X0003744000Y0001651606D03*
X0003657385Y0001651606D03*
X0003744000Y0001751606D03*
X0003657385Y0001751606D03*
D65*
X0003858173Y0001751606D03*
D66*
X0003858173Y0001651606D03*
X0003858173Y0001551606D03*
X0003858173Y0001451606D03*
X0003858173Y0001351606D03*
X0003858173Y0001251606D03*
X0003858173Y0001151606D03*
X0003858173Y0001051606D03*
D65*
X0003543212Y0001751606D03*
D66*
X0003543212Y0001651606D03*
X0003543212Y0001551606D03*
X0003543212Y0001451606D03*
X0003543212Y0001351606D03*
X0003543212Y0001251606D03*
X0003543212Y0001151606D03*
X0003543212Y0001051606D03*
G04 next file*
G04 Gerber Fmt 4.6, Leading zero omitted, Abs format (unit mm)*
G04 Created by KiCad (PCBNEW 4.0.7) date 11/27/17 18:36:53*
G01G01*
G04 APERTURE LIST*
G04 APERTURE END LIST*
D67*
D68*
X0002992125Y0002771653D02*
X0003271559Y0001964992D03*
X0003184944Y0001964992D03*
X0003271559Y0002064992D03*
X0003184944Y0002064992D03*
X0003271559Y0002164992D03*
X0003184944Y0002164992D03*
X0003271559Y0002264992D03*
X0003184944Y0002264992D03*
X0003271559Y0002364992D03*
X0003184944Y0002364992D03*
X0003271559Y0002464992D03*
X0003184944Y0002464992D03*
X0003271559Y0002564992D03*
X0003184944Y0002564992D03*
X0003271559Y0002664992D03*
X0003184944Y0002664992D03*
D69*
X0003385732Y0002664992D03*
D70*
X0003385732Y0002564992D03*
X0003385732Y0002464992D03*
X0003385732Y0002364992D03*
X0003385732Y0002264992D03*
X0003385732Y0002164992D03*
X0003385732Y0002064992D03*
X0003385732Y0001964992D03*
D69*
X0003070771Y0002664992D03*
D70*
X0003070771Y0002564992D03*
X0003070771Y0002464992D03*
X0003070771Y0002364992D03*
X0003070771Y0002264992D03*
X0003070771Y0002164992D03*
X0003070771Y0002064992D03*
X0003070771Y0001964992D03*
G04 next file*
G04 Gerber Fmt 4.6, Leading zero omitted, Abs format (unit mm)*
G04 Created by KiCad (PCBNEW 4.0.7) date 11/27/17 18:36:53*
G01G01*
G04 APERTURE LIST*
G04 APERTURE END LIST*
D71*
D72*
X0003464566Y0002771653D02*
X0003744000Y0001964992D03*
X0003657385Y0001964992D03*
X0003744000Y0002064992D03*
X0003657385Y0002064992D03*
X0003744000Y0002164992D03*
X0003657385Y0002164992D03*
X0003744000Y0002264992D03*
X0003657385Y0002264992D03*
X0003744000Y0002364992D03*
X0003657385Y0002364992D03*
X0003744000Y0002464992D03*
X0003657385Y0002464992D03*
X0003744000Y0002564992D03*
X0003657385Y0002564992D03*
X0003744000Y0002664992D03*
X0003657385Y0002664992D03*
D73*
X0003858173Y0002664992D03*
D74*
X0003858173Y0002564992D03*
X0003858173Y0002464992D03*
X0003858173Y0002364992D03*
X0003858173Y0002264992D03*
X0003858173Y0002164992D03*
X0003858173Y0002064992D03*
X0003858173Y0001964992D03*
D73*
X0003543212Y0002664992D03*
D74*
X0003543212Y0002564992D03*
X0003543212Y0002464992D03*
X0003543212Y0002364992D03*
X0003543212Y0002264992D03*
X0003543212Y0002164992D03*
X0003543212Y0002064992D03*
X0003543212Y0001964992D03*
G04 next file*
G04 Gerber Fmt 4.6, Leading zero omitted, Abs format (unit mm)*
G04 Created by KiCad (PCBNEW 4.0.7) date 11/27/17 18:36:53*
G01G01*
G04 APERTURE LIST*
G04 APERTURE END LIST*
D75*
D76*
X0002992125Y0003685039D02*
X0003271559Y0002878377D03*
X0003184944Y0002878377D03*
X0003271559Y0002978377D03*
X0003184944Y0002978377D03*
X0003271559Y0003078377D03*
X0003184944Y0003078377D03*
X0003271559Y0003178377D03*
X0003184944Y0003178377D03*
X0003271559Y0003278377D03*
X0003184944Y0003278377D03*
X0003271559Y0003378377D03*
X0003184944Y0003378377D03*
X0003271559Y0003478377D03*
X0003184944Y0003478377D03*
X0003271559Y0003578377D03*
X0003184944Y0003578377D03*
D77*
X0003385732Y0003578377D03*
D78*
X0003385732Y0003478377D03*
X0003385732Y0003378377D03*
X0003385732Y0003278377D03*
X0003385732Y0003178377D03*
X0003385732Y0003078377D03*
X0003385732Y0002978377D03*
X0003385732Y0002878377D03*
D77*
X0003070771Y0003578377D03*
D78*
X0003070771Y0003478377D03*
X0003070771Y0003378377D03*
X0003070771Y0003278377D03*
X0003070771Y0003178377D03*
X0003070771Y0003078377D03*
X0003070771Y0002978377D03*
X0003070771Y0002878377D03*
G04 next file*
G04 Gerber Fmt 4.6, Leading zero omitted, Abs format (unit mm)*
G04 Created by KiCad (PCBNEW 4.0.7) date 11/27/17 18:36:53*
G01G01*
G04 APERTURE LIST*
G04 APERTURE END LIST*
D79*
D80*
X0003464566Y0003685039D02*
X0003744000Y0002878377D03*
X0003657385Y0002878377D03*
X0003744000Y0002978377D03*
X0003657385Y0002978377D03*
X0003744000Y0003078377D03*
X0003657385Y0003078377D03*
X0003744000Y0003178377D03*
X0003657385Y0003178377D03*
X0003744000Y0003278377D03*
X0003657385Y0003278377D03*
X0003744000Y0003378377D03*
X0003657385Y0003378377D03*
X0003744000Y0003478377D03*
X0003657385Y0003478377D03*
X0003744000Y0003578377D03*
X0003657385Y0003578377D03*
D81*
X0003858173Y0003578377D03*
D82*
X0003858173Y0003478377D03*
X0003858173Y0003378377D03*
X0003858173Y0003278377D03*
X0003858173Y0003178377D03*
X0003858173Y0003078377D03*
X0003858173Y0002978377D03*
X0003858173Y0002878377D03*
D81*
X0003543212Y0003578377D03*
D82*
X0003543212Y0003478377D03*
X0003543212Y0003378377D03*
X0003543212Y0003278377D03*
X0003543212Y0003178377D03*
X0003543212Y0003078377D03*
X0003543212Y0002978377D03*
X0003543212Y0002878377D03*
M02*