%
M48
METRIC,000.000
T01C3.20
T10C0.50
T11C0.76
T12C1.00
T13C0.30
%
T01
X021315Y078675
X021315Y046675
X053315Y078675
X053315Y046675
T10
X020735Y070738
X020735Y069363
X020735Y067988
X020735Y066613
X020735Y065238
X020735Y063863
X020735Y062488
X020735Y061113
X020735Y059738
X020735Y058363
X020735Y056988
X020735Y055613
X023275Y070238
X023275Y068863
X023275Y067488
X023275Y066113
X023275Y064738
X023275Y063363
X023275Y061988
X023275Y060613
X023275Y059238
X023275Y057863
X023275Y056488
X023275Y055113
X025815Y069738
X025815Y068363
X025815Y066988
X025815Y065613
X025815Y064238
X025815Y062863
X025815Y061488
X025815Y060113
X025815Y058738
X025815Y057363
X025815Y055988
X025815Y054613
X029253Y074175
X029253Y046095
X029753Y076715
X029753Y048635
X030253Y079255
X030253Y051175
X030628Y074175
X030628Y046095
X031128Y076715
X031128Y048635
X031628Y079255
X031628Y051175
X032003Y074175
X032003Y046095
X032503Y076715
X032503Y048635
X033003Y079255
X033003Y051175
X033378Y074175
X033378Y046095
X033878Y076715
X033878Y048635
X034378Y079255
X034378Y051175
X034753Y074175
X034753Y046095
X035253Y076715
X035253Y048635
X035753Y079255
X035753Y051175
X036128Y074175
X036128Y046095
X036628Y076715
X036628Y048635
X037128Y079255
X037128Y051175
X037503Y074175
X037503Y046095
X038003Y076715
X038003Y048635
X038503Y079255
X038503Y051175
X038878Y074175
X038878Y046095
X039378Y076715
X039378Y048635
X039878Y079255
X039878Y051175
X040253Y074175
X040253Y046095
X040753Y076715
X040753Y048635
X041253Y079255
X041253Y051175
X041628Y074175
X041628Y046095
X042128Y076715
X042128Y048635
X042628Y079255
X042628Y051175
X043003Y074175
X043003Y046095
X043503Y076715
X043503Y048635
X044003Y079255
X044003Y051175
X044378Y074175
X044378Y046095
X044878Y076715
X044878Y048635
X045378Y079255
X045378Y051175
X048815Y070738
X048815Y069363
X048815Y067988
X048815Y066613
X048815Y065238
X048815Y063863
X048815Y062488
X048815Y061113
X048815Y059738
X048815Y058363
X048815Y056988
X048815Y055613
X051355Y070238
X051355Y068863
X051355Y067488
X051355Y066113
X051355Y064738
X051355Y063363
X051355Y061988
X051355Y060613
X051355Y059238
X051355Y057863
X051355Y056488
X051355Y055113
X053895Y069738
X053895Y068363
X053895Y066988
X053895Y065613
X053895Y064238
X053895Y062863
X053895Y061488
X053895Y060113
X053895Y058738
X053895Y057363
X053895Y055988
X053895Y054613
T11
X015670Y030840
X058850Y094460
X066560Y084210
T12
X005530Y084340
X005530Y081800
X005530Y079260
X005530Y076720
X005530Y074180
X005530Y071640
X005530Y069100
X005530Y066560
X005530Y064019
X005530Y061480
X005530Y058940
X005530Y056400
X005530Y053860
X005530Y051320
X005530Y048780
X005530Y046240
X005530Y043700
X005530Y041160
X008070Y084340
X008070Y081800
X008070Y079260
X008070Y076720
X008070Y074180
X008070Y071640
X008070Y069100
X008070Y066560
X008070Y064019
X008070Y061480
X008070Y058940
X008070Y056400
X008070Y053860
X008070Y051320
X008070Y048780
X008070Y046240
X008070Y043700
X008070Y041160
X015670Y094460
X015670Y091920
X015670Y033379
X018210Y094460
X018210Y091920
X018210Y033379
X018210Y030840
X020750Y094460
X020750Y091920
X020750Y033379
X020750Y030840
X023290Y094460
X023290Y091920
X023290Y033379
X023290Y030840
X025830Y094460
X025830Y091920
X025830Y033379
X025830Y030840
X028370Y094460
X028370Y091920
X028370Y033379
X028370Y030840
X030910Y094460
X030910Y091920
X030910Y033379
X030910Y030840
X033450Y094460
X033450Y091920
X033450Y033379
X033450Y030840
X035990Y094460
X035990Y091920
X035990Y033379
X035990Y030840
X038530Y094460
X038530Y091920
X038530Y033379
X038530Y030840
X041070Y094460
X041070Y091920
X041070Y033379
X041070Y030840
X043610Y094460
X043610Y091920
X043610Y033379
X043610Y030840
X046150Y094460
X046150Y091920
X046150Y033379
X046150Y030840
X048690Y094460
X048690Y091920
X048690Y033379
X048690Y030840
X051230Y094460
X051230Y091920
X051230Y033379
X051230Y030840
X053770Y094460
X053770Y091920
X053770Y033379
X053770Y030840
X056310Y094460
X056310Y091920
X056310Y033379
X056310Y030840
X058850Y091920
X058850Y033379
X058850Y030840
X066560Y081670
X066560Y079130
X066560Y076590
X066560Y074050
X066560Y071510
X066560Y068970
X066560Y066430
X066560Y063890
X066560Y061350
X066560Y058810
X066560Y056270
X066560Y053730
X066560Y051190
X066560Y048650
X066560Y046110
X066560Y043570
X066560Y041030
X069100Y084210
X069100Y081670
X069100Y079130
X069100Y076590
X069100Y074050
X069100Y071510
X069100Y068970
X069100Y066430
X069100Y063890
X069100Y061350
X069100Y058810
X069100Y056270
X069100Y053730
X069100Y051190
X069100Y048650
X069100Y046110
X069100Y043570
X069100Y041030
X077998Y021291
X077998Y018751
X077998Y016210
X077998Y013671
X077998Y011131
X077998Y008591
X077998Y006050
X077998Y003510
X085998Y021291
X085998Y018751
X085998Y016210
X085998Y013671
X085998Y011131
X085998Y008591
X085998Y006050
X085998Y003510
X089998Y021291
X089998Y018751
X089998Y016210
X089998Y013671
X089998Y011131
X089998Y008591
X089998Y006050
X089998Y003510
X097998Y021291
X097998Y018751
X097998Y016210
X097998Y013671
X097998Y011131
X097998Y008591
X097998Y006050
X097998Y003510
X077998Y044491
X077998Y041951
X077998Y039411
X077998Y036871
X077998Y034331
X077998Y031791
X077998Y029251
X077998Y026711
X085998Y044491
X085998Y041951
X085998Y039411
X085998Y036871
X085998Y034331
X085998Y031791
X085998Y029251
X085998Y026711
X065998Y021291
X065998Y018751
X065998Y016210
X065998Y013671
X065998Y011131
X065998Y008591
X065998Y006050
X065998Y003510
X073998Y021291
X073998Y018751
X073998Y016210
X073998Y013671
X073998Y011131
X073998Y008591
X073998Y006050
X073998Y003510
X053998Y021291
X053998Y018751
X053998Y016210
X053998Y013671
X053998Y011131
X053998Y008591
X053998Y006050
X053998Y003510
X061998Y021291
X061998Y018751
X061998Y016210
X061998Y013671
X061998Y011131
X061998Y008591
X061998Y006050
X061998Y003510
X041998Y021291
X041998Y018751
X041998Y016210
X041998Y013671
X041998Y011131
X041998Y008591
X041998Y006050
X041998Y003510
X049998Y021291
X049998Y018751
X049998Y016210
X049998Y013671
X049998Y011131
X049998Y008591
X049998Y006050
X049998Y003510
X029998Y021291
X029998Y018751
X029998Y016210
X029998Y013671
X029998Y011131
X029998Y008591
X029998Y006050
X029998Y003510
X037998Y021291
X037998Y018751
X037998Y016210
X037998Y013671
X037998Y011131
X037998Y008591
X037998Y006050
X037998Y003510
X017998Y021291
X017998Y018751
X017998Y016210
X017998Y013671
X017998Y011131
X017998Y008591
X017998Y006050
X017998Y003510
X025997Y021291
X025997Y018751
X025997Y016210
X025997Y013671
X025997Y011131
X025997Y008591
X025997Y006050
X025997Y003510
X005998Y021291
X005998Y018751
X005998Y016210
X005998Y013671
X005998Y011131
X005998Y008591
X005998Y006050
X005998Y003510
X013998Y021291
X013998Y018751
X013998Y016210
X013998Y013671
X013998Y011131
X013998Y008591
X013998Y006050
X013998Y003510
X089998Y044491
X089998Y041951
X089998Y039411
X089998Y036871
X089998Y034331
X089998Y031791
X089998Y029251
X089998Y026711
X097998Y044491
X097998Y041951
X097998Y039411
X097998Y036871
X097998Y034331
X097998Y031791
X097998Y029251
X097998Y026711
X077998Y067691
X077998Y065150
X077998Y062611
X077998Y060071
X077998Y057531
X077998Y054991
X077998Y052451
X077998Y049911
X085998Y067691
X085998Y065150
X085998Y062611
X085998Y060071
X085998Y057531
X085998Y054991
X085998Y052451
X085998Y049911
X089998Y067691
X089998Y065150
X089998Y062611
X089998Y060071
X089998Y057531
X089998Y054991
X089998Y052451
X089998Y049911
X097998Y067691
X097998Y065150
X097998Y062611
X097998Y060071
X097998Y057531
X097998Y054991
X097998Y052451
X097998Y049911
X077998Y090890
X077998Y088350
X077998Y085810
X077998Y083270
X077998Y080730
X077998Y078190
X077998Y075650
X077998Y073110
X085998Y090890
X085998Y088350
X085998Y085810
X085998Y083270
X085998Y080730
X085998Y078190
X085998Y075650
X085998Y073110
X089998Y090890
X089998Y088350
X089998Y085810
X089998Y083270
X089998Y080730
X089998Y078190
X089998Y075650
X089998Y073110
X097998Y090890
X097998Y088350
X097998Y085810
X097998Y083270
X097998Y080730
X097998Y078190
X097998Y075650
X097998Y073110
T13
X081900Y019900
X081950Y022400
X081950Y017350
X081950Y014800
X081950Y012250
X081950Y007149
X081950Y004649
X082000Y009650
X093900Y019900
X093950Y022400
X093950Y017350
X093950Y014800
X093950Y012250
X093950Y007149
X093950Y004649
X094000Y009650
X081900Y043100
X081950Y045600
X081950Y040550
X081950Y038000
X081950Y035450
X081950Y030350
X081950Y027850
X082000Y032850
X069900Y019900
X069950Y022400
X069950Y017350
X069950Y014800
X069950Y012250
X069950Y007149
X069950Y004649
X070000Y009650
X057900Y019900
X057950Y022400
X057950Y017350
X057950Y014800
X057950Y012250
X057950Y007149
X057950Y004649
X058000Y009650
X045900Y019900
X045950Y022400
X045950Y017350
X045950Y014800
X045950Y012250
X045950Y007149
X045950Y004649
X046000Y009650
X033900Y019900
X033950Y022400
X033950Y017350
X033950Y014800
X033950Y012250
X033950Y007149
X033950Y004649
X034000Y009650
X021900Y019900
X021950Y022400
X021950Y017350
X021950Y014800
X021950Y012250
X021950Y007149
X021950Y004649
X022000Y009650
X009900Y019900
X009950Y022400
X009950Y017350
X009950Y014800
X009950Y012250
X009950Y007149
X009950Y004649
X010000Y009650
X093900Y043100
X093950Y045600
X093950Y040550
X093950Y038000
X093950Y035450
X093950Y030350
X093950Y027850
X094000Y032850
X081900Y066300
X081950Y068800
X081950Y063750
X081950Y061200
X081950Y058650
X081950Y053550
X081950Y051050
X082000Y056050
X093900Y066300
X093950Y068800
X093950Y063750
X093950Y061200
X093950Y058650
X093950Y053550
X093950Y051050
X094000Y056050
X081900Y089499
X081950Y091999
X081950Y086949
X081950Y084399
X081950Y081849
X081950Y076749
X081950Y074249
X082000Y079249
X093900Y089499
X093950Y091999
X093950Y086949
X093950Y084399
X093950Y081849
X093950Y076749
X093950Y074249
X094000Y079249
M30