%
M48
METRIC,000.000
T01C0.30
T02C1.00
T10C0.50
T11C0.76
T12C3.20
%
T01
X081900Y019900
X081950Y022400
X081950Y017350
X081950Y014800
X081950Y012250
X081950Y007149
X081950Y004649
X082000Y009650
X093900Y019900
X093950Y022400
X093950Y017350
X093950Y014800
X093950Y012250
X093950Y007149
X093950Y004649
X094000Y009650
X069900Y019900
X069950Y022400
X069950Y017350
X069950Y014800
X069950Y012250
X069950Y007149
X069950Y004649
X070000Y009650
X057900Y019900
X057950Y022400
X057950Y017350
X057950Y014800
X057950Y012250
X057950Y007149
X057950Y004649
X058000Y009650
X045900Y019900
X045950Y022400
X045950Y017350
X045950Y014800
X045950Y012250
X045950Y007149
X045950Y004649
X046000Y009650
X033900Y019900
X033950Y022400
X033950Y017350
X033950Y014800
X033950Y012250
X033950Y007149
X033950Y004649
X034000Y009650
X021900Y019900
X021950Y022400
X021950Y017350
X021950Y014800
X021950Y012250
X021950Y007149
X021950Y004649
X022000Y009650
X009900Y019900
X009950Y022400
X009950Y017350
X009950Y014800
X009950Y012250
X009950Y007149
X009950Y004649
X010000Y009650
X081900Y043100
X081950Y045600
X081950Y040550
X081950Y038000
X081950Y035450
X081950Y030350
X081950Y027850
X082000Y032850
X093900Y043100
X093950Y045600
X093950Y040550
X093950Y038000
X093950Y035450
X093950Y030350
X093950Y027850
X094000Y032850
X081900Y066300
X081950Y068800
X081950Y063750
X081950Y061200
X081950Y058650
X081950Y053550
X081950Y051050
X082000Y056050
X093900Y066300
X093950Y068800
X093950Y063750
X093950Y061200
X093950Y058650
X093950Y053550
X093950Y051050
X094000Y056050
X081900Y089499
X081950Y091999
X081950Y086949
X081950Y084399
X081950Y081849
X081950Y076749
X081950Y074249
X082000Y079249
X093900Y089499
X093950Y091999
X093950Y086949
X093950Y084399
X093950Y081849
X093950Y076749
X093950Y074249
X094000Y079249
T02
X077998Y021291
X077998Y018751
X077998Y016210
X077998Y013671
X077998Y011131
X077998Y008591
X077998Y006050
X077998Y003510
X085998Y021291
X085998Y018751
X085998Y016210
X085998Y013671
X085998Y011131
X085998Y008591
X085998Y006050
X085998Y003510
X006130Y083690
X006130Y081150
X006130Y078610
X006130Y076070
X006130Y073530
X006130Y070990
X006130Y068450
X006130Y065910
X006130Y063370
X006130Y060830
X006130Y058290
X006130Y055750
X006130Y053210
X006130Y050670
X006130Y048130
X006130Y045590
X006130Y043050
X006130Y040510
X008670Y083690
X008670Y081150
X008670Y078610
X008670Y076070
X008670Y073530
X008670Y070990
X008670Y068450
X008670Y065910
X008670Y063370
X008670Y060830
X008670Y058290
X008670Y055750
X008670Y053210
X008670Y050670
X008670Y048130
X008670Y045590
X008670Y043050
X008670Y040510
X016270Y093810
X016270Y091270
X016270Y032729
X018810Y093810
X018810Y091270
X018810Y032729
X018810Y030189
X021350Y093810
X021350Y091270
X021350Y032729
X021350Y030189
X023890Y093810
X023890Y091270
X023890Y032729
X023890Y030189
X026430Y093810
X026430Y091270
X026430Y032729
X026430Y030189
X028970Y093810
X028970Y091270
X028970Y032729
X028970Y030189
X031510Y093810
X031510Y091270
X031510Y032729
X031510Y030189
X034050Y093810
X034050Y091270
X034050Y032729
X034050Y030189
X036590Y093810
X036590Y091270
X036590Y032729
X036590Y030189
X039130Y093810
X039130Y091270
X039130Y032729
X039130Y030189
X041670Y093810
X041670Y091270
X041670Y032729
X041670Y030189
X044210Y093810
X044210Y091270
X044210Y032729
X044210Y030189
X046750Y093810
X046750Y091270
X046750Y032729
X046750Y030189
X049290Y093810
X049290Y091270
X049290Y032729
X049290Y030189
X051830Y093810
X051830Y091270
X051830Y032729
X051830Y030189
X054370Y093810
X054370Y091270
X054370Y032729
X054370Y030189
X056910Y093810
X056910Y091270
X056910Y032729
X056910Y030189
X059450Y091270
X059450Y032729
X059450Y030189
X067160Y081020
X067160Y078480
X067160Y075940
X067160Y073400
X067160Y070860
X067160Y068320
X067160Y065780
X067160Y063240
X067160Y060700
X067160Y058160
X067160Y055620
X067160Y053080
X067160Y050540
X067160Y048000
X067160Y045460
X067160Y042920
X067160Y040380
X069700Y083560
X069700Y081020
X069700Y078480
X069700Y075940
X069700Y073400
X069700Y070860
X069700Y068320
X069700Y065780
X069700Y063240
X069700Y060700
X069700Y058160
X069700Y055620
X069700Y053080
X069700Y050540
X069700Y048000
X069700Y045460
X069700Y042920
X069700Y040380
X089998Y021291
X089998Y018751
X089998Y016210
X089998Y013671
X089998Y011131
X089998Y008591
X089998Y006050
X089998Y003510
X097998Y021291
X097998Y018751
X097998Y016210
X097998Y013671
X097998Y011131
X097998Y008591
X097998Y006050
X097998Y003510
X065998Y021291
X065998Y018751
X065998Y016210
X065998Y013671
X065998Y011131
X065998Y008591
X065998Y006050
X065998Y003510
X073998Y021291
X073998Y018751
X073998Y016210
X073998Y013671
X073998Y011131
X073998Y008591
X073998Y006050
X073998Y003510
X053998Y021291
X053998Y018751
X053998Y016210
X053998Y013671
X053998Y011131
X053998Y008591
X053998Y006050
X053998Y003510
X061998Y021291
X061998Y018751
X061998Y016210
X061998Y013671
X061998Y011131
X061998Y008591
X061998Y006050
X061998Y003510
X041998Y021291
X041998Y018751
X041998Y016210
X041998Y013671
X041998Y011131
X041998Y008591
X041998Y006050
X041998Y003510
X049998Y021291
X049998Y018751
X049998Y016210
X049998Y013671
X049998Y011131
X049998Y008591
X049998Y006050
X049998Y003510
X029998Y021291
X029998Y018751
X029998Y016210
X029998Y013671
X029998Y011131
X029998Y008591
X029998Y006050
X029998Y003510
X037998Y021291
X037998Y018751
X037998Y016210
X037998Y013671
X037998Y011131
X037998Y008591
X037998Y006050
X037998Y003510
X017998Y021291
X017998Y018751
X017998Y016210
X017998Y013671
X017998Y011131
X017998Y008591
X017998Y006050
X017998Y003510
X025997Y021291
X025997Y018751
X025997Y016210
X025997Y013671
X025997Y011131
X025997Y008591
X025997Y006050
X025997Y003510
X005998Y021291
X005998Y018751
X005998Y016210
X005998Y013671
X005998Y011131
X005998Y008591
X005998Y006050
X005998Y003510
X013998Y021291
X013998Y018751
X013998Y016210
X013998Y013671
X013998Y011131
X013998Y008591
X013998Y006050
X013998Y003510
X077998Y044491
X077998Y041951
X077998Y039411
X077998Y036871
X077998Y034331
X077998Y031791
X077998Y029251
X077998Y026711
X085998Y044491
X085998Y041951
X085998Y039411
X085998Y036871
X085998Y034331
X085998Y031791
X085998Y029251
X085998Y026711
X089998Y044491
X089998Y041951
X089998Y039411
X089998Y036871
X089998Y034331
X089998Y031791
X089998Y029251
X089998Y026711
X097998Y044491
X097998Y041951
X097998Y039411
X097998Y036871
X097998Y034331
X097998Y031791
X097998Y029251
X097998Y026711
X077998Y067691
X077998Y065150
X077998Y062611
X077998Y060071
X077998Y057531
X077998Y054991
X077998Y052451
X077998Y049911
X085998Y067691
X085998Y065150
X085998Y062611
X085998Y060071
X085998Y057531
X085998Y054991
X085998Y052451
X085998Y049911
X089998Y067691
X089998Y065150
X089998Y062611
X089998Y060071
X089998Y057531
X089998Y054991
X089998Y052451
X089998Y049911
X097998Y067691
X097998Y065150
X097998Y062611
X097998Y060071
X097998Y057531
X097998Y054991
X097998Y052451
X097998Y049911
X077998Y090890
X077998Y088350
X077998Y085810
X077998Y083270
X077998Y080730
X077998Y078190
X077998Y075650
X077998Y073110
X085998Y090890
X085998Y088350
X085998Y085810
X085998Y083270
X085998Y080730
X085998Y078190
X085998Y075650
X085998Y073110
X089998Y090890
X089998Y088350
X089998Y085810
X089998Y083270
X089998Y080730
X089998Y078190
X089998Y075650
X089998Y073110
X097998Y090890
X097998Y088350
X097998Y085810
X097998Y083270
X097998Y080730
X097998Y078190
X097998Y075650
X097998Y073110
T10
X021335Y070088
X021335Y068713
X021335Y067337
X021335Y065962
X021335Y064587
X021335Y063212
X021335Y061837
X021335Y060462
X021335Y059087
X021335Y057712
X021335Y056337
X021335Y054962
X023875Y069588
X023875Y068213
X023875Y066837
X023875Y065462
X023875Y064087
X023875Y062712
X023875Y061337
X023875Y059962
X023875Y058587
X023875Y057212
X023875Y055837
X023875Y054462
X026415Y069088
X026415Y067712
X026415Y066337
X026415Y064962
X026415Y063587
X026415Y062212
X026415Y060837
X026415Y059462
X026415Y058087
X026415Y056712
X026415Y055337
X026415Y053962
X029853Y073525
X029853Y045445
X030353Y076065
X030353Y047985
X030853Y078605
X030853Y050525
X031228Y073525
X031228Y045445
X031728Y076065
X031728Y047985
X032228Y078605
X032228Y050525
X032603Y073525
X032603Y045445
X033103Y076065
X033103Y047985
X033603Y078605
X033603Y050525
X033978Y073525
X033978Y045445
X034478Y076065
X034478Y047985
X034978Y078605
X034978Y050525
X035353Y073525
X035353Y045445
X035853Y076065
X035853Y047985
X036353Y078605
X036353Y050525
X036728Y073525
X036728Y045445
X037228Y076065
X037228Y047985
X037728Y078605
X037728Y050525
X038103Y073525
X038103Y045445
X038603Y076065
X038603Y047985
X039103Y078605
X039103Y050525
X039478Y073525
X039478Y045445
X039978Y076065
X039978Y047985
X040478Y078605
X040478Y050525
X040853Y073525
X040853Y045445
X041353Y076065
X041353Y047985
X041853Y078605
X041853Y050525
X042228Y073525
X042228Y045445
X042728Y076065
X042728Y047985
X043228Y078605
X043228Y050525
X043603Y073525
X043603Y045445
X044103Y076065
X044103Y047985
X044603Y078605
X044603Y050525
X044978Y073525
X044978Y045445
X045478Y076065
X045478Y047985
X045978Y078605
X045978Y050525
X049415Y070088
X049415Y068713
X049415Y067337
X049415Y065962
X049415Y064587
X049415Y063212
X049415Y061837
X049415Y060462
X049415Y059087
X049415Y057712
X049415Y056337
X049415Y054962
X051955Y069588
X051955Y068213
X051955Y066837
X051955Y065462
X051955Y064087
X051955Y062712
X051955Y061337
X051955Y059962
X051955Y058587
X051955Y057212
X051955Y055837
X051955Y054462
X054495Y069088
X054495Y067712
X054495Y066337
X054495Y064962
X054495Y063587
X054495Y062212
X054495Y060837
X054495Y059462
X054495Y058087
X054495Y056712
X054495Y055337
X054495Y053962
T11
X016270Y030189
X059450Y093810
X067160Y083560
T12
X021915Y078025
X021915Y046025
X053915Y078025
X053915Y046025
M30