%MOIN*%
%OFA0B0*%
%FSLAX46Y46*%
%IPPOS*%
%LPD*%
%ADD10C,0.0039370078740157488*%
%ADD21C,0.0039370078740157488*%
%ADD22R,0.01968503937007874X0.035433070866141732*%
%ADD23C,0.0039370078740157488*%
%ADD24R,0.01968503937007874X0.035433070866141732*%
%ADD25C,0.0039370078740157488*%
%ADD26R,0.01968503937007874X0.035433070866141732*%
%ADD27C,0.0039370078740157488*%
%ADD28R,0.01968503937007874X0.035433070866141732*%
%ADD29C,0.0039370078740157488*%
%ADD30R,0.01968503937007874X0.035433070866141732*%
%ADD31C,0.0039370078740157488*%
%ADD32R,0.01968503937007874X0.035433070866141732*%
%ADD33C,0.0039370078740157488*%
%ADD34R,0.01968503937007874X0.035433070866141732*%
%ADD35C,0.0039370078740157488*%
%ADD36R,0.01968503937007874X0.035433070866141732*%
%ADD37C,0.0039370078740157488*%
%ADD38R,0.01968503937007874X0.035433070866141732*%
%ADD39C,0.0039370078740157488*%
%ADD40R,0.01968503937007874X0.035433070866141732*%
%ADD41C,0.0039370078740157488*%
%ADD42R,0.01968503937007874X0.035433070866141732*%
%ADD43C,0.0039370078740157488*%
%ADD44R,0.01968503937007874X0.035433070866141732*%
%ADD45C,0.0039370078740157488*%
%ADD46R,0.01968503937007874X0.035433070866141732*%
%ADD47C,0.0039370078740157488*%
%ADD48R,0.01968503937007874X0.035433070866141732*%
G01G01*
D10*
G04 next file*
G04 Gerber Fmt 4.6, Leading zero omitted, Abs format (unit mm)*
G04 Created by KiCad (PCBNEW 4.0.7) date 11/22/17 20:28:19*
G01G01*
G04 APERTURE LIST*
G04 APERTURE END LIST*
D21*
D22*
X0002992125Y0000944881D02*
X0003198724Y0000838220D03*
X0003257779Y0000838220D03*
X0003198724Y0000738220D03*
X0003257779Y0000738220D03*
X0003198724Y0000638220D03*
X0003257779Y0000638220D03*
X0003198724Y0000538220D03*
X0003257779Y0000538220D03*
X0003198724Y0000438220D03*
X0003257779Y0000438220D03*
X0003198724Y0000338220D03*
X0003257779Y0000338220D03*
X0003198724Y0000238220D03*
X0003257779Y0000238220D03*
X0003198724Y0000138220D03*
X0003257779Y0000138220D03*
G04 next file*
G04 Gerber Fmt 4.6, Leading zero omitted, Abs format (unit mm)*
G04 Created by KiCad (PCBNEW 4.0.7) date 11/22/17 20:28:19*
G01G01*
G04 APERTURE LIST*
G04 APERTURE END LIST*
D23*
D24*
X0003464566Y0000944881D02*
X0003671165Y0000838220D03*
X0003730220Y0000838220D03*
X0003671165Y0000738220D03*
X0003730220Y0000738220D03*
X0003671165Y0000638220D03*
X0003730220Y0000638220D03*
X0003671165Y0000538220D03*
X0003730220Y0000538220D03*
X0003671165Y0000438220D03*
X0003730220Y0000438220D03*
X0003671165Y0000338220D03*
X0003730220Y0000338220D03*
X0003671165Y0000238220D03*
X0003730220Y0000238220D03*
X0003671165Y0000138220D03*
X0003730220Y0000138220D03*
G04 next file*
G04 Gerber Fmt 4.6, Leading zero omitted, Abs format (unit mm)*
G04 Created by KiCad (PCBNEW 4.0.7) date 11/22/17 20:28:19*
G01G01*
G04 APERTURE LIST*
G04 APERTURE END LIST*
D25*
D26*
X0002519685Y0000944881D02*
X0002726283Y0000838220D03*
X0002785338Y0000838220D03*
X0002726283Y0000738220D03*
X0002785338Y0000738220D03*
X0002726283Y0000638220D03*
X0002785338Y0000638220D03*
X0002726283Y0000538220D03*
X0002785338Y0000538220D03*
X0002726283Y0000438220D03*
X0002785338Y0000438220D03*
X0002726283Y0000338220D03*
X0002785338Y0000338220D03*
X0002726283Y0000238220D03*
X0002785338Y0000238220D03*
X0002726283Y0000138220D03*
X0002785338Y0000138220D03*
G04 next file*
G04 Gerber Fmt 4.6, Leading zero omitted, Abs format (unit mm)*
G04 Created by KiCad (PCBNEW 4.0.7) date 11/22/17 20:28:19*
G01G01*
G04 APERTURE LIST*
G04 APERTURE END LIST*
D27*
D28*
X0002047244Y0000944881D02*
X0002253842Y0000838220D03*
X0002312897Y0000838220D03*
X0002253842Y0000738220D03*
X0002312897Y0000738220D03*
X0002253842Y0000638220D03*
X0002312897Y0000638220D03*
X0002253842Y0000538220D03*
X0002312897Y0000538220D03*
X0002253842Y0000438220D03*
X0002312897Y0000438220D03*
X0002253842Y0000338220D03*
X0002312897Y0000338220D03*
X0002253842Y0000238220D03*
X0002312897Y0000238220D03*
X0002253842Y0000138220D03*
X0002312897Y0000138220D03*
G04 next file*
G04 Gerber Fmt 4.6, Leading zero omitted, Abs format (unit mm)*
G04 Created by KiCad (PCBNEW 4.0.7) date 11/22/17 20:28:19*
G01G01*
G04 APERTURE LIST*
G04 APERTURE END LIST*
D29*
D30*
X0001574803Y0000944881D02*
X0001781401Y0000838220D03*
X0001840456Y0000838220D03*
X0001781401Y0000738220D03*
X0001840456Y0000738220D03*
X0001781401Y0000638220D03*
X0001840456Y0000638220D03*
X0001781401Y0000538220D03*
X0001840456Y0000538220D03*
X0001781401Y0000438220D03*
X0001840456Y0000438220D03*
X0001781401Y0000338220D03*
X0001840456Y0000338220D03*
X0001781401Y0000238220D03*
X0001840456Y0000238220D03*
X0001781401Y0000138220D03*
X0001840456Y0000138220D03*
G04 next file*
G04 Gerber Fmt 4.6, Leading zero omitted, Abs format (unit mm)*
G04 Created by KiCad (PCBNEW 4.0.7) date 11/22/17 20:28:19*
G01G01*
G04 APERTURE LIST*
G04 APERTURE END LIST*
D31*
D32*
X0001102362Y0000944881D02*
X0001308960Y0000838220D03*
X0001368015Y0000838220D03*
X0001308960Y0000738220D03*
X0001368015Y0000738220D03*
X0001308960Y0000638220D03*
X0001368015Y0000638220D03*
X0001308960Y0000538220D03*
X0001368015Y0000538220D03*
X0001308960Y0000438220D03*
X0001368015Y0000438220D03*
X0001308960Y0000338220D03*
X0001368015Y0000338220D03*
X0001308960Y0000238220D03*
X0001368015Y0000238220D03*
X0001308960Y0000138220D03*
X0001368015Y0000138220D03*
G04 next file*
G04 Gerber Fmt 4.6, Leading zero omitted, Abs format (unit mm)*
G04 Created by KiCad (PCBNEW 4.0.7) date 11/22/17 20:28:19*
G01G01*
G04 APERTURE LIST*
G04 APERTURE END LIST*
D33*
D34*
X0000629921Y0000944881D02*
X0000836519Y0000838220D03*
X0000895574Y0000838220D03*
X0000836519Y0000738220D03*
X0000895574Y0000738220D03*
X0000836519Y0000638220D03*
X0000895574Y0000638220D03*
X0000836519Y0000538220D03*
X0000895574Y0000538220D03*
X0000836519Y0000438220D03*
X0000895574Y0000438220D03*
X0000836519Y0000338220D03*
X0000895574Y0000338220D03*
X0000836519Y0000238220D03*
X0000895574Y0000238220D03*
X0000836519Y0000138220D03*
X0000895574Y0000138220D03*
G04 next file*
G04 Gerber Fmt 4.6, Leading zero omitted, Abs format (unit mm)*
G04 Created by KiCad (PCBNEW 4.0.7) date 11/22/17 20:28:19*
G01G01*
G04 APERTURE LIST*
G04 APERTURE END LIST*
D35*
D36*
X0000157480Y0000944881D02*
X0000364078Y0000838220D03*
X0000423133Y0000838220D03*
X0000364078Y0000738220D03*
X0000423133Y0000738220D03*
X0000364078Y0000638220D03*
X0000423133Y0000638220D03*
X0000364078Y0000538220D03*
X0000423133Y0000538220D03*
X0000364078Y0000438220D03*
X0000423133Y0000438220D03*
X0000364078Y0000338220D03*
X0000423133Y0000338220D03*
X0000364078Y0000238220D03*
X0000423133Y0000238220D03*
X0000364078Y0000138220D03*
X0000423133Y0000138220D03*
G04 next file*
G04 Gerber Fmt 4.6, Leading zero omitted, Abs format (unit mm)*
G04 Created by KiCad (PCBNEW 4.0.7) date 11/22/17 20:28:19*
G01G01*
G04 APERTURE LIST*
G04 APERTURE END LIST*
D37*
D38*
X0002992125Y0001858267D02*
X0003198724Y0001751606D03*
X0003257779Y0001751606D03*
X0003198724Y0001651606D03*
X0003257779Y0001651606D03*
X0003198724Y0001551606D03*
X0003257779Y0001551606D03*
X0003198724Y0001451606D03*
X0003257779Y0001451606D03*
X0003198724Y0001351606D03*
X0003257779Y0001351606D03*
X0003198724Y0001251606D03*
X0003257779Y0001251606D03*
X0003198724Y0001151606D03*
X0003257779Y0001151606D03*
X0003198724Y0001051606D03*
X0003257779Y0001051606D03*
G04 next file*
G04 Gerber Fmt 4.6, Leading zero omitted, Abs format (unit mm)*
G04 Created by KiCad (PCBNEW 4.0.7) date 11/22/17 20:28:19*
G01G01*
G04 APERTURE LIST*
G04 APERTURE END LIST*
D39*
D40*
X0003464566Y0001858267D02*
X0003671165Y0001751606D03*
X0003730220Y0001751606D03*
X0003671165Y0001651606D03*
X0003730220Y0001651606D03*
X0003671165Y0001551606D03*
X0003730220Y0001551606D03*
X0003671165Y0001451606D03*
X0003730220Y0001451606D03*
X0003671165Y0001351606D03*
X0003730220Y0001351606D03*
X0003671165Y0001251606D03*
X0003730220Y0001251606D03*
X0003671165Y0001151606D03*
X0003730220Y0001151606D03*
X0003671165Y0001051606D03*
X0003730220Y0001051606D03*
G04 next file*
G04 Gerber Fmt 4.6, Leading zero omitted, Abs format (unit mm)*
G04 Created by KiCad (PCBNEW 4.0.7) date 11/22/17 20:28:19*
G01G01*
G04 APERTURE LIST*
G04 APERTURE END LIST*
D41*
D42*
X0002992125Y0002771653D02*
X0003198724Y0002664992D03*
X0003257779Y0002664992D03*
X0003198724Y0002564992D03*
X0003257779Y0002564992D03*
X0003198724Y0002464992D03*
X0003257779Y0002464992D03*
X0003198724Y0002364992D03*
X0003257779Y0002364992D03*
X0003198724Y0002264992D03*
X0003257779Y0002264992D03*
X0003198724Y0002164992D03*
X0003257779Y0002164992D03*
X0003198724Y0002064992D03*
X0003257779Y0002064992D03*
X0003198724Y0001964992D03*
X0003257779Y0001964992D03*
G04 next file*
G04 Gerber Fmt 4.6, Leading zero omitted, Abs format (unit mm)*
G04 Created by KiCad (PCBNEW 4.0.7) date 11/22/17 20:28:19*
G01G01*
G04 APERTURE LIST*
G04 APERTURE END LIST*
D43*
D44*
X0003464566Y0002771653D02*
X0003671165Y0002664992D03*
X0003730220Y0002664992D03*
X0003671165Y0002564992D03*
X0003730220Y0002564992D03*
X0003671165Y0002464992D03*
X0003730220Y0002464992D03*
X0003671165Y0002364992D03*
X0003730220Y0002364992D03*
X0003671165Y0002264992D03*
X0003730220Y0002264992D03*
X0003671165Y0002164992D03*
X0003730220Y0002164992D03*
X0003671165Y0002064992D03*
X0003730220Y0002064992D03*
X0003671165Y0001964992D03*
X0003730220Y0001964992D03*
G04 next file*
G04 Gerber Fmt 4.6, Leading zero omitted, Abs format (unit mm)*
G04 Created by KiCad (PCBNEW 4.0.7) date 11/22/17 20:28:19*
G01G01*
G04 APERTURE LIST*
G04 APERTURE END LIST*
D45*
D46*
X0002992125Y0003685039D02*
X0003198724Y0003578377D03*
X0003257779Y0003578377D03*
X0003198724Y0003478377D03*
X0003257779Y0003478377D03*
X0003198724Y0003378377D03*
X0003257779Y0003378377D03*
X0003198724Y0003278377D03*
X0003257779Y0003278377D03*
X0003198724Y0003178377D03*
X0003257779Y0003178377D03*
X0003198724Y0003078377D03*
X0003257779Y0003078377D03*
X0003198724Y0002978377D03*
X0003257779Y0002978377D03*
X0003198724Y0002878377D03*
X0003257779Y0002878377D03*
G04 next file*
G04 Gerber Fmt 4.6, Leading zero omitted, Abs format (unit mm)*
G04 Created by KiCad (PCBNEW 4.0.7) date 11/22/17 20:28:19*
G01G01*
G04 APERTURE LIST*
G04 APERTURE END LIST*
D47*
D48*
X0003464566Y0003685039D02*
X0003671165Y0003578377D03*
X0003730220Y0003578377D03*
X0003671165Y0003478377D03*
X0003730220Y0003478377D03*
X0003671165Y0003378377D03*
X0003730220Y0003378377D03*
X0003671165Y0003278377D03*
X0003730220Y0003278377D03*
X0003671165Y0003178377D03*
X0003730220Y0003178377D03*
X0003671165Y0003078377D03*
X0003730220Y0003078377D03*
X0003671165Y0002978377D03*
X0003730220Y0002978377D03*
X0003671165Y0002878377D03*
X0003730220Y0002878377D03*
M02*