%MOIN*%
%OFA0B0*%
%FSLAX46Y46*%
%IPPOS*%
%LPD*%
%ADD10C,0.0039370078740157488*%
%ADD11C,0.0078740157480314977*%
%ADD12C,0.005905511811023622*%
%ADD13C,0.0047244094488188976*%
%ADD24C,0.0039370078740157488*%
%ADD25C,0.0078740157480314977*%
%ADD26C,0.005905511811023622*%
%ADD27C,0.0047244094488188976*%
%ADD28C,0.0039370078740157488*%
%ADD29C,0.0078740157480314977*%
%ADD30C,0.005905511811023622*%
%ADD31C,0.0047244094488188976*%
%ADD32C,0.0039370078740157488*%
%ADD33C,0.0078740157480314977*%
%ADD34C,0.005905511811023622*%
%ADD35C,0.0047244094488188976*%
%ADD36C,0.0039370078740157488*%
%ADD37C,0.0078740157480314977*%
%ADD38C,0.005905511811023622*%
%ADD39C,0.0047244094488188976*%
%ADD40C,0.0039370078740157488*%
%ADD41C,0.0078740157480314977*%
%ADD42C,0.005905511811023622*%
%ADD43C,0.0047244094488188976*%
%ADD44C,0.0039370078740157488*%
%ADD45C,0.0078740157480314977*%
%ADD46C,0.005905511811023622*%
%ADD47C,0.0047244094488188976*%
%ADD48C,0.0039370078740157488*%
%ADD49C,0.0078740157480314977*%
%ADD50C,0.005905511811023622*%
%ADD51C,0.0047244094488188976*%
%ADD52C,0.0039370078740157488*%
%ADD53C,0.0078740157480314977*%
%ADD54C,0.005905511811023622*%
%ADD55C,0.0047244094488188976*%
%ADD56C,0.0039370078740157488*%
%ADD57C,0.0078740157480314977*%
%ADD58C,0.005905511811023622*%
%ADD59C,0.0047244094488188976*%
%ADD60C,0.0039370078740157488*%
%ADD61C,0.0078740157480314977*%
%ADD62C,0.005905511811023622*%
%ADD63C,0.0047244094488188976*%
%ADD64C,0.0039370078740157488*%
%ADD65C,0.0078740157480314977*%
%ADD66C,0.005905511811023622*%
%ADD67C,0.0047244094488188976*%
%ADD68C,0.0039370078740157488*%
%ADD69C,0.0078740157480314977*%
%ADD70C,0.005905511811023622*%
%ADD71C,0.0047244094488188976*%
%ADD72C,0.0039370078740157488*%
%ADD73C,0.0078740157480314977*%
%ADD74C,0.005905511811023622*%
%ADD75C,0.0047244094488188976*%
%ADD76C,0.0039370078740157488*%
%ADD77C,0.0078740157480314977*%
%ADD78C,0.005905511811023622*%
%ADD79C,0.0047244094488188976*%
G01G01*
D10*
D11*
X0003305118Y0000901574D02*
X0003265748Y0000901574D01*
X0003285433Y0000881889D02*
X0003285433Y0000921259D01*
D12*
X0003212503Y0000138220D02*
X0003242818Y0000138220D01*
X0003242818Y0000153968D02*
X0003242818Y0000121291D01*
D13*
X0003157385Y0000165779D02*
X0003157385Y0000110661D01*
X0003157385Y0000110661D02*
X0003267622Y0000110661D01*
X0003157385Y0000165779D02*
X0003267622Y0000165779D01*
D12*
X0003212503Y0000238220D02*
X0003242818Y0000238220D01*
X0003242818Y0000253968D02*
X0003242818Y0000221291D01*
D13*
X0003157385Y0000265779D02*
X0003157385Y0000210661D01*
X0003157385Y0000210661D02*
X0003267622Y0000210661D01*
X0003157385Y0000265779D02*
X0003267622Y0000265779D01*
D12*
X0003212503Y0000338220D02*
X0003242818Y0000338220D01*
X0003242818Y0000353968D02*
X0003242818Y0000321291D01*
D13*
X0003157385Y0000365779D02*
X0003157385Y0000310661D01*
X0003157385Y0000310661D02*
X0003267622Y0000310661D01*
X0003157385Y0000365779D02*
X0003267622Y0000365779D01*
D12*
X0003212503Y0000438220D02*
X0003242818Y0000438220D01*
X0003242818Y0000453968D02*
X0003242818Y0000421291D01*
D13*
X0003157385Y0000465779D02*
X0003157385Y0000410661D01*
X0003157385Y0000410661D02*
X0003267622Y0000410661D01*
X0003157385Y0000465779D02*
X0003267622Y0000465779D01*
D12*
X0003212503Y0000538220D02*
X0003242818Y0000538220D01*
X0003242818Y0000553968D02*
X0003242818Y0000521291D01*
D13*
X0003157385Y0000565779D02*
X0003157385Y0000510661D01*
X0003157385Y0000510661D02*
X0003267622Y0000510661D01*
X0003157385Y0000565779D02*
X0003267622Y0000565779D01*
D12*
X0003212503Y0000638220D02*
X0003242818Y0000638220D01*
X0003242818Y0000653968D02*
X0003242818Y0000621291D01*
D13*
X0003157385Y0000665779D02*
X0003157385Y0000610661D01*
X0003157385Y0000610661D02*
X0003267622Y0000610661D01*
X0003157385Y0000665779D02*
X0003267622Y0000665779D01*
D12*
X0003212503Y0000738220D02*
X0003242818Y0000738220D01*
X0003242818Y0000753968D02*
X0003242818Y0000721291D01*
D13*
X0003157385Y0000765779D02*
X0003157385Y0000710661D01*
X0003157385Y0000710661D02*
X0003267622Y0000710661D01*
X0003157385Y0000765779D02*
X0003267622Y0000765779D01*
D12*
X0003212503Y0000838220D02*
X0003242818Y0000838220D01*
X0003242818Y0000853968D02*
X0003242818Y0000821291D01*
D13*
X0003157385Y0000865779D02*
X0003157385Y0000810661D01*
X0003157385Y0000810661D02*
X0003267622Y0000810661D01*
X0003157385Y0000865779D02*
X0003267622Y0000865779D01*
X0003333370Y0000085858D02*
X0003438094Y0000085858D01*
X0003333370Y0000788220D02*
X0003333370Y0000085858D01*
X0003438094Y0000788220D02*
X0003438094Y0000085858D01*
X0003333370Y0000788220D02*
X0003438094Y0000788220D01*
X0003333370Y0000838220D02*
X0003333370Y0000890582D01*
X0003333370Y0000890582D02*
X0003385732Y0000890582D01*
X0003018409Y0000085858D02*
X0003123133Y0000085858D01*
X0003018409Y0000788220D02*
X0003018409Y0000085858D01*
X0003123133Y0000788220D02*
X0003123133Y0000085858D01*
X0003018409Y0000788220D02*
X0003123133Y0000788220D01*
X0003018409Y0000838220D02*
X0003018409Y0000890582D01*
X0003018409Y0000890582D02*
X0003070771Y0000890582D01*
D10*
D12*
D10*
D12*
G04 next file*
G04 Gerber Fmt 4.6, Leading zero omitted, Abs format (unit mm)*
G04 Created by KiCad (PCBNEW 4.0.7) date 11/27/17 18:36:11*
G01G01*
G04 APERTURE LIST*
G04 APERTURE END LIST*
D24*
D25*
X0000363188Y0003451771D02*
X0000353346Y0003448818D01*
X0000347440Y0003457677D02*
X0000363188Y0003451771D01*
X0000367125Y0003459645D02*
X0000347440Y0003457677D01*
X0000358267Y0003437992D02*
X0000367125Y0003459645D01*
X0000343503Y0003460629D02*
X0000358267Y0003437992D01*
X0000354330Y0003429133D02*
X0000343503Y0003460629D01*
X0000336614Y0003460629D02*
X0000354330Y0003429133D01*
X0000351377Y0003419291D02*
X0000336614Y0003460629D01*
X0000373031Y0003460629D02*
X0000351377Y0003419291D01*
X0000353346Y0003412401D02*
X0000373031Y0003460629D01*
X0000327755Y0003462598D02*
X0000353346Y0003412401D01*
X0000350393Y0003403543D02*
X0000320866Y0003462598D01*
X0000379921Y0003462598D02*
X0000350393Y0003403543D01*
X0000320866Y0003462598D02*
X0000379921Y0003462598D01*
X0002475609Y0001607386D02*
X0002501856Y0001607386D01*
X0002484983Y0001568016D01*
X0002513104Y0001607386D02*
X0002537476Y0001607386D01*
X0002524353Y0001592388D01*
X0002529977Y0001592388D01*
X0002533727Y0001590513D01*
X0002535601Y0001588638D01*
X0002537476Y0001584889D01*
X0002537476Y0001575515D01*
X0002535601Y0001571766D01*
X0002533727Y0001569891D01*
X0002529977Y0001568016D01*
X0002518728Y0001568016D01*
X0002514979Y0001569891D01*
X0002513104Y0001571766D01*
X0002475609Y0001707386D02*
X0002501856Y0001707386D01*
X0002484983Y0001668016D01*
X0002535601Y0001707386D02*
X0002516854Y0001707386D01*
X0002514979Y0001688638D01*
X0002516854Y0001690513D01*
X0002520603Y0001692388D01*
X0002529977Y0001692388D01*
X0002533727Y0001690513D01*
X0002535601Y0001688638D01*
X0002537476Y0001684889D01*
X0002537476Y0001675515D01*
X0002535601Y0001671766D01*
X0002533727Y0001669891D01*
X0002529977Y0001668016D01*
X0002520603Y0001668016D01*
X0002516854Y0001669891D01*
X0002514979Y0001671766D01*
X0002475609Y0001807386D02*
X0002501856Y0001807386D01*
X0002484983Y0001768016D01*
X0002513104Y0001807386D02*
X0002539351Y0001807386D01*
X0002522478Y0001768016D01*
X0002475609Y0001907386D02*
X0002501856Y0001907386D01*
X0002484983Y0001868016D01*
X0002518728Y0001868016D02*
X0002526227Y0001868016D01*
X0002529977Y0001869891D01*
X0002531852Y0001871766D01*
X0002535601Y0001877390D01*
X0002537476Y0001884889D01*
X0002537476Y0001899887D01*
X0002535601Y0001903637D01*
X0002533727Y0001905511D01*
X0002529977Y0001907386D01*
X0002522478Y0001907386D01*
X0002518728Y0001905511D01*
X0002516854Y0001903637D01*
X0002514979Y0001899887D01*
X0002514979Y0001890513D01*
X0002516854Y0001886764D01*
X0002518728Y0001884889D01*
X0002522478Y0001883014D01*
X0002529977Y0001883014D01*
X0002533727Y0001884889D01*
X0002535601Y0001886764D01*
X0002537476Y0001890513D01*
X0002484983Y0001990513D02*
X0002481233Y0001992388D01*
X0002479358Y0001994263D01*
X0002477484Y0001998012D01*
X0002477484Y0001999887D01*
X0002479358Y0002003637D01*
X0002481233Y0002005511D01*
X0002484983Y0002007386D01*
X0002492482Y0002007386D01*
X0002496231Y0002005511D01*
X0002498106Y0002003637D01*
X0002499981Y0001999887D01*
X0002499981Y0001998012D01*
X0002498106Y0001994263D01*
X0002496231Y0001992388D01*
X0002492482Y0001990513D01*
X0002484983Y0001990513D01*
X0002481233Y0001988638D01*
X0002479358Y0001986764D01*
X0002477484Y0001983014D01*
X0002477484Y0001975515D01*
X0002479358Y0001971766D01*
X0002481233Y0001969891D01*
X0002484983Y0001968016D01*
X0002492482Y0001968016D01*
X0002496231Y0001969891D01*
X0002498106Y0001971766D01*
X0002499981Y0001975515D01*
X0002499981Y0001983014D01*
X0002498106Y0001986764D01*
X0002496231Y0001988638D01*
X0002492482Y0001990513D01*
X0002537476Y0001968016D02*
X0002514979Y0001968016D01*
X0002526227Y0001968016D02*
X0002526227Y0002007386D01*
X0002522478Y0002001762D01*
X0002518728Y0001998012D01*
X0002514979Y0001996137D01*
X0002484983Y0002090513D02*
X0002481233Y0002092388D01*
X0002479358Y0002094263D01*
X0002477484Y0002098012D01*
X0002477484Y0002099887D01*
X0002479358Y0002103637D01*
X0002481233Y0002105511D01*
X0002484983Y0002107386D01*
X0002492482Y0002107386D01*
X0002496231Y0002105511D01*
X0002498106Y0002103637D01*
X0002499981Y0002099887D01*
X0002499981Y0002098012D01*
X0002498106Y0002094263D01*
X0002496231Y0002092388D01*
X0002492482Y0002090513D01*
X0002484983Y0002090513D01*
X0002481233Y0002088638D01*
X0002479358Y0002086764D01*
X0002477484Y0002083014D01*
X0002477484Y0002075515D01*
X0002479358Y0002071766D01*
X0002481233Y0002069891D01*
X0002484983Y0002068016D01*
X0002492482Y0002068016D01*
X0002496231Y0002069891D01*
X0002498106Y0002071766D01*
X0002499981Y0002075515D01*
X0002499981Y0002083014D01*
X0002498106Y0002086764D01*
X0002496231Y0002088638D01*
X0002492482Y0002090513D01*
X0002513104Y0002107386D02*
X0002537476Y0002107386D01*
X0002524353Y0002092388D01*
X0002529977Y0002092388D01*
X0002533727Y0002090513D01*
X0002535601Y0002088638D01*
X0002537476Y0002084889D01*
X0002537476Y0002075515D01*
X0002535601Y0002071766D01*
X0002533727Y0002069891D01*
X0002529977Y0002068016D01*
X0002518728Y0002068016D01*
X0002514979Y0002069891D01*
X0002513104Y0002071766D01*
X0002484983Y0002190513D02*
X0002481233Y0002192388D01*
X0002479358Y0002194263D01*
X0002477484Y0002198012D01*
X0002477484Y0002199887D01*
X0002479358Y0002203637D01*
X0002481233Y0002205511D01*
X0002484983Y0002207386D01*
X0002492482Y0002207386D01*
X0002496231Y0002205511D01*
X0002498106Y0002203637D01*
X0002499981Y0002199887D01*
X0002499981Y0002198012D01*
X0002498106Y0002194263D01*
X0002496231Y0002192388D01*
X0002492482Y0002190513D01*
X0002484983Y0002190513D01*
X0002481233Y0002188638D01*
X0002479358Y0002186764D01*
X0002477484Y0002183014D01*
X0002477484Y0002175515D01*
X0002479358Y0002171766D01*
X0002481233Y0002169891D01*
X0002484983Y0002168016D01*
X0002492482Y0002168016D01*
X0002496231Y0002169891D01*
X0002498106Y0002171766D01*
X0002499981Y0002175515D01*
X0002499981Y0002183014D01*
X0002498106Y0002186764D01*
X0002496231Y0002188638D01*
X0002492482Y0002190513D01*
X0002535601Y0002207386D02*
X0002516854Y0002207386D01*
X0002514979Y0002188638D01*
X0002516854Y0002190513D01*
X0002520603Y0002192388D01*
X0002529977Y0002192388D01*
X0002533727Y0002190513D01*
X0002535601Y0002188638D01*
X0002537476Y0002184889D01*
X0002537476Y0002175515D01*
X0002535601Y0002171766D01*
X0002533727Y0002169891D01*
X0002529977Y0002168016D01*
X0002520603Y0002168016D01*
X0002516854Y0002169891D01*
X0002514979Y0002171766D01*
X0002484983Y0002290513D02*
X0002481233Y0002292388D01*
X0002479358Y0002294263D01*
X0002477484Y0002298012D01*
X0002477484Y0002299887D01*
X0002479358Y0002303637D01*
X0002481233Y0002305511D01*
X0002484983Y0002307386D01*
X0002492482Y0002307386D01*
X0002496231Y0002305511D01*
X0002498106Y0002303637D01*
X0002499981Y0002299887D01*
X0002499981Y0002298012D01*
X0002498106Y0002294263D01*
X0002496231Y0002292388D01*
X0002492482Y0002290513D01*
X0002484983Y0002290513D01*
X0002481233Y0002288638D01*
X0002479358Y0002286764D01*
X0002477484Y0002283014D01*
X0002477484Y0002275515D01*
X0002479358Y0002271766D01*
X0002481233Y0002269891D01*
X0002484983Y0002268016D01*
X0002492482Y0002268016D01*
X0002496231Y0002269891D01*
X0002498106Y0002271766D01*
X0002499981Y0002275515D01*
X0002499981Y0002283014D01*
X0002498106Y0002286764D01*
X0002496231Y0002288638D01*
X0002492482Y0002290513D01*
X0002513104Y0002307386D02*
X0002539351Y0002307386D01*
X0002522478Y0002268016D01*
X0002484983Y0002390513D02*
X0002481233Y0002392388D01*
X0002479358Y0002394263D01*
X0002477484Y0002398012D01*
X0002477484Y0002399887D01*
X0002479358Y0002403637D01*
X0002481233Y0002405511D01*
X0002484983Y0002407386D01*
X0002492482Y0002407386D01*
X0002496231Y0002405511D01*
X0002498106Y0002403637D01*
X0002499981Y0002399887D01*
X0002499981Y0002398012D01*
X0002498106Y0002394263D01*
X0002496231Y0002392388D01*
X0002492482Y0002390513D01*
X0002484983Y0002390513D01*
X0002481233Y0002388638D01*
X0002479358Y0002386764D01*
X0002477484Y0002383014D01*
X0002477484Y0002375515D01*
X0002479358Y0002371766D01*
X0002481233Y0002369891D01*
X0002484983Y0002368016D01*
X0002492482Y0002368016D01*
X0002496231Y0002369891D01*
X0002498106Y0002371766D01*
X0002499981Y0002375515D01*
X0002499981Y0002383014D01*
X0002498106Y0002386764D01*
X0002496231Y0002388638D01*
X0002492482Y0002390513D01*
X0002518728Y0002368016D02*
X0002526227Y0002368016D01*
X0002529977Y0002369891D01*
X0002531852Y0002371766D01*
X0002535601Y0002377390D01*
X0002537476Y0002384889D01*
X0002537476Y0002399887D01*
X0002535601Y0002403637D01*
X0002533727Y0002405511D01*
X0002529977Y0002407386D01*
X0002522478Y0002407386D01*
X0002518728Y0002405511D01*
X0002516854Y0002403637D01*
X0002514979Y0002399887D01*
X0002514979Y0002390513D01*
X0002516854Y0002386764D01*
X0002518728Y0002384889D01*
X0002522478Y0002383014D01*
X0002529977Y0002383014D01*
X0002533727Y0002384889D01*
X0002535601Y0002386764D01*
X0002537476Y0002390513D01*
X0002481233Y0002468016D02*
X0002488732Y0002468016D01*
X0002492482Y0002469891D01*
X0002494356Y0002471766D01*
X0002498106Y0002477390D01*
X0002499981Y0002484889D01*
X0002499981Y0002499887D01*
X0002498106Y0002503637D01*
X0002496231Y0002505511D01*
X0002492482Y0002507386D01*
X0002484983Y0002507386D01*
X0002481233Y0002505511D01*
X0002479358Y0002503637D01*
X0002477484Y0002499887D01*
X0002477484Y0002490513D01*
X0002479358Y0002486764D01*
X0002481233Y0002484889D01*
X0002484983Y0002483014D01*
X0002492482Y0002483014D01*
X0002496231Y0002484889D01*
X0002498106Y0002486764D01*
X0002499981Y0002490513D01*
X0002537476Y0002468016D02*
X0002514979Y0002468016D01*
X0002526227Y0002468016D02*
X0002526227Y0002507386D01*
X0002522478Y0002501762D01*
X0002518728Y0002498012D01*
X0002514979Y0002496137D01*
X0002481233Y0002568016D02*
X0002488732Y0002568016D01*
X0002492482Y0002569891D01*
X0002494356Y0002571766D01*
X0002498106Y0002577390D01*
X0002499981Y0002584889D01*
X0002499981Y0002599887D01*
X0002498106Y0002603637D01*
X0002496231Y0002605511D01*
X0002492482Y0002607386D01*
X0002484983Y0002607386D01*
X0002481233Y0002605511D01*
X0002479358Y0002603637D01*
X0002477484Y0002599887D01*
X0002477484Y0002590513D01*
X0002479358Y0002586764D01*
X0002481233Y0002584889D01*
X0002484983Y0002583014D01*
X0002492482Y0002583014D01*
X0002496231Y0002584889D01*
X0002498106Y0002586764D01*
X0002499981Y0002590513D01*
X0002513104Y0002607386D02*
X0002537476Y0002607386D01*
X0002524353Y0002592388D01*
X0002529977Y0002592388D01*
X0002533727Y0002590513D01*
X0002535601Y0002588638D01*
X0002537476Y0002584889D01*
X0002537476Y0002575515D01*
X0002535601Y0002571766D01*
X0002533727Y0002569891D01*
X0002529977Y0002568016D01*
X0002518728Y0002568016D01*
X0002514979Y0002569891D01*
X0002513104Y0002571766D01*
X0002481233Y0002668016D02*
X0002488732Y0002668016D01*
X0002492482Y0002669891D01*
X0002494356Y0002671765D01*
X0002498106Y0002677390D01*
X0002499981Y0002684889D01*
X0002499981Y0002699887D01*
X0002498106Y0002703637D01*
X0002496231Y0002705511D01*
X0002492482Y0002707386D01*
X0002484983Y0002707386D01*
X0002481233Y0002705511D01*
X0002479358Y0002703637D01*
X0002477484Y0002699887D01*
X0002477484Y0002690513D01*
X0002479358Y0002686764D01*
X0002481233Y0002684889D01*
X0002484983Y0002683014D01*
X0002492482Y0002683014D01*
X0002496231Y0002684889D01*
X0002498106Y0002686764D01*
X0002499981Y0002690513D01*
X0002535601Y0002707386D02*
X0002516854Y0002707386D01*
X0002514979Y0002688638D01*
X0002516854Y0002690513D01*
X0002520603Y0002692388D01*
X0002529977Y0002692388D01*
X0002533727Y0002690513D01*
X0002535601Y0002688638D01*
X0002537476Y0002684889D01*
X0002537476Y0002675515D01*
X0002535601Y0002671765D01*
X0002533727Y0002669891D01*
X0002529977Y0002668016D01*
X0002520603Y0002668016D01*
X0002516854Y0002669891D01*
X0002514979Y0002671765D01*
X0002481233Y0002768016D02*
X0002488732Y0002768016D01*
X0002492482Y0002769891D01*
X0002494356Y0002771766D01*
X0002498106Y0002777390D01*
X0002499981Y0002784889D01*
X0002499981Y0002799887D01*
X0002498106Y0002803637D01*
X0002496231Y0002805511D01*
X0002492482Y0002807386D01*
X0002484983Y0002807386D01*
X0002481233Y0002805511D01*
X0002479358Y0002803637D01*
X0002477484Y0002799887D01*
X0002477484Y0002790513D01*
X0002479358Y0002786764D01*
X0002481233Y0002784889D01*
X0002484983Y0002783014D01*
X0002492482Y0002783014D01*
X0002496231Y0002784889D01*
X0002498106Y0002786764D01*
X0002499981Y0002790513D01*
X0002513104Y0002807386D02*
X0002539351Y0002807386D01*
X0002522478Y0002768016D01*
X0002481233Y0002868016D02*
X0002488732Y0002868016D01*
X0002492482Y0002869891D01*
X0002494356Y0002871766D01*
X0002498106Y0002877390D01*
X0002499981Y0002884889D01*
X0002499981Y0002899887D01*
X0002498106Y0002903637D01*
X0002496231Y0002905511D01*
X0002492482Y0002907386D01*
X0002484983Y0002907386D01*
X0002481233Y0002905511D01*
X0002479358Y0002903637D01*
X0002477484Y0002899887D01*
X0002477484Y0002890513D01*
X0002479358Y0002886764D01*
X0002481233Y0002884889D01*
X0002484983Y0002883014D01*
X0002492482Y0002883014D01*
X0002496231Y0002884889D01*
X0002498106Y0002886764D01*
X0002499981Y0002890513D01*
X0002518728Y0002868016D02*
X0002526227Y0002868016D01*
X0002529977Y0002869891D01*
X0002531852Y0002871766D01*
X0002535601Y0002877390D01*
X0002537476Y0002884889D01*
X0002537476Y0002899887D01*
X0002535601Y0002903637D01*
X0002533727Y0002905511D01*
X0002529977Y0002907386D01*
X0002522478Y0002907386D01*
X0002518728Y0002905511D01*
X0002516854Y0002903637D01*
X0002514979Y0002899887D01*
X0002514979Y0002890513D01*
X0002516854Y0002886764D01*
X0002518728Y0002884889D01*
X0002522478Y0002883014D01*
X0002529977Y0002883014D01*
X0002533727Y0002884889D01*
X0002535601Y0002886764D01*
X0002537476Y0002890513D01*
X0002481233Y0002968016D02*
X0002458736Y0002968016D01*
X0002469985Y0002968016D02*
X0002469985Y0003007386D01*
X0002466235Y0003001762D01*
X0002462485Y0002998012D01*
X0002458736Y0002996137D01*
X0002505605Y0003007386D02*
X0002509355Y0003007386D01*
X0002513104Y0003005511D01*
X0002514979Y0003003637D01*
X0002516854Y0002999887D01*
X0002518728Y0002992388D01*
X0002518728Y0002983014D01*
X0002516854Y0002975515D01*
X0002514979Y0002971766D01*
X0002513104Y0002969891D01*
X0002509355Y0002968016D01*
X0002505605Y0002968016D01*
X0002501856Y0002969891D01*
X0002499981Y0002971766D01*
X0002498106Y0002975515D01*
X0002496231Y0002983014D01*
X0002496231Y0002992388D01*
X0002498106Y0002999887D01*
X0002499981Y0003003637D01*
X0002501856Y0003005511D01*
X0002505605Y0003007386D01*
X0002556224Y0002968016D02*
X0002533727Y0002968016D01*
X0002544975Y0002968016D02*
X0002544975Y0003007386D01*
X0002541226Y0003001762D01*
X0002537476Y0002998012D01*
X0002533727Y0002996137D01*
X0002481233Y0003068016D02*
X0002458736Y0003068016D01*
X0002469985Y0003068016D02*
X0002469985Y0003107386D01*
X0002466235Y0003101762D01*
X0002462485Y0003098012D01*
X0002458736Y0003096137D01*
X0002505605Y0003107386D02*
X0002509355Y0003107386D01*
X0002513104Y0003105511D01*
X0002514979Y0003103637D01*
X0002516854Y0003099887D01*
X0002518728Y0003092388D01*
X0002518728Y0003083014D01*
X0002516854Y0003075515D01*
X0002514979Y0003071766D01*
X0002513104Y0003069891D01*
X0002509355Y0003068016D01*
X0002505605Y0003068016D01*
X0002501856Y0003069891D01*
X0002499981Y0003071766D01*
X0002498106Y0003075515D01*
X0002496231Y0003083014D01*
X0002496231Y0003092388D01*
X0002498106Y0003099887D01*
X0002499981Y0003103637D01*
X0002501856Y0003105511D01*
X0002505605Y0003107386D01*
X0002531852Y0003107386D02*
X0002556224Y0003107386D01*
X0002543100Y0003092388D01*
X0002548725Y0003092388D01*
X0002552474Y0003090513D01*
X0002554349Y0003088638D01*
X0002556224Y0003084889D01*
X0002556224Y0003075515D01*
X0002554349Y0003071766D01*
X0002552474Y0003069891D01*
X0002548725Y0003068016D01*
X0002537476Y0003068016D01*
X0002533727Y0003069891D01*
X0002531852Y0003071766D01*
X0002481233Y0003168016D02*
X0002458736Y0003168016D01*
X0002469985Y0003168016D02*
X0002469985Y0003207386D01*
X0002466235Y0003201762D01*
X0002462485Y0003198012D01*
X0002458736Y0003196137D01*
X0002505605Y0003207386D02*
X0002509355Y0003207386D01*
X0002513104Y0003205511D01*
X0002514979Y0003203637D01*
X0002516854Y0003199887D01*
X0002518728Y0003192388D01*
X0002518728Y0003183014D01*
X0002516854Y0003175515D01*
X0002514979Y0003171766D01*
X0002513104Y0003169891D01*
X0002509355Y0003168016D01*
X0002505605Y0003168016D01*
X0002501856Y0003169891D01*
X0002499981Y0003171766D01*
X0002498106Y0003175515D01*
X0002496231Y0003183014D01*
X0002496231Y0003192388D01*
X0002498106Y0003199887D01*
X0002499981Y0003203637D01*
X0002501856Y0003205511D01*
X0002505605Y0003207386D01*
X0002554349Y0003207386D02*
X0002535601Y0003207386D01*
X0002533727Y0003188638D01*
X0002535601Y0003190513D01*
X0002539351Y0003192388D01*
X0002548725Y0003192388D01*
X0002552474Y0003190513D01*
X0002554349Y0003188638D01*
X0002556224Y0003184889D01*
X0002556224Y0003175515D01*
X0002554349Y0003171766D01*
X0002552474Y0003169891D01*
X0002548725Y0003168016D01*
X0002539351Y0003168016D01*
X0002535601Y0003169891D01*
X0002533727Y0003171766D01*
X0002481233Y0003268016D02*
X0002458736Y0003268016D01*
X0002469985Y0003268016D02*
X0002469985Y0003307386D01*
X0002466235Y0003301762D01*
X0002462485Y0003298012D01*
X0002458736Y0003296137D01*
X0002505605Y0003307386D02*
X0002509355Y0003307386D01*
X0002513104Y0003305511D01*
X0002514979Y0003303637D01*
X0002516854Y0003299887D01*
X0002518728Y0003292388D01*
X0002518728Y0003283014D01*
X0002516854Y0003275515D01*
X0002514979Y0003271766D01*
X0002513104Y0003269891D01*
X0002509355Y0003268016D01*
X0002505605Y0003268016D01*
X0002501856Y0003269891D01*
X0002499981Y0003271766D01*
X0002498106Y0003275515D01*
X0002496231Y0003283014D01*
X0002496231Y0003292388D01*
X0002498106Y0003299887D01*
X0002499981Y0003303637D01*
X0002501856Y0003305511D01*
X0002505605Y0003307386D01*
X0002531852Y0003307386D02*
X0002558098Y0003307386D01*
X0002541226Y0003268016D01*
X0002842932Y0001614866D02*
X0002869178Y0001614866D01*
X0002852305Y0001575496D01*
X0002901049Y0001601743D02*
X0002901049Y0001575496D01*
X0002891676Y0001616741D02*
X0002882302Y0001588620D01*
X0002906674Y0001588620D01*
X0002842932Y0001714866D02*
X0002869178Y0001714866D01*
X0002852305Y0001675496D01*
X0002901049Y0001714866D02*
X0002893550Y0001714866D01*
X0002889801Y0001712992D01*
X0002887926Y0001711117D01*
X0002884176Y0001705493D01*
X0002882302Y0001697994D01*
X0002882302Y0001682995D01*
X0002884176Y0001679246D01*
X0002886051Y0001677371D01*
X0002889801Y0001675496D01*
X0002897300Y0001675496D01*
X0002901049Y0001677371D01*
X0002902924Y0001679246D01*
X0002904799Y0001682995D01*
X0002904799Y0001692369D01*
X0002902924Y0001696119D01*
X0002901049Y0001697994D01*
X0002897300Y0001699868D01*
X0002889801Y0001699868D01*
X0002886051Y0001697994D01*
X0002884176Y0001696119D01*
X0002882302Y0001692369D01*
X0002842932Y0001814866D02*
X0002869178Y0001814866D01*
X0002852305Y0001775496D01*
X0002889801Y0001797994D02*
X0002886051Y0001799868D01*
X0002884176Y0001801743D01*
X0002882302Y0001805493D01*
X0002882302Y0001807367D01*
X0002884176Y0001811117D01*
X0002886051Y0001812992D01*
X0002889801Y0001814866D01*
X0002897300Y0001814866D01*
X0002901049Y0001812992D01*
X0002902924Y0001811117D01*
X0002904799Y0001807367D01*
X0002904799Y0001805493D01*
X0002902924Y0001801743D01*
X0002901049Y0001799868D01*
X0002897300Y0001797994D01*
X0002889801Y0001797994D01*
X0002886051Y0001796119D01*
X0002884176Y0001794244D01*
X0002882302Y0001790494D01*
X0002882302Y0001782995D01*
X0002884176Y0001779246D01*
X0002886051Y0001777371D01*
X0002889801Y0001775496D01*
X0002897300Y0001775496D01*
X0002901049Y0001777371D01*
X0002902924Y0001779246D01*
X0002904799Y0001782995D01*
X0002904799Y0001790494D01*
X0002902924Y0001794244D01*
X0002901049Y0001796119D01*
X0002897300Y0001797994D01*
X0002852305Y0001897994D02*
X0002848556Y0001899868D01*
X0002846681Y0001901743D01*
X0002844806Y0001905493D01*
X0002844806Y0001907367D01*
X0002846681Y0001911117D01*
X0002848556Y0001912992D01*
X0002852305Y0001914866D01*
X0002859805Y0001914866D01*
X0002863554Y0001912992D01*
X0002865429Y0001911117D01*
X0002867304Y0001907367D01*
X0002867304Y0001905493D01*
X0002865429Y0001901743D01*
X0002863554Y0001899868D01*
X0002859805Y0001897994D01*
X0002852305Y0001897994D01*
X0002848556Y0001896119D01*
X0002846681Y0001894244D01*
X0002844806Y0001890494D01*
X0002844806Y0001882995D01*
X0002846681Y0001879246D01*
X0002848556Y0001877371D01*
X0002852305Y0001875496D01*
X0002859805Y0001875496D01*
X0002863554Y0001877371D01*
X0002865429Y0001879246D01*
X0002867304Y0001882995D01*
X0002867304Y0001890494D01*
X0002865429Y0001894244D01*
X0002863554Y0001896119D01*
X0002859805Y0001897994D01*
X0002891676Y0001914866D02*
X0002895425Y0001914866D01*
X0002899175Y0001912992D01*
X0002901049Y0001911117D01*
X0002902924Y0001907367D01*
X0002904799Y0001899868D01*
X0002904799Y0001890494D01*
X0002902924Y0001882995D01*
X0002901049Y0001879246D01*
X0002899175Y0001877371D01*
X0002895425Y0001875496D01*
X0002891676Y0001875496D01*
X0002887926Y0001877371D01*
X0002886051Y0001879246D01*
X0002884176Y0001882995D01*
X0002882302Y0001890494D01*
X0002882302Y0001899868D01*
X0002884176Y0001907367D01*
X0002886051Y0001911117D01*
X0002887926Y0001912992D01*
X0002891676Y0001914866D01*
X0002852305Y0001997994D02*
X0002848556Y0001999868D01*
X0002846681Y0002001743D01*
X0002844806Y0002005493D01*
X0002844806Y0002007367D01*
X0002846681Y0002011117D01*
X0002848556Y0002012992D01*
X0002852305Y0002014866D01*
X0002859805Y0002014866D01*
X0002863554Y0002012992D01*
X0002865429Y0002011117D01*
X0002867304Y0002007367D01*
X0002867304Y0002005493D01*
X0002865429Y0002001743D01*
X0002863554Y0001999868D01*
X0002859805Y0001997994D01*
X0002852305Y0001997994D01*
X0002848556Y0001996119D01*
X0002846681Y0001994244D01*
X0002844806Y0001990494D01*
X0002844806Y0001982995D01*
X0002846681Y0001979246D01*
X0002848556Y0001977371D01*
X0002852305Y0001975496D01*
X0002859805Y0001975496D01*
X0002863554Y0001977371D01*
X0002865429Y0001979246D01*
X0002867304Y0001982995D01*
X0002867304Y0001990494D01*
X0002865429Y0001994244D01*
X0002863554Y0001996119D01*
X0002859805Y0001997994D01*
X0002882302Y0002011117D02*
X0002884176Y0002012992D01*
X0002887926Y0002014866D01*
X0002897300Y0002014866D01*
X0002901049Y0002012992D01*
X0002902924Y0002011117D01*
X0002904799Y0002007367D01*
X0002904799Y0002003618D01*
X0002902924Y0001997994D01*
X0002880427Y0001975496D01*
X0002904799Y0001975496D01*
X0002852305Y0002097994D02*
X0002848556Y0002099868D01*
X0002846681Y0002101743D01*
X0002844806Y0002105493D01*
X0002844806Y0002107367D01*
X0002846681Y0002111117D01*
X0002848556Y0002112992D01*
X0002852305Y0002114866D01*
X0002859805Y0002114866D01*
X0002863554Y0002112992D01*
X0002865429Y0002111117D01*
X0002867304Y0002107367D01*
X0002867304Y0002105493D01*
X0002865429Y0002101743D01*
X0002863554Y0002099868D01*
X0002859805Y0002097994D01*
X0002852305Y0002097994D01*
X0002848556Y0002096119D01*
X0002846681Y0002094244D01*
X0002844806Y0002090494D01*
X0002844806Y0002082995D01*
X0002846681Y0002079246D01*
X0002848556Y0002077371D01*
X0002852305Y0002075496D01*
X0002859805Y0002075496D01*
X0002863554Y0002077371D01*
X0002865429Y0002079246D01*
X0002867304Y0002082995D01*
X0002867304Y0002090494D01*
X0002865429Y0002094244D01*
X0002863554Y0002096119D01*
X0002859805Y0002097994D01*
X0002901049Y0002101743D02*
X0002901049Y0002075496D01*
X0002891676Y0002116741D02*
X0002882302Y0002088620D01*
X0002906674Y0002088620D01*
X0002852305Y0002197994D02*
X0002848556Y0002199868D01*
X0002846681Y0002201743D01*
X0002844806Y0002205493D01*
X0002844806Y0002207367D01*
X0002846681Y0002211117D01*
X0002848556Y0002212992D01*
X0002852305Y0002214866D01*
X0002859805Y0002214866D01*
X0002863554Y0002212992D01*
X0002865429Y0002211117D01*
X0002867304Y0002207367D01*
X0002867304Y0002205493D01*
X0002865429Y0002201743D01*
X0002863554Y0002199868D01*
X0002859805Y0002197994D01*
X0002852305Y0002197994D01*
X0002848556Y0002196119D01*
X0002846681Y0002194244D01*
X0002844806Y0002190494D01*
X0002844806Y0002182995D01*
X0002846681Y0002179246D01*
X0002848556Y0002177371D01*
X0002852305Y0002175496D01*
X0002859805Y0002175496D01*
X0002863554Y0002177371D01*
X0002865429Y0002179246D01*
X0002867304Y0002182995D01*
X0002867304Y0002190494D01*
X0002865429Y0002194244D01*
X0002863554Y0002196119D01*
X0002859805Y0002197994D01*
X0002901049Y0002214866D02*
X0002893550Y0002214866D01*
X0002889801Y0002212992D01*
X0002887926Y0002211117D01*
X0002884176Y0002205493D01*
X0002882302Y0002197994D01*
X0002882302Y0002182995D01*
X0002884176Y0002179246D01*
X0002886051Y0002177371D01*
X0002889801Y0002175496D01*
X0002897300Y0002175496D01*
X0002901049Y0002177371D01*
X0002902924Y0002179246D01*
X0002904799Y0002182995D01*
X0002904799Y0002192369D01*
X0002902924Y0002196119D01*
X0002901049Y0002197994D01*
X0002897300Y0002199868D01*
X0002889801Y0002199868D01*
X0002886051Y0002197994D01*
X0002884176Y0002196119D01*
X0002882302Y0002192369D01*
X0002852305Y0002297994D02*
X0002848556Y0002299868D01*
X0002846681Y0002301743D01*
X0002844806Y0002305493D01*
X0002844806Y0002307367D01*
X0002846681Y0002311117D01*
X0002848556Y0002312992D01*
X0002852305Y0002314866D01*
X0002859805Y0002314866D01*
X0002863554Y0002312992D01*
X0002865429Y0002311117D01*
X0002867304Y0002307367D01*
X0002867304Y0002305493D01*
X0002865429Y0002301743D01*
X0002863554Y0002299868D01*
X0002859805Y0002297994D01*
X0002852305Y0002297994D01*
X0002848556Y0002296119D01*
X0002846681Y0002294244D01*
X0002844806Y0002290494D01*
X0002844806Y0002282995D01*
X0002846681Y0002279246D01*
X0002848556Y0002277371D01*
X0002852305Y0002275496D01*
X0002859805Y0002275496D01*
X0002863554Y0002277371D01*
X0002865429Y0002279246D01*
X0002867304Y0002282995D01*
X0002867304Y0002290494D01*
X0002865429Y0002294244D01*
X0002863554Y0002296119D01*
X0002859805Y0002297994D01*
X0002889801Y0002297994D02*
X0002886051Y0002299868D01*
X0002884176Y0002301743D01*
X0002882302Y0002305493D01*
X0002882302Y0002307367D01*
X0002884176Y0002311117D01*
X0002886051Y0002312992D01*
X0002889801Y0002314866D01*
X0002897300Y0002314866D01*
X0002901049Y0002312992D01*
X0002902924Y0002311117D01*
X0002904799Y0002307367D01*
X0002904799Y0002305493D01*
X0002902924Y0002301743D01*
X0002901049Y0002299868D01*
X0002897300Y0002297994D01*
X0002889801Y0002297994D01*
X0002886051Y0002296119D01*
X0002884176Y0002294244D01*
X0002882302Y0002290494D01*
X0002882302Y0002282995D01*
X0002884176Y0002279246D01*
X0002886051Y0002277371D01*
X0002889801Y0002275496D01*
X0002897300Y0002275496D01*
X0002901049Y0002277371D01*
X0002902924Y0002279246D01*
X0002904799Y0002282995D01*
X0002904799Y0002290494D01*
X0002902924Y0002294244D01*
X0002901049Y0002296119D01*
X0002897300Y0002297994D01*
X0002848556Y0002375496D02*
X0002856055Y0002375496D01*
X0002859805Y0002377371D01*
X0002861679Y0002379246D01*
X0002865429Y0002384870D01*
X0002867304Y0002392369D01*
X0002867304Y0002407367D01*
X0002865429Y0002411117D01*
X0002863554Y0002412992D01*
X0002859805Y0002414866D01*
X0002852305Y0002414866D01*
X0002848556Y0002412992D01*
X0002846681Y0002411117D01*
X0002844806Y0002407367D01*
X0002844806Y0002397994D01*
X0002846681Y0002394244D01*
X0002848556Y0002392369D01*
X0002852305Y0002390494D01*
X0002859805Y0002390494D01*
X0002863554Y0002392369D01*
X0002865429Y0002394244D01*
X0002867304Y0002397994D01*
X0002891676Y0002414866D02*
X0002895425Y0002414866D01*
X0002899175Y0002412992D01*
X0002901049Y0002411117D01*
X0002902924Y0002407367D01*
X0002904799Y0002399868D01*
X0002904799Y0002390494D01*
X0002902924Y0002382995D01*
X0002901049Y0002379246D01*
X0002899175Y0002377371D01*
X0002895425Y0002375496D01*
X0002891676Y0002375496D01*
X0002887926Y0002377371D01*
X0002886051Y0002379246D01*
X0002884176Y0002382995D01*
X0002882302Y0002390494D01*
X0002882302Y0002399868D01*
X0002884176Y0002407367D01*
X0002886051Y0002411117D01*
X0002887926Y0002412992D01*
X0002891676Y0002414866D01*
X0002848556Y0002475496D02*
X0002856055Y0002475496D01*
X0002859805Y0002477371D01*
X0002861679Y0002479246D01*
X0002865429Y0002484870D01*
X0002867304Y0002492369D01*
X0002867304Y0002507367D01*
X0002865429Y0002511117D01*
X0002863554Y0002512992D01*
X0002859805Y0002514866D01*
X0002852305Y0002514866D01*
X0002848556Y0002512992D01*
X0002846681Y0002511117D01*
X0002844806Y0002507367D01*
X0002844806Y0002497994D01*
X0002846681Y0002494244D01*
X0002848556Y0002492369D01*
X0002852305Y0002490494D01*
X0002859805Y0002490494D01*
X0002863554Y0002492369D01*
X0002865429Y0002494244D01*
X0002867304Y0002497994D01*
X0002882302Y0002511117D02*
X0002884176Y0002512992D01*
X0002887926Y0002514866D01*
X0002897300Y0002514866D01*
X0002901049Y0002512992D01*
X0002902924Y0002511117D01*
X0002904799Y0002507367D01*
X0002904799Y0002503618D01*
X0002902924Y0002497994D01*
X0002880427Y0002475496D01*
X0002904799Y0002475496D01*
X0002848556Y0002575496D02*
X0002856055Y0002575496D01*
X0002859805Y0002577371D01*
X0002861679Y0002579246D01*
X0002865429Y0002584870D01*
X0002867304Y0002592369D01*
X0002867304Y0002607367D01*
X0002865429Y0002611117D01*
X0002863554Y0002612992D01*
X0002859805Y0002614866D01*
X0002852305Y0002614866D01*
X0002848556Y0002612992D01*
X0002846681Y0002611117D01*
X0002844806Y0002607367D01*
X0002844806Y0002597994D01*
X0002846681Y0002594244D01*
X0002848556Y0002592369D01*
X0002852305Y0002590494D01*
X0002859805Y0002590494D01*
X0002863554Y0002592369D01*
X0002865429Y0002594244D01*
X0002867304Y0002597994D01*
X0002901049Y0002601743D02*
X0002901049Y0002575496D01*
X0002891676Y0002616741D02*
X0002882302Y0002588620D01*
X0002906674Y0002588620D01*
X0002848556Y0002675496D02*
X0002856055Y0002675496D01*
X0002859805Y0002677371D01*
X0002861679Y0002679246D01*
X0002865429Y0002684870D01*
X0002867304Y0002692369D01*
X0002867304Y0002707367D01*
X0002865429Y0002711117D01*
X0002863554Y0002712992D01*
X0002859805Y0002714866D01*
X0002852305Y0002714866D01*
X0002848556Y0002712992D01*
X0002846681Y0002711117D01*
X0002844806Y0002707367D01*
X0002844806Y0002697994D01*
X0002846681Y0002694244D01*
X0002848556Y0002692369D01*
X0002852305Y0002690494D01*
X0002859805Y0002690494D01*
X0002863554Y0002692369D01*
X0002865429Y0002694244D01*
X0002867304Y0002697994D01*
X0002901049Y0002714866D02*
X0002893550Y0002714866D01*
X0002889801Y0002712992D01*
X0002887926Y0002711117D01*
X0002884176Y0002705493D01*
X0002882302Y0002697994D01*
X0002882302Y0002682995D01*
X0002884176Y0002679246D01*
X0002886051Y0002677371D01*
X0002889801Y0002675496D01*
X0002897300Y0002675496D01*
X0002901049Y0002677371D01*
X0002902924Y0002679246D01*
X0002904799Y0002682995D01*
X0002904799Y0002692369D01*
X0002902924Y0002696119D01*
X0002901049Y0002697994D01*
X0002897300Y0002699868D01*
X0002889801Y0002699868D01*
X0002886051Y0002697994D01*
X0002884176Y0002696119D01*
X0002882302Y0002692369D01*
X0002848162Y0002769591D02*
X0002855661Y0002769591D01*
X0002859411Y0002771466D01*
X0002861286Y0002773340D01*
X0002865035Y0002778965D01*
X0002866910Y0002786464D01*
X0002866910Y0002801462D01*
X0002865035Y0002805211D01*
X0002863160Y0002807086D01*
X0002859411Y0002808961D01*
X0002851912Y0002808961D01*
X0002848162Y0002807086D01*
X0002846287Y0002805211D01*
X0002844413Y0002801462D01*
X0002844413Y0002792088D01*
X0002846287Y0002788338D01*
X0002848162Y0002786464D01*
X0002851912Y0002784589D01*
X0002859411Y0002784589D01*
X0002863160Y0002786464D01*
X0002865035Y0002788338D01*
X0002866910Y0002792088D01*
X0002889407Y0002792088D02*
X0002885658Y0002793963D01*
X0002883783Y0002795838D01*
X0002881908Y0002799587D01*
X0002881908Y0002801462D01*
X0002883783Y0002805211D01*
X0002885658Y0002807086D01*
X0002889407Y0002808961D01*
X0002896906Y0002808961D01*
X0002900656Y0002807086D01*
X0002902530Y0002805211D01*
X0002904405Y0002801462D01*
X0002904405Y0002799587D01*
X0002902530Y0002795838D01*
X0002900656Y0002793963D01*
X0002896906Y0002792088D01*
X0002889407Y0002792088D01*
X0002885658Y0002790213D01*
X0002883783Y0002788338D01*
X0002881908Y0002784589D01*
X0002881908Y0002777090D01*
X0002883783Y0002773340D01*
X0002885658Y0002771466D01*
X0002889407Y0002769591D01*
X0002896906Y0002769591D01*
X0002900656Y0002771466D01*
X0002902530Y0002773340D01*
X0002904405Y0002777090D01*
X0002904405Y0002784589D01*
X0002902530Y0002788338D01*
X0002900656Y0002790213D01*
X0002896906Y0002792088D01*
X0002855249Y0002873528D02*
X0002832752Y0002873528D01*
X0002844000Y0002873528D02*
X0002844000Y0002912898D01*
X0002840251Y0002907274D01*
X0002836501Y0002903524D01*
X0002832752Y0002901649D01*
X0002879621Y0002912898D02*
X0002883370Y0002912898D01*
X0002887120Y0002911023D01*
X0002888995Y0002909148D01*
X0002890869Y0002905399D01*
X0002892744Y0002897900D01*
X0002892744Y0002888526D01*
X0002890869Y0002881027D01*
X0002888995Y0002877277D01*
X0002887120Y0002875403D01*
X0002883370Y0002873528D01*
X0002879621Y0002873528D01*
X0002875871Y0002875403D01*
X0002873997Y0002877277D01*
X0002872122Y0002881027D01*
X0002870247Y0002888526D01*
X0002870247Y0002897900D01*
X0002872122Y0002905399D01*
X0002873997Y0002909148D01*
X0002875871Y0002911023D01*
X0002879621Y0002912898D01*
X0002917116Y0002912898D02*
X0002920866Y0002912898D01*
X0002924615Y0002911023D01*
X0002926490Y0002909148D01*
X0002928365Y0002905399D01*
X0002930240Y0002897900D01*
X0002930240Y0002888526D01*
X0002928365Y0002881027D01*
X0002926490Y0002877277D01*
X0002924615Y0002875403D01*
X0002920866Y0002873528D01*
X0002917116Y0002873528D01*
X0002913367Y0002875403D01*
X0002911492Y0002877277D01*
X0002909617Y0002881027D01*
X0002907742Y0002888526D01*
X0002907742Y0002897900D01*
X0002909617Y0002905399D01*
X0002911492Y0002909148D01*
X0002913367Y0002911023D01*
X0002917116Y0002912898D01*
X0002855249Y0002973528D02*
X0002832752Y0002973528D01*
X0002844000Y0002973528D02*
X0002844000Y0003012898D01*
X0002840251Y0003007274D01*
X0002836501Y0003003524D01*
X0002832752Y0003001649D01*
X0002879621Y0003012898D02*
X0002883370Y0003012898D01*
X0002887120Y0003011023D01*
X0002888995Y0003009148D01*
X0002890869Y0003005399D01*
X0002892744Y0002997900D01*
X0002892744Y0002988526D01*
X0002890869Y0002981027D01*
X0002888995Y0002977277D01*
X0002887120Y0002975403D01*
X0002883370Y0002973528D01*
X0002879621Y0002973528D01*
X0002875871Y0002975403D01*
X0002873997Y0002977277D01*
X0002872122Y0002981027D01*
X0002870247Y0002988526D01*
X0002870247Y0002997900D01*
X0002872122Y0003005399D01*
X0002873997Y0003009148D01*
X0002875871Y0003011023D01*
X0002879621Y0003012898D01*
X0002907742Y0003009148D02*
X0002909617Y0003011023D01*
X0002913367Y0003012898D01*
X0002922740Y0003012898D01*
X0002926490Y0003011023D01*
X0002928365Y0003009148D01*
X0002930240Y0003005399D01*
X0002930240Y0003001649D01*
X0002928365Y0002996025D01*
X0002905868Y0002973528D01*
X0002930240Y0002973528D01*
X0002855249Y0003073528D02*
X0002832752Y0003073528D01*
X0002844000Y0003073528D02*
X0002844000Y0003112898D01*
X0002840251Y0003107274D01*
X0002836501Y0003103524D01*
X0002832752Y0003101649D01*
X0002879621Y0003112898D02*
X0002883370Y0003112898D01*
X0002887120Y0003111023D01*
X0002888995Y0003109148D01*
X0002890869Y0003105399D01*
X0002892744Y0003097900D01*
X0002892744Y0003088526D01*
X0002890869Y0003081027D01*
X0002888995Y0003077277D01*
X0002887120Y0003075403D01*
X0002883370Y0003073528D01*
X0002879621Y0003073528D01*
X0002875871Y0003075403D01*
X0002873997Y0003077277D01*
X0002872122Y0003081027D01*
X0002870247Y0003088526D01*
X0002870247Y0003097900D01*
X0002872122Y0003105399D01*
X0002873997Y0003109148D01*
X0002875871Y0003111023D01*
X0002879621Y0003112898D01*
X0002926490Y0003099775D02*
X0002926490Y0003073528D01*
X0002917116Y0003114773D02*
X0002907742Y0003086651D01*
X0002932114Y0003086651D01*
X0002855249Y0003173528D02*
X0002832752Y0003173528D01*
X0002844000Y0003173528D02*
X0002844000Y0003212898D01*
X0002840251Y0003207274D01*
X0002836501Y0003203524D01*
X0002832752Y0003201649D01*
X0002879621Y0003212898D02*
X0002883370Y0003212898D01*
X0002887120Y0003211023D01*
X0002888995Y0003209148D01*
X0002890869Y0003205399D01*
X0002892744Y0003197900D01*
X0002892744Y0003188526D01*
X0002890869Y0003181027D01*
X0002888995Y0003177277D01*
X0002887120Y0003175403D01*
X0002883370Y0003173528D01*
X0002879621Y0003173528D01*
X0002875871Y0003175403D01*
X0002873997Y0003177277D01*
X0002872122Y0003181027D01*
X0002870247Y0003188526D01*
X0002870247Y0003197900D01*
X0002872122Y0003205399D01*
X0002873997Y0003209148D01*
X0002875871Y0003211023D01*
X0002879621Y0003212898D01*
X0002926490Y0003212898D02*
X0002918991Y0003212898D01*
X0002915241Y0003211023D01*
X0002913367Y0003209148D01*
X0002909617Y0003203524D01*
X0002907742Y0003196025D01*
X0002907742Y0003181027D01*
X0002909617Y0003177277D01*
X0002911492Y0003175403D01*
X0002915241Y0003173528D01*
X0002922740Y0003173528D01*
X0002926490Y0003175403D01*
X0002928365Y0003177277D01*
X0002930240Y0003181027D01*
X0002930240Y0003190401D01*
X0002928365Y0003194150D01*
X0002926490Y0003196025D01*
X0002922740Y0003197900D01*
X0002915241Y0003197900D01*
X0002911492Y0003196025D01*
X0002909617Y0003194150D01*
X0002907742Y0003190401D01*
X0002855249Y0003273528D02*
X0002832752Y0003273528D01*
X0002844000Y0003273528D02*
X0002844000Y0003312898D01*
X0002840251Y0003307274D01*
X0002836501Y0003303524D01*
X0002832752Y0003301649D01*
X0002879621Y0003312898D02*
X0002883370Y0003312898D01*
X0002887120Y0003311023D01*
X0002888995Y0003309148D01*
X0002890869Y0003305399D01*
X0002892744Y0003297900D01*
X0002892744Y0003288526D01*
X0002890869Y0003281027D01*
X0002888995Y0003277277D01*
X0002887120Y0003275403D01*
X0002883370Y0003273528D01*
X0002879621Y0003273528D01*
X0002875871Y0003275403D01*
X0002873997Y0003277277D01*
X0002872122Y0003281027D01*
X0002870247Y0003288526D01*
X0002870247Y0003297900D01*
X0002872122Y0003305399D01*
X0002873997Y0003309148D01*
X0002875871Y0003311023D01*
X0002879621Y0003312898D01*
X0002915241Y0003296025D02*
X0002911492Y0003297900D01*
X0002909617Y0003299775D01*
X0002907742Y0003303524D01*
X0002907742Y0003305399D01*
X0002909617Y0003309148D01*
X0002911492Y0003311023D01*
X0002915241Y0003312898D01*
X0002922740Y0003312898D01*
X0002926490Y0003311023D01*
X0002928365Y0003309148D01*
X0002930240Y0003305399D01*
X0002930240Y0003303524D01*
X0002928365Y0003299775D01*
X0002926490Y0003297900D01*
X0002922740Y0003296025D01*
X0002915241Y0003296025D01*
X0002911492Y0003294150D01*
X0002909617Y0003292275D01*
X0002907742Y0003288526D01*
X0002907742Y0003281027D01*
X0002909617Y0003277277D01*
X0002911492Y0003275403D01*
X0002915241Y0003273528D01*
X0002922740Y0003273528D01*
X0002926490Y0003275403D01*
X0002928365Y0003277277D01*
X0002930240Y0003281027D01*
X0002930240Y0003288526D01*
X0002928365Y0003292275D01*
X0002926490Y0003294150D01*
X0002922740Y0003296025D01*
X0002363085Y0003428871D02*
X0002363085Y0003406374D01*
X0002363085Y0003417622D02*
X0002323715Y0003417622D01*
X0002329340Y0003413873D01*
X0002333089Y0003410123D01*
X0002334964Y0003406374D01*
X0002323715Y0003453243D02*
X0002323715Y0003456992D01*
X0002325590Y0003460742D01*
X0002327465Y0003462617D01*
X0002331214Y0003464491D01*
X0002338713Y0003466366D01*
X0002348087Y0003466366D01*
X0002355586Y0003464491D01*
X0002359336Y0003462617D01*
X0002361211Y0003460742D01*
X0002363085Y0003456992D01*
X0002363085Y0003453243D01*
X0002361211Y0003449493D01*
X0002359336Y0003447619D01*
X0002355586Y0003445744D01*
X0002348087Y0003443869D01*
X0002338713Y0003443869D01*
X0002331214Y0003445744D01*
X0002327465Y0003447619D01*
X0002325590Y0003449493D01*
X0002323715Y0003453243D01*
X0002363085Y0003485114D02*
X0002363085Y0003492613D01*
X0002361211Y0003496362D01*
X0002359336Y0003498237D01*
X0002353712Y0003501987D01*
X0002346212Y0003503862D01*
X0002331214Y0003503862D01*
X0002327465Y0003501987D01*
X0002325590Y0003500112D01*
X0002323715Y0003496362D01*
X0002323715Y0003488863D01*
X0002325590Y0003485114D01*
X0002327465Y0003483239D01*
X0002331214Y0003481364D01*
X0002340588Y0003481364D01*
X0002344338Y0003483239D01*
X0002346212Y0003485114D01*
X0002348087Y0003488863D01*
X0002348087Y0003496362D01*
X0002346212Y0003500112D01*
X0002344338Y0003501987D01*
X0002340588Y0003503862D01*
X0002263873Y0003429265D02*
X0002263873Y0003406767D01*
X0002263873Y0003418016D02*
X0002224503Y0003418016D01*
X0002230127Y0003414266D01*
X0002233877Y0003410517D01*
X0002235751Y0003406767D01*
X0002263873Y0003466760D02*
X0002263873Y0003444263D01*
X0002263873Y0003455511D02*
X0002224503Y0003455511D01*
X0002230127Y0003451762D01*
X0002233877Y0003448012D01*
X0002235751Y0003444263D01*
X0002263873Y0003504255D02*
X0002263873Y0003481758D01*
X0002263873Y0003493007D02*
X0002224503Y0003493007D01*
X0002230127Y0003489257D01*
X0002233877Y0003485508D01*
X0002235751Y0003481758D01*
X0002163873Y0003429265D02*
X0002163873Y0003406767D01*
X0002163873Y0003418016D02*
X0002124503Y0003418016D01*
X0002130127Y0003414266D01*
X0002133877Y0003410517D01*
X0002135751Y0003406767D01*
X0002163873Y0003466760D02*
X0002163873Y0003444263D01*
X0002163873Y0003455511D02*
X0002124503Y0003455511D01*
X0002130127Y0003451762D01*
X0002133877Y0003448012D01*
X0002135751Y0003444263D01*
X0002124503Y0003479883D02*
X0002124503Y0003504255D01*
X0002139501Y0003491132D01*
X0002139501Y0003496756D01*
X0002141376Y0003500506D01*
X0002143250Y0003502380D01*
X0002147000Y0003504255D01*
X0002156374Y0003504255D01*
X0002160123Y0003502380D01*
X0002161998Y0003500506D01*
X0002163873Y0003496756D01*
X0002163873Y0003485508D01*
X0002161998Y0003481758D01*
X0002160123Y0003479883D01*
X0002063873Y0003429265D02*
X0002063873Y0003406767D01*
X0002063873Y0003418016D02*
X0002024503Y0003418016D01*
X0002030127Y0003414266D01*
X0002033877Y0003410517D01*
X0002035751Y0003406767D01*
X0002063873Y0003466760D02*
X0002063873Y0003444263D01*
X0002063873Y0003455511D02*
X0002024503Y0003455511D01*
X0002030127Y0003451762D01*
X0002033877Y0003448012D01*
X0002035751Y0003444263D01*
X0002024503Y0003502380D02*
X0002024503Y0003483633D01*
X0002043250Y0003481758D01*
X0002041376Y0003483633D01*
X0002039501Y0003487382D01*
X0002039501Y0003496756D01*
X0002041376Y0003500506D01*
X0002043250Y0003502380D01*
X0002047000Y0003504255D01*
X0002056374Y0003504255D01*
X0002060123Y0003502380D01*
X0002061998Y0003500506D01*
X0002063873Y0003496756D01*
X0002063873Y0003487382D01*
X0002061998Y0003483633D01*
X0002060123Y0003481758D01*
X0001963873Y0003429265D02*
X0001963873Y0003406767D01*
X0001963873Y0003418016D02*
X0001924503Y0003418016D01*
X0001930127Y0003414266D01*
X0001933877Y0003410517D01*
X0001935751Y0003406767D01*
X0001963873Y0003466760D02*
X0001963873Y0003444263D01*
X0001963873Y0003455511D02*
X0001924503Y0003455511D01*
X0001930127Y0003451762D01*
X0001933877Y0003448012D01*
X0001935751Y0003444263D01*
X0001924503Y0003479883D02*
X0001924503Y0003506130D01*
X0001963873Y0003489257D01*
X0001863873Y0003429265D02*
X0001863873Y0003406767D01*
X0001863873Y0003418016D02*
X0001824503Y0003418016D01*
X0001830127Y0003414266D01*
X0001833877Y0003410517D01*
X0001835751Y0003406767D01*
X0001863873Y0003466760D02*
X0001863873Y0003444263D01*
X0001863873Y0003455511D02*
X0001824503Y0003455511D01*
X0001830127Y0003451762D01*
X0001833877Y0003448012D01*
X0001835751Y0003444263D01*
X0001863873Y0003485508D02*
X0001863873Y0003493007D01*
X0001861998Y0003496756D01*
X0001860123Y0003498631D01*
X0001854499Y0003502380D01*
X0001847000Y0003504255D01*
X0001832002Y0003504255D01*
X0001828252Y0003502380D01*
X0001826377Y0003500506D01*
X0001824503Y0003496756D01*
X0001824503Y0003489257D01*
X0001826377Y0003485508D01*
X0001828252Y0003483633D01*
X0001832002Y0003481758D01*
X0001841376Y0003481758D01*
X0001845125Y0003483633D01*
X0001847000Y0003485508D01*
X0001848875Y0003489257D01*
X0001848875Y0003496756D01*
X0001847000Y0003500506D01*
X0001845125Y0003502380D01*
X0001841376Y0003504255D01*
X0001763873Y0003429265D02*
X0001763873Y0003406767D01*
X0001763873Y0003418016D02*
X0001724503Y0003418016D01*
X0001730127Y0003414266D01*
X0001733877Y0003410517D01*
X0001735751Y0003406767D01*
X0001728252Y0003444263D02*
X0001726377Y0003446137D01*
X0001724503Y0003449887D01*
X0001724503Y0003459261D01*
X0001726377Y0003463010D01*
X0001728252Y0003464885D01*
X0001732002Y0003466760D01*
X0001735751Y0003466760D01*
X0001741376Y0003464885D01*
X0001763873Y0003442388D01*
X0001763873Y0003466760D01*
X0001763873Y0003504255D02*
X0001763873Y0003481758D01*
X0001763873Y0003493007D02*
X0001724503Y0003493007D01*
X0001730127Y0003489257D01*
X0001733877Y0003485508D01*
X0001735751Y0003481758D01*
X0001663873Y0003429265D02*
X0001663873Y0003406767D01*
X0001663873Y0003418016D02*
X0001624503Y0003418016D01*
X0001630127Y0003414266D01*
X0001633877Y0003410517D01*
X0001635751Y0003406767D01*
X0001628252Y0003444263D02*
X0001626377Y0003446137D01*
X0001624503Y0003449887D01*
X0001624503Y0003459261D01*
X0001626377Y0003463010D01*
X0001628252Y0003464885D01*
X0001632002Y0003466760D01*
X0001635751Y0003466760D01*
X0001641376Y0003464885D01*
X0001663873Y0003442388D01*
X0001663873Y0003466760D01*
X0001624503Y0003479883D02*
X0001624503Y0003504255D01*
X0001639501Y0003491132D01*
X0001639501Y0003496756D01*
X0001641376Y0003500506D01*
X0001643250Y0003502380D01*
X0001647000Y0003504255D01*
X0001656374Y0003504255D01*
X0001660123Y0003502380D01*
X0001661998Y0003500506D01*
X0001663873Y0003496756D01*
X0001663873Y0003485508D01*
X0001661998Y0003481758D01*
X0001660123Y0003479883D01*
X0001563873Y0003429265D02*
X0001563873Y0003406767D01*
X0001563873Y0003418016D02*
X0001524503Y0003418016D01*
X0001530127Y0003414266D01*
X0001533877Y0003410517D01*
X0001535751Y0003406767D01*
X0001528252Y0003444263D02*
X0001526377Y0003446137D01*
X0001524503Y0003449887D01*
X0001524503Y0003459261D01*
X0001526377Y0003463010D01*
X0001528252Y0003464885D01*
X0001532002Y0003466760D01*
X0001535751Y0003466760D01*
X0001541376Y0003464885D01*
X0001563873Y0003442388D01*
X0001563873Y0003466760D01*
X0001524503Y0003502380D02*
X0001524503Y0003483633D01*
X0001543250Y0003481758D01*
X0001541376Y0003483633D01*
X0001539501Y0003487382D01*
X0001539501Y0003496756D01*
X0001541376Y0003500506D01*
X0001543250Y0003502380D01*
X0001547000Y0003504255D01*
X0001556374Y0003504255D01*
X0001560123Y0003502380D01*
X0001561998Y0003500506D01*
X0001563873Y0003496756D01*
X0001563873Y0003487382D01*
X0001561998Y0003483633D01*
X0001560123Y0003481758D01*
X0001463873Y0003429265D02*
X0001463873Y0003406767D01*
X0001463873Y0003418016D02*
X0001424503Y0003418016D01*
X0001430127Y0003414266D01*
X0001433877Y0003410517D01*
X0001435751Y0003406767D01*
X0001428252Y0003444263D02*
X0001426377Y0003446137D01*
X0001424503Y0003449887D01*
X0001424503Y0003459261D01*
X0001426377Y0003463010D01*
X0001428252Y0003464885D01*
X0001432002Y0003466760D01*
X0001435751Y0003466760D01*
X0001441376Y0003464885D01*
X0001463873Y0003442388D01*
X0001463873Y0003466760D01*
X0001424503Y0003479883D02*
X0001424503Y0003506130D01*
X0001463873Y0003489257D01*
X0001363873Y0003429265D02*
X0001363873Y0003406767D01*
X0001363873Y0003418016D02*
X0001324503Y0003418016D01*
X0001330127Y0003414266D01*
X0001333877Y0003410517D01*
X0001335751Y0003406767D01*
X0001328252Y0003444263D02*
X0001326377Y0003446137D01*
X0001324503Y0003449887D01*
X0001324503Y0003459261D01*
X0001326377Y0003463010D01*
X0001328252Y0003464885D01*
X0001332002Y0003466760D01*
X0001335751Y0003466760D01*
X0001341376Y0003464885D01*
X0001363873Y0003442388D01*
X0001363873Y0003466760D01*
X0001363873Y0003485508D02*
X0001363873Y0003493007D01*
X0001361998Y0003496756D01*
X0001360123Y0003498631D01*
X0001354499Y0003502380D01*
X0001347000Y0003504255D01*
X0001332002Y0003504255D01*
X0001328252Y0003502380D01*
X0001326377Y0003500506D01*
X0001324503Y0003496756D01*
X0001324503Y0003489257D01*
X0001326377Y0003485508D01*
X0001328252Y0003483633D01*
X0001332002Y0003481758D01*
X0001341376Y0003481758D01*
X0001345125Y0003483633D01*
X0001347000Y0003485508D01*
X0001348875Y0003489257D01*
X0001348875Y0003496756D01*
X0001347000Y0003500506D01*
X0001345125Y0003502380D01*
X0001341376Y0003504255D01*
X0001263873Y0003429265D02*
X0001263873Y0003406767D01*
X0001263873Y0003418016D02*
X0001224503Y0003418016D01*
X0001230127Y0003414266D01*
X0001233877Y0003410517D01*
X0001235751Y0003406767D01*
X0001224503Y0003442388D02*
X0001224503Y0003466760D01*
X0001239501Y0003453637D01*
X0001239501Y0003459261D01*
X0001241376Y0003463010D01*
X0001243250Y0003464885D01*
X0001247000Y0003466760D01*
X0001256374Y0003466760D01*
X0001260123Y0003464885D01*
X0001261998Y0003463010D01*
X0001263873Y0003459261D01*
X0001263873Y0003448012D01*
X0001261998Y0003444263D01*
X0001260123Y0003442388D01*
X0001263873Y0003504255D02*
X0001263873Y0003481758D01*
X0001263873Y0003493007D02*
X0001224503Y0003493007D01*
X0001230127Y0003489257D01*
X0001233877Y0003485508D01*
X0001235751Y0003481758D01*
X0001163873Y0003429265D02*
X0001163873Y0003406767D01*
X0001163873Y0003418016D02*
X0001124503Y0003418016D01*
X0001130127Y0003414266D01*
X0001133877Y0003410517D01*
X0001135751Y0003406767D01*
X0001124503Y0003442388D02*
X0001124503Y0003466760D01*
X0001139501Y0003453637D01*
X0001139501Y0003459261D01*
X0001141376Y0003463010D01*
X0001143250Y0003464885D01*
X0001147000Y0003466760D01*
X0001156374Y0003466760D01*
X0001160123Y0003464885D01*
X0001161998Y0003463010D01*
X0001163873Y0003459261D01*
X0001163873Y0003448012D01*
X0001161998Y0003444263D01*
X0001160123Y0003442388D01*
X0001124503Y0003479883D02*
X0001124503Y0003504255D01*
X0001139501Y0003491132D01*
X0001139501Y0003496756D01*
X0001141376Y0003500506D01*
X0001143250Y0003502380D01*
X0001147000Y0003504255D01*
X0001156374Y0003504255D01*
X0001160123Y0003502380D01*
X0001161998Y0003500506D01*
X0001163873Y0003496756D01*
X0001163873Y0003485508D01*
X0001161998Y0003481758D01*
X0001160123Y0003479883D01*
X0001063873Y0003429265D02*
X0001063873Y0003406767D01*
X0001063873Y0003418016D02*
X0001024503Y0003418016D01*
X0001030127Y0003414266D01*
X0001033877Y0003410517D01*
X0001035751Y0003406767D01*
X0001024503Y0003442388D02*
X0001024503Y0003466760D01*
X0001039501Y0003453637D01*
X0001039501Y0003459261D01*
X0001041376Y0003463010D01*
X0001043250Y0003464885D01*
X0001047000Y0003466760D01*
X0001056374Y0003466760D01*
X0001060123Y0003464885D01*
X0001061998Y0003463010D01*
X0001063873Y0003459261D01*
X0001063873Y0003448012D01*
X0001061998Y0003444263D01*
X0001060123Y0003442388D01*
X0001024503Y0003502380D02*
X0001024503Y0003483633D01*
X0001043250Y0003481758D01*
X0001041376Y0003483633D01*
X0001039501Y0003487382D01*
X0001039501Y0003496756D01*
X0001041376Y0003500506D01*
X0001043250Y0003502380D01*
X0001047000Y0003504255D01*
X0001056374Y0003504255D01*
X0001060123Y0003502380D01*
X0001061998Y0003500506D01*
X0001063873Y0003496756D01*
X0001063873Y0003487382D01*
X0001061998Y0003483633D01*
X0001060123Y0003481758D01*
X0000963873Y0003429265D02*
X0000963873Y0003406767D01*
X0000963873Y0003418016D02*
X0000924503Y0003418016D01*
X0000930127Y0003414266D01*
X0000933877Y0003410517D01*
X0000935751Y0003406767D01*
X0000924503Y0003442388D02*
X0000924503Y0003466760D01*
X0000939501Y0003453637D01*
X0000939501Y0003459261D01*
X0000941376Y0003463010D01*
X0000943250Y0003464885D01*
X0000947000Y0003466760D01*
X0000956374Y0003466760D01*
X0000960123Y0003464885D01*
X0000961998Y0003463010D01*
X0000963873Y0003459261D01*
X0000963873Y0003448012D01*
X0000961998Y0003444263D01*
X0000960123Y0003442388D01*
X0000924503Y0003479883D02*
X0000924503Y0003506130D01*
X0000963873Y0003489257D01*
X0000863873Y0003429265D02*
X0000863873Y0003406767D01*
X0000863873Y0003418016D02*
X0000824503Y0003418016D01*
X0000830127Y0003414266D01*
X0000833877Y0003410517D01*
X0000835751Y0003406767D01*
X0000824503Y0003442388D02*
X0000824503Y0003466760D01*
X0000839501Y0003453637D01*
X0000839501Y0003459261D01*
X0000841376Y0003463010D01*
X0000843250Y0003464885D01*
X0000847000Y0003466760D01*
X0000856374Y0003466760D01*
X0000860123Y0003464885D01*
X0000861998Y0003463010D01*
X0000863873Y0003459261D01*
X0000863873Y0003448012D01*
X0000861998Y0003444263D01*
X0000860123Y0003442388D01*
X0000863873Y0003485508D02*
X0000863873Y0003493007D01*
X0000861998Y0003496756D01*
X0000860123Y0003498631D01*
X0000854499Y0003502380D01*
X0000847000Y0003504255D01*
X0000832002Y0003504255D01*
X0000828252Y0003502380D01*
X0000826377Y0003500506D01*
X0000824503Y0003496756D01*
X0000824503Y0003489257D01*
X0000826377Y0003485508D01*
X0000828252Y0003483633D01*
X0000832002Y0003481758D01*
X0000841376Y0003481758D01*
X0000845125Y0003483633D01*
X0000847000Y0003485508D01*
X0000848875Y0003489257D01*
X0000848875Y0003496756D01*
X0000847000Y0003500506D01*
X0000845125Y0003502380D01*
X0000841376Y0003504255D01*
X0000763873Y0003429265D02*
X0000763873Y0003406767D01*
X0000763873Y0003418016D02*
X0000724503Y0003418016D01*
X0000730127Y0003414266D01*
X0000733877Y0003410517D01*
X0000735751Y0003406767D01*
X0000737626Y0003463010D02*
X0000763873Y0003463010D01*
X0000722628Y0003453637D02*
X0000750749Y0003444263D01*
X0000750749Y0003468635D01*
X0000763873Y0003504255D02*
X0000763873Y0003481758D01*
X0000763873Y0003493007D02*
X0000724503Y0003493007D01*
X0000730127Y0003489257D01*
X0000733877Y0003485508D01*
X0000735751Y0003481758D01*
X0000661511Y0003424934D02*
X0000661511Y0003402437D01*
X0000661511Y0003413685D02*
X0000622140Y0003413685D01*
X0000627765Y0003409936D01*
X0000631514Y0003406186D01*
X0000633389Y0003402437D01*
X0000635264Y0003458680D02*
X0000661511Y0003458680D01*
X0000620266Y0003449306D02*
X0000648387Y0003439932D01*
X0000648387Y0003464304D01*
X0000622140Y0003475553D02*
X0000622140Y0003499925D01*
X0000637139Y0003486801D01*
X0000637139Y0003492425D01*
X0000639013Y0003496175D01*
X0000640888Y0003498050D01*
X0000644638Y0003499925D01*
X0000654012Y0003499925D01*
X0000657761Y0003498050D01*
X0000659636Y0003496175D01*
X0000661511Y0003492425D01*
X0000661511Y0003481177D01*
X0000659636Y0003477427D01*
X0000657761Y0003475553D01*
X0002355211Y0003804461D02*
X0002355211Y0003781964D01*
X0002355211Y0003793213D02*
X0002315841Y0003793213D01*
X0002321466Y0003789463D01*
X0002325215Y0003785714D01*
X0002327090Y0003781964D01*
X0002355211Y0003841957D02*
X0002355211Y0003819460D01*
X0002355211Y0003830708D02*
X0002315841Y0003830708D01*
X0002321466Y0003826959D01*
X0002325215Y0003823209D01*
X0002327090Y0003819460D01*
X0002315841Y0003866329D02*
X0002315841Y0003870078D01*
X0002317716Y0003873828D01*
X0002319591Y0003875703D01*
X0002323340Y0003877577D01*
X0002330839Y0003879452D01*
X0002340213Y0003879452D01*
X0002347712Y0003877577D01*
X0002351462Y0003875703D01*
X0002353337Y0003873828D01*
X0002355211Y0003870078D01*
X0002355211Y0003866329D01*
X0002353337Y0003862579D01*
X0002351462Y0003860704D01*
X0002347712Y0003858830D01*
X0002340213Y0003856955D01*
X0002330839Y0003856955D01*
X0002323340Y0003858830D01*
X0002319591Y0003860704D01*
X0002317716Y0003862579D01*
X0002315841Y0003866329D01*
X0002255211Y0003804461D02*
X0002255211Y0003781964D01*
X0002255211Y0003793213D02*
X0002215841Y0003793213D01*
X0002221466Y0003789463D01*
X0002225215Y0003785714D01*
X0002227090Y0003781964D01*
X0002255211Y0003841957D02*
X0002255211Y0003819460D01*
X0002255211Y0003830708D02*
X0002215841Y0003830708D01*
X0002221466Y0003826959D01*
X0002225215Y0003823209D01*
X0002227090Y0003819460D01*
X0002219591Y0003856955D02*
X0002217716Y0003858830D01*
X0002215841Y0003862579D01*
X0002215841Y0003871953D01*
X0002217716Y0003875703D01*
X0002219591Y0003877577D01*
X0002223340Y0003879452D01*
X0002227090Y0003879452D01*
X0002232714Y0003877577D01*
X0002255211Y0003855080D01*
X0002255211Y0003879452D01*
X0002155211Y0003804461D02*
X0002155211Y0003781964D01*
X0002155211Y0003793213D02*
X0002115841Y0003793213D01*
X0002121466Y0003789463D01*
X0002125215Y0003785714D01*
X0002127090Y0003781964D01*
X0002155211Y0003841957D02*
X0002155211Y0003819460D01*
X0002155211Y0003830708D02*
X0002115841Y0003830708D01*
X0002121466Y0003826959D01*
X0002125215Y0003823209D01*
X0002127090Y0003819460D01*
X0002128965Y0003875703D02*
X0002155211Y0003875703D01*
X0002113967Y0003866329D02*
X0002142088Y0003856955D01*
X0002142088Y0003881327D01*
X0002055211Y0003804461D02*
X0002055211Y0003781964D01*
X0002055211Y0003793213D02*
X0002015841Y0003793213D01*
X0002021466Y0003789463D01*
X0002025215Y0003785714D01*
X0002027090Y0003781964D01*
X0002055211Y0003841957D02*
X0002055211Y0003819460D01*
X0002055211Y0003830708D02*
X0002015841Y0003830708D01*
X0002021466Y0003826959D01*
X0002025215Y0003823209D01*
X0002027090Y0003819460D01*
X0002015841Y0003875703D02*
X0002015841Y0003868203D01*
X0002017716Y0003864454D01*
X0002019591Y0003862579D01*
X0002025215Y0003858830D01*
X0002032714Y0003856955D01*
X0002047712Y0003856955D01*
X0002051462Y0003858830D01*
X0002053337Y0003860704D01*
X0002055211Y0003864454D01*
X0002055211Y0003871953D01*
X0002053337Y0003875703D01*
X0002051462Y0003877577D01*
X0002047712Y0003879452D01*
X0002038338Y0003879452D01*
X0002034589Y0003877577D01*
X0002032714Y0003875703D01*
X0002030839Y0003871953D01*
X0002030839Y0003864454D01*
X0002032714Y0003860704D01*
X0002034589Y0003858830D01*
X0002038338Y0003856955D01*
X0001955211Y0003804461D02*
X0001955211Y0003781964D01*
X0001955211Y0003793213D02*
X0001915841Y0003793213D01*
X0001921466Y0003789463D01*
X0001925215Y0003785714D01*
X0001927090Y0003781964D01*
X0001955211Y0003841957D02*
X0001955211Y0003819460D01*
X0001955211Y0003830708D02*
X0001915841Y0003830708D01*
X0001921466Y0003826959D01*
X0001925215Y0003823209D01*
X0001927090Y0003819460D01*
X0001932714Y0003864454D02*
X0001930839Y0003860704D01*
X0001928965Y0003858830D01*
X0001925215Y0003856955D01*
X0001923340Y0003856955D01*
X0001919591Y0003858830D01*
X0001917716Y0003860704D01*
X0001915841Y0003864454D01*
X0001915841Y0003871953D01*
X0001917716Y0003875703D01*
X0001919591Y0003877577D01*
X0001923340Y0003879452D01*
X0001925215Y0003879452D01*
X0001928965Y0003877577D01*
X0001930839Y0003875703D01*
X0001932714Y0003871953D01*
X0001932714Y0003864454D01*
X0001934589Y0003860704D01*
X0001936464Y0003858830D01*
X0001940213Y0003856955D01*
X0001947712Y0003856955D01*
X0001951462Y0003858830D01*
X0001953337Y0003860704D01*
X0001955211Y0003864454D01*
X0001955211Y0003871953D01*
X0001953337Y0003875703D01*
X0001951462Y0003877577D01*
X0001947712Y0003879452D01*
X0001940213Y0003879452D01*
X0001936464Y0003877577D01*
X0001934589Y0003875703D01*
X0001932714Y0003871953D01*
X0001855211Y0003804461D02*
X0001855211Y0003781964D01*
X0001855211Y0003793213D02*
X0001815841Y0003793213D01*
X0001821466Y0003789463D01*
X0001825215Y0003785714D01*
X0001827090Y0003781964D01*
X0001819591Y0003819460D02*
X0001817716Y0003821334D01*
X0001815841Y0003825084D01*
X0001815841Y0003834458D01*
X0001817716Y0003838207D01*
X0001819591Y0003840082D01*
X0001823340Y0003841957D01*
X0001827090Y0003841957D01*
X0001832714Y0003840082D01*
X0001855211Y0003817585D01*
X0001855211Y0003841957D01*
X0001815841Y0003866329D02*
X0001815841Y0003870078D01*
X0001817716Y0003873828D01*
X0001819591Y0003875703D01*
X0001823340Y0003877577D01*
X0001830839Y0003879452D01*
X0001840213Y0003879452D01*
X0001847712Y0003877577D01*
X0001851462Y0003875703D01*
X0001853337Y0003873828D01*
X0001855211Y0003870078D01*
X0001855211Y0003866329D01*
X0001853337Y0003862579D01*
X0001851462Y0003860704D01*
X0001847712Y0003858830D01*
X0001840213Y0003856955D01*
X0001830839Y0003856955D01*
X0001823340Y0003858830D01*
X0001819591Y0003860704D01*
X0001817716Y0003862579D01*
X0001815841Y0003866329D01*
X0001755211Y0003804461D02*
X0001755211Y0003781964D01*
X0001755211Y0003793213D02*
X0001715841Y0003793213D01*
X0001721466Y0003789463D01*
X0001725215Y0003785714D01*
X0001727090Y0003781964D01*
X0001719591Y0003819460D02*
X0001717716Y0003821334D01*
X0001715841Y0003825084D01*
X0001715841Y0003834458D01*
X0001717716Y0003838207D01*
X0001719591Y0003840082D01*
X0001723340Y0003841957D01*
X0001727090Y0003841957D01*
X0001732714Y0003840082D01*
X0001755211Y0003817585D01*
X0001755211Y0003841957D01*
X0001719591Y0003856955D02*
X0001717716Y0003858830D01*
X0001715841Y0003862579D01*
X0001715841Y0003871953D01*
X0001717716Y0003875703D01*
X0001719591Y0003877577D01*
X0001723340Y0003879452D01*
X0001727090Y0003879452D01*
X0001732714Y0003877577D01*
X0001755211Y0003855080D01*
X0001755211Y0003879452D01*
X0001655211Y0003804461D02*
X0001655211Y0003781964D01*
X0001655211Y0003793213D02*
X0001615841Y0003793213D01*
X0001621466Y0003789463D01*
X0001625215Y0003785714D01*
X0001627090Y0003781964D01*
X0001619591Y0003819460D02*
X0001617716Y0003821334D01*
X0001615841Y0003825084D01*
X0001615841Y0003834458D01*
X0001617716Y0003838207D01*
X0001619591Y0003840082D01*
X0001623340Y0003841957D01*
X0001627090Y0003841957D01*
X0001632714Y0003840082D01*
X0001655211Y0003817585D01*
X0001655211Y0003841957D01*
X0001628965Y0003875703D02*
X0001655211Y0003875703D01*
X0001613967Y0003866329D02*
X0001642088Y0003856955D01*
X0001642088Y0003881327D01*
X0001555211Y0003804461D02*
X0001555211Y0003781964D01*
X0001555211Y0003793213D02*
X0001515841Y0003793213D01*
X0001521466Y0003789463D01*
X0001525215Y0003785714D01*
X0001527090Y0003781964D01*
X0001519591Y0003819460D02*
X0001517716Y0003821334D01*
X0001515841Y0003825084D01*
X0001515841Y0003834458D01*
X0001517716Y0003838207D01*
X0001519591Y0003840082D01*
X0001523340Y0003841957D01*
X0001527090Y0003841957D01*
X0001532714Y0003840082D01*
X0001555211Y0003817585D01*
X0001555211Y0003841957D01*
X0001515841Y0003875703D02*
X0001515841Y0003868203D01*
X0001517716Y0003864454D01*
X0001519591Y0003862579D01*
X0001525215Y0003858830D01*
X0001532714Y0003856955D01*
X0001547712Y0003856955D01*
X0001551462Y0003858830D01*
X0001553337Y0003860704D01*
X0001555211Y0003864454D01*
X0001555211Y0003871953D01*
X0001553337Y0003875703D01*
X0001551462Y0003877577D01*
X0001547712Y0003879452D01*
X0001538338Y0003879452D01*
X0001534589Y0003877577D01*
X0001532714Y0003875703D01*
X0001530839Y0003871953D01*
X0001530839Y0003864454D01*
X0001532714Y0003860704D01*
X0001534589Y0003858830D01*
X0001538338Y0003856955D01*
X0001455211Y0003804461D02*
X0001455211Y0003781964D01*
X0001455211Y0003793213D02*
X0001415841Y0003793213D01*
X0001421466Y0003789463D01*
X0001425215Y0003785714D01*
X0001427090Y0003781964D01*
X0001419591Y0003819460D02*
X0001417716Y0003821334D01*
X0001415841Y0003825084D01*
X0001415841Y0003834458D01*
X0001417716Y0003838207D01*
X0001419591Y0003840082D01*
X0001423340Y0003841957D01*
X0001427090Y0003841957D01*
X0001432714Y0003840082D01*
X0001455211Y0003817585D01*
X0001455211Y0003841957D01*
X0001432714Y0003864454D02*
X0001430839Y0003860704D01*
X0001428965Y0003858830D01*
X0001425215Y0003856955D01*
X0001423340Y0003856955D01*
X0001419591Y0003858830D01*
X0001417716Y0003860704D01*
X0001415841Y0003864454D01*
X0001415841Y0003871953D01*
X0001417716Y0003875703D01*
X0001419591Y0003877577D01*
X0001423340Y0003879452D01*
X0001425215Y0003879452D01*
X0001428965Y0003877577D01*
X0001430839Y0003875703D01*
X0001432714Y0003871953D01*
X0001432714Y0003864454D01*
X0001434589Y0003860704D01*
X0001436464Y0003858830D01*
X0001440213Y0003856955D01*
X0001447712Y0003856955D01*
X0001451462Y0003858830D01*
X0001453337Y0003860704D01*
X0001455211Y0003864454D01*
X0001455211Y0003871953D01*
X0001453337Y0003875703D01*
X0001451462Y0003877577D01*
X0001447712Y0003879452D01*
X0001440213Y0003879452D01*
X0001436464Y0003877577D01*
X0001434589Y0003875703D01*
X0001432714Y0003871953D01*
X0001355211Y0003804461D02*
X0001355211Y0003781964D01*
X0001355211Y0003793213D02*
X0001315841Y0003793213D01*
X0001321466Y0003789463D01*
X0001325215Y0003785714D01*
X0001327090Y0003781964D01*
X0001315841Y0003817585D02*
X0001315841Y0003841957D01*
X0001330839Y0003828833D01*
X0001330839Y0003834458D01*
X0001332714Y0003838207D01*
X0001334589Y0003840082D01*
X0001338338Y0003841957D01*
X0001347712Y0003841957D01*
X0001351462Y0003840082D01*
X0001353337Y0003838207D01*
X0001355211Y0003834458D01*
X0001355211Y0003823209D01*
X0001353337Y0003819460D01*
X0001351462Y0003817585D01*
X0001315841Y0003866329D02*
X0001315841Y0003870078D01*
X0001317716Y0003873828D01*
X0001319591Y0003875703D01*
X0001323340Y0003877577D01*
X0001330839Y0003879452D01*
X0001340213Y0003879452D01*
X0001347712Y0003877577D01*
X0001351462Y0003875703D01*
X0001353337Y0003873828D01*
X0001355211Y0003870078D01*
X0001355211Y0003866329D01*
X0001353337Y0003862579D01*
X0001351462Y0003860704D01*
X0001347712Y0003858830D01*
X0001340213Y0003856955D01*
X0001330839Y0003856955D01*
X0001323340Y0003858830D01*
X0001319591Y0003860704D01*
X0001317716Y0003862579D01*
X0001315841Y0003866329D01*
X0001255211Y0003804461D02*
X0001255211Y0003781964D01*
X0001255211Y0003793213D02*
X0001215841Y0003793213D01*
X0001221466Y0003789463D01*
X0001225215Y0003785714D01*
X0001227090Y0003781964D01*
X0001215841Y0003817585D02*
X0001215841Y0003841957D01*
X0001230839Y0003828833D01*
X0001230839Y0003834458D01*
X0001232714Y0003838207D01*
X0001234589Y0003840082D01*
X0001238338Y0003841957D01*
X0001247712Y0003841957D01*
X0001251462Y0003840082D01*
X0001253337Y0003838207D01*
X0001255211Y0003834458D01*
X0001255211Y0003823209D01*
X0001253337Y0003819460D01*
X0001251462Y0003817585D01*
X0001219591Y0003856955D02*
X0001217716Y0003858830D01*
X0001215841Y0003862579D01*
X0001215841Y0003871953D01*
X0001217716Y0003875703D01*
X0001219591Y0003877577D01*
X0001223340Y0003879452D01*
X0001227090Y0003879452D01*
X0001232714Y0003877577D01*
X0001255211Y0003855080D01*
X0001255211Y0003879452D01*
X0001155211Y0003804461D02*
X0001155211Y0003781964D01*
X0001155211Y0003793213D02*
X0001115841Y0003793213D01*
X0001121466Y0003789463D01*
X0001125215Y0003785714D01*
X0001127090Y0003781964D01*
X0001115841Y0003817585D02*
X0001115841Y0003841957D01*
X0001130839Y0003828833D01*
X0001130839Y0003834458D01*
X0001132714Y0003838207D01*
X0001134589Y0003840082D01*
X0001138338Y0003841957D01*
X0001147712Y0003841957D01*
X0001151462Y0003840082D01*
X0001153337Y0003838207D01*
X0001155211Y0003834458D01*
X0001155211Y0003823209D01*
X0001153337Y0003819460D01*
X0001151462Y0003817585D01*
X0001128965Y0003875703D02*
X0001155211Y0003875703D01*
X0001113967Y0003866329D02*
X0001142088Y0003856955D01*
X0001142088Y0003881327D01*
X0001055211Y0003804461D02*
X0001055211Y0003781964D01*
X0001055211Y0003793213D02*
X0001015841Y0003793213D01*
X0001021466Y0003789463D01*
X0001025215Y0003785714D01*
X0001027090Y0003781964D01*
X0001015841Y0003817585D02*
X0001015841Y0003841957D01*
X0001030839Y0003828833D01*
X0001030839Y0003834458D01*
X0001032714Y0003838207D01*
X0001034589Y0003840082D01*
X0001038338Y0003841957D01*
X0001047712Y0003841957D01*
X0001051462Y0003840082D01*
X0001053337Y0003838207D01*
X0001055211Y0003834458D01*
X0001055211Y0003823209D01*
X0001053337Y0003819460D01*
X0001051462Y0003817585D01*
X0001015841Y0003875703D02*
X0001015841Y0003868203D01*
X0001017716Y0003864454D01*
X0001019591Y0003862579D01*
X0001025215Y0003858830D01*
X0001032714Y0003856955D01*
X0001047712Y0003856955D01*
X0001051462Y0003858830D01*
X0001053337Y0003860704D01*
X0001055211Y0003864454D01*
X0001055211Y0003871953D01*
X0001053337Y0003875703D01*
X0001051462Y0003877577D01*
X0001047712Y0003879452D01*
X0001038338Y0003879452D01*
X0001034589Y0003877577D01*
X0001032714Y0003875703D01*
X0001030839Y0003871953D01*
X0001030839Y0003864454D01*
X0001032714Y0003860704D01*
X0001034589Y0003858830D01*
X0001038338Y0003856955D01*
X0000955211Y0003804461D02*
X0000955211Y0003781964D01*
X0000955211Y0003793213D02*
X0000915841Y0003793213D01*
X0000921466Y0003789463D01*
X0000925215Y0003785714D01*
X0000927090Y0003781964D01*
X0000915841Y0003817585D02*
X0000915841Y0003841957D01*
X0000930839Y0003828833D01*
X0000930839Y0003834458D01*
X0000932714Y0003838207D01*
X0000934589Y0003840082D01*
X0000938338Y0003841957D01*
X0000947712Y0003841957D01*
X0000951462Y0003840082D01*
X0000953337Y0003838207D01*
X0000955211Y0003834458D01*
X0000955211Y0003823209D01*
X0000953337Y0003819460D01*
X0000951462Y0003817585D01*
X0000932714Y0003864454D02*
X0000930839Y0003860704D01*
X0000928965Y0003858830D01*
X0000925215Y0003856955D01*
X0000923340Y0003856955D01*
X0000919591Y0003858830D01*
X0000917716Y0003860704D01*
X0000915841Y0003864454D01*
X0000915841Y0003871953D01*
X0000917716Y0003875703D01*
X0000919591Y0003877577D01*
X0000923340Y0003879452D01*
X0000925215Y0003879452D01*
X0000928965Y0003877577D01*
X0000930839Y0003875703D01*
X0000932714Y0003871953D01*
X0000932714Y0003864454D01*
X0000934589Y0003860704D01*
X0000936464Y0003858830D01*
X0000940213Y0003856955D01*
X0000947712Y0003856955D01*
X0000951462Y0003858830D01*
X0000953337Y0003860704D01*
X0000955211Y0003864454D01*
X0000955211Y0003871953D01*
X0000953337Y0003875703D01*
X0000951462Y0003877577D01*
X0000947712Y0003879452D01*
X0000940213Y0003879452D01*
X0000936464Y0003877577D01*
X0000934589Y0003875703D01*
X0000932714Y0003871953D01*
X0000855211Y0003804461D02*
X0000855211Y0003781964D01*
X0000855211Y0003793213D02*
X0000815841Y0003793213D01*
X0000821466Y0003789463D01*
X0000825215Y0003785714D01*
X0000827090Y0003781964D01*
X0000828965Y0003838207D02*
X0000855211Y0003838207D01*
X0000813967Y0003828833D02*
X0000842088Y0003819460D01*
X0000842088Y0003843832D01*
X0000815841Y0003866329D02*
X0000815841Y0003870078D01*
X0000817716Y0003873828D01*
X0000819591Y0003875703D01*
X0000823340Y0003877577D01*
X0000830839Y0003879452D01*
X0000840213Y0003879452D01*
X0000847712Y0003877577D01*
X0000851462Y0003875703D01*
X0000853337Y0003873828D01*
X0000855211Y0003870078D01*
X0000855211Y0003866329D01*
X0000853337Y0003862579D01*
X0000851462Y0003860704D01*
X0000847712Y0003858830D01*
X0000840213Y0003856955D01*
X0000830839Y0003856955D01*
X0000823340Y0003858830D01*
X0000819591Y0003860704D01*
X0000817716Y0003862579D01*
X0000815841Y0003866329D01*
X0000755211Y0003804461D02*
X0000755211Y0003781964D01*
X0000755211Y0003793213D02*
X0000715841Y0003793213D01*
X0000721466Y0003789463D01*
X0000725215Y0003785714D01*
X0000727090Y0003781964D01*
X0000728965Y0003838207D02*
X0000755211Y0003838207D01*
X0000713967Y0003828833D02*
X0000742088Y0003819460D01*
X0000742088Y0003843832D01*
X0000719591Y0003856955D02*
X0000717716Y0003858830D01*
X0000715841Y0003862579D01*
X0000715841Y0003871953D01*
X0000717716Y0003875703D01*
X0000719591Y0003877577D01*
X0000723340Y0003879452D01*
X0000727090Y0003879452D01*
X0000732714Y0003877577D01*
X0000755211Y0003855080D01*
X0000755211Y0003879452D01*
X0000655211Y0003804461D02*
X0000655211Y0003781964D01*
X0000655211Y0003793213D02*
X0000615841Y0003793213D01*
X0000621466Y0003789463D01*
X0000625215Y0003785714D01*
X0000627090Y0003781964D01*
X0000628965Y0003838207D02*
X0000655211Y0003838207D01*
X0000613967Y0003828833D02*
X0000642088Y0003819460D01*
X0000642088Y0003843832D01*
X0000628965Y0003875703D02*
X0000655211Y0003875703D01*
X0000613967Y0003866329D02*
X0000642088Y0003856955D01*
X0000642088Y0003881327D01*
X0002320172Y0001382302D02*
X0002320172Y0001408548D01*
X0002359542Y0001391676D01*
X0002359542Y0001444169D02*
X0002359542Y0001421672D01*
X0002359542Y0001432920D02*
X0002320172Y0001432920D01*
X0002325796Y0001429171D01*
X0002329546Y0001425421D01*
X0002331421Y0001421672D01*
X0002220566Y0001400562D02*
X0002220566Y0001393063D01*
X0002222440Y0001389313D01*
X0002224315Y0001387439D01*
X0002229940Y0001383689D01*
X0002237439Y0001381814D01*
X0002252437Y0001381814D01*
X0002256186Y0001383689D01*
X0002258061Y0001385564D01*
X0002259936Y0001389313D01*
X0002259936Y0001396812D01*
X0002258061Y0001400562D01*
X0002256186Y0001402437D01*
X0002252437Y0001404311D01*
X0002243063Y0001404311D01*
X0002239313Y0001402437D01*
X0002237439Y0001400562D01*
X0002235564Y0001396812D01*
X0002235564Y0001389313D01*
X0002237439Y0001385564D01*
X0002239313Y0001383689D01*
X0002243063Y0001381814D01*
X0002259936Y0001423059D02*
X0002259936Y0001430558D01*
X0002258061Y0001434308D01*
X0002256186Y0001436182D01*
X0002250562Y0001439932D01*
X0002243063Y0001441807D01*
X0002228065Y0001441807D01*
X0002224315Y0001439932D01*
X0002222440Y0001438057D01*
X0002220566Y0001434308D01*
X0002220566Y0001426809D01*
X0002222440Y0001423059D01*
X0002224315Y0001421184D01*
X0002228065Y0001419310D01*
X0002237439Y0001419310D01*
X0002241188Y0001421184D01*
X0002243063Y0001423059D01*
X0002244938Y0001426809D01*
X0002244938Y0001434308D01*
X0002243063Y0001438057D01*
X0002241188Y0001439932D01*
X0002237439Y0001441807D01*
X0002120566Y0001400562D02*
X0002120566Y0001393063D01*
X0002122440Y0001389313D01*
X0002124315Y0001387439D01*
X0002129940Y0001383689D01*
X0002137439Y0001381814D01*
X0002152437Y0001381814D01*
X0002156186Y0001383689D01*
X0002158061Y0001385564D01*
X0002159936Y0001389313D01*
X0002159936Y0001396812D01*
X0002158061Y0001400562D01*
X0002156186Y0001402437D01*
X0002152437Y0001404311D01*
X0002143063Y0001404311D01*
X0002139313Y0001402437D01*
X0002137439Y0001400562D01*
X0002135564Y0001396812D01*
X0002135564Y0001389313D01*
X0002137439Y0001385564D01*
X0002139313Y0001383689D01*
X0002143063Y0001381814D01*
X0002120566Y0001417435D02*
X0002120566Y0001443682D01*
X0002159936Y0001426809D01*
X0002020566Y0001400562D02*
X0002020566Y0001393063D01*
X0002022440Y0001389313D01*
X0002024315Y0001387439D01*
X0002029940Y0001383689D01*
X0002037439Y0001381814D01*
X0002052437Y0001381814D01*
X0002056186Y0001383689D01*
X0002058061Y0001385564D01*
X0002059936Y0001389313D01*
X0002059936Y0001396812D01*
X0002058061Y0001400562D01*
X0002056186Y0001402437D01*
X0002052437Y0001404311D01*
X0002043063Y0001404311D01*
X0002039313Y0001402437D01*
X0002037439Y0001400562D01*
X0002035564Y0001396812D01*
X0002035564Y0001389313D01*
X0002037439Y0001385564D01*
X0002039313Y0001383689D01*
X0002043063Y0001381814D01*
X0002020566Y0001439932D02*
X0002020566Y0001421184D01*
X0002039313Y0001419310D01*
X0002037439Y0001421184D01*
X0002035564Y0001424934D01*
X0002035564Y0001434308D01*
X0002037439Y0001438057D01*
X0002039313Y0001439932D01*
X0002043063Y0001441807D01*
X0002052437Y0001441807D01*
X0002056186Y0001439932D01*
X0002058061Y0001438057D01*
X0002059936Y0001434308D01*
X0002059936Y0001424934D01*
X0002058061Y0001421184D01*
X0002056186Y0001419310D01*
X0001920566Y0001400562D02*
X0001920566Y0001393063D01*
X0001922440Y0001389313D01*
X0001924315Y0001387439D01*
X0001929940Y0001383689D01*
X0001937439Y0001381814D01*
X0001952437Y0001381814D01*
X0001956186Y0001383689D01*
X0001958061Y0001385564D01*
X0001959936Y0001389313D01*
X0001959936Y0001396812D01*
X0001958061Y0001400562D01*
X0001956186Y0001402437D01*
X0001952437Y0001404311D01*
X0001943063Y0001404311D01*
X0001939313Y0001402437D01*
X0001937439Y0001400562D01*
X0001935564Y0001396812D01*
X0001935564Y0001389313D01*
X0001937439Y0001385564D01*
X0001939313Y0001383689D01*
X0001943063Y0001381814D01*
X0001920566Y0001417435D02*
X0001920566Y0001441807D01*
X0001935564Y0001428683D01*
X0001935564Y0001434308D01*
X0001937439Y0001438057D01*
X0001939313Y0001439932D01*
X0001943063Y0001441807D01*
X0001952437Y0001441807D01*
X0001956186Y0001439932D01*
X0001958061Y0001438057D01*
X0001959936Y0001434308D01*
X0001959936Y0001423059D01*
X0001958061Y0001419310D01*
X0001956186Y0001417435D01*
X0001820566Y0001400562D02*
X0001820566Y0001393063D01*
X0001822440Y0001389313D01*
X0001824315Y0001387439D01*
X0001829940Y0001383689D01*
X0001837439Y0001381814D01*
X0001852437Y0001381814D01*
X0001856186Y0001383689D01*
X0001858061Y0001385564D01*
X0001859936Y0001389313D01*
X0001859936Y0001396812D01*
X0001858061Y0001400562D01*
X0001856186Y0001402437D01*
X0001852437Y0001404311D01*
X0001843063Y0001404311D01*
X0001839313Y0001402437D01*
X0001837439Y0001400562D01*
X0001835564Y0001396812D01*
X0001835564Y0001389313D01*
X0001837439Y0001385564D01*
X0001839313Y0001383689D01*
X0001843063Y0001381814D01*
X0001859936Y0001441807D02*
X0001859936Y0001419310D01*
X0001859936Y0001430558D02*
X0001820566Y0001430558D01*
X0001826190Y0001426809D01*
X0001829940Y0001423059D01*
X0001831814Y0001419310D01*
X0001720566Y0001402437D02*
X0001720566Y0001383689D01*
X0001739313Y0001381814D01*
X0001737439Y0001383689D01*
X0001735564Y0001387439D01*
X0001735564Y0001396812D01*
X0001737439Y0001400562D01*
X0001739313Y0001402437D01*
X0001743063Y0001404311D01*
X0001752437Y0001404311D01*
X0001756186Y0001402437D01*
X0001758061Y0001400562D01*
X0001759936Y0001396812D01*
X0001759936Y0001387439D01*
X0001758061Y0001383689D01*
X0001756186Y0001381814D01*
X0001759936Y0001423059D02*
X0001759936Y0001430558D01*
X0001758061Y0001434308D01*
X0001756186Y0001436182D01*
X0001750562Y0001439932D01*
X0001743063Y0001441807D01*
X0001728065Y0001441807D01*
X0001724315Y0001439932D01*
X0001722440Y0001438057D01*
X0001720566Y0001434308D01*
X0001720566Y0001426809D01*
X0001722440Y0001423059D01*
X0001724315Y0001421184D01*
X0001728065Y0001419310D01*
X0001737439Y0001419310D01*
X0001741188Y0001421184D01*
X0001743063Y0001423059D01*
X0001744938Y0001426809D01*
X0001744938Y0001434308D01*
X0001743063Y0001438057D01*
X0001741188Y0001439932D01*
X0001737439Y0001441807D01*
X0001620566Y0001402437D02*
X0001620566Y0001383689D01*
X0001639313Y0001381814D01*
X0001637439Y0001383689D01*
X0001635564Y0001387439D01*
X0001635564Y0001396812D01*
X0001637439Y0001400562D01*
X0001639313Y0001402437D01*
X0001643063Y0001404311D01*
X0001652437Y0001404311D01*
X0001656186Y0001402437D01*
X0001658061Y0001400562D01*
X0001659936Y0001396812D01*
X0001659936Y0001387439D01*
X0001658061Y0001383689D01*
X0001656186Y0001381814D01*
X0001620566Y0001417435D02*
X0001620566Y0001443682D01*
X0001659936Y0001426809D01*
X0001520566Y0001402437D02*
X0001520566Y0001383689D01*
X0001539313Y0001381814D01*
X0001537439Y0001383689D01*
X0001535564Y0001387439D01*
X0001535564Y0001396812D01*
X0001537439Y0001400562D01*
X0001539313Y0001402437D01*
X0001543063Y0001404311D01*
X0001552437Y0001404311D01*
X0001556186Y0001402437D01*
X0001558061Y0001400562D01*
X0001559936Y0001396812D01*
X0001559936Y0001387439D01*
X0001558061Y0001383689D01*
X0001556186Y0001381814D01*
X0001520566Y0001439932D02*
X0001520566Y0001421184D01*
X0001539313Y0001419310D01*
X0001537439Y0001421184D01*
X0001535564Y0001424934D01*
X0001535564Y0001434308D01*
X0001537439Y0001438057D01*
X0001539313Y0001439932D01*
X0001543063Y0001441807D01*
X0001552437Y0001441807D01*
X0001556186Y0001439932D01*
X0001558061Y0001438057D01*
X0001559936Y0001434308D01*
X0001559936Y0001424934D01*
X0001558061Y0001421184D01*
X0001556186Y0001419310D01*
X0001420566Y0001402437D02*
X0001420566Y0001383689D01*
X0001439313Y0001381814D01*
X0001437439Y0001383689D01*
X0001435564Y0001387439D01*
X0001435564Y0001396812D01*
X0001437439Y0001400562D01*
X0001439313Y0001402437D01*
X0001443063Y0001404311D01*
X0001452437Y0001404311D01*
X0001456186Y0001402437D01*
X0001458061Y0001400562D01*
X0001459936Y0001396812D01*
X0001459936Y0001387439D01*
X0001458061Y0001383689D01*
X0001456186Y0001381814D01*
X0001420566Y0001417435D02*
X0001420566Y0001441807D01*
X0001435564Y0001428683D01*
X0001435564Y0001434308D01*
X0001437439Y0001438057D01*
X0001439313Y0001439932D01*
X0001443063Y0001441807D01*
X0001452437Y0001441807D01*
X0001456186Y0001439932D01*
X0001458061Y0001438057D01*
X0001459936Y0001434308D01*
X0001459936Y0001423059D01*
X0001458061Y0001419310D01*
X0001456186Y0001417435D01*
X0001320566Y0001402437D02*
X0001320566Y0001383689D01*
X0001339313Y0001381814D01*
X0001337439Y0001383689D01*
X0001335564Y0001387439D01*
X0001335564Y0001396812D01*
X0001337439Y0001400562D01*
X0001339313Y0001402437D01*
X0001343063Y0001404311D01*
X0001352437Y0001404311D01*
X0001356186Y0001402437D01*
X0001358061Y0001400562D01*
X0001359936Y0001396812D01*
X0001359936Y0001387439D01*
X0001358061Y0001383689D01*
X0001356186Y0001381814D01*
X0001359936Y0001441807D02*
X0001359936Y0001419310D01*
X0001359936Y0001430558D02*
X0001320566Y0001430558D01*
X0001326190Y0001426809D01*
X0001329940Y0001423059D01*
X0001331814Y0001419310D01*
X0001233689Y0001400562D02*
X0001259936Y0001400562D01*
X0001218691Y0001391188D02*
X0001246812Y0001381814D01*
X0001246812Y0001406186D01*
X0001259936Y0001423059D02*
X0001259936Y0001430558D01*
X0001258061Y0001434308D01*
X0001256186Y0001436182D01*
X0001250562Y0001439932D01*
X0001243063Y0001441807D01*
X0001228065Y0001441807D01*
X0001224315Y0001439932D01*
X0001222440Y0001438057D01*
X0001220566Y0001434308D01*
X0001220566Y0001426809D01*
X0001222440Y0001423059D01*
X0001224315Y0001421184D01*
X0001228065Y0001419310D01*
X0001237439Y0001419310D01*
X0001241188Y0001421184D01*
X0001243063Y0001423059D01*
X0001244938Y0001426809D01*
X0001244938Y0001434308D01*
X0001243063Y0001438057D01*
X0001241188Y0001439932D01*
X0001237439Y0001441807D01*
X0001133689Y0001400562D02*
X0001159936Y0001400562D01*
X0001118691Y0001391188D02*
X0001146812Y0001381814D01*
X0001146812Y0001406186D01*
X0001120566Y0001417435D02*
X0001120566Y0001443682D01*
X0001159936Y0001426809D01*
X0001033689Y0001400562D02*
X0001059936Y0001400562D01*
X0001018691Y0001391188D02*
X0001046812Y0001381814D01*
X0001046812Y0001406186D01*
X0001020566Y0001439932D02*
X0001020566Y0001421184D01*
X0001039313Y0001419310D01*
X0001037439Y0001421184D01*
X0001035564Y0001424934D01*
X0001035564Y0001434308D01*
X0001037439Y0001438057D01*
X0001039313Y0001439932D01*
X0001043063Y0001441807D01*
X0001052437Y0001441807D01*
X0001056186Y0001439932D01*
X0001058061Y0001438057D01*
X0001059936Y0001434308D01*
X0001059936Y0001424934D01*
X0001058061Y0001421184D01*
X0001056186Y0001419310D01*
X0000933689Y0001400562D02*
X0000959936Y0001400562D01*
X0000918691Y0001391188D02*
X0000946812Y0001381814D01*
X0000946812Y0001406186D01*
X0000920566Y0001417435D02*
X0000920566Y0001441807D01*
X0000935564Y0001428683D01*
X0000935564Y0001434308D01*
X0000937439Y0001438057D01*
X0000939313Y0001439932D01*
X0000943063Y0001441807D01*
X0000952437Y0001441807D01*
X0000956186Y0001439932D01*
X0000958061Y0001438057D01*
X0000959936Y0001434308D01*
X0000959936Y0001423059D01*
X0000958061Y0001419310D01*
X0000956186Y0001417435D01*
X0000833689Y0001400562D02*
X0000859936Y0001400562D01*
X0000818691Y0001391188D02*
X0000846812Y0001381814D01*
X0000846812Y0001406186D01*
X0000859936Y0001441807D02*
X0000859936Y0001419310D01*
X0000859936Y0001430558D02*
X0000820566Y0001430558D01*
X0000826190Y0001426809D01*
X0000829940Y0001423059D01*
X0000831814Y0001419310D01*
X0000720566Y0001379940D02*
X0000720566Y0001404311D01*
X0000735564Y0001391188D01*
X0000735564Y0001396812D01*
X0000737439Y0001400562D01*
X0000739313Y0001402437D01*
X0000743063Y0001404311D01*
X0000752437Y0001404311D01*
X0000756186Y0001402437D01*
X0000758061Y0001400562D01*
X0000759936Y0001396812D01*
X0000759936Y0001385564D01*
X0000758061Y0001381814D01*
X0000756186Y0001379940D01*
X0000759936Y0001423059D02*
X0000759936Y0001430558D01*
X0000758061Y0001434308D01*
X0000756186Y0001436182D01*
X0000750562Y0001439932D01*
X0000743063Y0001441807D01*
X0000728065Y0001441807D01*
X0000724315Y0001439932D01*
X0000722440Y0001438057D01*
X0000720566Y0001434308D01*
X0000720566Y0001426809D01*
X0000722440Y0001423059D01*
X0000724315Y0001421184D01*
X0000728065Y0001419310D01*
X0000737439Y0001419310D01*
X0000741188Y0001421184D01*
X0000743063Y0001423059D01*
X0000744938Y0001426809D01*
X0000744938Y0001434308D01*
X0000743063Y0001438057D01*
X0000741188Y0001439932D01*
X0000737439Y0001441807D01*
X0000620566Y0001379940D02*
X0000620566Y0001404311D01*
X0000635564Y0001391188D01*
X0000635564Y0001396812D01*
X0000637439Y0001400562D01*
X0000639313Y0001402437D01*
X0000643063Y0001404311D01*
X0000652437Y0001404311D01*
X0000656186Y0001402437D01*
X0000658061Y0001400562D01*
X0000659936Y0001396812D01*
X0000659936Y0001385564D01*
X0000658061Y0001381814D01*
X0000656186Y0001379940D01*
X0000620566Y0001417435D02*
X0000620566Y0001443682D01*
X0000659936Y0001426809D01*
X0002315841Y0001025806D02*
X0002315841Y0001052052D01*
X0002355211Y0001035179D01*
X0002319591Y0001065176D02*
X0002317716Y0001067050D01*
X0002315841Y0001070800D01*
X0002315841Y0001080174D01*
X0002317716Y0001083923D01*
X0002319591Y0001085798D01*
X0002323340Y0001087673D01*
X0002327090Y0001087673D01*
X0002332714Y0001085798D01*
X0002355211Y0001063301D01*
X0002355211Y0001087673D01*
X0002215841Y0001025806D02*
X0002215841Y0001052052D01*
X0002255211Y0001035179D01*
X0002215841Y0001074550D02*
X0002215841Y0001078299D01*
X0002217716Y0001082049D01*
X0002219591Y0001083923D01*
X0002223340Y0001085798D01*
X0002230839Y0001087673D01*
X0002240213Y0001087673D01*
X0002247712Y0001085798D01*
X0002251462Y0001083923D01*
X0002253337Y0001082049D01*
X0002255211Y0001078299D01*
X0002255211Y0001074550D01*
X0002253337Y0001070800D01*
X0002251462Y0001068925D01*
X0002247712Y0001067050D01*
X0002240213Y0001065176D01*
X0002230839Y0001065176D01*
X0002223340Y0001067050D01*
X0002219591Y0001068925D01*
X0002217716Y0001070800D01*
X0002215841Y0001074550D01*
X0002115841Y0001046428D02*
X0002115841Y0001038929D01*
X0002117716Y0001035179D01*
X0002119591Y0001033305D01*
X0002125215Y0001029555D01*
X0002132714Y0001027680D01*
X0002147712Y0001027680D01*
X0002151462Y0001029555D01*
X0002153337Y0001031430D01*
X0002155211Y0001035179D01*
X0002155211Y0001042679D01*
X0002153337Y0001046428D01*
X0002151462Y0001048303D01*
X0002147712Y0001050178D01*
X0002138338Y0001050178D01*
X0002134589Y0001048303D01*
X0002132714Y0001046428D01*
X0002130839Y0001042679D01*
X0002130839Y0001035179D01*
X0002132714Y0001031430D01*
X0002134589Y0001029555D01*
X0002138338Y0001027680D01*
X0002132714Y0001072675D02*
X0002130839Y0001068925D01*
X0002128965Y0001067050D01*
X0002125215Y0001065176D01*
X0002123340Y0001065176D01*
X0002119591Y0001067050D01*
X0002117716Y0001068925D01*
X0002115841Y0001072675D01*
X0002115841Y0001080174D01*
X0002117716Y0001083923D01*
X0002119591Y0001085798D01*
X0002123340Y0001087673D01*
X0002125215Y0001087673D01*
X0002128965Y0001085798D01*
X0002130839Y0001083923D01*
X0002132714Y0001080174D01*
X0002132714Y0001072675D01*
X0002134589Y0001068925D01*
X0002136464Y0001067050D01*
X0002140213Y0001065176D01*
X0002147712Y0001065176D01*
X0002151462Y0001067050D01*
X0002153337Y0001068925D01*
X0002155211Y0001072675D01*
X0002155211Y0001080174D01*
X0002153337Y0001083923D01*
X0002151462Y0001085798D01*
X0002147712Y0001087673D01*
X0002140213Y0001087673D01*
X0002136464Y0001085798D01*
X0002134589Y0001083923D01*
X0002132714Y0001080174D01*
X0002015841Y0001046428D02*
X0002015841Y0001038929D01*
X0002017716Y0001035179D01*
X0002019591Y0001033305D01*
X0002025215Y0001029555D01*
X0002032714Y0001027680D01*
X0002047712Y0001027680D01*
X0002051462Y0001029555D01*
X0002053337Y0001031430D01*
X0002055211Y0001035179D01*
X0002055211Y0001042679D01*
X0002053337Y0001046428D01*
X0002051462Y0001048303D01*
X0002047712Y0001050178D01*
X0002038338Y0001050178D01*
X0002034589Y0001048303D01*
X0002032714Y0001046428D01*
X0002030839Y0001042679D01*
X0002030839Y0001035179D01*
X0002032714Y0001031430D01*
X0002034589Y0001029555D01*
X0002038338Y0001027680D01*
X0002015841Y0001083923D02*
X0002015841Y0001076424D01*
X0002017716Y0001072675D01*
X0002019591Y0001070800D01*
X0002025215Y0001067050D01*
X0002032714Y0001065176D01*
X0002047712Y0001065176D01*
X0002051462Y0001067050D01*
X0002053337Y0001068925D01*
X0002055211Y0001072675D01*
X0002055211Y0001080174D01*
X0002053337Y0001083923D01*
X0002051462Y0001085798D01*
X0002047712Y0001087673D01*
X0002038338Y0001087673D01*
X0002034589Y0001085798D01*
X0002032714Y0001083923D01*
X0002030839Y0001080174D01*
X0002030839Y0001072675D01*
X0002032714Y0001068925D01*
X0002034589Y0001067050D01*
X0002038338Y0001065176D01*
X0001915841Y0001046428D02*
X0001915841Y0001038929D01*
X0001917716Y0001035179D01*
X0001919591Y0001033305D01*
X0001925215Y0001029555D01*
X0001932714Y0001027680D01*
X0001947712Y0001027680D01*
X0001951462Y0001029555D01*
X0001953337Y0001031430D01*
X0001955211Y0001035179D01*
X0001955211Y0001042679D01*
X0001953337Y0001046428D01*
X0001951462Y0001048303D01*
X0001947712Y0001050178D01*
X0001938338Y0001050178D01*
X0001934589Y0001048303D01*
X0001932714Y0001046428D01*
X0001930839Y0001042679D01*
X0001930839Y0001035179D01*
X0001932714Y0001031430D01*
X0001934589Y0001029555D01*
X0001938338Y0001027680D01*
X0001928965Y0001083923D02*
X0001955211Y0001083923D01*
X0001913967Y0001074550D02*
X0001942088Y0001065176D01*
X0001942088Y0001089548D01*
X0001815841Y0001046428D02*
X0001815841Y0001038929D01*
X0001817716Y0001035179D01*
X0001819591Y0001033305D01*
X0001825215Y0001029555D01*
X0001832714Y0001027680D01*
X0001847712Y0001027680D01*
X0001851462Y0001029555D01*
X0001853337Y0001031430D01*
X0001855211Y0001035179D01*
X0001855211Y0001042679D01*
X0001853337Y0001046428D01*
X0001851462Y0001048303D01*
X0001847712Y0001050178D01*
X0001838338Y0001050178D01*
X0001834589Y0001048303D01*
X0001832714Y0001046428D01*
X0001830839Y0001042679D01*
X0001830839Y0001035179D01*
X0001832714Y0001031430D01*
X0001834589Y0001029555D01*
X0001838338Y0001027680D01*
X0001819591Y0001065176D02*
X0001817716Y0001067050D01*
X0001815841Y0001070800D01*
X0001815841Y0001080174D01*
X0001817716Y0001083923D01*
X0001819591Y0001085798D01*
X0001823340Y0001087673D01*
X0001827090Y0001087673D01*
X0001832714Y0001085798D01*
X0001855211Y0001063301D01*
X0001855211Y0001087673D01*
X0001715841Y0001046428D02*
X0001715841Y0001038929D01*
X0001717716Y0001035179D01*
X0001719591Y0001033305D01*
X0001725215Y0001029555D01*
X0001732714Y0001027680D01*
X0001747712Y0001027680D01*
X0001751462Y0001029555D01*
X0001753337Y0001031430D01*
X0001755211Y0001035179D01*
X0001755211Y0001042679D01*
X0001753337Y0001046428D01*
X0001751462Y0001048303D01*
X0001747712Y0001050178D01*
X0001738338Y0001050178D01*
X0001734589Y0001048303D01*
X0001732714Y0001046428D01*
X0001730839Y0001042679D01*
X0001730839Y0001035179D01*
X0001732714Y0001031430D01*
X0001734589Y0001029555D01*
X0001738338Y0001027680D01*
X0001715841Y0001074550D02*
X0001715841Y0001078299D01*
X0001717716Y0001082049D01*
X0001719591Y0001083923D01*
X0001723340Y0001085798D01*
X0001730839Y0001087673D01*
X0001740213Y0001087673D01*
X0001747712Y0001085798D01*
X0001751462Y0001083923D01*
X0001753337Y0001082049D01*
X0001755211Y0001078299D01*
X0001755211Y0001074550D01*
X0001753337Y0001070800D01*
X0001751462Y0001068925D01*
X0001747712Y0001067050D01*
X0001740213Y0001065176D01*
X0001730839Y0001065176D01*
X0001723340Y0001067050D01*
X0001719591Y0001068925D01*
X0001717716Y0001070800D01*
X0001715841Y0001074550D01*
X0001615841Y0001048303D02*
X0001615841Y0001029555D01*
X0001634589Y0001027680D01*
X0001632714Y0001029555D01*
X0001630839Y0001033305D01*
X0001630839Y0001042679D01*
X0001632714Y0001046428D01*
X0001634589Y0001048303D01*
X0001638338Y0001050178D01*
X0001647712Y0001050178D01*
X0001651462Y0001048303D01*
X0001653337Y0001046428D01*
X0001655211Y0001042679D01*
X0001655211Y0001033305D01*
X0001653337Y0001029555D01*
X0001651462Y0001027680D01*
X0001632714Y0001072675D02*
X0001630839Y0001068925D01*
X0001628965Y0001067050D01*
X0001625215Y0001065176D01*
X0001623340Y0001065176D01*
X0001619591Y0001067050D01*
X0001617716Y0001068925D01*
X0001615841Y0001072675D01*
X0001615841Y0001080174D01*
X0001617716Y0001083923D01*
X0001619591Y0001085798D01*
X0001623340Y0001087673D01*
X0001625215Y0001087673D01*
X0001628965Y0001085798D01*
X0001630839Y0001083923D01*
X0001632714Y0001080174D01*
X0001632714Y0001072675D01*
X0001634589Y0001068925D01*
X0001636464Y0001067050D01*
X0001640213Y0001065176D01*
X0001647712Y0001065176D01*
X0001651462Y0001067050D01*
X0001653337Y0001068925D01*
X0001655211Y0001072675D01*
X0001655211Y0001080174D01*
X0001653337Y0001083923D01*
X0001651462Y0001085798D01*
X0001647712Y0001087673D01*
X0001640213Y0001087673D01*
X0001636464Y0001085798D01*
X0001634589Y0001083923D01*
X0001632714Y0001080174D01*
X0001515841Y0001048303D02*
X0001515841Y0001029555D01*
X0001534589Y0001027680D01*
X0001532714Y0001029555D01*
X0001530839Y0001033305D01*
X0001530839Y0001042679D01*
X0001532714Y0001046428D01*
X0001534589Y0001048303D01*
X0001538338Y0001050178D01*
X0001547712Y0001050178D01*
X0001551462Y0001048303D01*
X0001553337Y0001046428D01*
X0001555211Y0001042679D01*
X0001555211Y0001033305D01*
X0001553337Y0001029555D01*
X0001551462Y0001027680D01*
X0001515841Y0001083923D02*
X0001515841Y0001076424D01*
X0001517716Y0001072675D01*
X0001519591Y0001070800D01*
X0001525215Y0001067050D01*
X0001532714Y0001065176D01*
X0001547712Y0001065176D01*
X0001551462Y0001067050D01*
X0001553337Y0001068925D01*
X0001555211Y0001072675D01*
X0001555211Y0001080174D01*
X0001553337Y0001083923D01*
X0001551462Y0001085798D01*
X0001547712Y0001087673D01*
X0001538338Y0001087673D01*
X0001534589Y0001085798D01*
X0001532714Y0001083923D01*
X0001530839Y0001080174D01*
X0001530839Y0001072675D01*
X0001532714Y0001068925D01*
X0001534589Y0001067050D01*
X0001538338Y0001065176D01*
X0001415841Y0001048303D02*
X0001415841Y0001029555D01*
X0001434589Y0001027680D01*
X0001432714Y0001029555D01*
X0001430839Y0001033305D01*
X0001430839Y0001042679D01*
X0001432714Y0001046428D01*
X0001434589Y0001048303D01*
X0001438338Y0001050178D01*
X0001447712Y0001050178D01*
X0001451462Y0001048303D01*
X0001453337Y0001046428D01*
X0001455211Y0001042679D01*
X0001455211Y0001033305D01*
X0001453337Y0001029555D01*
X0001451462Y0001027680D01*
X0001428965Y0001083923D02*
X0001455211Y0001083923D01*
X0001413967Y0001074550D02*
X0001442088Y0001065176D01*
X0001442088Y0001089548D01*
X0001315841Y0001048303D02*
X0001315841Y0001029555D01*
X0001334589Y0001027680D01*
X0001332714Y0001029555D01*
X0001330839Y0001033305D01*
X0001330839Y0001042679D01*
X0001332714Y0001046428D01*
X0001334589Y0001048303D01*
X0001338338Y0001050178D01*
X0001347712Y0001050178D01*
X0001351462Y0001048303D01*
X0001353337Y0001046428D01*
X0001355211Y0001042679D01*
X0001355211Y0001033305D01*
X0001353337Y0001029555D01*
X0001351462Y0001027680D01*
X0001319591Y0001065176D02*
X0001317716Y0001067050D01*
X0001315841Y0001070800D01*
X0001315841Y0001080174D01*
X0001317716Y0001083923D01*
X0001319591Y0001085798D01*
X0001323340Y0001087673D01*
X0001327090Y0001087673D01*
X0001332714Y0001085798D01*
X0001355211Y0001063301D01*
X0001355211Y0001087673D01*
X0001215841Y0001048303D02*
X0001215841Y0001029555D01*
X0001234589Y0001027680D01*
X0001232714Y0001029555D01*
X0001230839Y0001033305D01*
X0001230839Y0001042679D01*
X0001232714Y0001046428D01*
X0001234589Y0001048303D01*
X0001238338Y0001050178D01*
X0001247712Y0001050178D01*
X0001251462Y0001048303D01*
X0001253337Y0001046428D01*
X0001255211Y0001042679D01*
X0001255211Y0001033305D01*
X0001253337Y0001029555D01*
X0001251462Y0001027680D01*
X0001215841Y0001074550D02*
X0001215841Y0001078299D01*
X0001217716Y0001082049D01*
X0001219591Y0001083923D01*
X0001223340Y0001085798D01*
X0001230839Y0001087673D01*
X0001240213Y0001087673D01*
X0001247712Y0001085798D01*
X0001251462Y0001083923D01*
X0001253337Y0001082049D01*
X0001255211Y0001078299D01*
X0001255211Y0001074550D01*
X0001253337Y0001070800D01*
X0001251462Y0001068925D01*
X0001247712Y0001067050D01*
X0001240213Y0001065176D01*
X0001230839Y0001065176D01*
X0001223340Y0001067050D01*
X0001219591Y0001068925D01*
X0001217716Y0001070800D01*
X0001215841Y0001074550D01*
X0001128965Y0001046428D02*
X0001155211Y0001046428D01*
X0001113967Y0001037054D02*
X0001142088Y0001027680D01*
X0001142088Y0001052052D01*
X0001132714Y0001072675D02*
X0001130839Y0001068925D01*
X0001128965Y0001067050D01*
X0001125215Y0001065176D01*
X0001123340Y0001065176D01*
X0001119591Y0001067050D01*
X0001117716Y0001068925D01*
X0001115841Y0001072675D01*
X0001115841Y0001080174D01*
X0001117716Y0001083923D01*
X0001119591Y0001085798D01*
X0001123340Y0001087673D01*
X0001125215Y0001087673D01*
X0001128965Y0001085798D01*
X0001130839Y0001083923D01*
X0001132714Y0001080174D01*
X0001132714Y0001072675D01*
X0001134589Y0001068925D01*
X0001136464Y0001067050D01*
X0001140213Y0001065176D01*
X0001147712Y0001065176D01*
X0001151462Y0001067050D01*
X0001153337Y0001068925D01*
X0001155211Y0001072675D01*
X0001155211Y0001080174D01*
X0001153337Y0001083923D01*
X0001151462Y0001085798D01*
X0001147712Y0001087673D01*
X0001140213Y0001087673D01*
X0001136464Y0001085798D01*
X0001134589Y0001083923D01*
X0001132714Y0001080174D01*
X0001028965Y0001046428D02*
X0001055211Y0001046428D01*
X0001013967Y0001037054D02*
X0001042088Y0001027680D01*
X0001042088Y0001052052D01*
X0001015841Y0001083923D02*
X0001015841Y0001076424D01*
X0001017716Y0001072675D01*
X0001019591Y0001070800D01*
X0001025215Y0001067050D01*
X0001032714Y0001065176D01*
X0001047712Y0001065176D01*
X0001051462Y0001067050D01*
X0001053337Y0001068925D01*
X0001055211Y0001072675D01*
X0001055211Y0001080174D01*
X0001053337Y0001083923D01*
X0001051462Y0001085798D01*
X0001047712Y0001087673D01*
X0001038338Y0001087673D01*
X0001034589Y0001085798D01*
X0001032714Y0001083923D01*
X0001030839Y0001080174D01*
X0001030839Y0001072675D01*
X0001032714Y0001068925D01*
X0001034589Y0001067050D01*
X0001038338Y0001065176D01*
X0000928965Y0001046428D02*
X0000955211Y0001046428D01*
X0000913967Y0001037054D02*
X0000942088Y0001027680D01*
X0000942088Y0001052052D01*
X0000928965Y0001083923D02*
X0000955211Y0001083923D01*
X0000913967Y0001074550D02*
X0000942088Y0001065176D01*
X0000942088Y0001089548D01*
X0000828965Y0001046428D02*
X0000855211Y0001046428D01*
X0000813967Y0001037054D02*
X0000842088Y0001027680D01*
X0000842088Y0001052052D01*
X0000819591Y0001065176D02*
X0000817716Y0001067050D01*
X0000815841Y0001070800D01*
X0000815841Y0001080174D01*
X0000817716Y0001083923D01*
X0000819591Y0001085798D01*
X0000823340Y0001087673D01*
X0000827090Y0001087673D01*
X0000832714Y0001085798D01*
X0000855211Y0001063301D01*
X0000855211Y0001087673D01*
X0000728965Y0001046428D02*
X0000755211Y0001046428D01*
X0000713967Y0001037054D02*
X0000742088Y0001027680D01*
X0000742088Y0001052052D01*
X0000715841Y0001074550D02*
X0000715841Y0001078299D01*
X0000717716Y0001082049D01*
X0000719591Y0001083923D01*
X0000723340Y0001085798D01*
X0000730839Y0001087673D01*
X0000740213Y0001087673D01*
X0000747712Y0001085798D01*
X0000751462Y0001083923D01*
X0000753337Y0001082049D01*
X0000755211Y0001078299D01*
X0000755211Y0001074550D01*
X0000753337Y0001070800D01*
X0000751462Y0001068925D01*
X0000747712Y0001067050D01*
X0000740213Y0001065176D01*
X0000730839Y0001065176D01*
X0000723340Y0001067050D01*
X0000719591Y0001068925D01*
X0000717716Y0001070800D01*
X0000715841Y0001074550D01*
X0000615841Y0001025806D02*
X0000615841Y0001050178D01*
X0000630839Y0001037054D01*
X0000630839Y0001042679D01*
X0000632714Y0001046428D01*
X0000634589Y0001048303D01*
X0000638338Y0001050178D01*
X0000647712Y0001050178D01*
X0000651462Y0001048303D01*
X0000653337Y0001046428D01*
X0000655211Y0001042679D01*
X0000655211Y0001031430D01*
X0000653337Y0001027680D01*
X0000651462Y0001025806D01*
X0000632714Y0001072675D02*
X0000630839Y0001068925D01*
X0000628965Y0001067050D01*
X0000625215Y0001065176D01*
X0000623340Y0001065176D01*
X0000619591Y0001067050D01*
X0000617716Y0001068925D01*
X0000615841Y0001072675D01*
X0000615841Y0001080174D01*
X0000617716Y0001083923D01*
X0000619591Y0001085798D01*
X0000623340Y0001087673D01*
X0000625215Y0001087673D01*
X0000628965Y0001085798D01*
X0000630839Y0001083923D01*
X0000632714Y0001080174D01*
X0000632714Y0001072675D01*
X0000634589Y0001068925D01*
X0000636464Y0001067050D01*
X0000640213Y0001065176D01*
X0000647712Y0001065176D01*
X0000651462Y0001067050D01*
X0000653337Y0001068925D01*
X0000655211Y0001072675D01*
X0000655211Y0001080174D01*
X0000653337Y0001083923D01*
X0000651462Y0001085798D01*
X0000647712Y0001087673D01*
X0000640213Y0001087673D01*
X0000636464Y0001085798D01*
X0000634589Y0001083923D01*
X0000632714Y0001080174D01*
X0000450412Y0001617229D02*
X0000474784Y0001617229D01*
X0000461661Y0001602230D01*
X0000467285Y0001602230D01*
X0000471034Y0001600356D01*
X0000472909Y0001598481D01*
X0000474784Y0001594731D01*
X0000474784Y0001585358D01*
X0000472909Y0001581608D01*
X0000471034Y0001579733D01*
X0000467285Y0001577859D01*
X0000456036Y0001577859D01*
X0000452287Y0001579733D01*
X0000450412Y0001581608D01*
X0000510404Y0001617229D02*
X0000491657Y0001617229D01*
X0000489782Y0001598481D01*
X0000491657Y0001600356D01*
X0000495406Y0001602230D01*
X0000504780Y0001602230D01*
X0000508530Y0001600356D01*
X0000510404Y0001598481D01*
X0000512279Y0001594731D01*
X0000512279Y0001585358D01*
X0000510404Y0001581608D01*
X0000508530Y0001579733D01*
X0000504780Y0001577859D01*
X0000495406Y0001577859D01*
X0000491657Y0001579733D01*
X0000489782Y0001581608D01*
X0000450412Y0001717229D02*
X0000474784Y0001717229D01*
X0000461661Y0001702230D01*
X0000467285Y0001702230D01*
X0000471034Y0001700356D01*
X0000472909Y0001698481D01*
X0000474784Y0001694731D01*
X0000474784Y0001685358D01*
X0000472909Y0001681608D01*
X0000471034Y0001679733D01*
X0000467285Y0001677859D01*
X0000456036Y0001677859D01*
X0000452287Y0001679733D01*
X0000450412Y0001681608D01*
X0000487907Y0001717229D02*
X0000512279Y0001717229D01*
X0000499156Y0001702230D01*
X0000504780Y0001702230D01*
X0000508530Y0001700356D01*
X0000510404Y0001698481D01*
X0000512279Y0001694731D01*
X0000512279Y0001685358D01*
X0000510404Y0001681608D01*
X0000508530Y0001679733D01*
X0000504780Y0001677859D01*
X0000493532Y0001677859D01*
X0000489782Y0001679733D01*
X0000487907Y0001681608D01*
X0000450412Y0001817229D02*
X0000474784Y0001817229D01*
X0000461661Y0001802230D01*
X0000467285Y0001802230D01*
X0000471034Y0001800356D01*
X0000472909Y0001798481D01*
X0000474784Y0001794731D01*
X0000474784Y0001785358D01*
X0000472909Y0001781608D01*
X0000471034Y0001779733D01*
X0000467285Y0001777859D01*
X0000456036Y0001777859D01*
X0000452287Y0001779733D01*
X0000450412Y0001781608D01*
X0000512279Y0001777859D02*
X0000489782Y0001777859D01*
X0000501031Y0001777859D02*
X0000501031Y0001817229D01*
X0000497281Y0001811604D01*
X0000493532Y0001807855D01*
X0000489782Y0001805980D01*
X0000452287Y0001913479D02*
X0000454161Y0001915354D01*
X0000457911Y0001917229D01*
X0000467285Y0001917229D01*
X0000471034Y0001915354D01*
X0000472909Y0001913479D01*
X0000474784Y0001909730D01*
X0000474784Y0001905980D01*
X0000472909Y0001900356D01*
X0000450412Y0001877859D01*
X0000474784Y0001877859D01*
X0000493532Y0001877859D02*
X0000501031Y0001877859D01*
X0000504780Y0001879733D01*
X0000506655Y0001881608D01*
X0000510404Y0001887232D01*
X0000512279Y0001894731D01*
X0000512279Y0001909730D01*
X0000510404Y0001913479D01*
X0000508530Y0001915354D01*
X0000504780Y0001917229D01*
X0000497281Y0001917229D01*
X0000493532Y0001915354D01*
X0000491657Y0001913479D01*
X0000489782Y0001909730D01*
X0000489782Y0001900356D01*
X0000491657Y0001896606D01*
X0000493532Y0001894731D01*
X0000497281Y0001892857D01*
X0000504780Y0001892857D01*
X0000508530Y0001894731D01*
X0000510404Y0001896606D01*
X0000512279Y0001900356D01*
X0000452287Y0002013479D02*
X0000454161Y0002015354D01*
X0000457911Y0002017229D01*
X0000467285Y0002017229D01*
X0000471034Y0002015354D01*
X0000472909Y0002013479D01*
X0000474784Y0002009730D01*
X0000474784Y0002005980D01*
X0000472909Y0002000356D01*
X0000450412Y0001977859D01*
X0000474784Y0001977859D01*
X0000487907Y0002017229D02*
X0000514154Y0002017229D01*
X0000497281Y0001977859D01*
X0000452287Y0002113479D02*
X0000454161Y0002115354D01*
X0000457911Y0002117229D01*
X0000467285Y0002117229D01*
X0000471034Y0002115354D01*
X0000472909Y0002113479D01*
X0000474784Y0002109730D01*
X0000474784Y0002105980D01*
X0000472909Y0002100356D01*
X0000450412Y0002077859D01*
X0000474784Y0002077859D01*
X0000510404Y0002117229D02*
X0000491657Y0002117229D01*
X0000489782Y0002098481D01*
X0000491657Y0002100356D01*
X0000495406Y0002102230D01*
X0000504780Y0002102230D01*
X0000508530Y0002100356D01*
X0000510404Y0002098481D01*
X0000512279Y0002094731D01*
X0000512279Y0002085358D01*
X0000510404Y0002081608D01*
X0000508530Y0002079733D01*
X0000504780Y0002077859D01*
X0000495406Y0002077859D01*
X0000491657Y0002079733D01*
X0000489782Y0002081608D01*
X0000452287Y0002213479D02*
X0000454161Y0002215354D01*
X0000457911Y0002217229D01*
X0000467285Y0002217229D01*
X0000471034Y0002215354D01*
X0000472909Y0002213479D01*
X0000474784Y0002209730D01*
X0000474784Y0002205980D01*
X0000472909Y0002200356D01*
X0000450412Y0002177859D01*
X0000474784Y0002177859D01*
X0000487907Y0002217229D02*
X0000512279Y0002217229D01*
X0000499156Y0002202230D01*
X0000504780Y0002202230D01*
X0000508530Y0002200356D01*
X0000510404Y0002198481D01*
X0000512279Y0002194731D01*
X0000512279Y0002185358D01*
X0000510404Y0002181608D01*
X0000508530Y0002179733D01*
X0000504780Y0002177859D01*
X0000493532Y0002177859D01*
X0000489782Y0002179733D01*
X0000487907Y0002181608D01*
X0000452287Y0002313479D02*
X0000454161Y0002315354D01*
X0000457911Y0002317229D01*
X0000467285Y0002317229D01*
X0000471034Y0002315354D01*
X0000472909Y0002313479D01*
X0000474784Y0002309730D01*
X0000474784Y0002305980D01*
X0000472909Y0002300356D01*
X0000450412Y0002277859D01*
X0000474784Y0002277859D01*
X0000512279Y0002277859D02*
X0000489782Y0002277859D01*
X0000501031Y0002277859D02*
X0000501031Y0002317229D01*
X0000497281Y0002311604D01*
X0000493532Y0002307855D01*
X0000489782Y0002305980D01*
X0000474784Y0002377859D02*
X0000452287Y0002377859D01*
X0000463535Y0002377859D02*
X0000463535Y0002417229D01*
X0000459786Y0002411604D01*
X0000456036Y0002407855D01*
X0000452287Y0002405980D01*
X0000493532Y0002377859D02*
X0000501031Y0002377859D01*
X0000504780Y0002379733D01*
X0000506655Y0002381608D01*
X0000510404Y0002387232D01*
X0000512279Y0002394731D01*
X0000512279Y0002409730D01*
X0000510404Y0002413479D01*
X0000508530Y0002415354D01*
X0000504780Y0002417229D01*
X0000497281Y0002417229D01*
X0000493532Y0002415354D01*
X0000491657Y0002413479D01*
X0000489782Y0002409730D01*
X0000489782Y0002400356D01*
X0000491657Y0002396606D01*
X0000493532Y0002394731D01*
X0000497281Y0002392857D01*
X0000504780Y0002392857D01*
X0000508530Y0002394731D01*
X0000510404Y0002396606D01*
X0000512279Y0002400356D01*
X0000474784Y0002477859D02*
X0000452287Y0002477859D01*
X0000463535Y0002477859D02*
X0000463535Y0002517229D01*
X0000459786Y0002511604D01*
X0000456036Y0002507855D01*
X0000452287Y0002505980D01*
X0000487907Y0002517229D02*
X0000514154Y0002517229D01*
X0000497281Y0002477859D01*
X0000474784Y0002577859D02*
X0000452287Y0002577859D01*
X0000463535Y0002577859D02*
X0000463535Y0002617229D01*
X0000459786Y0002611604D01*
X0000456036Y0002607855D01*
X0000452287Y0002605980D01*
X0000510404Y0002617229D02*
X0000491657Y0002617229D01*
X0000489782Y0002598481D01*
X0000491657Y0002600356D01*
X0000495406Y0002602230D01*
X0000504780Y0002602230D01*
X0000508530Y0002600356D01*
X0000510404Y0002598481D01*
X0000512279Y0002594731D01*
X0000512279Y0002585358D01*
X0000510404Y0002581608D01*
X0000508530Y0002579733D01*
X0000504780Y0002577859D01*
X0000495406Y0002577859D01*
X0000491657Y0002579733D01*
X0000489782Y0002581608D01*
X0000474784Y0002677859D02*
X0000452287Y0002677859D01*
X0000463535Y0002677859D02*
X0000463535Y0002717229D01*
X0000459786Y0002711604D01*
X0000456036Y0002707855D01*
X0000452287Y0002705980D01*
X0000487907Y0002717229D02*
X0000512279Y0002717229D01*
X0000499156Y0002702230D01*
X0000504780Y0002702230D01*
X0000508530Y0002700356D01*
X0000510404Y0002698481D01*
X0000512279Y0002694731D01*
X0000512279Y0002685358D01*
X0000510404Y0002681608D01*
X0000508530Y0002679733D01*
X0000504780Y0002677859D01*
X0000493532Y0002677859D01*
X0000489782Y0002679733D01*
X0000487907Y0002681608D01*
X0000474784Y0002777859D02*
X0000452287Y0002777859D01*
X0000463535Y0002777859D02*
X0000463535Y0002817229D01*
X0000459786Y0002811604D01*
X0000456036Y0002807855D01*
X0000452287Y0002805980D01*
X0000512279Y0002777859D02*
X0000489782Y0002777859D01*
X0000501031Y0002777859D02*
X0000501031Y0002817229D01*
X0000497281Y0002811604D01*
X0000493532Y0002807855D01*
X0000489782Y0002805980D01*
X0000474784Y0002877859D02*
X0000482283Y0002877859D01*
X0000486033Y0002879733D01*
X0000487907Y0002881608D01*
X0000491657Y0002887232D01*
X0000493532Y0002894731D01*
X0000493532Y0002909730D01*
X0000491657Y0002913479D01*
X0000489782Y0002915354D01*
X0000486033Y0002917229D01*
X0000478533Y0002917229D01*
X0000474784Y0002915354D01*
X0000472909Y0002913479D01*
X0000471034Y0002909730D01*
X0000471034Y0002900356D01*
X0000472909Y0002896606D01*
X0000474784Y0002894731D01*
X0000478533Y0002892857D01*
X0000486033Y0002892857D01*
X0000489782Y0002894731D01*
X0000491657Y0002896606D01*
X0000493532Y0002900356D01*
X0000469160Y0003017229D02*
X0000495406Y0003017229D01*
X0000478533Y0002977859D01*
X0000491657Y0003117229D02*
X0000472909Y0003117229D01*
X0000471034Y0003098481D01*
X0000472909Y0003100356D01*
X0000476659Y0003102230D01*
X0000486033Y0003102230D01*
X0000489782Y0003100356D01*
X0000491657Y0003098481D01*
X0000493532Y0003094731D01*
X0000493532Y0003085358D01*
X0000491657Y0003081608D01*
X0000489782Y0003079733D01*
X0000486033Y0003077859D01*
X0000476659Y0003077859D01*
X0000472909Y0003079733D01*
X0000471034Y0003081608D01*
X0000469160Y0003217229D02*
X0000493532Y0003217229D01*
X0000480408Y0003202230D01*
X0000486033Y0003202230D01*
X0000489782Y0003200356D01*
X0000491657Y0003198481D01*
X0000493532Y0003194731D01*
X0000493532Y0003185358D01*
X0000491657Y0003181608D01*
X0000489782Y0003179733D01*
X0000486033Y0003177859D01*
X0000474784Y0003177859D01*
X0000471034Y0003179733D01*
X0000469160Y0003181608D01*
X0000493532Y0003277859D02*
X0000471034Y0003277859D01*
X0000482283Y0003277859D02*
X0000482283Y0003317229D01*
X0000478533Y0003311604D01*
X0000474784Y0003307855D01*
X0000471034Y0003305980D01*
X0000082695Y0001615260D02*
X0000107067Y0001615260D01*
X0000093944Y0001600262D01*
X0000099568Y0001600262D01*
X0000103318Y0001598387D01*
X0000105193Y0001596512D01*
X0000107067Y0001592763D01*
X0000107067Y0001583389D01*
X0000105193Y0001579640D01*
X0000103318Y0001577765D01*
X0000099568Y0001575890D01*
X0000088320Y0001575890D01*
X0000084570Y0001577765D01*
X0000082695Y0001579640D01*
X0000140813Y0001615260D02*
X0000133314Y0001615260D01*
X0000129565Y0001613385D01*
X0000127690Y0001611511D01*
X0000123940Y0001605886D01*
X0000122065Y0001598387D01*
X0000122065Y0001583389D01*
X0000123940Y0001579640D01*
X0000125815Y0001577765D01*
X0000129565Y0001575890D01*
X0000137064Y0001575890D01*
X0000140813Y0001577765D01*
X0000142688Y0001579640D01*
X0000144563Y0001583389D01*
X0000144563Y0001592763D01*
X0000142688Y0001596512D01*
X0000140813Y0001598387D01*
X0000137064Y0001600262D01*
X0000129565Y0001600262D01*
X0000125815Y0001598387D01*
X0000123940Y0001596512D01*
X0000122065Y0001592763D01*
X0000082695Y0001707386D02*
X0000107067Y0001707386D01*
X0000093944Y0001692388D01*
X0000099568Y0001692388D01*
X0000103318Y0001690513D01*
X0000105193Y0001688638D01*
X0000107067Y0001684889D01*
X0000107067Y0001675515D01*
X0000105193Y0001671766D01*
X0000103318Y0001669891D01*
X0000099568Y0001668016D01*
X0000088320Y0001668016D01*
X0000084570Y0001669891D01*
X0000082695Y0001671766D01*
X0000140813Y0001694263D02*
X0000140813Y0001668016D01*
X0000131439Y0001709261D02*
X0000122065Y0001681139D01*
X0000146437Y0001681139D01*
X0000082695Y0001807386D02*
X0000107067Y0001807386D01*
X0000093944Y0001792388D01*
X0000099568Y0001792388D01*
X0000103318Y0001790513D01*
X0000105193Y0001788638D01*
X0000107067Y0001784889D01*
X0000107067Y0001775515D01*
X0000105193Y0001771766D01*
X0000103318Y0001769891D01*
X0000099568Y0001768016D01*
X0000088320Y0001768016D01*
X0000084570Y0001769891D01*
X0000082695Y0001771766D01*
X0000122065Y0001803637D02*
X0000123940Y0001805511D01*
X0000127690Y0001807386D01*
X0000137064Y0001807386D01*
X0000140813Y0001805511D01*
X0000142688Y0001803637D01*
X0000144563Y0001799887D01*
X0000144563Y0001796137D01*
X0000142688Y0001790513D01*
X0000120191Y0001768016D01*
X0000144563Y0001768016D01*
X0000082695Y0001907386D02*
X0000107067Y0001907386D01*
X0000093944Y0001892388D01*
X0000099568Y0001892388D01*
X0000103318Y0001890513D01*
X0000105193Y0001888638D01*
X0000107067Y0001884889D01*
X0000107067Y0001875515D01*
X0000105193Y0001871766D01*
X0000103318Y0001869891D01*
X0000099568Y0001868016D01*
X0000088320Y0001868016D01*
X0000084570Y0001869891D01*
X0000082695Y0001871766D01*
X0000131439Y0001907386D02*
X0000135189Y0001907386D01*
X0000138938Y0001905511D01*
X0000140813Y0001903637D01*
X0000142688Y0001899887D01*
X0000144563Y0001892388D01*
X0000144563Y0001883014D01*
X0000142688Y0001875515D01*
X0000140813Y0001871766D01*
X0000138938Y0001869891D01*
X0000135189Y0001868016D01*
X0000131439Y0001868016D01*
X0000127690Y0001869891D01*
X0000125815Y0001871766D01*
X0000123940Y0001875515D01*
X0000122065Y0001883014D01*
X0000122065Y0001892388D01*
X0000123940Y0001899887D01*
X0000125815Y0001903637D01*
X0000127690Y0001905511D01*
X0000131439Y0001907386D01*
X0000084570Y0002003637D02*
X0000086445Y0002005511D01*
X0000090194Y0002007386D01*
X0000099568Y0002007386D01*
X0000103318Y0002005511D01*
X0000105193Y0002003637D01*
X0000107067Y0001999887D01*
X0000107067Y0001996137D01*
X0000105193Y0001990513D01*
X0000082695Y0001968016D01*
X0000107067Y0001968016D01*
X0000129565Y0001990513D02*
X0000125815Y0001992388D01*
X0000123940Y0001994263D01*
X0000122065Y0001998012D01*
X0000122065Y0001999887D01*
X0000123940Y0002003637D01*
X0000125815Y0002005511D01*
X0000129565Y0002007386D01*
X0000137064Y0002007386D01*
X0000140813Y0002005511D01*
X0000142688Y0002003637D01*
X0000144563Y0001999887D01*
X0000144563Y0001998012D01*
X0000142688Y0001994263D01*
X0000140813Y0001992388D01*
X0000137064Y0001990513D01*
X0000129565Y0001990513D01*
X0000125815Y0001988638D01*
X0000123940Y0001986764D01*
X0000122065Y0001983014D01*
X0000122065Y0001975515D01*
X0000123940Y0001971766D01*
X0000125815Y0001969891D01*
X0000129565Y0001968016D01*
X0000137064Y0001968016D01*
X0000140813Y0001969891D01*
X0000142688Y0001971766D01*
X0000144563Y0001975515D01*
X0000144563Y0001983014D01*
X0000142688Y0001986764D01*
X0000140813Y0001988638D01*
X0000137064Y0001990513D01*
X0000084570Y0002103637D02*
X0000086445Y0002105511D01*
X0000090194Y0002107386D01*
X0000099568Y0002107386D01*
X0000103318Y0002105511D01*
X0000105193Y0002103637D01*
X0000107067Y0002099887D01*
X0000107067Y0002096137D01*
X0000105193Y0002090513D01*
X0000082695Y0002068016D01*
X0000107067Y0002068016D01*
X0000140813Y0002107386D02*
X0000133314Y0002107386D01*
X0000129565Y0002105511D01*
X0000127690Y0002103637D01*
X0000123940Y0002098012D01*
X0000122065Y0002090513D01*
X0000122065Y0002075515D01*
X0000123940Y0002071766D01*
X0000125815Y0002069891D01*
X0000129565Y0002068016D01*
X0000137064Y0002068016D01*
X0000140813Y0002069891D01*
X0000142688Y0002071766D01*
X0000144563Y0002075515D01*
X0000144563Y0002084889D01*
X0000142688Y0002088638D01*
X0000140813Y0002090513D01*
X0000137064Y0002092388D01*
X0000129565Y0002092388D01*
X0000125815Y0002090513D01*
X0000123940Y0002088638D01*
X0000122065Y0002084889D01*
X0000084570Y0002203637D02*
X0000086445Y0002205511D01*
X0000090194Y0002207386D01*
X0000099568Y0002207386D01*
X0000103318Y0002205511D01*
X0000105193Y0002203637D01*
X0000107067Y0002199887D01*
X0000107067Y0002196137D01*
X0000105193Y0002190513D01*
X0000082695Y0002168016D01*
X0000107067Y0002168016D01*
X0000140813Y0002194263D02*
X0000140813Y0002168016D01*
X0000131439Y0002209261D02*
X0000122065Y0002181139D01*
X0000146437Y0002181139D01*
X0000084570Y0002303637D02*
X0000086445Y0002305511D01*
X0000090194Y0002307386D01*
X0000099568Y0002307386D01*
X0000103318Y0002305511D01*
X0000105193Y0002303637D01*
X0000107067Y0002299887D01*
X0000107067Y0002296137D01*
X0000105193Y0002290513D01*
X0000082695Y0002268016D01*
X0000107067Y0002268016D01*
X0000122065Y0002303637D02*
X0000123940Y0002305511D01*
X0000127690Y0002307386D01*
X0000137064Y0002307386D01*
X0000140813Y0002305511D01*
X0000142688Y0002303637D01*
X0000144563Y0002299887D01*
X0000144563Y0002296137D01*
X0000142688Y0002290513D01*
X0000120191Y0002268016D01*
X0000144563Y0002268016D01*
X0000084570Y0002403637D02*
X0000086445Y0002405511D01*
X0000090194Y0002407386D01*
X0000099568Y0002407386D01*
X0000103318Y0002405511D01*
X0000105193Y0002403637D01*
X0000107067Y0002399887D01*
X0000107067Y0002396137D01*
X0000105193Y0002390513D01*
X0000082695Y0002368016D01*
X0000107067Y0002368016D01*
X0000131439Y0002407386D02*
X0000135189Y0002407386D01*
X0000138938Y0002405511D01*
X0000140813Y0002403637D01*
X0000142688Y0002399887D01*
X0000144563Y0002392388D01*
X0000144563Y0002383014D01*
X0000142688Y0002375515D01*
X0000140813Y0002371766D01*
X0000138938Y0002369891D01*
X0000135189Y0002368016D01*
X0000131439Y0002368016D01*
X0000127690Y0002369891D01*
X0000125815Y0002371766D01*
X0000123940Y0002375515D01*
X0000122065Y0002383014D01*
X0000122065Y0002392388D01*
X0000123940Y0002399887D01*
X0000125815Y0002403637D01*
X0000127690Y0002405511D01*
X0000131439Y0002407386D01*
X0000107067Y0002468016D02*
X0000084570Y0002468016D01*
X0000095819Y0002468016D02*
X0000095819Y0002507386D01*
X0000092069Y0002501762D01*
X0000088320Y0002498012D01*
X0000084570Y0002496137D01*
X0000129565Y0002490513D02*
X0000125815Y0002492388D01*
X0000123940Y0002494263D01*
X0000122065Y0002498012D01*
X0000122065Y0002499887D01*
X0000123940Y0002503637D01*
X0000125815Y0002505511D01*
X0000129565Y0002507386D01*
X0000137064Y0002507386D01*
X0000140813Y0002505511D01*
X0000142688Y0002503637D01*
X0000144563Y0002499887D01*
X0000144563Y0002498012D01*
X0000142688Y0002494263D01*
X0000140813Y0002492388D01*
X0000137064Y0002490513D01*
X0000129565Y0002490513D01*
X0000125815Y0002488638D01*
X0000123940Y0002486764D01*
X0000122065Y0002483014D01*
X0000122065Y0002475515D01*
X0000123940Y0002471766D01*
X0000125815Y0002469891D01*
X0000129565Y0002468016D01*
X0000137064Y0002468016D01*
X0000140813Y0002469891D01*
X0000142688Y0002471766D01*
X0000144563Y0002475515D01*
X0000144563Y0002483014D01*
X0000142688Y0002486764D01*
X0000140813Y0002488638D01*
X0000137064Y0002490513D01*
X0000107067Y0002568016D02*
X0000084570Y0002568016D01*
X0000095819Y0002568016D02*
X0000095819Y0002607386D01*
X0000092069Y0002601762D01*
X0000088320Y0002598012D01*
X0000084570Y0002596137D01*
X0000140813Y0002607386D02*
X0000133314Y0002607386D01*
X0000129565Y0002605511D01*
X0000127690Y0002603637D01*
X0000123940Y0002598012D01*
X0000122065Y0002590513D01*
X0000122065Y0002575515D01*
X0000123940Y0002571766D01*
X0000125815Y0002569891D01*
X0000129565Y0002568016D01*
X0000137064Y0002568016D01*
X0000140813Y0002569891D01*
X0000142688Y0002571766D01*
X0000144563Y0002575515D01*
X0000144563Y0002584889D01*
X0000142688Y0002588638D01*
X0000140813Y0002590513D01*
X0000137064Y0002592388D01*
X0000129565Y0002592388D01*
X0000125815Y0002590513D01*
X0000123940Y0002588638D01*
X0000122065Y0002584889D01*
X0000107067Y0002668016D02*
X0000084570Y0002668016D01*
X0000095819Y0002668016D02*
X0000095819Y0002707386D01*
X0000092069Y0002701762D01*
X0000088320Y0002698012D01*
X0000084570Y0002696137D01*
X0000140813Y0002694263D02*
X0000140813Y0002668016D01*
X0000131439Y0002709261D02*
X0000122065Y0002681139D01*
X0000146437Y0002681139D01*
X0000107067Y0002768016D02*
X0000084570Y0002768016D01*
X0000095819Y0002768016D02*
X0000095819Y0002807386D01*
X0000092069Y0002801762D01*
X0000088320Y0002798012D01*
X0000084570Y0002796137D01*
X0000122065Y0002803637D02*
X0000123940Y0002805511D01*
X0000127690Y0002807386D01*
X0000137064Y0002807386D01*
X0000140813Y0002805511D01*
X0000142688Y0002803637D01*
X0000144563Y0002799887D01*
X0000144563Y0002796137D01*
X0000142688Y0002790513D01*
X0000120191Y0002768016D01*
X0000144563Y0002768016D01*
X0000107067Y0002868016D02*
X0000084570Y0002868016D01*
X0000095819Y0002868016D02*
X0000095819Y0002907386D01*
X0000092069Y0002901762D01*
X0000088320Y0002898012D01*
X0000084570Y0002896137D01*
X0000131439Y0002907386D02*
X0000135189Y0002907386D01*
X0000138938Y0002905511D01*
X0000140813Y0002903637D01*
X0000142688Y0002899887D01*
X0000144563Y0002892388D01*
X0000144563Y0002883014D01*
X0000142688Y0002875515D01*
X0000140813Y0002871766D01*
X0000138938Y0002869891D01*
X0000135189Y0002868016D01*
X0000131439Y0002868016D01*
X0000127690Y0002869891D01*
X0000125815Y0002871766D01*
X0000123940Y0002875515D01*
X0000122065Y0002883014D01*
X0000122065Y0002892388D01*
X0000123940Y0002899887D01*
X0000125815Y0002903637D01*
X0000127690Y0002905511D01*
X0000131439Y0002907386D01*
X0000110817Y0002990513D02*
X0000107067Y0002992388D01*
X0000105193Y0002994263D01*
X0000103318Y0002998012D01*
X0000103318Y0002999887D01*
X0000105193Y0003003637D01*
X0000107067Y0003005511D01*
X0000110817Y0003007386D01*
X0000118316Y0003007386D01*
X0000122066Y0003005511D01*
X0000123940Y0003003637D01*
X0000125815Y0002999887D01*
X0000125815Y0002998012D01*
X0000123940Y0002994263D01*
X0000122066Y0002992388D01*
X0000118316Y0002990513D01*
X0000110817Y0002990513D01*
X0000107067Y0002988638D01*
X0000105193Y0002986764D01*
X0000103318Y0002983014D01*
X0000103318Y0002975515D01*
X0000105193Y0002971766D01*
X0000107067Y0002969891D01*
X0000110817Y0002968016D01*
X0000118316Y0002968016D01*
X0000122066Y0002969891D01*
X0000123940Y0002971766D01*
X0000125815Y0002975515D01*
X0000125815Y0002983014D01*
X0000123940Y0002986764D01*
X0000122066Y0002988638D01*
X0000118316Y0002990513D01*
X0000122066Y0003107386D02*
X0000114566Y0003107386D01*
X0000110817Y0003105511D01*
X0000108942Y0003103637D01*
X0000105193Y0003098012D01*
X0000103318Y0003090513D01*
X0000103318Y0003075515D01*
X0000105193Y0003071766D01*
X0000107067Y0003069891D01*
X0000110817Y0003068016D01*
X0000118316Y0003068016D01*
X0000122066Y0003069891D01*
X0000123940Y0003071766D01*
X0000125815Y0003075515D01*
X0000125815Y0003084889D01*
X0000123940Y0003088638D01*
X0000122066Y0003090513D01*
X0000118316Y0003092388D01*
X0000110817Y0003092388D01*
X0000107067Y0003090513D01*
X0000105193Y0003088638D01*
X0000103318Y0003084889D01*
X0000122066Y0003194263D02*
X0000122066Y0003168016D01*
X0000112692Y0003209261D02*
X0000103318Y0003181139D01*
X0000127690Y0003181139D01*
X0000103318Y0003303637D02*
X0000105193Y0003305511D01*
X0000108942Y0003307386D01*
X0000118316Y0003307386D01*
X0000122066Y0003305511D01*
X0000123940Y0003303637D01*
X0000125815Y0003299887D01*
X0000125815Y0003296137D01*
X0000123940Y0003290513D01*
X0000101443Y0003268016D01*
X0000125815Y0003268016D01*
D26*
X0000567519Y0003288385D02*
X0000567519Y0001595472D01*
X0000567519Y0001595472D02*
X0002417913Y0001595472D01*
X0002417913Y0001595472D02*
X0002417913Y0003288385D01*
X0002417913Y0003288385D02*
X0000567519Y0003288385D01*
D27*
X0000393700Y0003244881D02*
X0000393700Y0001542519D01*
X0000393700Y0001542519D02*
X0000188976Y0001542519D01*
X0000188976Y0001542519D02*
X0000188976Y0003347244D01*
X0000188976Y0003347244D02*
X0000291338Y0003347244D01*
X0000291338Y0003347244D02*
X0000291338Y0003244881D01*
X0000291338Y0003244881D02*
X0000393700Y0003244881D01*
X0000393700Y0003294881D02*
X0000393700Y0003347244D01*
X0000393700Y0003347244D02*
X0000343700Y0003347244D01*
X0000640944Y0001340944D02*
X0000692913Y0001340944D01*
X0000588188Y0001238976D02*
X0000588188Y0001290944D01*
X0000588188Y0001290944D02*
X0000588188Y0001291732D01*
X0000690551Y0001340944D02*
X0002392913Y0001340944D01*
X0002392913Y0001340944D02*
X0002392913Y0001136220D01*
X0002392913Y0001136220D02*
X0000588188Y0001136220D01*
X0000588188Y0001136220D02*
X0000588188Y0001238582D01*
X0000640551Y0001340944D02*
X0000588188Y0001340944D01*
X0000588188Y0001340944D02*
X0000588188Y0001290944D01*
X0002796456Y0003289370D02*
X0002796456Y0003237401D01*
X0002694488Y0003342125D02*
X0002746456Y0003342125D01*
X0002746456Y0003342125D02*
X0002747244Y0003342125D01*
X0002796456Y0003239763D02*
X0002796456Y0001537401D01*
X0002796456Y0001537401D02*
X0002591732Y0001537401D01*
X0002591732Y0001537401D02*
X0002591732Y0003342125D01*
X0002591732Y0003342125D02*
X0002694094Y0003342125D01*
X0002796456Y0003289763D02*
X0002796456Y0003342125D01*
X0002796456Y0003342125D02*
X0002746456Y0003342125D01*
X0002340157Y0003540944D02*
X0002288188Y0003540944D01*
X0002392913Y0003642913D02*
X0002392913Y0003590944D01*
X0002392913Y0003590944D02*
X0002392913Y0003590157D01*
X0002290551Y0003540944D02*
X0000588188Y0003540944D01*
X0000588188Y0003540944D02*
X0000588188Y0003745669D01*
X0000588188Y0003745669D02*
X0002392913Y0003745669D01*
X0002392913Y0003745669D02*
X0002392913Y0003643307D01*
X0002340551Y0003540944D02*
X0002392913Y0003540944D01*
X0002392913Y0003540944D02*
X0002392913Y0003590944D01*
D25*
X0002328862Y0001557977D02*
X0002328862Y0001526106D01*
X0002330736Y0001522356D01*
X0002332611Y0001520481D01*
X0002336361Y0001518607D01*
X0002343860Y0001518607D01*
X0002347609Y0001520481D01*
X0002349484Y0001522356D01*
X0002351359Y0001526106D01*
X0002351359Y0001557977D01*
X0002390729Y0001518607D02*
X0002368232Y0001518607D01*
X0002379480Y0001518607D02*
X0002379480Y0001557977D01*
X0002375731Y0001552352D01*
X0002371981Y0001548603D01*
X0002368232Y0001546728D01*
X0000278215Y0003408173D02*
X0000278215Y0003380052D01*
X0000276340Y0003374428D01*
X0000272590Y0003370678D01*
X0000266966Y0003368803D01*
X0000263217Y0003368803D01*
X0000317585Y0003368803D02*
X0000295088Y0003368803D01*
X0000306336Y0003368803D02*
X0000306336Y0003408173D01*
X0000302587Y0003402549D01*
X0000298837Y0003398800D01*
X0000295088Y0003396925D01*
X0000527259Y0001225459D02*
X0000555380Y0001225459D01*
X0000561004Y0001223584D01*
X0000564754Y0001219834D01*
X0000566629Y0001214210D01*
X0000566629Y0001210461D01*
X0000531008Y0001242332D02*
X0000529133Y0001244206D01*
X0000527259Y0001247956D01*
X0000527259Y0001257330D01*
X0000529133Y0001261079D01*
X0000531008Y0001262954D01*
X0000534758Y0001264829D01*
X0000538507Y0001264829D01*
X0000544131Y0001262954D01*
X0000566629Y0001240457D01*
X0000566629Y0001264829D01*
X0002680971Y0003403055D02*
X0002680971Y0003374934D01*
X0002679096Y0003369310D01*
X0002675346Y0003365560D01*
X0002669722Y0003363685D01*
X0002665972Y0003363685D01*
X0002695969Y0003403055D02*
X0002720341Y0003403055D01*
X0002707217Y0003388057D01*
X0002712842Y0003388057D01*
X0002716591Y0003386182D01*
X0002718466Y0003384308D01*
X0002720341Y0003380558D01*
X0002720341Y0003371184D01*
X0002718466Y0003367435D01*
X0002716591Y0003365560D01*
X0002712842Y0003363685D01*
X0002701593Y0003363685D01*
X0002697844Y0003365560D01*
X0002695969Y0003367435D01*
X0002410723Y0003630183D02*
X0002438845Y0003630183D01*
X0002444469Y0003628308D01*
X0002448218Y0003624559D01*
X0002450093Y0003618935D01*
X0002450093Y0003615185D01*
X0002423847Y0003665804D02*
X0002450093Y0003665804D01*
X0002408848Y0003656430D02*
X0002436970Y0003647056D01*
X0002436970Y0003671428D01*
G04 next file*
G04 Gerber Fmt 4.6, Leading zero omitted, Abs format (unit mm)*
G04 Created by KiCad (PCBNEW 4.0.7) date 11/27/17 18:36:53*
G01G01*
G04 APERTURE LIST*
G04 APERTURE END LIST*
D28*
D29*
X0003777559Y0000901574D02*
X0003738188Y0000901574D01*
X0003757874Y0000881889D02*
X0003757874Y0000921259D01*
D30*
X0003684944Y0000138220D02*
X0003715259Y0000138220D01*
X0003715259Y0000153968D02*
X0003715259Y0000121291D01*
D31*
X0003629826Y0000165779D02*
X0003629826Y0000110661D01*
X0003629826Y0000110661D02*
X0003740062Y0000110661D01*
X0003629826Y0000165779D02*
X0003740062Y0000165779D01*
D30*
X0003684944Y0000238220D02*
X0003715259Y0000238220D01*
X0003715259Y0000253968D02*
X0003715259Y0000221291D01*
D31*
X0003629826Y0000265779D02*
X0003629826Y0000210661D01*
X0003629826Y0000210661D02*
X0003740062Y0000210661D01*
X0003629826Y0000265779D02*
X0003740062Y0000265779D01*
D30*
X0003684944Y0000338220D02*
X0003715259Y0000338220D01*
X0003715259Y0000353968D02*
X0003715259Y0000321291D01*
D31*
X0003629826Y0000365779D02*
X0003629826Y0000310661D01*
X0003629826Y0000310661D02*
X0003740062Y0000310661D01*
X0003629826Y0000365779D02*
X0003740062Y0000365779D01*
D30*
X0003684944Y0000438220D02*
X0003715259Y0000438220D01*
X0003715259Y0000453968D02*
X0003715259Y0000421291D01*
D31*
X0003629826Y0000465779D02*
X0003629826Y0000410661D01*
X0003629826Y0000410661D02*
X0003740062Y0000410661D01*
X0003629826Y0000465779D02*
X0003740062Y0000465779D01*
D30*
X0003684944Y0000538220D02*
X0003715259Y0000538220D01*
X0003715259Y0000553968D02*
X0003715259Y0000521291D01*
D31*
X0003629826Y0000565779D02*
X0003629826Y0000510661D01*
X0003629826Y0000510661D02*
X0003740062Y0000510661D01*
X0003629826Y0000565779D02*
X0003740062Y0000565779D01*
D30*
X0003684944Y0000638220D02*
X0003715259Y0000638220D01*
X0003715259Y0000653968D02*
X0003715259Y0000621291D01*
D31*
X0003629826Y0000665779D02*
X0003629826Y0000610661D01*
X0003629826Y0000610661D02*
X0003740062Y0000610661D01*
X0003629826Y0000665779D02*
X0003740062Y0000665779D01*
D30*
X0003684944Y0000738220D02*
X0003715259Y0000738220D01*
X0003715259Y0000753968D02*
X0003715259Y0000721291D01*
D31*
X0003629826Y0000765779D02*
X0003629826Y0000710661D01*
X0003629826Y0000710661D02*
X0003740062Y0000710661D01*
X0003629826Y0000765779D02*
X0003740062Y0000765779D01*
D30*
X0003684944Y0000838220D02*
X0003715259Y0000838220D01*
X0003715259Y0000853968D02*
X0003715259Y0000821291D01*
D31*
X0003629826Y0000865779D02*
X0003629826Y0000810661D01*
X0003629826Y0000810661D02*
X0003740062Y0000810661D01*
X0003629826Y0000865779D02*
X0003740062Y0000865779D01*
X0003805811Y0000085858D02*
X0003910535Y0000085858D01*
X0003805811Y0000788220D02*
X0003805811Y0000085858D01*
X0003910535Y0000788220D02*
X0003910535Y0000085858D01*
X0003805811Y0000788220D02*
X0003910535Y0000788220D01*
X0003805811Y0000838220D02*
X0003805811Y0000890582D01*
X0003805811Y0000890582D02*
X0003858173Y0000890582D01*
X0003490850Y0000085858D02*
X0003595574Y0000085858D01*
X0003490850Y0000788220D02*
X0003490850Y0000085858D01*
X0003595574Y0000788220D02*
X0003595574Y0000085858D01*
X0003490850Y0000788220D02*
X0003595574Y0000788220D01*
X0003490850Y0000838220D02*
X0003490850Y0000890582D01*
X0003490850Y0000890582D02*
X0003543212Y0000890582D01*
D28*
D30*
D28*
D30*
G04 next file*
G04 Gerber Fmt 4.6, Leading zero omitted, Abs format (unit mm)*
G04 Created by KiCad (PCBNEW 4.0.7) date 11/27/17 18:36:53*
G01G01*
G04 APERTURE LIST*
G04 APERTURE END LIST*
D32*
D33*
X0002832677Y0000901574D02*
X0002793307Y0000901574D01*
X0002812992Y0000881889D02*
X0002812992Y0000921259D01*
D34*
X0002740062Y0000138220D02*
X0002770377Y0000138220D01*
X0002770377Y0000153968D02*
X0002770377Y0000121291D01*
D35*
X0002684944Y0000165779D02*
X0002684944Y0000110661D01*
X0002684944Y0000110661D02*
X0002795181Y0000110661D01*
X0002684944Y0000165779D02*
X0002795181Y0000165779D01*
D34*
X0002740062Y0000238220D02*
X0002770377Y0000238220D01*
X0002770377Y0000253968D02*
X0002770377Y0000221291D01*
D35*
X0002684944Y0000265779D02*
X0002684944Y0000210661D01*
X0002684944Y0000210661D02*
X0002795181Y0000210661D01*
X0002684944Y0000265779D02*
X0002795181Y0000265779D01*
D34*
X0002740062Y0000338220D02*
X0002770377Y0000338220D01*
X0002770377Y0000353968D02*
X0002770377Y0000321291D01*
D35*
X0002684944Y0000365779D02*
X0002684944Y0000310661D01*
X0002684944Y0000310661D02*
X0002795181Y0000310661D01*
X0002684944Y0000365779D02*
X0002795181Y0000365779D01*
D34*
X0002740062Y0000438220D02*
X0002770377Y0000438220D01*
X0002770377Y0000453968D02*
X0002770377Y0000421291D01*
D35*
X0002684944Y0000465779D02*
X0002684944Y0000410661D01*
X0002684944Y0000410661D02*
X0002795181Y0000410661D01*
X0002684944Y0000465779D02*
X0002795181Y0000465779D01*
D34*
X0002740062Y0000538220D02*
X0002770377Y0000538220D01*
X0002770377Y0000553968D02*
X0002770377Y0000521291D01*
D35*
X0002684944Y0000565779D02*
X0002684944Y0000510661D01*
X0002684944Y0000510661D02*
X0002795181Y0000510661D01*
X0002684944Y0000565779D02*
X0002795181Y0000565779D01*
D34*
X0002740062Y0000638220D02*
X0002770377Y0000638220D01*
X0002770377Y0000653968D02*
X0002770377Y0000621291D01*
D35*
X0002684944Y0000665779D02*
X0002684944Y0000610661D01*
X0002684944Y0000610661D02*
X0002795181Y0000610661D01*
X0002684944Y0000665779D02*
X0002795181Y0000665779D01*
D34*
X0002740062Y0000738220D02*
X0002770377Y0000738220D01*
X0002770377Y0000753968D02*
X0002770377Y0000721291D01*
D35*
X0002684944Y0000765779D02*
X0002684944Y0000710661D01*
X0002684944Y0000710661D02*
X0002795181Y0000710661D01*
X0002684944Y0000765779D02*
X0002795181Y0000765779D01*
D34*
X0002740062Y0000838220D02*
X0002770377Y0000838220D01*
X0002770377Y0000853968D02*
X0002770377Y0000821291D01*
D35*
X0002684944Y0000865779D02*
X0002684944Y0000810661D01*
X0002684944Y0000810661D02*
X0002795181Y0000810661D01*
X0002684944Y0000865779D02*
X0002795181Y0000865779D01*
X0002860929Y0000085858D02*
X0002965653Y0000085858D01*
X0002860929Y0000788220D02*
X0002860929Y0000085858D01*
X0002965653Y0000788220D02*
X0002965653Y0000085858D01*
X0002860929Y0000788220D02*
X0002965653Y0000788220D01*
X0002860929Y0000838220D02*
X0002860929Y0000890582D01*
X0002860929Y0000890582D02*
X0002913291Y0000890582D01*
X0002545968Y0000085858D02*
X0002650692Y0000085858D01*
X0002545968Y0000788220D02*
X0002545968Y0000085858D01*
X0002650692Y0000788220D02*
X0002650692Y0000085858D01*
X0002545968Y0000788220D02*
X0002650692Y0000788220D01*
X0002545968Y0000838220D02*
X0002545968Y0000890582D01*
X0002545968Y0000890582D02*
X0002598330Y0000890582D01*
D32*
D34*
D32*
D34*
G04 next file*
G04 Gerber Fmt 4.6, Leading zero omitted, Abs format (unit mm)*
G04 Created by KiCad (PCBNEW 4.0.7) date 11/27/17 18:36:53*
G01G01*
G04 APERTURE LIST*
G04 APERTURE END LIST*
D36*
D37*
X0002360236Y0000901574D02*
X0002320866Y0000901574D01*
X0002340551Y0000881889D02*
X0002340551Y0000921259D01*
D38*
X0002267622Y0000138220D02*
X0002297937Y0000138220D01*
X0002297937Y0000153968D02*
X0002297937Y0000121291D01*
D39*
X0002212503Y0000165779D02*
X0002212503Y0000110661D01*
X0002212503Y0000110661D02*
X0002322740Y0000110661D01*
X0002212503Y0000165779D02*
X0002322740Y0000165779D01*
D38*
X0002267622Y0000238220D02*
X0002297937Y0000238220D01*
X0002297937Y0000253968D02*
X0002297937Y0000221291D01*
D39*
X0002212503Y0000265779D02*
X0002212503Y0000210661D01*
X0002212503Y0000210661D02*
X0002322740Y0000210661D01*
X0002212503Y0000265779D02*
X0002322740Y0000265779D01*
D38*
X0002267622Y0000338220D02*
X0002297937Y0000338220D01*
X0002297937Y0000353968D02*
X0002297937Y0000321291D01*
D39*
X0002212503Y0000365779D02*
X0002212503Y0000310661D01*
X0002212503Y0000310661D02*
X0002322740Y0000310661D01*
X0002212503Y0000365779D02*
X0002322740Y0000365779D01*
D38*
X0002267622Y0000438220D02*
X0002297937Y0000438220D01*
X0002297937Y0000453968D02*
X0002297937Y0000421291D01*
D39*
X0002212503Y0000465779D02*
X0002212503Y0000410661D01*
X0002212503Y0000410661D02*
X0002322740Y0000410661D01*
X0002212503Y0000465779D02*
X0002322740Y0000465779D01*
D38*
X0002267622Y0000538220D02*
X0002297937Y0000538220D01*
X0002297937Y0000553968D02*
X0002297937Y0000521291D01*
D39*
X0002212503Y0000565779D02*
X0002212503Y0000510661D01*
X0002212503Y0000510661D02*
X0002322740Y0000510661D01*
X0002212503Y0000565779D02*
X0002322740Y0000565779D01*
D38*
X0002267622Y0000638220D02*
X0002297937Y0000638220D01*
X0002297937Y0000653968D02*
X0002297937Y0000621291D01*
D39*
X0002212503Y0000665779D02*
X0002212503Y0000610661D01*
X0002212503Y0000610661D02*
X0002322740Y0000610661D01*
X0002212503Y0000665779D02*
X0002322740Y0000665779D01*
D38*
X0002267622Y0000738220D02*
X0002297937Y0000738220D01*
X0002297937Y0000753968D02*
X0002297937Y0000721291D01*
D39*
X0002212503Y0000765779D02*
X0002212503Y0000710661D01*
X0002212503Y0000710661D02*
X0002322740Y0000710661D01*
X0002212503Y0000765779D02*
X0002322740Y0000765779D01*
D38*
X0002267622Y0000838220D02*
X0002297937Y0000838220D01*
X0002297937Y0000853968D02*
X0002297937Y0000821291D01*
D39*
X0002212503Y0000865779D02*
X0002212503Y0000810661D01*
X0002212503Y0000810661D02*
X0002322740Y0000810661D01*
X0002212503Y0000865779D02*
X0002322740Y0000865779D01*
X0002388488Y0000085858D02*
X0002493212Y0000085858D01*
X0002388488Y0000788220D02*
X0002388488Y0000085858D01*
X0002493212Y0000788220D02*
X0002493212Y0000085858D01*
X0002388488Y0000788220D02*
X0002493212Y0000788220D01*
X0002388488Y0000838220D02*
X0002388488Y0000890582D01*
X0002388488Y0000890582D02*
X0002440850Y0000890582D01*
X0002073527Y0000085858D02*
X0002178251Y0000085858D01*
X0002073527Y0000788220D02*
X0002073527Y0000085858D01*
X0002178251Y0000788220D02*
X0002178251Y0000085858D01*
X0002073527Y0000788220D02*
X0002178251Y0000788220D01*
X0002073527Y0000838220D02*
X0002073527Y0000890582D01*
X0002073527Y0000890582D02*
X0002125889Y0000890582D01*
D36*
D38*
D36*
D38*
G04 next file*
G04 Gerber Fmt 4.6, Leading zero omitted, Abs format (unit mm)*
G04 Created by KiCad (PCBNEW 4.0.7) date 11/27/17 18:36:53*
G01G01*
G04 APERTURE LIST*
G04 APERTURE END LIST*
D40*
D41*
X0001887795Y0000901574D02*
X0001848425Y0000901574D01*
X0001868110Y0000881889D02*
X0001868110Y0000921259D01*
D42*
X0001795181Y0000138220D02*
X0001825496Y0000138220D01*
X0001825496Y0000153968D02*
X0001825496Y0000121291D01*
D43*
X0001740062Y0000165779D02*
X0001740062Y0000110661D01*
X0001740062Y0000110661D02*
X0001850299Y0000110661D01*
X0001740062Y0000165779D02*
X0001850299Y0000165779D01*
D42*
X0001795181Y0000238220D02*
X0001825496Y0000238220D01*
X0001825496Y0000253968D02*
X0001825496Y0000221291D01*
D43*
X0001740062Y0000265779D02*
X0001740062Y0000210661D01*
X0001740062Y0000210661D02*
X0001850299Y0000210661D01*
X0001740062Y0000265779D02*
X0001850299Y0000265779D01*
D42*
X0001795181Y0000338220D02*
X0001825496Y0000338220D01*
X0001825496Y0000353968D02*
X0001825496Y0000321291D01*
D43*
X0001740062Y0000365779D02*
X0001740062Y0000310661D01*
X0001740062Y0000310661D02*
X0001850299Y0000310661D01*
X0001740062Y0000365779D02*
X0001850299Y0000365779D01*
D42*
X0001795181Y0000438220D02*
X0001825496Y0000438220D01*
X0001825496Y0000453968D02*
X0001825496Y0000421291D01*
D43*
X0001740062Y0000465779D02*
X0001740062Y0000410661D01*
X0001740062Y0000410661D02*
X0001850299Y0000410661D01*
X0001740062Y0000465779D02*
X0001850299Y0000465779D01*
D42*
X0001795181Y0000538220D02*
X0001825496Y0000538220D01*
X0001825496Y0000553968D02*
X0001825496Y0000521291D01*
D43*
X0001740062Y0000565779D02*
X0001740062Y0000510661D01*
X0001740062Y0000510661D02*
X0001850299Y0000510661D01*
X0001740062Y0000565779D02*
X0001850299Y0000565779D01*
D42*
X0001795181Y0000638220D02*
X0001825496Y0000638220D01*
X0001825496Y0000653968D02*
X0001825496Y0000621291D01*
D43*
X0001740062Y0000665779D02*
X0001740062Y0000610661D01*
X0001740062Y0000610661D02*
X0001850299Y0000610661D01*
X0001740062Y0000665779D02*
X0001850299Y0000665779D01*
D42*
X0001795181Y0000738220D02*
X0001825496Y0000738220D01*
X0001825496Y0000753968D02*
X0001825496Y0000721291D01*
D43*
X0001740062Y0000765779D02*
X0001740062Y0000710661D01*
X0001740062Y0000710661D02*
X0001850299Y0000710661D01*
X0001740062Y0000765779D02*
X0001850299Y0000765779D01*
D42*
X0001795181Y0000838220D02*
X0001825496Y0000838220D01*
X0001825496Y0000853968D02*
X0001825496Y0000821291D01*
D43*
X0001740062Y0000865779D02*
X0001740062Y0000810661D01*
X0001740062Y0000810661D02*
X0001850299Y0000810661D01*
X0001740062Y0000865779D02*
X0001850299Y0000865779D01*
X0001916047Y0000085858D02*
X0002020771Y0000085858D01*
X0001916047Y0000788220D02*
X0001916047Y0000085858D01*
X0002020771Y0000788220D02*
X0002020771Y0000085858D01*
X0001916047Y0000788220D02*
X0002020771Y0000788220D01*
X0001916047Y0000838220D02*
X0001916047Y0000890582D01*
X0001916047Y0000890582D02*
X0001968409Y0000890582D01*
X0001601086Y0000085858D02*
X0001705811Y0000085858D01*
X0001601086Y0000788220D02*
X0001601086Y0000085858D01*
X0001705811Y0000788220D02*
X0001705811Y0000085858D01*
X0001601086Y0000788220D02*
X0001705811Y0000788220D01*
X0001601086Y0000838220D02*
X0001601086Y0000890582D01*
X0001601086Y0000890582D02*
X0001653448Y0000890582D01*
D40*
D42*
D40*
D42*
G04 next file*
G04 Gerber Fmt 4.6, Leading zero omitted, Abs format (unit mm)*
G04 Created by KiCad (PCBNEW 4.0.7) date 11/27/17 18:36:53*
G01G01*
G04 APERTURE LIST*
G04 APERTURE END LIST*
D44*
D45*
X0001415354Y0000901574D02*
X0001375984Y0000901574D01*
X0001395669Y0000881889D02*
X0001395669Y0000921259D01*
D46*
X0001322740Y0000138220D02*
X0001353055Y0000138220D01*
X0001353055Y0000153968D02*
X0001353055Y0000121291D01*
D47*
X0001267622Y0000165779D02*
X0001267622Y0000110661D01*
X0001267622Y0000110661D02*
X0001377858Y0000110661D01*
X0001267622Y0000165779D02*
X0001377858Y0000165779D01*
D46*
X0001322740Y0000238220D02*
X0001353055Y0000238220D01*
X0001353055Y0000253968D02*
X0001353055Y0000221291D01*
D47*
X0001267622Y0000265779D02*
X0001267622Y0000210661D01*
X0001267622Y0000210661D02*
X0001377858Y0000210661D01*
X0001267622Y0000265779D02*
X0001377858Y0000265779D01*
D46*
X0001322740Y0000338220D02*
X0001353055Y0000338220D01*
X0001353055Y0000353968D02*
X0001353055Y0000321291D01*
D47*
X0001267622Y0000365779D02*
X0001267622Y0000310661D01*
X0001267622Y0000310661D02*
X0001377858Y0000310661D01*
X0001267622Y0000365779D02*
X0001377858Y0000365779D01*
D46*
X0001322740Y0000438220D02*
X0001353055Y0000438220D01*
X0001353055Y0000453968D02*
X0001353055Y0000421291D01*
D47*
X0001267622Y0000465779D02*
X0001267622Y0000410661D01*
X0001267622Y0000410661D02*
X0001377858Y0000410661D01*
X0001267622Y0000465779D02*
X0001377858Y0000465779D01*
D46*
X0001322740Y0000538220D02*
X0001353055Y0000538220D01*
X0001353055Y0000553968D02*
X0001353055Y0000521291D01*
D47*
X0001267622Y0000565779D02*
X0001267622Y0000510661D01*
X0001267622Y0000510661D02*
X0001377858Y0000510661D01*
X0001267622Y0000565779D02*
X0001377858Y0000565779D01*
D46*
X0001322740Y0000638220D02*
X0001353055Y0000638220D01*
X0001353055Y0000653968D02*
X0001353055Y0000621291D01*
D47*
X0001267622Y0000665779D02*
X0001267622Y0000610661D01*
X0001267622Y0000610661D02*
X0001377858Y0000610661D01*
X0001267622Y0000665779D02*
X0001377858Y0000665779D01*
D46*
X0001322740Y0000738220D02*
X0001353055Y0000738220D01*
X0001353055Y0000753968D02*
X0001353055Y0000721291D01*
D47*
X0001267622Y0000765779D02*
X0001267622Y0000710661D01*
X0001267622Y0000710661D02*
X0001377858Y0000710661D01*
X0001267622Y0000765779D02*
X0001377858Y0000765779D01*
D46*
X0001322740Y0000838220D02*
X0001353055Y0000838220D01*
X0001353055Y0000853968D02*
X0001353055Y0000821291D01*
D47*
X0001267622Y0000865779D02*
X0001267622Y0000810661D01*
X0001267622Y0000810661D02*
X0001377858Y0000810661D01*
X0001267622Y0000865779D02*
X0001377858Y0000865779D01*
X0001443606Y0000085858D02*
X0001548330Y0000085858D01*
X0001443606Y0000788220D02*
X0001443606Y0000085858D01*
X0001548330Y0000788220D02*
X0001548330Y0000085858D01*
X0001443606Y0000788220D02*
X0001548330Y0000788220D01*
X0001443606Y0000838220D02*
X0001443606Y0000890582D01*
X0001443606Y0000890582D02*
X0001495968Y0000890582D01*
X0001128645Y0000085858D02*
X0001233370Y0000085858D01*
X0001128645Y0000788220D02*
X0001128645Y0000085858D01*
X0001233370Y0000788220D02*
X0001233370Y0000085858D01*
X0001128645Y0000788220D02*
X0001233370Y0000788220D01*
X0001128645Y0000838220D02*
X0001128645Y0000890582D01*
X0001128645Y0000890582D02*
X0001181007Y0000890582D01*
D44*
D46*
D44*
D46*
G04 next file*
G04 Gerber Fmt 4.6, Leading zero omitted, Abs format (unit mm)*
G04 Created by KiCad (PCBNEW 4.0.7) date 11/27/17 18:36:53*
G01G01*
G04 APERTURE LIST*
G04 APERTURE END LIST*
D48*
D49*
X0000942913Y0000901574D02*
X0000903543Y0000901574D01*
X0000923228Y0000881889D02*
X0000923228Y0000921259D01*
D50*
X0000850299Y0000138220D02*
X0000880614Y0000138220D01*
X0000880614Y0000153968D02*
X0000880614Y0000121291D01*
D51*
X0000795181Y0000165779D02*
X0000795181Y0000110661D01*
X0000795181Y0000110661D02*
X0000905417Y0000110661D01*
X0000795181Y0000165779D02*
X0000905417Y0000165779D01*
D50*
X0000850299Y0000238220D02*
X0000880614Y0000238220D01*
X0000880614Y0000253968D02*
X0000880614Y0000221291D01*
D51*
X0000795181Y0000265779D02*
X0000795181Y0000210661D01*
X0000795181Y0000210661D02*
X0000905417Y0000210661D01*
X0000795181Y0000265779D02*
X0000905417Y0000265779D01*
D50*
X0000850299Y0000338220D02*
X0000880614Y0000338220D01*
X0000880614Y0000353968D02*
X0000880614Y0000321291D01*
D51*
X0000795181Y0000365779D02*
X0000795181Y0000310661D01*
X0000795181Y0000310661D02*
X0000905417Y0000310661D01*
X0000795181Y0000365779D02*
X0000905417Y0000365779D01*
D50*
X0000850299Y0000438220D02*
X0000880614Y0000438220D01*
X0000880614Y0000453968D02*
X0000880614Y0000421291D01*
D51*
X0000795181Y0000465779D02*
X0000795181Y0000410661D01*
X0000795181Y0000410661D02*
X0000905417Y0000410661D01*
X0000795181Y0000465779D02*
X0000905417Y0000465779D01*
D50*
X0000850299Y0000538220D02*
X0000880614Y0000538220D01*
X0000880614Y0000553968D02*
X0000880614Y0000521291D01*
D51*
X0000795181Y0000565779D02*
X0000795181Y0000510661D01*
X0000795181Y0000510661D02*
X0000905417Y0000510661D01*
X0000795181Y0000565779D02*
X0000905417Y0000565779D01*
D50*
X0000850299Y0000638220D02*
X0000880614Y0000638220D01*
X0000880614Y0000653968D02*
X0000880614Y0000621291D01*
D51*
X0000795181Y0000665779D02*
X0000795181Y0000610661D01*
X0000795181Y0000610661D02*
X0000905417Y0000610661D01*
X0000795181Y0000665779D02*
X0000905417Y0000665779D01*
D50*
X0000850299Y0000738220D02*
X0000880614Y0000738220D01*
X0000880614Y0000753968D02*
X0000880614Y0000721291D01*
D51*
X0000795181Y0000765779D02*
X0000795181Y0000710661D01*
X0000795181Y0000710661D02*
X0000905417Y0000710661D01*
X0000795181Y0000765779D02*
X0000905417Y0000765779D01*
D50*
X0000850299Y0000838220D02*
X0000880614Y0000838220D01*
X0000880614Y0000853968D02*
X0000880614Y0000821291D01*
D51*
X0000795181Y0000865779D02*
X0000795181Y0000810661D01*
X0000795181Y0000810661D02*
X0000905417Y0000810661D01*
X0000795181Y0000865779D02*
X0000905417Y0000865779D01*
X0000971165Y0000085858D02*
X0001075889Y0000085858D01*
X0000971165Y0000788220D02*
X0000971165Y0000085858D01*
X0001075889Y0000788220D02*
X0001075889Y0000085858D01*
X0000971165Y0000788220D02*
X0001075889Y0000788220D01*
X0000971165Y0000838220D02*
X0000971165Y0000890582D01*
X0000971165Y0000890582D02*
X0001023527Y0000890582D01*
X0000656204Y0000085858D02*
X0000760929Y0000085858D01*
X0000656204Y0000788220D02*
X0000656204Y0000085858D01*
X0000760929Y0000788220D02*
X0000760929Y0000085858D01*
X0000656204Y0000788220D02*
X0000760929Y0000788220D01*
X0000656204Y0000838220D02*
X0000656204Y0000890582D01*
X0000656204Y0000890582D02*
X0000708566Y0000890582D01*
D48*
D50*
D48*
D50*
G04 next file*
G04 Gerber Fmt 4.6, Leading zero omitted, Abs format (unit mm)*
G04 Created by KiCad (PCBNEW 4.0.7) date 11/27/17 18:36:53*
G01G01*
G04 APERTURE LIST*
G04 APERTURE END LIST*
D52*
D53*
X0000470472Y0000901574D02*
X0000431102Y0000901574D01*
X0000450787Y0000881889D02*
X0000450787Y0000921259D01*
D54*
X0000377858Y0000138220D02*
X0000408173Y0000138220D01*
X0000408173Y0000153968D02*
X0000408173Y0000121291D01*
D55*
X0000322740Y0000165779D02*
X0000322740Y0000110661D01*
X0000322740Y0000110661D02*
X0000432976Y0000110661D01*
X0000322740Y0000165779D02*
X0000432976Y0000165779D01*
D54*
X0000377858Y0000238220D02*
X0000408173Y0000238220D01*
X0000408173Y0000253968D02*
X0000408173Y0000221291D01*
D55*
X0000322740Y0000265779D02*
X0000322740Y0000210661D01*
X0000322740Y0000210661D02*
X0000432976Y0000210661D01*
X0000322740Y0000265779D02*
X0000432976Y0000265779D01*
D54*
X0000377858Y0000338220D02*
X0000408173Y0000338220D01*
X0000408173Y0000353968D02*
X0000408173Y0000321291D01*
D55*
X0000322740Y0000365779D02*
X0000322740Y0000310661D01*
X0000322740Y0000310661D02*
X0000432976Y0000310661D01*
X0000322740Y0000365779D02*
X0000432976Y0000365779D01*
D54*
X0000377858Y0000438220D02*
X0000408173Y0000438220D01*
X0000408173Y0000453968D02*
X0000408173Y0000421291D01*
D55*
X0000322740Y0000465779D02*
X0000322740Y0000410661D01*
X0000322740Y0000410661D02*
X0000432976Y0000410661D01*
X0000322740Y0000465779D02*
X0000432976Y0000465779D01*
D54*
X0000377858Y0000538220D02*
X0000408173Y0000538220D01*
X0000408173Y0000553968D02*
X0000408173Y0000521291D01*
D55*
X0000322740Y0000565779D02*
X0000322740Y0000510661D01*
X0000322740Y0000510661D02*
X0000432976Y0000510661D01*
X0000322740Y0000565779D02*
X0000432976Y0000565779D01*
D54*
X0000377858Y0000638220D02*
X0000408173Y0000638220D01*
X0000408173Y0000653968D02*
X0000408173Y0000621291D01*
D55*
X0000322740Y0000665779D02*
X0000322740Y0000610661D01*
X0000322740Y0000610661D02*
X0000432976Y0000610661D01*
X0000322740Y0000665779D02*
X0000432976Y0000665779D01*
D54*
X0000377858Y0000738220D02*
X0000408173Y0000738220D01*
X0000408173Y0000753968D02*
X0000408173Y0000721291D01*
D55*
X0000322740Y0000765779D02*
X0000322740Y0000710661D01*
X0000322740Y0000710661D02*
X0000432976Y0000710661D01*
X0000322740Y0000765779D02*
X0000432976Y0000765779D01*
D54*
X0000377858Y0000838220D02*
X0000408173Y0000838220D01*
X0000408173Y0000853968D02*
X0000408173Y0000821291D01*
D55*
X0000322740Y0000865779D02*
X0000322740Y0000810661D01*
X0000322740Y0000810661D02*
X0000432976Y0000810661D01*
X0000322740Y0000865779D02*
X0000432976Y0000865779D01*
X0000498724Y0000085858D02*
X0000603448Y0000085858D01*
X0000498724Y0000788220D02*
X0000498724Y0000085858D01*
X0000603448Y0000788220D02*
X0000603448Y0000085858D01*
X0000498724Y0000788220D02*
X0000603448Y0000788220D01*
X0000498724Y0000838220D02*
X0000498724Y0000890582D01*
X0000498724Y0000890582D02*
X0000551086Y0000890582D01*
X0000183763Y0000085858D02*
X0000288488Y0000085858D01*
X0000183763Y0000788220D02*
X0000183763Y0000085858D01*
X0000288488Y0000788220D02*
X0000288488Y0000085858D01*
X0000183763Y0000788220D02*
X0000288488Y0000788220D01*
X0000183763Y0000838220D02*
X0000183763Y0000890582D01*
X0000183763Y0000890582D02*
X0000236125Y0000890582D01*
D52*
D54*
D52*
D54*
G04 next file*
G04 Gerber Fmt 4.6, Leading zero omitted, Abs format (unit mm)*
G04 Created by KiCad (PCBNEW 4.0.7) date 11/27/17 18:36:53*
G01G01*
G04 APERTURE LIST*
G04 APERTURE END LIST*
D56*
D57*
X0003305118Y0001814960D02*
X0003265748Y0001814960D01*
X0003285433Y0001795275D02*
X0003285433Y0001834645D01*
D58*
X0003212503Y0001051606D02*
X0003242818Y0001051606D01*
X0003242818Y0001067354D02*
X0003242818Y0001034677D01*
D59*
X0003157385Y0001079165D02*
X0003157385Y0001024047D01*
X0003157385Y0001024047D02*
X0003267622Y0001024047D01*
X0003157385Y0001079165D02*
X0003267622Y0001079165D01*
D58*
X0003212503Y0001151606D02*
X0003242818Y0001151606D01*
X0003242818Y0001167354D02*
X0003242818Y0001134677D01*
D59*
X0003157385Y0001179165D02*
X0003157385Y0001124047D01*
X0003157385Y0001124047D02*
X0003267622Y0001124047D01*
X0003157385Y0001179165D02*
X0003267622Y0001179165D01*
D58*
X0003212503Y0001251606D02*
X0003242818Y0001251606D01*
X0003242818Y0001267354D02*
X0003242818Y0001234677D01*
D59*
X0003157385Y0001279165D02*
X0003157385Y0001224047D01*
X0003157385Y0001224047D02*
X0003267622Y0001224047D01*
X0003157385Y0001279165D02*
X0003267622Y0001279165D01*
D58*
X0003212503Y0001351606D02*
X0003242818Y0001351606D01*
X0003242818Y0001367354D02*
X0003242818Y0001334677D01*
D59*
X0003157385Y0001379165D02*
X0003157385Y0001324047D01*
X0003157385Y0001324047D02*
X0003267622Y0001324047D01*
X0003157385Y0001379165D02*
X0003267622Y0001379165D01*
D58*
X0003212503Y0001451606D02*
X0003242818Y0001451606D01*
X0003242818Y0001467354D02*
X0003242818Y0001434677D01*
D59*
X0003157385Y0001479165D02*
X0003157385Y0001424047D01*
X0003157385Y0001424047D02*
X0003267622Y0001424047D01*
X0003157385Y0001479165D02*
X0003267622Y0001479165D01*
D58*
X0003212503Y0001551606D02*
X0003242818Y0001551606D01*
X0003242818Y0001567354D02*
X0003242818Y0001534677D01*
D59*
X0003157385Y0001579165D02*
X0003157385Y0001524047D01*
X0003157385Y0001524047D02*
X0003267622Y0001524047D01*
X0003157385Y0001579165D02*
X0003267622Y0001579165D01*
D58*
X0003212503Y0001651606D02*
X0003242818Y0001651606D01*
X0003242818Y0001667354D02*
X0003242818Y0001634677D01*
D59*
X0003157385Y0001679165D02*
X0003157385Y0001624047D01*
X0003157385Y0001624047D02*
X0003267622Y0001624047D01*
X0003157385Y0001679165D02*
X0003267622Y0001679165D01*
D58*
X0003212503Y0001751606D02*
X0003242818Y0001751606D01*
X0003242818Y0001767354D02*
X0003242818Y0001734677D01*
D59*
X0003157385Y0001779165D02*
X0003157385Y0001724047D01*
X0003157385Y0001724047D02*
X0003267622Y0001724047D01*
X0003157385Y0001779165D02*
X0003267622Y0001779165D01*
X0003333370Y0000999244D02*
X0003438094Y0000999244D01*
X0003333370Y0001701606D02*
X0003333370Y0000999244D01*
X0003438094Y0001701606D02*
X0003438094Y0000999244D01*
X0003333370Y0001701606D02*
X0003438094Y0001701606D01*
X0003333370Y0001751606D02*
X0003333370Y0001803968D01*
X0003333370Y0001803968D02*
X0003385732Y0001803968D01*
X0003018409Y0000999244D02*
X0003123133Y0000999244D01*
X0003018409Y0001701606D02*
X0003018409Y0000999244D01*
X0003123133Y0001701606D02*
X0003123133Y0000999244D01*
X0003018409Y0001701606D02*
X0003123133Y0001701606D01*
X0003018409Y0001751606D02*
X0003018409Y0001803968D01*
X0003018409Y0001803968D02*
X0003070771Y0001803968D01*
D56*
D58*
D56*
D58*
G04 next file*
G04 Gerber Fmt 4.6, Leading zero omitted, Abs format (unit mm)*
G04 Created by KiCad (PCBNEW 4.0.7) date 11/27/17 18:36:53*
G01G01*
G04 APERTURE LIST*
G04 APERTURE END LIST*
D60*
D61*
X0003777559Y0001814960D02*
X0003738188Y0001814960D01*
X0003757874Y0001795275D02*
X0003757874Y0001834645D01*
D62*
X0003684944Y0001051606D02*
X0003715259Y0001051606D01*
X0003715259Y0001067354D02*
X0003715259Y0001034677D01*
D63*
X0003629826Y0001079165D02*
X0003629826Y0001024047D01*
X0003629826Y0001024047D02*
X0003740062Y0001024047D01*
X0003629826Y0001079165D02*
X0003740062Y0001079165D01*
D62*
X0003684944Y0001151606D02*
X0003715259Y0001151606D01*
X0003715259Y0001167354D02*
X0003715259Y0001134677D01*
D63*
X0003629826Y0001179165D02*
X0003629826Y0001124047D01*
X0003629826Y0001124047D02*
X0003740062Y0001124047D01*
X0003629826Y0001179165D02*
X0003740062Y0001179165D01*
D62*
X0003684944Y0001251606D02*
X0003715259Y0001251606D01*
X0003715259Y0001267354D02*
X0003715259Y0001234677D01*
D63*
X0003629826Y0001279165D02*
X0003629826Y0001224047D01*
X0003629826Y0001224047D02*
X0003740062Y0001224047D01*
X0003629826Y0001279165D02*
X0003740062Y0001279165D01*
D62*
X0003684944Y0001351606D02*
X0003715259Y0001351606D01*
X0003715259Y0001367354D02*
X0003715259Y0001334677D01*
D63*
X0003629826Y0001379165D02*
X0003629826Y0001324047D01*
X0003629826Y0001324047D02*
X0003740062Y0001324047D01*
X0003629826Y0001379165D02*
X0003740062Y0001379165D01*
D62*
X0003684944Y0001451606D02*
X0003715259Y0001451606D01*
X0003715259Y0001467354D02*
X0003715259Y0001434677D01*
D63*
X0003629826Y0001479165D02*
X0003629826Y0001424047D01*
X0003629826Y0001424047D02*
X0003740062Y0001424047D01*
X0003629826Y0001479165D02*
X0003740062Y0001479165D01*
D62*
X0003684944Y0001551606D02*
X0003715259Y0001551606D01*
X0003715259Y0001567354D02*
X0003715259Y0001534677D01*
D63*
X0003629826Y0001579165D02*
X0003629826Y0001524047D01*
X0003629826Y0001524047D02*
X0003740062Y0001524047D01*
X0003629826Y0001579165D02*
X0003740062Y0001579165D01*
D62*
X0003684944Y0001651606D02*
X0003715259Y0001651606D01*
X0003715259Y0001667354D02*
X0003715259Y0001634677D01*
D63*
X0003629826Y0001679165D02*
X0003629826Y0001624047D01*
X0003629826Y0001624047D02*
X0003740062Y0001624047D01*
X0003629826Y0001679165D02*
X0003740062Y0001679165D01*
D62*
X0003684944Y0001751606D02*
X0003715259Y0001751606D01*
X0003715259Y0001767354D02*
X0003715259Y0001734677D01*
D63*
X0003629826Y0001779165D02*
X0003629826Y0001724047D01*
X0003629826Y0001724047D02*
X0003740062Y0001724047D01*
X0003629826Y0001779165D02*
X0003740062Y0001779165D01*
X0003805811Y0000999244D02*
X0003910535Y0000999244D01*
X0003805811Y0001701606D02*
X0003805811Y0000999244D01*
X0003910535Y0001701606D02*
X0003910535Y0000999244D01*
X0003805811Y0001701606D02*
X0003910535Y0001701606D01*
X0003805811Y0001751606D02*
X0003805811Y0001803968D01*
X0003805811Y0001803968D02*
X0003858173Y0001803968D01*
X0003490850Y0000999244D02*
X0003595574Y0000999244D01*
X0003490850Y0001701606D02*
X0003490850Y0000999244D01*
X0003595574Y0001701606D02*
X0003595574Y0000999244D01*
X0003490850Y0001701606D02*
X0003595574Y0001701606D01*
X0003490850Y0001751606D02*
X0003490850Y0001803968D01*
X0003490850Y0001803968D02*
X0003543212Y0001803968D01*
D60*
D62*
D60*
D62*
G04 next file*
G04 Gerber Fmt 4.6, Leading zero omitted, Abs format (unit mm)*
G04 Created by KiCad (PCBNEW 4.0.7) date 11/27/17 18:36:53*
G01G01*
G04 APERTURE LIST*
G04 APERTURE END LIST*
D64*
D65*
X0003305118Y0002728346D02*
X0003265748Y0002728346D01*
X0003285433Y0002708661D02*
X0003285433Y0002748031D01*
D66*
X0003212503Y0001964992D02*
X0003242818Y0001964992D01*
X0003242818Y0001980740D02*
X0003242818Y0001948063D01*
D67*
X0003157385Y0001992551D02*
X0003157385Y0001937433D01*
X0003157385Y0001937433D02*
X0003267622Y0001937433D01*
X0003157385Y0001992551D02*
X0003267622Y0001992551D01*
D66*
X0003212503Y0002064992D02*
X0003242818Y0002064992D01*
X0003242818Y0002080740D02*
X0003242818Y0002048063D01*
D67*
X0003157385Y0002092551D02*
X0003157385Y0002037433D01*
X0003157385Y0002037433D02*
X0003267622Y0002037433D01*
X0003157385Y0002092551D02*
X0003267622Y0002092551D01*
D66*
X0003212503Y0002164992D02*
X0003242818Y0002164992D01*
X0003242818Y0002180740D02*
X0003242818Y0002148063D01*
D67*
X0003157385Y0002192551D02*
X0003157385Y0002137433D01*
X0003157385Y0002137433D02*
X0003267622Y0002137433D01*
X0003157385Y0002192551D02*
X0003267622Y0002192551D01*
D66*
X0003212503Y0002264992D02*
X0003242818Y0002264992D01*
X0003242818Y0002280740D02*
X0003242818Y0002248063D01*
D67*
X0003157385Y0002292551D02*
X0003157385Y0002237433D01*
X0003157385Y0002237433D02*
X0003267622Y0002237433D01*
X0003157385Y0002292551D02*
X0003267622Y0002292551D01*
D66*
X0003212503Y0002364992D02*
X0003242818Y0002364992D01*
X0003242818Y0002380740D02*
X0003242818Y0002348063D01*
D67*
X0003157385Y0002392551D02*
X0003157385Y0002337433D01*
X0003157385Y0002337433D02*
X0003267622Y0002337433D01*
X0003157385Y0002392551D02*
X0003267622Y0002392551D01*
D66*
X0003212503Y0002464992D02*
X0003242818Y0002464992D01*
X0003242818Y0002480740D02*
X0003242818Y0002448063D01*
D67*
X0003157385Y0002492551D02*
X0003157385Y0002437433D01*
X0003157385Y0002437433D02*
X0003267622Y0002437433D01*
X0003157385Y0002492551D02*
X0003267622Y0002492551D01*
D66*
X0003212503Y0002564992D02*
X0003242818Y0002564992D01*
X0003242818Y0002580740D02*
X0003242818Y0002548063D01*
D67*
X0003157385Y0002592551D02*
X0003157385Y0002537433D01*
X0003157385Y0002537433D02*
X0003267622Y0002537433D01*
X0003157385Y0002592551D02*
X0003267622Y0002592551D01*
D66*
X0003212503Y0002664992D02*
X0003242818Y0002664992D01*
X0003242818Y0002680740D02*
X0003242818Y0002648063D01*
D67*
X0003157385Y0002692551D02*
X0003157385Y0002637433D01*
X0003157385Y0002637433D02*
X0003267622Y0002637433D01*
X0003157385Y0002692551D02*
X0003267622Y0002692551D01*
X0003333370Y0001912629D02*
X0003438094Y0001912629D01*
X0003333370Y0002614992D02*
X0003333370Y0001912629D01*
X0003438094Y0002614992D02*
X0003438094Y0001912629D01*
X0003333370Y0002614992D02*
X0003438094Y0002614992D01*
X0003333370Y0002664992D02*
X0003333370Y0002717354D01*
X0003333370Y0002717354D02*
X0003385732Y0002717354D01*
X0003018409Y0001912629D02*
X0003123133Y0001912629D01*
X0003018409Y0002614992D02*
X0003018409Y0001912629D01*
X0003123133Y0002614992D02*
X0003123133Y0001912629D01*
X0003018409Y0002614992D02*
X0003123133Y0002614992D01*
X0003018409Y0002664992D02*
X0003018409Y0002717354D01*
X0003018409Y0002717354D02*
X0003070771Y0002717354D01*
D64*
D66*
D64*
D66*
G04 next file*
G04 Gerber Fmt 4.6, Leading zero omitted, Abs format (unit mm)*
G04 Created by KiCad (PCBNEW 4.0.7) date 11/27/17 18:36:53*
G01G01*
G04 APERTURE LIST*
G04 APERTURE END LIST*
D68*
D69*
X0003777559Y0002728346D02*
X0003738188Y0002728346D01*
X0003757874Y0002708661D02*
X0003757874Y0002748031D01*
D70*
X0003684944Y0001964992D02*
X0003715259Y0001964992D01*
X0003715259Y0001980740D02*
X0003715259Y0001948063D01*
D71*
X0003629826Y0001992551D02*
X0003629826Y0001937433D01*
X0003629826Y0001937433D02*
X0003740062Y0001937433D01*
X0003629826Y0001992551D02*
X0003740062Y0001992551D01*
D70*
X0003684944Y0002064992D02*
X0003715259Y0002064992D01*
X0003715259Y0002080740D02*
X0003715259Y0002048063D01*
D71*
X0003629826Y0002092551D02*
X0003629826Y0002037433D01*
X0003629826Y0002037433D02*
X0003740062Y0002037433D01*
X0003629826Y0002092551D02*
X0003740062Y0002092551D01*
D70*
X0003684944Y0002164992D02*
X0003715259Y0002164992D01*
X0003715259Y0002180740D02*
X0003715259Y0002148063D01*
D71*
X0003629826Y0002192551D02*
X0003629826Y0002137433D01*
X0003629826Y0002137433D02*
X0003740062Y0002137433D01*
X0003629826Y0002192551D02*
X0003740062Y0002192551D01*
D70*
X0003684944Y0002264992D02*
X0003715259Y0002264992D01*
X0003715259Y0002280740D02*
X0003715259Y0002248063D01*
D71*
X0003629826Y0002292551D02*
X0003629826Y0002237433D01*
X0003629826Y0002237433D02*
X0003740062Y0002237433D01*
X0003629826Y0002292551D02*
X0003740062Y0002292551D01*
D70*
X0003684944Y0002364992D02*
X0003715259Y0002364992D01*
X0003715259Y0002380740D02*
X0003715259Y0002348063D01*
D71*
X0003629826Y0002392551D02*
X0003629826Y0002337433D01*
X0003629826Y0002337433D02*
X0003740062Y0002337433D01*
X0003629826Y0002392551D02*
X0003740062Y0002392551D01*
D70*
X0003684944Y0002464992D02*
X0003715259Y0002464992D01*
X0003715259Y0002480740D02*
X0003715259Y0002448063D01*
D71*
X0003629826Y0002492551D02*
X0003629826Y0002437433D01*
X0003629826Y0002437433D02*
X0003740062Y0002437433D01*
X0003629826Y0002492551D02*
X0003740062Y0002492551D01*
D70*
X0003684944Y0002564992D02*
X0003715259Y0002564992D01*
X0003715259Y0002580740D02*
X0003715259Y0002548063D01*
D71*
X0003629826Y0002592551D02*
X0003629826Y0002537433D01*
X0003629826Y0002537433D02*
X0003740062Y0002537433D01*
X0003629826Y0002592551D02*
X0003740062Y0002592551D01*
D70*
X0003684944Y0002664992D02*
X0003715259Y0002664992D01*
X0003715259Y0002680740D02*
X0003715259Y0002648063D01*
D71*
X0003629826Y0002692551D02*
X0003629826Y0002637433D01*
X0003629826Y0002637433D02*
X0003740062Y0002637433D01*
X0003629826Y0002692551D02*
X0003740062Y0002692551D01*
X0003805811Y0001912629D02*
X0003910535Y0001912629D01*
X0003805811Y0002614992D02*
X0003805811Y0001912629D01*
X0003910535Y0002614992D02*
X0003910535Y0001912629D01*
X0003805811Y0002614992D02*
X0003910535Y0002614992D01*
X0003805811Y0002664992D02*
X0003805811Y0002717354D01*
X0003805811Y0002717354D02*
X0003858173Y0002717354D01*
X0003490850Y0001912629D02*
X0003595574Y0001912629D01*
X0003490850Y0002614992D02*
X0003490850Y0001912629D01*
X0003595574Y0002614992D02*
X0003595574Y0001912629D01*
X0003490850Y0002614992D02*
X0003595574Y0002614992D01*
X0003490850Y0002664992D02*
X0003490850Y0002717354D01*
X0003490850Y0002717354D02*
X0003543212Y0002717354D01*
D68*
D70*
D68*
D70*
G04 next file*
G04 Gerber Fmt 4.6, Leading zero omitted, Abs format (unit mm)*
G04 Created by KiCad (PCBNEW 4.0.7) date 11/27/17 18:36:53*
G01G01*
G04 APERTURE LIST*
G04 APERTURE END LIST*
D72*
D73*
X0003305118Y0003641732D02*
X0003265748Y0003641732D01*
X0003285433Y0003622047D02*
X0003285433Y0003661417D01*
D74*
X0003212503Y0002878377D02*
X0003242818Y0002878377D01*
X0003242818Y0002894125D02*
X0003242818Y0002861448D01*
D75*
X0003157385Y0002905936D02*
X0003157385Y0002850818D01*
X0003157385Y0002850818D02*
X0003267622Y0002850818D01*
X0003157385Y0002905936D02*
X0003267622Y0002905936D01*
D74*
X0003212503Y0002978377D02*
X0003242818Y0002978377D01*
X0003242818Y0002994125D02*
X0003242818Y0002961448D01*
D75*
X0003157385Y0003005936D02*
X0003157385Y0002950818D01*
X0003157385Y0002950818D02*
X0003267622Y0002950818D01*
X0003157385Y0003005936D02*
X0003267622Y0003005936D01*
D74*
X0003212503Y0003078377D02*
X0003242818Y0003078377D01*
X0003242818Y0003094125D02*
X0003242818Y0003061448D01*
D75*
X0003157385Y0003105936D02*
X0003157385Y0003050818D01*
X0003157385Y0003050818D02*
X0003267622Y0003050818D01*
X0003157385Y0003105936D02*
X0003267622Y0003105936D01*
D74*
X0003212503Y0003178377D02*
X0003242818Y0003178377D01*
X0003242818Y0003194125D02*
X0003242818Y0003161448D01*
D75*
X0003157385Y0003205936D02*
X0003157385Y0003150818D01*
X0003157385Y0003150818D02*
X0003267622Y0003150818D01*
X0003157385Y0003205936D02*
X0003267622Y0003205936D01*
D74*
X0003212503Y0003278377D02*
X0003242818Y0003278377D01*
X0003242818Y0003294125D02*
X0003242818Y0003261448D01*
D75*
X0003157385Y0003305936D02*
X0003157385Y0003250818D01*
X0003157385Y0003250818D02*
X0003267622Y0003250818D01*
X0003157385Y0003305936D02*
X0003267622Y0003305936D01*
D74*
X0003212503Y0003378377D02*
X0003242818Y0003378377D01*
X0003242818Y0003394125D02*
X0003242818Y0003361448D01*
D75*
X0003157385Y0003405936D02*
X0003157385Y0003350818D01*
X0003157385Y0003350818D02*
X0003267622Y0003350818D01*
X0003157385Y0003405936D02*
X0003267622Y0003405936D01*
D74*
X0003212503Y0003478377D02*
X0003242818Y0003478377D01*
X0003242818Y0003494125D02*
X0003242818Y0003461448D01*
D75*
X0003157385Y0003505936D02*
X0003157385Y0003450818D01*
X0003157385Y0003450818D02*
X0003267622Y0003450818D01*
X0003157385Y0003505936D02*
X0003267622Y0003505936D01*
D74*
X0003212503Y0003578377D02*
X0003242818Y0003578377D01*
X0003242818Y0003594125D02*
X0003242818Y0003561448D01*
D75*
X0003157385Y0003605936D02*
X0003157385Y0003550818D01*
X0003157385Y0003550818D02*
X0003267622Y0003550818D01*
X0003157385Y0003605936D02*
X0003267622Y0003605936D01*
X0003333370Y0002826015D02*
X0003438094Y0002826015D01*
X0003333370Y0003528377D02*
X0003333370Y0002826015D01*
X0003438094Y0003528377D02*
X0003438094Y0002826015D01*
X0003333370Y0003528377D02*
X0003438094Y0003528377D01*
X0003333370Y0003578377D02*
X0003333370Y0003630740D01*
X0003333370Y0003630740D02*
X0003385732Y0003630740D01*
X0003018409Y0002826015D02*
X0003123133Y0002826015D01*
X0003018409Y0003528377D02*
X0003018409Y0002826015D01*
X0003123133Y0003528377D02*
X0003123133Y0002826015D01*
X0003018409Y0003528377D02*
X0003123133Y0003528377D01*
X0003018409Y0003578377D02*
X0003018409Y0003630740D01*
X0003018409Y0003630740D02*
X0003070771Y0003630740D01*
D72*
D74*
D72*
D74*
G04 next file*
G04 Gerber Fmt 4.6, Leading zero omitted, Abs format (unit mm)*
G04 Created by KiCad (PCBNEW 4.0.7) date 11/27/17 18:36:53*
G01G01*
G04 APERTURE LIST*
G04 APERTURE END LIST*
D76*
D77*
X0003777559Y0003641732D02*
X0003738188Y0003641732D01*
X0003757874Y0003622047D02*
X0003757874Y0003661417D01*
D78*
X0003684944Y0002878377D02*
X0003715259Y0002878377D01*
X0003715259Y0002894125D02*
X0003715259Y0002861448D01*
D79*
X0003629826Y0002905936D02*
X0003629826Y0002850818D01*
X0003629826Y0002850818D02*
X0003740062Y0002850818D01*
X0003629826Y0002905936D02*
X0003740062Y0002905936D01*
D78*
X0003684944Y0002978377D02*
X0003715259Y0002978377D01*
X0003715259Y0002994125D02*
X0003715259Y0002961448D01*
D79*
X0003629826Y0003005936D02*
X0003629826Y0002950818D01*
X0003629826Y0002950818D02*
X0003740062Y0002950818D01*
X0003629826Y0003005936D02*
X0003740062Y0003005936D01*
D78*
X0003684944Y0003078377D02*
X0003715259Y0003078377D01*
X0003715259Y0003094125D02*
X0003715259Y0003061448D01*
D79*
X0003629826Y0003105936D02*
X0003629826Y0003050818D01*
X0003629826Y0003050818D02*
X0003740062Y0003050818D01*
X0003629826Y0003105936D02*
X0003740062Y0003105936D01*
D78*
X0003684944Y0003178377D02*
X0003715259Y0003178377D01*
X0003715259Y0003194125D02*
X0003715259Y0003161448D01*
D79*
X0003629826Y0003205936D02*
X0003629826Y0003150818D01*
X0003629826Y0003150818D02*
X0003740062Y0003150818D01*
X0003629826Y0003205936D02*
X0003740062Y0003205936D01*
D78*
X0003684944Y0003278377D02*
X0003715259Y0003278377D01*
X0003715259Y0003294125D02*
X0003715259Y0003261448D01*
D79*
X0003629826Y0003305936D02*
X0003629826Y0003250818D01*
X0003629826Y0003250818D02*
X0003740062Y0003250818D01*
X0003629826Y0003305936D02*
X0003740062Y0003305936D01*
D78*
X0003684944Y0003378377D02*
X0003715259Y0003378377D01*
X0003715259Y0003394125D02*
X0003715259Y0003361448D01*
D79*
X0003629826Y0003405936D02*
X0003629826Y0003350818D01*
X0003629826Y0003350818D02*
X0003740062Y0003350818D01*
X0003629826Y0003405936D02*
X0003740062Y0003405936D01*
D78*
X0003684944Y0003478377D02*
X0003715259Y0003478377D01*
X0003715259Y0003494125D02*
X0003715259Y0003461448D01*
D79*
X0003629826Y0003505936D02*
X0003629826Y0003450818D01*
X0003629826Y0003450818D02*
X0003740062Y0003450818D01*
X0003629826Y0003505936D02*
X0003740062Y0003505936D01*
D78*
X0003684944Y0003578377D02*
X0003715259Y0003578377D01*
X0003715259Y0003594125D02*
X0003715259Y0003561448D01*
D79*
X0003629826Y0003605936D02*
X0003629826Y0003550818D01*
X0003629826Y0003550818D02*
X0003740062Y0003550818D01*
X0003629826Y0003605936D02*
X0003740062Y0003605936D01*
X0003805811Y0002826015D02*
X0003910535Y0002826015D01*
X0003805811Y0003528377D02*
X0003805811Y0002826015D01*
X0003910535Y0003528377D02*
X0003910535Y0002826015D01*
X0003805811Y0003528377D02*
X0003910535Y0003528377D01*
X0003805811Y0003578377D02*
X0003805811Y0003630740D01*
X0003805811Y0003630740D02*
X0003858173Y0003630740D01*
X0003490850Y0002826015D02*
X0003595574Y0002826015D01*
X0003490850Y0003528377D02*
X0003490850Y0002826015D01*
X0003595574Y0003528377D02*
X0003595574Y0002826015D01*
X0003490850Y0003528377D02*
X0003595574Y0003528377D01*
X0003490850Y0003578377D02*
X0003490850Y0003630740D01*
X0003490850Y0003630740D02*
X0003543212Y0003630740D01*
D76*
D78*
D76*
D78*
M02*