%MOIN*%
%OFA0B0*%
%FSLAX46Y46*%
%IPPOS*%
%LPD*%
%ADD10C,0.0039370078740157488*%
%ADD21C,0.0039370078740157488*%
%ADD22R,0.047244094488188976X0.047244094488188976*%
%ADD23C,0.0039370078740157488*%
%ADD24R,0.047244094488188976X0.047244094488188976*%
%ADD25C,0.0039370078740157488*%
%ADD26R,0.047244094488188976X0.047244094488188976*%
%ADD27C,0.0039370078740157488*%
%ADD28R,0.047244094488188976X0.047244094488188976*%
%ADD29C,0.0039370078740157488*%
%ADD30R,0.047244094488188976X0.047244094488188976*%
%ADD31C,0.0039370078740157488*%
%ADD32R,0.047244094488188976X0.047244094488188976*%
%ADD33C,0.0039370078740157488*%
%ADD34R,0.047244094488188976X0.047244094488188976*%
%ADD35C,0.0039370078740157488*%
%ADD36R,0.047244094488188976X0.047244094488188976*%
%ADD37C,0.0039370078740157488*%
%ADD38R,0.047244094488188976X0.047244094488188976*%
%ADD39C,0.0039370078740157488*%
%ADD40R,0.047244094488188976X0.047244094488188976*%
%ADD41C,0.0039370078740157488*%
%ADD42R,0.047244094488188976X0.047244094488188976*%
%ADD43C,0.0039370078740157488*%
%ADD44R,0.047244094488188976X0.047244094488188976*%
%ADD45C,0.0039370078740157488*%
%ADD46R,0.047244094488188976X0.047244094488188976*%
%ADD47C,0.0039370078740157488*%
%ADD48R,0.047244094488188976X0.047244094488188976*%
G01G01*
D10*
G04 next file*
G04 Gerber Fmt 4.6, Leading zero omitted, Abs format (unit mm)*
G04 Created by KiCad (PCBNEW 4.0.7) date 11/22/17 20:28:19*
G01G01*
G04 APERTURE LIST*
G04 APERTURE END LIST*
D21*
D22*
X0002992125Y0000944881D02*
X0003271559Y0000138220D03*
X0003184944Y0000138220D03*
X0003271559Y0000238220D03*
X0003184944Y0000238220D03*
X0003271559Y0000338220D03*
X0003184944Y0000338220D03*
X0003271559Y0000438220D03*
X0003184944Y0000438220D03*
X0003271559Y0000538220D03*
X0003184944Y0000538220D03*
X0003271559Y0000638220D03*
X0003184944Y0000638220D03*
X0003271559Y0000738220D03*
X0003184944Y0000738220D03*
X0003271559Y0000838220D03*
X0003184944Y0000838220D03*
G04 next file*
G04 Gerber Fmt 4.6, Leading zero omitted, Abs format (unit mm)*
G04 Created by KiCad (PCBNEW 4.0.7) date 11/22/17 20:28:19*
G01G01*
G04 APERTURE LIST*
G04 APERTURE END LIST*
D23*
D24*
X0003464566Y0000944881D02*
X0003744000Y0000138220D03*
X0003657385Y0000138220D03*
X0003744000Y0000238220D03*
X0003657385Y0000238220D03*
X0003744000Y0000338220D03*
X0003657385Y0000338220D03*
X0003744000Y0000438220D03*
X0003657385Y0000438220D03*
X0003744000Y0000538220D03*
X0003657385Y0000538220D03*
X0003744000Y0000638220D03*
X0003657385Y0000638220D03*
X0003744000Y0000738220D03*
X0003657385Y0000738220D03*
X0003744000Y0000838220D03*
X0003657385Y0000838220D03*
G04 next file*
G04 Gerber Fmt 4.6, Leading zero omitted, Abs format (unit mm)*
G04 Created by KiCad (PCBNEW 4.0.7) date 11/22/17 20:28:19*
G01G01*
G04 APERTURE LIST*
G04 APERTURE END LIST*
D25*
D26*
X0002519685Y0000944881D02*
X0002799118Y0000138220D03*
X0002712503Y0000138220D03*
X0002799118Y0000238220D03*
X0002712503Y0000238220D03*
X0002799118Y0000338220D03*
X0002712503Y0000338220D03*
X0002799118Y0000438220D03*
X0002712503Y0000438220D03*
X0002799118Y0000538220D03*
X0002712503Y0000538220D03*
X0002799118Y0000638220D03*
X0002712503Y0000638220D03*
X0002799118Y0000738220D03*
X0002712503Y0000738220D03*
X0002799118Y0000838220D03*
X0002712503Y0000838220D03*
G04 next file*
G04 Gerber Fmt 4.6, Leading zero omitted, Abs format (unit mm)*
G04 Created by KiCad (PCBNEW 4.0.7) date 11/22/17 20:28:19*
G01G01*
G04 APERTURE LIST*
G04 APERTURE END LIST*
D27*
D28*
X0002047244Y0000944881D02*
X0002326677Y0000138220D03*
X0002240062Y0000138220D03*
X0002326677Y0000238220D03*
X0002240062Y0000238220D03*
X0002326677Y0000338220D03*
X0002240062Y0000338220D03*
X0002326677Y0000438220D03*
X0002240062Y0000438220D03*
X0002326677Y0000538220D03*
X0002240062Y0000538220D03*
X0002326677Y0000638220D03*
X0002240062Y0000638220D03*
X0002326677Y0000738220D03*
X0002240062Y0000738220D03*
X0002326677Y0000838220D03*
X0002240062Y0000838220D03*
G04 next file*
G04 Gerber Fmt 4.6, Leading zero omitted, Abs format (unit mm)*
G04 Created by KiCad (PCBNEW 4.0.7) date 11/22/17 20:28:19*
G01G01*
G04 APERTURE LIST*
G04 APERTURE END LIST*
D29*
D30*
X0001574803Y0000944881D02*
X0001854236Y0000138220D03*
X0001767622Y0000138220D03*
X0001854236Y0000238220D03*
X0001767622Y0000238220D03*
X0001854236Y0000338220D03*
X0001767622Y0000338220D03*
X0001854236Y0000438220D03*
X0001767622Y0000438220D03*
X0001854236Y0000538220D03*
X0001767622Y0000538220D03*
X0001854236Y0000638220D03*
X0001767622Y0000638220D03*
X0001854236Y0000738220D03*
X0001767622Y0000738220D03*
X0001854236Y0000838220D03*
X0001767622Y0000838220D03*
G04 next file*
G04 Gerber Fmt 4.6, Leading zero omitted, Abs format (unit mm)*
G04 Created by KiCad (PCBNEW 4.0.7) date 11/22/17 20:28:19*
G01G01*
G04 APERTURE LIST*
G04 APERTURE END LIST*
D31*
D32*
X0001102362Y0000944881D02*
X0001381795Y0000138220D03*
X0001295181Y0000138220D03*
X0001381795Y0000238220D03*
X0001295181Y0000238220D03*
X0001381795Y0000338220D03*
X0001295181Y0000338220D03*
X0001381795Y0000438220D03*
X0001295181Y0000438220D03*
X0001381795Y0000538220D03*
X0001295181Y0000538220D03*
X0001381795Y0000638220D03*
X0001295181Y0000638220D03*
X0001381795Y0000738220D03*
X0001295181Y0000738220D03*
X0001381795Y0000838220D03*
X0001295181Y0000838220D03*
G04 next file*
G04 Gerber Fmt 4.6, Leading zero omitted, Abs format (unit mm)*
G04 Created by KiCad (PCBNEW 4.0.7) date 11/22/17 20:28:19*
G01G01*
G04 APERTURE LIST*
G04 APERTURE END LIST*
D33*
D34*
X0000629921Y0000944881D02*
X0000909354Y0000138220D03*
X0000822740Y0000138220D03*
X0000909354Y0000238220D03*
X0000822740Y0000238220D03*
X0000909354Y0000338220D03*
X0000822740Y0000338220D03*
X0000909354Y0000438220D03*
X0000822740Y0000438220D03*
X0000909354Y0000538220D03*
X0000822740Y0000538220D03*
X0000909354Y0000638220D03*
X0000822740Y0000638220D03*
X0000909354Y0000738220D03*
X0000822740Y0000738220D03*
X0000909354Y0000838220D03*
X0000822740Y0000838220D03*
G04 next file*
G04 Gerber Fmt 4.6, Leading zero omitted, Abs format (unit mm)*
G04 Created by KiCad (PCBNEW 4.0.7) date 11/22/17 20:28:19*
G01G01*
G04 APERTURE LIST*
G04 APERTURE END LIST*
D35*
D36*
X0000157480Y0000944881D02*
X0000436913Y0000138220D03*
X0000350299Y0000138220D03*
X0000436913Y0000238220D03*
X0000350299Y0000238220D03*
X0000436913Y0000338220D03*
X0000350299Y0000338220D03*
X0000436913Y0000438220D03*
X0000350299Y0000438220D03*
X0000436913Y0000538220D03*
X0000350299Y0000538220D03*
X0000436913Y0000638220D03*
X0000350299Y0000638220D03*
X0000436913Y0000738220D03*
X0000350299Y0000738220D03*
X0000436913Y0000838220D03*
X0000350299Y0000838220D03*
G04 next file*
G04 Gerber Fmt 4.6, Leading zero omitted, Abs format (unit mm)*
G04 Created by KiCad (PCBNEW 4.0.7) date 11/22/17 20:28:19*
G01G01*
G04 APERTURE LIST*
G04 APERTURE END LIST*
D37*
D38*
X0002992125Y0001858267D02*
X0003271559Y0001051606D03*
X0003184944Y0001051606D03*
X0003271559Y0001151606D03*
X0003184944Y0001151606D03*
X0003271559Y0001251606D03*
X0003184944Y0001251606D03*
X0003271559Y0001351606D03*
X0003184944Y0001351606D03*
X0003271559Y0001451606D03*
X0003184944Y0001451606D03*
X0003271559Y0001551606D03*
X0003184944Y0001551606D03*
X0003271559Y0001651606D03*
X0003184944Y0001651606D03*
X0003271559Y0001751606D03*
X0003184944Y0001751606D03*
G04 next file*
G04 Gerber Fmt 4.6, Leading zero omitted, Abs format (unit mm)*
G04 Created by KiCad (PCBNEW 4.0.7) date 11/22/17 20:28:19*
G01G01*
G04 APERTURE LIST*
G04 APERTURE END LIST*
D39*
D40*
X0003464566Y0001858267D02*
X0003744000Y0001051606D03*
X0003657385Y0001051606D03*
X0003744000Y0001151606D03*
X0003657385Y0001151606D03*
X0003744000Y0001251606D03*
X0003657385Y0001251606D03*
X0003744000Y0001351606D03*
X0003657385Y0001351606D03*
X0003744000Y0001451606D03*
X0003657385Y0001451606D03*
X0003744000Y0001551606D03*
X0003657385Y0001551606D03*
X0003744000Y0001651606D03*
X0003657385Y0001651606D03*
X0003744000Y0001751606D03*
X0003657385Y0001751606D03*
G04 next file*
G04 Gerber Fmt 4.6, Leading zero omitted, Abs format (unit mm)*
G04 Created by KiCad (PCBNEW 4.0.7) date 11/22/17 20:28:19*
G01G01*
G04 APERTURE LIST*
G04 APERTURE END LIST*
D41*
D42*
X0002992125Y0002771653D02*
X0003271559Y0001964992D03*
X0003184944Y0001964992D03*
X0003271559Y0002064992D03*
X0003184944Y0002064992D03*
X0003271559Y0002164992D03*
X0003184944Y0002164992D03*
X0003271559Y0002264992D03*
X0003184944Y0002264992D03*
X0003271559Y0002364992D03*
X0003184944Y0002364992D03*
X0003271559Y0002464992D03*
X0003184944Y0002464992D03*
X0003271559Y0002564992D03*
X0003184944Y0002564992D03*
X0003271559Y0002664992D03*
X0003184944Y0002664992D03*
G04 next file*
G04 Gerber Fmt 4.6, Leading zero omitted, Abs format (unit mm)*
G04 Created by KiCad (PCBNEW 4.0.7) date 11/22/17 20:28:19*
G01G01*
G04 APERTURE LIST*
G04 APERTURE END LIST*
D43*
D44*
X0003464566Y0002771653D02*
X0003744000Y0001964992D03*
X0003657385Y0001964992D03*
X0003744000Y0002064992D03*
X0003657385Y0002064992D03*
X0003744000Y0002164992D03*
X0003657385Y0002164992D03*
X0003744000Y0002264992D03*
X0003657385Y0002264992D03*
X0003744000Y0002364992D03*
X0003657385Y0002364992D03*
X0003744000Y0002464992D03*
X0003657385Y0002464992D03*
X0003744000Y0002564992D03*
X0003657385Y0002564992D03*
X0003744000Y0002664992D03*
X0003657385Y0002664992D03*
G04 next file*
G04 Gerber Fmt 4.6, Leading zero omitted, Abs format (unit mm)*
G04 Created by KiCad (PCBNEW 4.0.7) date 11/22/17 20:28:19*
G01G01*
G04 APERTURE LIST*
G04 APERTURE END LIST*
D45*
D46*
X0002992125Y0003685039D02*
X0003271559Y0002878377D03*
X0003184944Y0002878377D03*
X0003271559Y0002978377D03*
X0003184944Y0002978377D03*
X0003271559Y0003078377D03*
X0003184944Y0003078377D03*
X0003271559Y0003178377D03*
X0003184944Y0003178377D03*
X0003271559Y0003278377D03*
X0003184944Y0003278377D03*
X0003271559Y0003378377D03*
X0003184944Y0003378377D03*
X0003271559Y0003478377D03*
X0003184944Y0003478377D03*
X0003271559Y0003578377D03*
X0003184944Y0003578377D03*
G04 next file*
G04 Gerber Fmt 4.6, Leading zero omitted, Abs format (unit mm)*
G04 Created by KiCad (PCBNEW 4.0.7) date 11/22/17 20:28:19*
G01G01*
G04 APERTURE LIST*
G04 APERTURE END LIST*
D47*
D48*
X0003464566Y0003685039D02*
X0003744000Y0002878377D03*
X0003657385Y0002878377D03*
X0003744000Y0002978377D03*
X0003657385Y0002978377D03*
X0003744000Y0003078377D03*
X0003657385Y0003078377D03*
X0003744000Y0003178377D03*
X0003657385Y0003178377D03*
X0003744000Y0003278377D03*
X0003657385Y0003278377D03*
X0003744000Y0003378377D03*
X0003657385Y0003378377D03*
X0003744000Y0003478377D03*
X0003657385Y0003478377D03*
X0003744000Y0003578377D03*
X0003657385Y0003578377D03*
M02*