%MOIN*%
%OFA0B0*%
%FSLAX46Y46*%
%IPPOS*%
%LPD*%
%ADD10C,0.0039370078740157488*%
%ADD11C,0.0078740157480314977*%
%ADD12C,0.005905511811023622*%
%ADD13C,0.0047244094488188976*%
%ADD24C,0.0039370078740157488*%
%ADD25C,0.0078740157480314977*%
%ADD26C,0.005905511811023622*%
%ADD27C,0.0047244094488188976*%
%ADD28C,0.0039370078740157488*%
%ADD29C,0.0078740157480314977*%
%ADD30C,0.005905511811023622*%
%ADD31C,0.0047244094488188976*%
%ADD32C,0.0039370078740157488*%
%ADD33C,0.0078740157480314977*%
%ADD34C,0.005905511811023622*%
%ADD35C,0.0047244094488188976*%
%ADD36C,0.0039370078740157488*%
%ADD37C,0.0078740157480314977*%
%ADD38C,0.005905511811023622*%
%ADD39C,0.0047244094488188976*%
%ADD40C,0.0039370078740157488*%
%ADD41C,0.0078740157480314977*%
%ADD42C,0.005905511811023622*%
%ADD43C,0.0047244094488188976*%
%ADD44C,0.0039370078740157488*%
%ADD45C,0.0078740157480314977*%
%ADD46C,0.005905511811023622*%
%ADD47C,0.0047244094488188976*%
%ADD48C,0.0039370078740157488*%
%ADD49C,0.0078740157480314977*%
%ADD50C,0.005905511811023622*%
%ADD51C,0.0047244094488188976*%
%ADD52C,0.0039370078740157488*%
%ADD53C,0.0078740157480314977*%
%ADD54C,0.005905511811023622*%
%ADD55C,0.0047244094488188976*%
%ADD56C,0.0039370078740157488*%
%ADD57C,0.0078740157480314977*%
%ADD58C,0.005905511811023622*%
%ADD59C,0.0047244094488188976*%
%ADD60C,0.0039370078740157488*%
%ADD61C,0.0078740157480314977*%
%ADD62C,0.005905511811023622*%
%ADD63C,0.0047244094488188976*%
%ADD64C,0.0039370078740157488*%
%ADD65C,0.0078740157480314977*%
%ADD66C,0.005905511811023622*%
%ADD67C,0.0047244094488188976*%
%ADD68C,0.0039370078740157488*%
%ADD69C,0.0078740157480314977*%
%ADD70C,0.005905511811023622*%
%ADD71C,0.0047244094488188976*%
%ADD72C,0.0039370078740157488*%
%ADD73C,0.0078740157480314977*%
%ADD74C,0.005905511811023622*%
%ADD75C,0.0047244094488188976*%
%ADD76C,0.0039370078740157488*%
%ADD77C,0.0078740157480314977*%
%ADD78C,0.005905511811023622*%
%ADD79C,0.0047244094488188976*%
G01G01*
D10*
D11*
X0000339566Y0003477362D02*
X0000329724Y0003474409D01*
X0000323818Y0003483267D02*
X0000339566Y0003477362D01*
X0000343503Y0003485236D02*
X0000323818Y0003483267D01*
X0000334645Y0003463582D02*
X0000343503Y0003485236D01*
X0000319881Y0003486220D02*
X0000334645Y0003463582D01*
X0000330708Y0003454724D02*
X0000319881Y0003486220D01*
X0000312992Y0003486220D02*
X0000330708Y0003454724D01*
X0000327755Y0003444881D02*
X0000312992Y0003486220D01*
X0000349409Y0003486220D02*
X0000327755Y0003444881D01*
X0000329724Y0003437992D02*
X0000349409Y0003486220D01*
X0000304133Y0003488188D02*
X0000329724Y0003437992D01*
X0000326771Y0003429133D02*
X0000297244Y0003488188D01*
X0000356299Y0003488188D02*
X0000326771Y0003429133D01*
X0000297244Y0003488188D02*
X0000356299Y0003488188D01*
X0002451987Y0001632977D02*
X0002478233Y0001632977D01*
X0002461361Y0001593607D01*
X0002489482Y0001632977D02*
X0002513854Y0001632977D01*
X0002500731Y0001617979D01*
X0002506355Y0001617979D01*
X0002510105Y0001616104D01*
X0002511979Y0001614229D01*
X0002513854Y0001610479D01*
X0002513854Y0001601106D01*
X0002511979Y0001597356D01*
X0002510105Y0001595481D01*
X0002506355Y0001593607D01*
X0002495106Y0001593607D01*
X0002491357Y0001595481D01*
X0002489482Y0001597356D01*
X0002451987Y0001732977D02*
X0002478233Y0001732977D01*
X0002461361Y0001693607D01*
X0002511979Y0001732977D02*
X0002493232Y0001732977D01*
X0002491357Y0001714229D01*
X0002493232Y0001716104D01*
X0002496981Y0001717979D01*
X0002506355Y0001717979D01*
X0002510105Y0001716104D01*
X0002511979Y0001714229D01*
X0002513854Y0001710479D01*
X0002513854Y0001701106D01*
X0002511979Y0001697356D01*
X0002510105Y0001695481D01*
X0002506355Y0001693607D01*
X0002496981Y0001693607D01*
X0002493232Y0001695481D01*
X0002491357Y0001697356D01*
X0002451987Y0001832977D02*
X0002478233Y0001832977D01*
X0002461361Y0001793607D01*
X0002489482Y0001832977D02*
X0002515729Y0001832977D01*
X0002498856Y0001793607D01*
X0002451987Y0001932977D02*
X0002478233Y0001932977D01*
X0002461361Y0001893607D01*
X0002495106Y0001893607D02*
X0002502605Y0001893607D01*
X0002506355Y0001895481D01*
X0002508230Y0001897356D01*
X0002511979Y0001902980D01*
X0002513854Y0001910479D01*
X0002513854Y0001925478D01*
X0002511979Y0001929227D01*
X0002510105Y0001931102D01*
X0002506355Y0001932977D01*
X0002498856Y0001932977D01*
X0002495106Y0001931102D01*
X0002493232Y0001929227D01*
X0002491357Y0001925478D01*
X0002491357Y0001916104D01*
X0002493232Y0001912354D01*
X0002495106Y0001910479D01*
X0002498856Y0001908605D01*
X0002506355Y0001908605D01*
X0002510105Y0001910479D01*
X0002511979Y0001912354D01*
X0002513854Y0001916104D01*
X0002461361Y0002016104D02*
X0002457611Y0002017979D01*
X0002455736Y0002019853D01*
X0002453862Y0002023603D01*
X0002453862Y0002025478D01*
X0002455736Y0002029227D01*
X0002457611Y0002031102D01*
X0002461361Y0002032977D01*
X0002468860Y0002032977D01*
X0002472609Y0002031102D01*
X0002474484Y0002029227D01*
X0002476359Y0002025478D01*
X0002476359Y0002023603D01*
X0002474484Y0002019853D01*
X0002472609Y0002017979D01*
X0002468860Y0002016104D01*
X0002461361Y0002016104D01*
X0002457611Y0002014229D01*
X0002455736Y0002012354D01*
X0002453862Y0002008605D01*
X0002453862Y0002001106D01*
X0002455736Y0001997356D01*
X0002457611Y0001995481D01*
X0002461361Y0001993607D01*
X0002468860Y0001993607D01*
X0002472609Y0001995481D01*
X0002474484Y0001997356D01*
X0002476359Y0002001106D01*
X0002476359Y0002008605D01*
X0002474484Y0002012354D01*
X0002472609Y0002014229D01*
X0002468860Y0002016104D01*
X0002513854Y0001993607D02*
X0002491357Y0001993607D01*
X0002502605Y0001993607D02*
X0002502605Y0002032977D01*
X0002498856Y0002027352D01*
X0002495106Y0002023603D01*
X0002491357Y0002021728D01*
X0002461361Y0002116104D02*
X0002457611Y0002117979D01*
X0002455736Y0002119853D01*
X0002453862Y0002123603D01*
X0002453862Y0002125478D01*
X0002455736Y0002129227D01*
X0002457611Y0002131102D01*
X0002461361Y0002132977D01*
X0002468860Y0002132977D01*
X0002472609Y0002131102D01*
X0002474484Y0002129227D01*
X0002476359Y0002125478D01*
X0002476359Y0002123603D01*
X0002474484Y0002119853D01*
X0002472609Y0002117979D01*
X0002468860Y0002116104D01*
X0002461361Y0002116104D01*
X0002457611Y0002114229D01*
X0002455736Y0002112354D01*
X0002453862Y0002108605D01*
X0002453862Y0002101106D01*
X0002455736Y0002097356D01*
X0002457611Y0002095481D01*
X0002461361Y0002093607D01*
X0002468860Y0002093607D01*
X0002472609Y0002095481D01*
X0002474484Y0002097356D01*
X0002476359Y0002101106D01*
X0002476359Y0002108605D01*
X0002474484Y0002112354D01*
X0002472609Y0002114229D01*
X0002468860Y0002116104D01*
X0002489482Y0002132977D02*
X0002513854Y0002132977D01*
X0002500731Y0002117979D01*
X0002506355Y0002117979D01*
X0002510105Y0002116104D01*
X0002511979Y0002114229D01*
X0002513854Y0002110479D01*
X0002513854Y0002101106D01*
X0002511979Y0002097356D01*
X0002510105Y0002095481D01*
X0002506355Y0002093607D01*
X0002495106Y0002093607D01*
X0002491357Y0002095481D01*
X0002489482Y0002097356D01*
X0002461361Y0002216104D02*
X0002457611Y0002217979D01*
X0002455736Y0002219853D01*
X0002453862Y0002223603D01*
X0002453862Y0002225478D01*
X0002455736Y0002229227D01*
X0002457611Y0002231102D01*
X0002461361Y0002232977D01*
X0002468860Y0002232977D01*
X0002472609Y0002231102D01*
X0002474484Y0002229227D01*
X0002476359Y0002225478D01*
X0002476359Y0002223603D01*
X0002474484Y0002219853D01*
X0002472609Y0002217979D01*
X0002468860Y0002216104D01*
X0002461361Y0002216104D01*
X0002457611Y0002214229D01*
X0002455736Y0002212354D01*
X0002453862Y0002208605D01*
X0002453862Y0002201106D01*
X0002455736Y0002197356D01*
X0002457611Y0002195481D01*
X0002461361Y0002193607D01*
X0002468860Y0002193607D01*
X0002472609Y0002195481D01*
X0002474484Y0002197356D01*
X0002476359Y0002201106D01*
X0002476359Y0002208605D01*
X0002474484Y0002212354D01*
X0002472609Y0002214229D01*
X0002468860Y0002216104D01*
X0002511979Y0002232977D02*
X0002493232Y0002232977D01*
X0002491357Y0002214229D01*
X0002493232Y0002216104D01*
X0002496981Y0002217979D01*
X0002506355Y0002217979D01*
X0002510105Y0002216104D01*
X0002511979Y0002214229D01*
X0002513854Y0002210479D01*
X0002513854Y0002201106D01*
X0002511979Y0002197356D01*
X0002510105Y0002195481D01*
X0002506355Y0002193607D01*
X0002496981Y0002193607D01*
X0002493232Y0002195481D01*
X0002491357Y0002197356D01*
X0002461361Y0002316104D02*
X0002457611Y0002317979D01*
X0002455736Y0002319853D01*
X0002453862Y0002323603D01*
X0002453862Y0002325478D01*
X0002455736Y0002329227D01*
X0002457611Y0002331102D01*
X0002461361Y0002332977D01*
X0002468860Y0002332977D01*
X0002472609Y0002331102D01*
X0002474484Y0002329227D01*
X0002476359Y0002325478D01*
X0002476359Y0002323603D01*
X0002474484Y0002319853D01*
X0002472609Y0002317979D01*
X0002468860Y0002316104D01*
X0002461361Y0002316104D01*
X0002457611Y0002314229D01*
X0002455736Y0002312354D01*
X0002453862Y0002308605D01*
X0002453862Y0002301106D01*
X0002455736Y0002297356D01*
X0002457611Y0002295481D01*
X0002461361Y0002293607D01*
X0002468860Y0002293607D01*
X0002472609Y0002295481D01*
X0002474484Y0002297356D01*
X0002476359Y0002301106D01*
X0002476359Y0002308605D01*
X0002474484Y0002312354D01*
X0002472609Y0002314229D01*
X0002468860Y0002316104D01*
X0002489482Y0002332977D02*
X0002515729Y0002332977D01*
X0002498856Y0002293607D01*
X0002461361Y0002416104D02*
X0002457611Y0002417979D01*
X0002455736Y0002419853D01*
X0002453862Y0002423603D01*
X0002453862Y0002425478D01*
X0002455736Y0002429227D01*
X0002457611Y0002431102D01*
X0002461361Y0002432977D01*
X0002468860Y0002432977D01*
X0002472609Y0002431102D01*
X0002474484Y0002429227D01*
X0002476359Y0002425478D01*
X0002476359Y0002423603D01*
X0002474484Y0002419853D01*
X0002472609Y0002417979D01*
X0002468860Y0002416104D01*
X0002461361Y0002416104D01*
X0002457611Y0002414229D01*
X0002455736Y0002412354D01*
X0002453862Y0002408605D01*
X0002453862Y0002401106D01*
X0002455736Y0002397356D01*
X0002457611Y0002395481D01*
X0002461361Y0002393607D01*
X0002468860Y0002393607D01*
X0002472609Y0002395481D01*
X0002474484Y0002397356D01*
X0002476359Y0002401106D01*
X0002476359Y0002408605D01*
X0002474484Y0002412354D01*
X0002472609Y0002414229D01*
X0002468860Y0002416104D01*
X0002495106Y0002393607D02*
X0002502605Y0002393607D01*
X0002506355Y0002395481D01*
X0002508230Y0002397356D01*
X0002511979Y0002402980D01*
X0002513854Y0002410479D01*
X0002513854Y0002425478D01*
X0002511979Y0002429227D01*
X0002510105Y0002431102D01*
X0002506355Y0002432977D01*
X0002498856Y0002432977D01*
X0002495106Y0002431102D01*
X0002493232Y0002429227D01*
X0002491357Y0002425478D01*
X0002491357Y0002416104D01*
X0002493232Y0002412354D01*
X0002495106Y0002410479D01*
X0002498856Y0002408605D01*
X0002506355Y0002408605D01*
X0002510105Y0002410479D01*
X0002511979Y0002412354D01*
X0002513854Y0002416104D01*
X0002457611Y0002493607D02*
X0002465110Y0002493607D01*
X0002468860Y0002495481D01*
X0002470734Y0002497356D01*
X0002474484Y0002502980D01*
X0002476359Y0002510479D01*
X0002476359Y0002525478D01*
X0002474484Y0002529227D01*
X0002472609Y0002531102D01*
X0002468860Y0002532977D01*
X0002461361Y0002532977D01*
X0002457611Y0002531102D01*
X0002455736Y0002529227D01*
X0002453862Y0002525478D01*
X0002453862Y0002516104D01*
X0002455736Y0002512354D01*
X0002457611Y0002510479D01*
X0002461361Y0002508605D01*
X0002468860Y0002508605D01*
X0002472609Y0002510479D01*
X0002474484Y0002512354D01*
X0002476359Y0002516104D01*
X0002513854Y0002493607D02*
X0002491357Y0002493607D01*
X0002502605Y0002493607D02*
X0002502605Y0002532977D01*
X0002498856Y0002527352D01*
X0002495106Y0002523603D01*
X0002491357Y0002521728D01*
X0002457611Y0002593607D02*
X0002465110Y0002593607D01*
X0002468860Y0002595481D01*
X0002470734Y0002597356D01*
X0002474484Y0002602980D01*
X0002476359Y0002610479D01*
X0002476359Y0002625478D01*
X0002474484Y0002629227D01*
X0002472609Y0002631102D01*
X0002468860Y0002632977D01*
X0002461361Y0002632977D01*
X0002457611Y0002631102D01*
X0002455736Y0002629227D01*
X0002453862Y0002625478D01*
X0002453862Y0002616104D01*
X0002455736Y0002612354D01*
X0002457611Y0002610479D01*
X0002461361Y0002608605D01*
X0002468860Y0002608605D01*
X0002472609Y0002610479D01*
X0002474484Y0002612354D01*
X0002476359Y0002616104D01*
X0002489482Y0002632977D02*
X0002513854Y0002632977D01*
X0002500731Y0002617979D01*
X0002506355Y0002617979D01*
X0002510105Y0002616104D01*
X0002511979Y0002614229D01*
X0002513854Y0002610479D01*
X0002513854Y0002601106D01*
X0002511979Y0002597356D01*
X0002510105Y0002595481D01*
X0002506355Y0002593607D01*
X0002495106Y0002593607D01*
X0002491357Y0002595481D01*
X0002489482Y0002597356D01*
X0002457611Y0002693607D02*
X0002465110Y0002693607D01*
X0002468860Y0002695481D01*
X0002470734Y0002697356D01*
X0002474484Y0002702980D01*
X0002476359Y0002710479D01*
X0002476359Y0002725478D01*
X0002474484Y0002729227D01*
X0002472609Y0002731102D01*
X0002468860Y0002732977D01*
X0002461361Y0002732977D01*
X0002457611Y0002731102D01*
X0002455736Y0002729227D01*
X0002453862Y0002725478D01*
X0002453862Y0002716104D01*
X0002455736Y0002712354D01*
X0002457611Y0002710479D01*
X0002461361Y0002708605D01*
X0002468860Y0002708605D01*
X0002472609Y0002710479D01*
X0002474484Y0002712354D01*
X0002476359Y0002716104D01*
X0002511979Y0002732977D02*
X0002493232Y0002732977D01*
X0002491357Y0002714229D01*
X0002493232Y0002716104D01*
X0002496981Y0002717979D01*
X0002506355Y0002717979D01*
X0002510105Y0002716104D01*
X0002511979Y0002714229D01*
X0002513854Y0002710479D01*
X0002513854Y0002701106D01*
X0002511979Y0002697356D01*
X0002510105Y0002695481D01*
X0002506355Y0002693607D01*
X0002496981Y0002693607D01*
X0002493232Y0002695481D01*
X0002491357Y0002697356D01*
X0002457611Y0002793607D02*
X0002465110Y0002793607D01*
X0002468860Y0002795481D01*
X0002470734Y0002797356D01*
X0002474484Y0002802980D01*
X0002476359Y0002810479D01*
X0002476359Y0002825478D01*
X0002474484Y0002829227D01*
X0002472609Y0002831102D01*
X0002468860Y0002832977D01*
X0002461361Y0002832977D01*
X0002457611Y0002831102D01*
X0002455736Y0002829227D01*
X0002453862Y0002825478D01*
X0002453862Y0002816104D01*
X0002455736Y0002812354D01*
X0002457611Y0002810479D01*
X0002461361Y0002808605D01*
X0002468860Y0002808605D01*
X0002472609Y0002810479D01*
X0002474484Y0002812354D01*
X0002476359Y0002816104D01*
X0002489482Y0002832977D02*
X0002515729Y0002832977D01*
X0002498856Y0002793607D01*
X0002457611Y0002893607D02*
X0002465110Y0002893607D01*
X0002468860Y0002895481D01*
X0002470734Y0002897356D01*
X0002474484Y0002902980D01*
X0002476359Y0002910479D01*
X0002476359Y0002925478D01*
X0002474484Y0002929227D01*
X0002472609Y0002931102D01*
X0002468860Y0002932977D01*
X0002461361Y0002932977D01*
X0002457611Y0002931102D01*
X0002455736Y0002929227D01*
X0002453862Y0002925478D01*
X0002453862Y0002916104D01*
X0002455736Y0002912354D01*
X0002457611Y0002910479D01*
X0002461361Y0002908605D01*
X0002468860Y0002908605D01*
X0002472609Y0002910479D01*
X0002474484Y0002912354D01*
X0002476359Y0002916104D01*
X0002495106Y0002893607D02*
X0002502605Y0002893607D01*
X0002506355Y0002895481D01*
X0002508230Y0002897356D01*
X0002511979Y0002902980D01*
X0002513854Y0002910479D01*
X0002513854Y0002925478D01*
X0002511979Y0002929227D01*
X0002510105Y0002931102D01*
X0002506355Y0002932977D01*
X0002498856Y0002932977D01*
X0002495106Y0002931102D01*
X0002493232Y0002929227D01*
X0002491357Y0002925478D01*
X0002491357Y0002916104D01*
X0002493232Y0002912354D01*
X0002495106Y0002910479D01*
X0002498856Y0002908605D01*
X0002506355Y0002908605D01*
X0002510105Y0002910479D01*
X0002511979Y0002912354D01*
X0002513854Y0002916104D01*
X0002457611Y0002993607D02*
X0002435114Y0002993607D01*
X0002446362Y0002993607D02*
X0002446362Y0003032977D01*
X0002442613Y0003027352D01*
X0002438863Y0003023603D01*
X0002435114Y0003021728D01*
X0002481983Y0003032977D02*
X0002485733Y0003032977D01*
X0002489482Y0003031102D01*
X0002491357Y0003029227D01*
X0002493232Y0003025478D01*
X0002495106Y0003017979D01*
X0002495106Y0003008605D01*
X0002493232Y0003001106D01*
X0002491357Y0002997356D01*
X0002489482Y0002995481D01*
X0002485733Y0002993607D01*
X0002481983Y0002993607D01*
X0002478233Y0002995481D01*
X0002476359Y0002997356D01*
X0002474484Y0003001106D01*
X0002472609Y0003008605D01*
X0002472609Y0003017979D01*
X0002474484Y0003025478D01*
X0002476359Y0003029227D01*
X0002478233Y0003031102D01*
X0002481983Y0003032977D01*
X0002532602Y0002993607D02*
X0002510105Y0002993607D01*
X0002521353Y0002993607D02*
X0002521353Y0003032977D01*
X0002517604Y0003027352D01*
X0002513854Y0003023603D01*
X0002510105Y0003021728D01*
X0002457611Y0003093607D02*
X0002435114Y0003093607D01*
X0002446362Y0003093607D02*
X0002446362Y0003132977D01*
X0002442613Y0003127352D01*
X0002438863Y0003123603D01*
X0002435114Y0003121728D01*
X0002481983Y0003132977D02*
X0002485733Y0003132977D01*
X0002489482Y0003131102D01*
X0002491357Y0003129227D01*
X0002493232Y0003125478D01*
X0002495106Y0003117979D01*
X0002495106Y0003108605D01*
X0002493232Y0003101106D01*
X0002491357Y0003097356D01*
X0002489482Y0003095481D01*
X0002485733Y0003093607D01*
X0002481983Y0003093607D01*
X0002478233Y0003095481D01*
X0002476359Y0003097356D01*
X0002474484Y0003101106D01*
X0002472609Y0003108605D01*
X0002472609Y0003117979D01*
X0002474484Y0003125478D01*
X0002476359Y0003129227D01*
X0002478233Y0003131102D01*
X0002481983Y0003132977D01*
X0002508230Y0003132977D02*
X0002532602Y0003132977D01*
X0002519478Y0003117979D01*
X0002525103Y0003117979D01*
X0002528852Y0003116104D01*
X0002530727Y0003114229D01*
X0002532602Y0003110479D01*
X0002532602Y0003101106D01*
X0002530727Y0003097356D01*
X0002528852Y0003095481D01*
X0002525103Y0003093607D01*
X0002513854Y0003093607D01*
X0002510105Y0003095481D01*
X0002508230Y0003097356D01*
X0002457611Y0003193607D02*
X0002435114Y0003193607D01*
X0002446362Y0003193607D02*
X0002446362Y0003232977D01*
X0002442613Y0003227352D01*
X0002438863Y0003223603D01*
X0002435114Y0003221728D01*
X0002481983Y0003232977D02*
X0002485733Y0003232977D01*
X0002489482Y0003231102D01*
X0002491357Y0003229227D01*
X0002493232Y0003225478D01*
X0002495106Y0003217979D01*
X0002495106Y0003208605D01*
X0002493232Y0003201106D01*
X0002491357Y0003197356D01*
X0002489482Y0003195481D01*
X0002485733Y0003193607D01*
X0002481983Y0003193607D01*
X0002478233Y0003195481D01*
X0002476359Y0003197356D01*
X0002474484Y0003201106D01*
X0002472609Y0003208605D01*
X0002472609Y0003217979D01*
X0002474484Y0003225478D01*
X0002476359Y0003229227D01*
X0002478233Y0003231102D01*
X0002481983Y0003232977D01*
X0002530727Y0003232977D02*
X0002511979Y0003232977D01*
X0002510105Y0003214229D01*
X0002511979Y0003216104D01*
X0002515729Y0003217979D01*
X0002525103Y0003217979D01*
X0002528852Y0003216104D01*
X0002530727Y0003214229D01*
X0002532602Y0003210479D01*
X0002532602Y0003201106D01*
X0002530727Y0003197356D01*
X0002528852Y0003195481D01*
X0002525103Y0003193607D01*
X0002515729Y0003193607D01*
X0002511979Y0003195481D01*
X0002510105Y0003197356D01*
X0002457611Y0003293607D02*
X0002435114Y0003293607D01*
X0002446362Y0003293607D02*
X0002446362Y0003332977D01*
X0002442613Y0003327352D01*
X0002438863Y0003323603D01*
X0002435114Y0003321728D01*
X0002481983Y0003332977D02*
X0002485733Y0003332977D01*
X0002489482Y0003331102D01*
X0002491357Y0003329227D01*
X0002493232Y0003325478D01*
X0002495106Y0003317979D01*
X0002495106Y0003308605D01*
X0002493232Y0003301106D01*
X0002491357Y0003297356D01*
X0002489482Y0003295481D01*
X0002485733Y0003293607D01*
X0002481983Y0003293607D01*
X0002478233Y0003295481D01*
X0002476359Y0003297356D01*
X0002474484Y0003301106D01*
X0002472609Y0003308605D01*
X0002472609Y0003317979D01*
X0002474484Y0003325478D01*
X0002476359Y0003329227D01*
X0002478233Y0003331102D01*
X0002481983Y0003332977D01*
X0002508230Y0003332977D02*
X0002534476Y0003332977D01*
X0002517604Y0003293607D01*
X0002819310Y0001640457D02*
X0002845556Y0001640457D01*
X0002828683Y0001601087D01*
X0002877427Y0001627334D02*
X0002877427Y0001601087D01*
X0002868053Y0001642332D02*
X0002858680Y0001614210D01*
X0002883052Y0001614210D01*
X0002819310Y0001740457D02*
X0002845556Y0001740457D01*
X0002828683Y0001701087D01*
X0002877427Y0001740457D02*
X0002869928Y0001740457D01*
X0002866179Y0001738582D01*
X0002864304Y0001736707D01*
X0002860554Y0001731083D01*
X0002858680Y0001723584D01*
X0002858680Y0001708586D01*
X0002860554Y0001704836D01*
X0002862429Y0001702962D01*
X0002866179Y0001701087D01*
X0002873678Y0001701087D01*
X0002877427Y0001702962D01*
X0002879302Y0001704836D01*
X0002881177Y0001708586D01*
X0002881177Y0001717960D01*
X0002879302Y0001721709D01*
X0002877427Y0001723584D01*
X0002873678Y0001725459D01*
X0002866179Y0001725459D01*
X0002862429Y0001723584D01*
X0002860554Y0001721709D01*
X0002858680Y0001717960D01*
X0002819310Y0001840457D02*
X0002845556Y0001840457D01*
X0002828683Y0001801087D01*
X0002866179Y0001823584D02*
X0002862429Y0001825459D01*
X0002860554Y0001827334D01*
X0002858680Y0001831083D01*
X0002858680Y0001832958D01*
X0002860554Y0001836707D01*
X0002862429Y0001838582D01*
X0002866179Y0001840457D01*
X0002873678Y0001840457D01*
X0002877427Y0001838582D01*
X0002879302Y0001836707D01*
X0002881177Y0001832958D01*
X0002881177Y0001831083D01*
X0002879302Y0001827334D01*
X0002877427Y0001825459D01*
X0002873678Y0001823584D01*
X0002866179Y0001823584D01*
X0002862429Y0001821709D01*
X0002860554Y0001819835D01*
X0002858680Y0001816085D01*
X0002858680Y0001808586D01*
X0002860554Y0001804836D01*
X0002862429Y0001802962D01*
X0002866179Y0001801087D01*
X0002873678Y0001801087D01*
X0002877427Y0001802962D01*
X0002879302Y0001804836D01*
X0002881177Y0001808586D01*
X0002881177Y0001816085D01*
X0002879302Y0001819835D01*
X0002877427Y0001821709D01*
X0002873678Y0001823584D01*
X0002828683Y0001923584D02*
X0002824934Y0001925459D01*
X0002823059Y0001927334D01*
X0002821184Y0001931083D01*
X0002821184Y0001932958D01*
X0002823059Y0001936707D01*
X0002824934Y0001938582D01*
X0002828683Y0001940457D01*
X0002836182Y0001940457D01*
X0002839932Y0001938582D01*
X0002841807Y0001936707D01*
X0002843682Y0001932958D01*
X0002843682Y0001931083D01*
X0002841807Y0001927334D01*
X0002839932Y0001925459D01*
X0002836182Y0001923584D01*
X0002828683Y0001923584D01*
X0002824934Y0001921709D01*
X0002823059Y0001919835D01*
X0002821184Y0001916085D01*
X0002821184Y0001908586D01*
X0002823059Y0001904836D01*
X0002824934Y0001902962D01*
X0002828683Y0001901087D01*
X0002836182Y0001901087D01*
X0002839932Y0001902962D01*
X0002841807Y0001904836D01*
X0002843682Y0001908586D01*
X0002843682Y0001916085D01*
X0002841807Y0001919835D01*
X0002839932Y0001921709D01*
X0002836182Y0001923584D01*
X0002868053Y0001940457D02*
X0002871803Y0001940457D01*
X0002875553Y0001938582D01*
X0002877427Y0001936707D01*
X0002879302Y0001932958D01*
X0002881177Y0001925459D01*
X0002881177Y0001916085D01*
X0002879302Y0001908586D01*
X0002877427Y0001904836D01*
X0002875553Y0001902962D01*
X0002871803Y0001901087D01*
X0002868053Y0001901087D01*
X0002864304Y0001902962D01*
X0002862429Y0001904836D01*
X0002860554Y0001908586D01*
X0002858680Y0001916085D01*
X0002858680Y0001925459D01*
X0002860554Y0001932958D01*
X0002862429Y0001936707D01*
X0002864304Y0001938582D01*
X0002868053Y0001940457D01*
X0002828683Y0002023584D02*
X0002824934Y0002025459D01*
X0002823059Y0002027334D01*
X0002821184Y0002031083D01*
X0002821184Y0002032958D01*
X0002823059Y0002036707D01*
X0002824934Y0002038582D01*
X0002828683Y0002040457D01*
X0002836182Y0002040457D01*
X0002839932Y0002038582D01*
X0002841807Y0002036707D01*
X0002843682Y0002032958D01*
X0002843682Y0002031083D01*
X0002841807Y0002027334D01*
X0002839932Y0002025459D01*
X0002836182Y0002023584D01*
X0002828683Y0002023584D01*
X0002824934Y0002021709D01*
X0002823059Y0002019835D01*
X0002821184Y0002016085D01*
X0002821184Y0002008586D01*
X0002823059Y0002004836D01*
X0002824934Y0002002962D01*
X0002828683Y0002001087D01*
X0002836182Y0002001087D01*
X0002839932Y0002002962D01*
X0002841807Y0002004836D01*
X0002843682Y0002008586D01*
X0002843682Y0002016085D01*
X0002841807Y0002019835D01*
X0002839932Y0002021709D01*
X0002836182Y0002023584D01*
X0002858680Y0002036707D02*
X0002860554Y0002038582D01*
X0002864304Y0002040457D01*
X0002873678Y0002040457D01*
X0002877427Y0002038582D01*
X0002879302Y0002036707D01*
X0002881177Y0002032958D01*
X0002881177Y0002029208D01*
X0002879302Y0002023584D01*
X0002856805Y0002001087D01*
X0002881177Y0002001087D01*
X0002828683Y0002123584D02*
X0002824934Y0002125459D01*
X0002823059Y0002127334D01*
X0002821184Y0002131083D01*
X0002821184Y0002132958D01*
X0002823059Y0002136707D01*
X0002824934Y0002138582D01*
X0002828683Y0002140457D01*
X0002836182Y0002140457D01*
X0002839932Y0002138582D01*
X0002841807Y0002136707D01*
X0002843682Y0002132958D01*
X0002843682Y0002131083D01*
X0002841807Y0002127334D01*
X0002839932Y0002125459D01*
X0002836182Y0002123584D01*
X0002828683Y0002123584D01*
X0002824934Y0002121709D01*
X0002823059Y0002119835D01*
X0002821184Y0002116085D01*
X0002821184Y0002108586D01*
X0002823059Y0002104836D01*
X0002824934Y0002102962D01*
X0002828683Y0002101087D01*
X0002836182Y0002101087D01*
X0002839932Y0002102962D01*
X0002841807Y0002104836D01*
X0002843682Y0002108586D01*
X0002843682Y0002116085D01*
X0002841807Y0002119835D01*
X0002839932Y0002121709D01*
X0002836182Y0002123584D01*
X0002877427Y0002127334D02*
X0002877427Y0002101087D01*
X0002868053Y0002142332D02*
X0002858680Y0002114210D01*
X0002883052Y0002114210D01*
X0002828683Y0002223584D02*
X0002824934Y0002225459D01*
X0002823059Y0002227334D01*
X0002821184Y0002231083D01*
X0002821184Y0002232958D01*
X0002823059Y0002236707D01*
X0002824934Y0002238582D01*
X0002828683Y0002240457D01*
X0002836182Y0002240457D01*
X0002839932Y0002238582D01*
X0002841807Y0002236707D01*
X0002843682Y0002232958D01*
X0002843682Y0002231083D01*
X0002841807Y0002227334D01*
X0002839932Y0002225459D01*
X0002836182Y0002223584D01*
X0002828683Y0002223584D01*
X0002824934Y0002221709D01*
X0002823059Y0002219835D01*
X0002821184Y0002216085D01*
X0002821184Y0002208586D01*
X0002823059Y0002204836D01*
X0002824934Y0002202962D01*
X0002828683Y0002201087D01*
X0002836182Y0002201087D01*
X0002839932Y0002202962D01*
X0002841807Y0002204836D01*
X0002843682Y0002208586D01*
X0002843682Y0002216085D01*
X0002841807Y0002219835D01*
X0002839932Y0002221709D01*
X0002836182Y0002223584D01*
X0002877427Y0002240457D02*
X0002869928Y0002240457D01*
X0002866179Y0002238582D01*
X0002864304Y0002236707D01*
X0002860554Y0002231083D01*
X0002858680Y0002223584D01*
X0002858680Y0002208586D01*
X0002860554Y0002204836D01*
X0002862429Y0002202962D01*
X0002866179Y0002201087D01*
X0002873678Y0002201087D01*
X0002877427Y0002202962D01*
X0002879302Y0002204836D01*
X0002881177Y0002208586D01*
X0002881177Y0002217960D01*
X0002879302Y0002221709D01*
X0002877427Y0002223584D01*
X0002873678Y0002225459D01*
X0002866179Y0002225459D01*
X0002862429Y0002223584D01*
X0002860554Y0002221709D01*
X0002858680Y0002217960D01*
X0002828683Y0002323584D02*
X0002824934Y0002325459D01*
X0002823059Y0002327334D01*
X0002821184Y0002331083D01*
X0002821184Y0002332958D01*
X0002823059Y0002336707D01*
X0002824934Y0002338582D01*
X0002828683Y0002340457D01*
X0002836182Y0002340457D01*
X0002839932Y0002338582D01*
X0002841807Y0002336707D01*
X0002843682Y0002332958D01*
X0002843682Y0002331083D01*
X0002841807Y0002327334D01*
X0002839932Y0002325459D01*
X0002836182Y0002323584D01*
X0002828683Y0002323584D01*
X0002824934Y0002321709D01*
X0002823059Y0002319835D01*
X0002821184Y0002316085D01*
X0002821184Y0002308586D01*
X0002823059Y0002304836D01*
X0002824934Y0002302962D01*
X0002828683Y0002301087D01*
X0002836182Y0002301087D01*
X0002839932Y0002302962D01*
X0002841807Y0002304836D01*
X0002843682Y0002308586D01*
X0002843682Y0002316085D01*
X0002841807Y0002319835D01*
X0002839932Y0002321709D01*
X0002836182Y0002323584D01*
X0002866179Y0002323584D02*
X0002862429Y0002325459D01*
X0002860554Y0002327334D01*
X0002858680Y0002331083D01*
X0002858680Y0002332958D01*
X0002860554Y0002336707D01*
X0002862429Y0002338582D01*
X0002866179Y0002340457D01*
X0002873678Y0002340457D01*
X0002877427Y0002338582D01*
X0002879302Y0002336707D01*
X0002881177Y0002332958D01*
X0002881177Y0002331083D01*
X0002879302Y0002327334D01*
X0002877427Y0002325459D01*
X0002873678Y0002323584D01*
X0002866179Y0002323584D01*
X0002862429Y0002321709D01*
X0002860554Y0002319835D01*
X0002858680Y0002316085D01*
X0002858680Y0002308586D01*
X0002860554Y0002304836D01*
X0002862429Y0002302962D01*
X0002866179Y0002301087D01*
X0002873678Y0002301087D01*
X0002877427Y0002302962D01*
X0002879302Y0002304836D01*
X0002881177Y0002308586D01*
X0002881177Y0002316085D01*
X0002879302Y0002319835D01*
X0002877427Y0002321709D01*
X0002873678Y0002323584D01*
X0002824934Y0002401087D02*
X0002832433Y0002401087D01*
X0002836182Y0002402962D01*
X0002838057Y0002404836D01*
X0002841807Y0002410461D01*
X0002843682Y0002417960D01*
X0002843682Y0002432958D01*
X0002841807Y0002436707D01*
X0002839932Y0002438582D01*
X0002836182Y0002440457D01*
X0002828683Y0002440457D01*
X0002824934Y0002438582D01*
X0002823059Y0002436707D01*
X0002821184Y0002432958D01*
X0002821184Y0002423584D01*
X0002823059Y0002419835D01*
X0002824934Y0002417960D01*
X0002828683Y0002416085D01*
X0002836182Y0002416085D01*
X0002839932Y0002417960D01*
X0002841807Y0002419835D01*
X0002843682Y0002423584D01*
X0002868053Y0002440457D02*
X0002871803Y0002440457D01*
X0002875553Y0002438582D01*
X0002877427Y0002436707D01*
X0002879302Y0002432958D01*
X0002881177Y0002425459D01*
X0002881177Y0002416085D01*
X0002879302Y0002408586D01*
X0002877427Y0002404836D01*
X0002875553Y0002402962D01*
X0002871803Y0002401087D01*
X0002868053Y0002401087D01*
X0002864304Y0002402962D01*
X0002862429Y0002404836D01*
X0002860554Y0002408586D01*
X0002858680Y0002416085D01*
X0002858680Y0002425459D01*
X0002860554Y0002432958D01*
X0002862429Y0002436707D01*
X0002864304Y0002438582D01*
X0002868053Y0002440457D01*
X0002824934Y0002501087D02*
X0002832433Y0002501087D01*
X0002836182Y0002502962D01*
X0002838057Y0002504836D01*
X0002841807Y0002510461D01*
X0002843682Y0002517960D01*
X0002843682Y0002532958D01*
X0002841807Y0002536707D01*
X0002839932Y0002538582D01*
X0002836182Y0002540457D01*
X0002828683Y0002540457D01*
X0002824934Y0002538582D01*
X0002823059Y0002536707D01*
X0002821184Y0002532958D01*
X0002821184Y0002523584D01*
X0002823059Y0002519835D01*
X0002824934Y0002517960D01*
X0002828683Y0002516085D01*
X0002836182Y0002516085D01*
X0002839932Y0002517960D01*
X0002841807Y0002519835D01*
X0002843682Y0002523584D01*
X0002858680Y0002536707D02*
X0002860554Y0002538582D01*
X0002864304Y0002540457D01*
X0002873678Y0002540457D01*
X0002877427Y0002538582D01*
X0002879302Y0002536707D01*
X0002881177Y0002532958D01*
X0002881177Y0002529208D01*
X0002879302Y0002523584D01*
X0002856805Y0002501087D01*
X0002881177Y0002501087D01*
X0002824934Y0002601087D02*
X0002832433Y0002601087D01*
X0002836182Y0002602962D01*
X0002838057Y0002604836D01*
X0002841807Y0002610461D01*
X0002843682Y0002617960D01*
X0002843682Y0002632958D01*
X0002841807Y0002636707D01*
X0002839932Y0002638582D01*
X0002836182Y0002640457D01*
X0002828683Y0002640457D01*
X0002824934Y0002638582D01*
X0002823059Y0002636707D01*
X0002821184Y0002632958D01*
X0002821184Y0002623584D01*
X0002823059Y0002619835D01*
X0002824934Y0002617960D01*
X0002828683Y0002616085D01*
X0002836182Y0002616085D01*
X0002839932Y0002617960D01*
X0002841807Y0002619835D01*
X0002843682Y0002623584D01*
X0002877427Y0002627334D02*
X0002877427Y0002601087D01*
X0002868053Y0002642332D02*
X0002858680Y0002614210D01*
X0002883052Y0002614210D01*
X0002824934Y0002701087D02*
X0002832433Y0002701087D01*
X0002836182Y0002702962D01*
X0002838057Y0002704836D01*
X0002841807Y0002710461D01*
X0002843682Y0002717960D01*
X0002843682Y0002732958D01*
X0002841807Y0002736707D01*
X0002839932Y0002738582D01*
X0002836182Y0002740457D01*
X0002828683Y0002740457D01*
X0002824934Y0002738582D01*
X0002823059Y0002736707D01*
X0002821184Y0002732958D01*
X0002821184Y0002723584D01*
X0002823059Y0002719835D01*
X0002824934Y0002717960D01*
X0002828683Y0002716085D01*
X0002836182Y0002716085D01*
X0002839932Y0002717960D01*
X0002841807Y0002719835D01*
X0002843682Y0002723584D01*
X0002877427Y0002740457D02*
X0002869928Y0002740457D01*
X0002866179Y0002738582D01*
X0002864304Y0002736707D01*
X0002860554Y0002731083D01*
X0002858680Y0002723584D01*
X0002858680Y0002708586D01*
X0002860554Y0002704836D01*
X0002862429Y0002702962D01*
X0002866179Y0002701087D01*
X0002873678Y0002701087D01*
X0002877427Y0002702962D01*
X0002879302Y0002704836D01*
X0002881177Y0002708586D01*
X0002881177Y0002717960D01*
X0002879302Y0002721709D01*
X0002877427Y0002723584D01*
X0002873678Y0002725459D01*
X0002866179Y0002725459D01*
X0002862429Y0002723584D01*
X0002860554Y0002721709D01*
X0002858680Y0002717960D01*
X0002824540Y0002795181D02*
X0002832039Y0002795181D01*
X0002835789Y0002797056D01*
X0002837664Y0002798931D01*
X0002841413Y0002804555D01*
X0002843288Y0002812054D01*
X0002843288Y0002827052D01*
X0002841413Y0002830802D01*
X0002839538Y0002832677D01*
X0002835789Y0002834551D01*
X0002828290Y0002834551D01*
X0002824540Y0002832677D01*
X0002822665Y0002830802D01*
X0002820791Y0002827052D01*
X0002820791Y0002817679D01*
X0002822665Y0002813929D01*
X0002824540Y0002812054D01*
X0002828290Y0002810179D01*
X0002835789Y0002810179D01*
X0002839538Y0002812054D01*
X0002841413Y0002813929D01*
X0002843288Y0002817679D01*
X0002865785Y0002817679D02*
X0002862035Y0002819553D01*
X0002860161Y0002821428D01*
X0002858286Y0002825178D01*
X0002858286Y0002827052D01*
X0002860161Y0002830802D01*
X0002862035Y0002832677D01*
X0002865785Y0002834551D01*
X0002873284Y0002834551D01*
X0002877034Y0002832677D01*
X0002878908Y0002830802D01*
X0002880783Y0002827052D01*
X0002880783Y0002825178D01*
X0002878908Y0002821428D01*
X0002877034Y0002819553D01*
X0002873284Y0002817679D01*
X0002865785Y0002817679D01*
X0002862035Y0002815804D01*
X0002860161Y0002813929D01*
X0002858286Y0002810179D01*
X0002858286Y0002802680D01*
X0002860161Y0002798931D01*
X0002862035Y0002797056D01*
X0002865785Y0002795181D01*
X0002873284Y0002795181D01*
X0002877034Y0002797056D01*
X0002878908Y0002798931D01*
X0002880783Y0002802680D01*
X0002880783Y0002810179D01*
X0002878908Y0002813929D01*
X0002877034Y0002815804D01*
X0002873284Y0002817679D01*
X0002831627Y0002899118D02*
X0002809130Y0002899118D01*
X0002820378Y0002899118D02*
X0002820378Y0002938488D01*
X0002816629Y0002932864D01*
X0002812879Y0002929115D01*
X0002809130Y0002927240D01*
X0002855999Y0002938488D02*
X0002859748Y0002938488D01*
X0002863498Y0002936614D01*
X0002865373Y0002934739D01*
X0002867247Y0002930989D01*
X0002869122Y0002923490D01*
X0002869122Y0002914116D01*
X0002867247Y0002906617D01*
X0002865373Y0002902868D01*
X0002863498Y0002900993D01*
X0002859748Y0002899118D01*
X0002855999Y0002899118D01*
X0002852249Y0002900993D01*
X0002850374Y0002902868D01*
X0002848500Y0002906617D01*
X0002846625Y0002914116D01*
X0002846625Y0002923490D01*
X0002848500Y0002930989D01*
X0002850374Y0002934739D01*
X0002852249Y0002936614D01*
X0002855999Y0002938488D01*
X0002893494Y0002938488D02*
X0002897244Y0002938488D01*
X0002900993Y0002936614D01*
X0002902868Y0002934739D01*
X0002904743Y0002930989D01*
X0002906617Y0002923490D01*
X0002906617Y0002914116D01*
X0002904743Y0002906617D01*
X0002902868Y0002902868D01*
X0002900993Y0002900993D01*
X0002897244Y0002899118D01*
X0002893494Y0002899118D01*
X0002889745Y0002900993D01*
X0002887870Y0002902868D01*
X0002885995Y0002906617D01*
X0002884120Y0002914116D01*
X0002884120Y0002923490D01*
X0002885995Y0002930989D01*
X0002887870Y0002934739D01*
X0002889745Y0002936614D01*
X0002893494Y0002938488D01*
X0002831627Y0002999118D02*
X0002809130Y0002999118D01*
X0002820378Y0002999118D02*
X0002820378Y0003038488D01*
X0002816629Y0003032864D01*
X0002812879Y0003029115D01*
X0002809130Y0003027240D01*
X0002855999Y0003038488D02*
X0002859748Y0003038488D01*
X0002863498Y0003036614D01*
X0002865373Y0003034739D01*
X0002867247Y0003030989D01*
X0002869122Y0003023490D01*
X0002869122Y0003014116D01*
X0002867247Y0003006617D01*
X0002865373Y0003002868D01*
X0002863498Y0003000993D01*
X0002859748Y0002999118D01*
X0002855999Y0002999118D01*
X0002852249Y0003000993D01*
X0002850374Y0003002868D01*
X0002848500Y0003006617D01*
X0002846625Y0003014116D01*
X0002846625Y0003023490D01*
X0002848500Y0003030989D01*
X0002850374Y0003034739D01*
X0002852249Y0003036614D01*
X0002855999Y0003038488D01*
X0002884120Y0003034739D02*
X0002885995Y0003036614D01*
X0002889745Y0003038488D01*
X0002899118Y0003038488D01*
X0002902868Y0003036614D01*
X0002904743Y0003034739D01*
X0002906617Y0003030989D01*
X0002906617Y0003027240D01*
X0002904743Y0003021616D01*
X0002882245Y0002999118D01*
X0002906617Y0002999118D01*
X0002831627Y0003099118D02*
X0002809130Y0003099118D01*
X0002820378Y0003099118D02*
X0002820378Y0003138488D01*
X0002816629Y0003132864D01*
X0002812879Y0003129115D01*
X0002809130Y0003127240D01*
X0002855999Y0003138488D02*
X0002859748Y0003138488D01*
X0002863498Y0003136614D01*
X0002865373Y0003134739D01*
X0002867247Y0003130989D01*
X0002869122Y0003123490D01*
X0002869122Y0003114116D01*
X0002867247Y0003106617D01*
X0002865373Y0003102868D01*
X0002863498Y0003100993D01*
X0002859748Y0003099118D01*
X0002855999Y0003099118D01*
X0002852249Y0003100993D01*
X0002850374Y0003102868D01*
X0002848500Y0003106617D01*
X0002846625Y0003114116D01*
X0002846625Y0003123490D01*
X0002848500Y0003130989D01*
X0002850374Y0003134739D01*
X0002852249Y0003136614D01*
X0002855999Y0003138488D01*
X0002902868Y0003125365D02*
X0002902868Y0003099118D01*
X0002893494Y0003140363D02*
X0002884120Y0003112242D01*
X0002908492Y0003112242D01*
X0002831627Y0003199118D02*
X0002809130Y0003199118D01*
X0002820378Y0003199118D02*
X0002820378Y0003238488D01*
X0002816629Y0003232864D01*
X0002812879Y0003229115D01*
X0002809130Y0003227240D01*
X0002855999Y0003238488D02*
X0002859748Y0003238488D01*
X0002863498Y0003236614D01*
X0002865373Y0003234739D01*
X0002867247Y0003230989D01*
X0002869122Y0003223490D01*
X0002869122Y0003214116D01*
X0002867247Y0003206617D01*
X0002865373Y0003202868D01*
X0002863498Y0003200993D01*
X0002859748Y0003199118D01*
X0002855999Y0003199118D01*
X0002852249Y0003200993D01*
X0002850374Y0003202868D01*
X0002848500Y0003206617D01*
X0002846625Y0003214116D01*
X0002846625Y0003223490D01*
X0002848500Y0003230989D01*
X0002850374Y0003234739D01*
X0002852249Y0003236614D01*
X0002855999Y0003238488D01*
X0002902868Y0003238488D02*
X0002895369Y0003238488D01*
X0002891619Y0003236614D01*
X0002889745Y0003234739D01*
X0002885995Y0003229115D01*
X0002884120Y0003221616D01*
X0002884120Y0003206617D01*
X0002885995Y0003202868D01*
X0002887870Y0003200993D01*
X0002891619Y0003199118D01*
X0002899118Y0003199118D01*
X0002902868Y0003200993D01*
X0002904743Y0003202868D01*
X0002906617Y0003206617D01*
X0002906617Y0003215991D01*
X0002904743Y0003219741D01*
X0002902868Y0003221616D01*
X0002899118Y0003223490D01*
X0002891619Y0003223490D01*
X0002887870Y0003221616D01*
X0002885995Y0003219741D01*
X0002884120Y0003215991D01*
X0002831627Y0003299118D02*
X0002809130Y0003299118D01*
X0002820378Y0003299118D02*
X0002820378Y0003338488D01*
X0002816629Y0003332864D01*
X0002812879Y0003329115D01*
X0002809130Y0003327240D01*
X0002855999Y0003338488D02*
X0002859748Y0003338488D01*
X0002863498Y0003336614D01*
X0002865373Y0003334739D01*
X0002867247Y0003330989D01*
X0002869122Y0003323490D01*
X0002869122Y0003314116D01*
X0002867247Y0003306617D01*
X0002865373Y0003302868D01*
X0002863498Y0003300993D01*
X0002859748Y0003299118D01*
X0002855999Y0003299118D01*
X0002852249Y0003300993D01*
X0002850374Y0003302868D01*
X0002848500Y0003306617D01*
X0002846625Y0003314116D01*
X0002846625Y0003323490D01*
X0002848500Y0003330989D01*
X0002850374Y0003334739D01*
X0002852249Y0003336614D01*
X0002855999Y0003338488D01*
X0002891619Y0003321616D02*
X0002887870Y0003323490D01*
X0002885995Y0003325365D01*
X0002884120Y0003329115D01*
X0002884120Y0003330989D01*
X0002885995Y0003334739D01*
X0002887870Y0003336614D01*
X0002891619Y0003338488D01*
X0002899118Y0003338488D01*
X0002902868Y0003336614D01*
X0002904743Y0003334739D01*
X0002906617Y0003330989D01*
X0002906617Y0003329115D01*
X0002904743Y0003325365D01*
X0002902868Y0003323490D01*
X0002899118Y0003321616D01*
X0002891619Y0003321616D01*
X0002887870Y0003319741D01*
X0002885995Y0003317866D01*
X0002884120Y0003314116D01*
X0002884120Y0003306617D01*
X0002885995Y0003302868D01*
X0002887870Y0003300993D01*
X0002891619Y0003299118D01*
X0002899118Y0003299118D01*
X0002902868Y0003300993D01*
X0002904743Y0003302868D01*
X0002906617Y0003306617D01*
X0002906617Y0003314116D01*
X0002904743Y0003317866D01*
X0002902868Y0003319741D01*
X0002899118Y0003321616D01*
X0002339463Y0003454461D02*
X0002339463Y0003431964D01*
X0002339463Y0003443213D02*
X0002300093Y0003443213D01*
X0002305718Y0003439463D01*
X0002309467Y0003435714D01*
X0002311342Y0003431964D01*
X0002300093Y0003478833D02*
X0002300093Y0003482583D01*
X0002301968Y0003486332D01*
X0002303843Y0003488207D01*
X0002307592Y0003490082D01*
X0002315091Y0003491957D01*
X0002324465Y0003491957D01*
X0002331964Y0003490082D01*
X0002335714Y0003488207D01*
X0002337589Y0003486332D01*
X0002339463Y0003482583D01*
X0002339463Y0003478833D01*
X0002337589Y0003475084D01*
X0002335714Y0003473209D01*
X0002331964Y0003471334D01*
X0002324465Y0003469460D01*
X0002315091Y0003469460D01*
X0002307592Y0003471334D01*
X0002303843Y0003473209D01*
X0002301968Y0003475084D01*
X0002300093Y0003478833D01*
X0002339463Y0003510704D02*
X0002339463Y0003518203D01*
X0002337589Y0003521953D01*
X0002335714Y0003523828D01*
X0002330090Y0003527577D01*
X0002322590Y0003529452D01*
X0002307592Y0003529452D01*
X0002303843Y0003527577D01*
X0002301968Y0003525703D01*
X0002300093Y0003521953D01*
X0002300093Y0003514454D01*
X0002301968Y0003510704D01*
X0002303843Y0003508830D01*
X0002307592Y0003506955D01*
X0002316966Y0003506955D01*
X0002320716Y0003508830D01*
X0002322590Y0003510704D01*
X0002324465Y0003514454D01*
X0002324465Y0003521953D01*
X0002322590Y0003525703D01*
X0002320716Y0003527577D01*
X0002316966Y0003529452D01*
X0002240251Y0003454855D02*
X0002240251Y0003432358D01*
X0002240251Y0003443607D02*
X0002200881Y0003443607D01*
X0002206505Y0003439857D01*
X0002210254Y0003436107D01*
X0002212129Y0003432358D01*
X0002240251Y0003492350D02*
X0002240251Y0003469853D01*
X0002240251Y0003481102D02*
X0002200881Y0003481102D01*
X0002206505Y0003477352D01*
X0002210254Y0003473603D01*
X0002212129Y0003469853D01*
X0002240251Y0003529846D02*
X0002240251Y0003507349D01*
X0002240251Y0003518597D02*
X0002200881Y0003518597D01*
X0002206505Y0003514848D01*
X0002210254Y0003511098D01*
X0002212129Y0003507349D01*
X0002140251Y0003454855D02*
X0002140251Y0003432358D01*
X0002140251Y0003443607D02*
X0002100881Y0003443607D01*
X0002106505Y0003439857D01*
X0002110254Y0003436107D01*
X0002112129Y0003432358D01*
X0002140251Y0003492350D02*
X0002140251Y0003469853D01*
X0002140251Y0003481102D02*
X0002100881Y0003481102D01*
X0002106505Y0003477352D01*
X0002110254Y0003473603D01*
X0002112129Y0003469853D01*
X0002100881Y0003505474D02*
X0002100881Y0003529846D01*
X0002115879Y0003516722D01*
X0002115879Y0003522347D01*
X0002117754Y0003526096D01*
X0002119628Y0003527971D01*
X0002123378Y0003529846D01*
X0002132752Y0003529846D01*
X0002136501Y0003527971D01*
X0002138376Y0003526096D01*
X0002140251Y0003522347D01*
X0002140251Y0003511098D01*
X0002138376Y0003507349D01*
X0002136501Y0003505474D01*
X0002040251Y0003454855D02*
X0002040251Y0003432358D01*
X0002040251Y0003443607D02*
X0002000881Y0003443607D01*
X0002006505Y0003439857D01*
X0002010254Y0003436107D01*
X0002012129Y0003432358D01*
X0002040251Y0003492350D02*
X0002040251Y0003469853D01*
X0002040251Y0003481102D02*
X0002000881Y0003481102D01*
X0002006505Y0003477352D01*
X0002010254Y0003473603D01*
X0002012129Y0003469853D01*
X0002000881Y0003527971D02*
X0002000881Y0003509223D01*
X0002019628Y0003507349D01*
X0002017754Y0003509223D01*
X0002015879Y0003512973D01*
X0002015879Y0003522347D01*
X0002017754Y0003526096D01*
X0002019628Y0003527971D01*
X0002023378Y0003529846D01*
X0002032752Y0003529846D01*
X0002036501Y0003527971D01*
X0002038376Y0003526096D01*
X0002040251Y0003522347D01*
X0002040251Y0003512973D01*
X0002038376Y0003509223D01*
X0002036501Y0003507349D01*
X0001940251Y0003454855D02*
X0001940251Y0003432358D01*
X0001940251Y0003443607D02*
X0001900881Y0003443607D01*
X0001906505Y0003439857D01*
X0001910254Y0003436107D01*
X0001912129Y0003432358D01*
X0001940251Y0003492350D02*
X0001940251Y0003469853D01*
X0001940251Y0003481102D02*
X0001900881Y0003481102D01*
X0001906505Y0003477352D01*
X0001910254Y0003473603D01*
X0001912129Y0003469853D01*
X0001900881Y0003505474D02*
X0001900881Y0003531721D01*
X0001940251Y0003514848D01*
X0001840251Y0003454855D02*
X0001840251Y0003432358D01*
X0001840251Y0003443607D02*
X0001800881Y0003443607D01*
X0001806505Y0003439857D01*
X0001810254Y0003436107D01*
X0001812129Y0003432358D01*
X0001840251Y0003492350D02*
X0001840251Y0003469853D01*
X0001840251Y0003481102D02*
X0001800881Y0003481102D01*
X0001806505Y0003477352D01*
X0001810254Y0003473603D01*
X0001812129Y0003469853D01*
X0001840251Y0003511098D02*
X0001840251Y0003518597D01*
X0001838376Y0003522347D01*
X0001836501Y0003524222D01*
X0001830877Y0003527971D01*
X0001823378Y0003529846D01*
X0001808380Y0003529846D01*
X0001804630Y0003527971D01*
X0001802755Y0003526096D01*
X0001800881Y0003522347D01*
X0001800881Y0003514848D01*
X0001802755Y0003511098D01*
X0001804630Y0003509223D01*
X0001808380Y0003507349D01*
X0001817754Y0003507349D01*
X0001821503Y0003509223D01*
X0001823378Y0003511098D01*
X0001825253Y0003514848D01*
X0001825253Y0003522347D01*
X0001823378Y0003526096D01*
X0001821503Y0003527971D01*
X0001817754Y0003529846D01*
X0001740251Y0003454855D02*
X0001740251Y0003432358D01*
X0001740251Y0003443607D02*
X0001700881Y0003443607D01*
X0001706505Y0003439857D01*
X0001710254Y0003436107D01*
X0001712129Y0003432358D01*
X0001704630Y0003469853D02*
X0001702755Y0003471728D01*
X0001700881Y0003475478D01*
X0001700881Y0003484851D01*
X0001702755Y0003488601D01*
X0001704630Y0003490476D01*
X0001708380Y0003492350D01*
X0001712129Y0003492350D01*
X0001717754Y0003490476D01*
X0001740251Y0003467979D01*
X0001740251Y0003492350D01*
X0001740251Y0003529846D02*
X0001740251Y0003507349D01*
X0001740251Y0003518597D02*
X0001700881Y0003518597D01*
X0001706505Y0003514848D01*
X0001710254Y0003511098D01*
X0001712129Y0003507349D01*
X0001640251Y0003454855D02*
X0001640251Y0003432358D01*
X0001640251Y0003443607D02*
X0001600881Y0003443607D01*
X0001606505Y0003439857D01*
X0001610254Y0003436107D01*
X0001612129Y0003432358D01*
X0001604630Y0003469853D02*
X0001602755Y0003471728D01*
X0001600881Y0003475478D01*
X0001600881Y0003484851D01*
X0001602755Y0003488601D01*
X0001604630Y0003490476D01*
X0001608380Y0003492350D01*
X0001612129Y0003492350D01*
X0001617754Y0003490476D01*
X0001640251Y0003467979D01*
X0001640251Y0003492350D01*
X0001600881Y0003505474D02*
X0001600881Y0003529846D01*
X0001615879Y0003516722D01*
X0001615879Y0003522347D01*
X0001617754Y0003526096D01*
X0001619628Y0003527971D01*
X0001623378Y0003529846D01*
X0001632752Y0003529846D01*
X0001636501Y0003527971D01*
X0001638376Y0003526096D01*
X0001640251Y0003522347D01*
X0001640251Y0003511098D01*
X0001638376Y0003507349D01*
X0001636501Y0003505474D01*
X0001540251Y0003454855D02*
X0001540251Y0003432358D01*
X0001540251Y0003443607D02*
X0001500881Y0003443607D01*
X0001506505Y0003439857D01*
X0001510254Y0003436107D01*
X0001512129Y0003432358D01*
X0001504630Y0003469853D02*
X0001502755Y0003471728D01*
X0001500881Y0003475478D01*
X0001500881Y0003484851D01*
X0001502755Y0003488601D01*
X0001504630Y0003490476D01*
X0001508380Y0003492350D01*
X0001512129Y0003492350D01*
X0001517754Y0003490476D01*
X0001540251Y0003467979D01*
X0001540251Y0003492350D01*
X0001500881Y0003527971D02*
X0001500881Y0003509223D01*
X0001519628Y0003507349D01*
X0001517754Y0003509223D01*
X0001515879Y0003512973D01*
X0001515879Y0003522347D01*
X0001517754Y0003526096D01*
X0001519628Y0003527971D01*
X0001523378Y0003529846D01*
X0001532752Y0003529846D01*
X0001536501Y0003527971D01*
X0001538376Y0003526096D01*
X0001540251Y0003522347D01*
X0001540251Y0003512973D01*
X0001538376Y0003509223D01*
X0001536501Y0003507349D01*
X0001440251Y0003454855D02*
X0001440251Y0003432358D01*
X0001440251Y0003443607D02*
X0001400881Y0003443607D01*
X0001406505Y0003439857D01*
X0001410254Y0003436107D01*
X0001412129Y0003432358D01*
X0001404630Y0003469853D02*
X0001402755Y0003471728D01*
X0001400881Y0003475478D01*
X0001400881Y0003484851D01*
X0001402755Y0003488601D01*
X0001404630Y0003490476D01*
X0001408380Y0003492350D01*
X0001412129Y0003492350D01*
X0001417754Y0003490476D01*
X0001440251Y0003467979D01*
X0001440251Y0003492350D01*
X0001400881Y0003505474D02*
X0001400881Y0003531721D01*
X0001440251Y0003514848D01*
X0001340251Y0003454855D02*
X0001340251Y0003432358D01*
X0001340251Y0003443607D02*
X0001300881Y0003443607D01*
X0001306505Y0003439857D01*
X0001310254Y0003436107D01*
X0001312129Y0003432358D01*
X0001304630Y0003469853D02*
X0001302755Y0003471728D01*
X0001300881Y0003475478D01*
X0001300881Y0003484851D01*
X0001302755Y0003488601D01*
X0001304630Y0003490476D01*
X0001308380Y0003492350D01*
X0001312129Y0003492350D01*
X0001317753Y0003490476D01*
X0001340251Y0003467979D01*
X0001340251Y0003492350D01*
X0001340251Y0003511098D02*
X0001340251Y0003518597D01*
X0001338376Y0003522347D01*
X0001336501Y0003524222D01*
X0001330877Y0003527971D01*
X0001323378Y0003529846D01*
X0001308380Y0003529846D01*
X0001304630Y0003527971D01*
X0001302755Y0003526096D01*
X0001300881Y0003522347D01*
X0001300881Y0003514848D01*
X0001302755Y0003511098D01*
X0001304630Y0003509223D01*
X0001308380Y0003507349D01*
X0001317753Y0003507349D01*
X0001321503Y0003509223D01*
X0001323378Y0003511098D01*
X0001325253Y0003514848D01*
X0001325253Y0003522347D01*
X0001323378Y0003526096D01*
X0001321503Y0003527971D01*
X0001317753Y0003529846D01*
X0001240251Y0003454855D02*
X0001240251Y0003432358D01*
X0001240251Y0003443607D02*
X0001200881Y0003443607D01*
X0001206505Y0003439857D01*
X0001210254Y0003436107D01*
X0001212129Y0003432358D01*
X0001200881Y0003467979D02*
X0001200881Y0003492350D01*
X0001215879Y0003479227D01*
X0001215879Y0003484851D01*
X0001217754Y0003488601D01*
X0001219628Y0003490476D01*
X0001223378Y0003492350D01*
X0001232752Y0003492350D01*
X0001236501Y0003490476D01*
X0001238376Y0003488601D01*
X0001240251Y0003484851D01*
X0001240251Y0003473603D01*
X0001238376Y0003469853D01*
X0001236501Y0003467979D01*
X0001240251Y0003529846D02*
X0001240251Y0003507349D01*
X0001240251Y0003518597D02*
X0001200881Y0003518597D01*
X0001206505Y0003514848D01*
X0001210254Y0003511098D01*
X0001212129Y0003507349D01*
X0001140251Y0003454855D02*
X0001140251Y0003432358D01*
X0001140251Y0003443607D02*
X0001100881Y0003443607D01*
X0001106505Y0003439857D01*
X0001110254Y0003436107D01*
X0001112129Y0003432358D01*
X0001100881Y0003467979D02*
X0001100881Y0003492350D01*
X0001115879Y0003479227D01*
X0001115879Y0003484851D01*
X0001117754Y0003488601D01*
X0001119628Y0003490476D01*
X0001123378Y0003492350D01*
X0001132752Y0003492350D01*
X0001136501Y0003490476D01*
X0001138376Y0003488601D01*
X0001140251Y0003484851D01*
X0001140251Y0003473603D01*
X0001138376Y0003469853D01*
X0001136501Y0003467979D01*
X0001100881Y0003505474D02*
X0001100881Y0003529846D01*
X0001115879Y0003516722D01*
X0001115879Y0003522347D01*
X0001117754Y0003526096D01*
X0001119628Y0003527971D01*
X0001123378Y0003529846D01*
X0001132752Y0003529846D01*
X0001136501Y0003527971D01*
X0001138376Y0003526096D01*
X0001140251Y0003522347D01*
X0001140251Y0003511098D01*
X0001138376Y0003507349D01*
X0001136501Y0003505474D01*
X0001040251Y0003454855D02*
X0001040251Y0003432358D01*
X0001040251Y0003443607D02*
X0001000881Y0003443607D01*
X0001006505Y0003439857D01*
X0001010254Y0003436107D01*
X0001012129Y0003432358D01*
X0001000881Y0003467979D02*
X0001000881Y0003492350D01*
X0001015879Y0003479227D01*
X0001015879Y0003484851D01*
X0001017754Y0003488601D01*
X0001019628Y0003490476D01*
X0001023378Y0003492350D01*
X0001032752Y0003492350D01*
X0001036501Y0003490476D01*
X0001038376Y0003488601D01*
X0001040251Y0003484851D01*
X0001040251Y0003473603D01*
X0001038376Y0003469853D01*
X0001036501Y0003467979D01*
X0001000881Y0003527971D02*
X0001000881Y0003509223D01*
X0001019628Y0003507349D01*
X0001017754Y0003509223D01*
X0001015879Y0003512973D01*
X0001015879Y0003522347D01*
X0001017754Y0003526096D01*
X0001019628Y0003527971D01*
X0001023378Y0003529846D01*
X0001032752Y0003529846D01*
X0001036501Y0003527971D01*
X0001038376Y0003526096D01*
X0001040251Y0003522347D01*
X0001040251Y0003512973D01*
X0001038376Y0003509223D01*
X0001036501Y0003507349D01*
X0000940251Y0003454855D02*
X0000940251Y0003432358D01*
X0000940251Y0003443607D02*
X0000900881Y0003443607D01*
X0000906505Y0003439857D01*
X0000910254Y0003436107D01*
X0000912129Y0003432358D01*
X0000900881Y0003467979D02*
X0000900881Y0003492350D01*
X0000915879Y0003479227D01*
X0000915879Y0003484851D01*
X0000917754Y0003488601D01*
X0000919628Y0003490476D01*
X0000923378Y0003492350D01*
X0000932752Y0003492350D01*
X0000936501Y0003490476D01*
X0000938376Y0003488601D01*
X0000940251Y0003484851D01*
X0000940251Y0003473603D01*
X0000938376Y0003469853D01*
X0000936501Y0003467979D01*
X0000900881Y0003505474D02*
X0000900881Y0003531721D01*
X0000940251Y0003514848D01*
X0000840251Y0003454855D02*
X0000840251Y0003432358D01*
X0000840251Y0003443607D02*
X0000800881Y0003443607D01*
X0000806505Y0003439857D01*
X0000810254Y0003436107D01*
X0000812129Y0003432358D01*
X0000800881Y0003467979D02*
X0000800881Y0003492350D01*
X0000815879Y0003479227D01*
X0000815879Y0003484851D01*
X0000817754Y0003488601D01*
X0000819628Y0003490476D01*
X0000823378Y0003492350D01*
X0000832752Y0003492350D01*
X0000836501Y0003490476D01*
X0000838376Y0003488601D01*
X0000840251Y0003484851D01*
X0000840251Y0003473603D01*
X0000838376Y0003469853D01*
X0000836501Y0003467979D01*
X0000840251Y0003511098D02*
X0000840251Y0003518597D01*
X0000838376Y0003522347D01*
X0000836501Y0003524222D01*
X0000830877Y0003527971D01*
X0000823378Y0003529846D01*
X0000808380Y0003529846D01*
X0000804630Y0003527971D01*
X0000802755Y0003526096D01*
X0000800881Y0003522347D01*
X0000800881Y0003514848D01*
X0000802755Y0003511098D01*
X0000804630Y0003509223D01*
X0000808380Y0003507349D01*
X0000817754Y0003507349D01*
X0000821503Y0003509223D01*
X0000823378Y0003511098D01*
X0000825253Y0003514848D01*
X0000825253Y0003522347D01*
X0000823378Y0003526096D01*
X0000821503Y0003527971D01*
X0000817754Y0003529846D01*
X0000740251Y0003454855D02*
X0000740251Y0003432358D01*
X0000740251Y0003443607D02*
X0000700881Y0003443607D01*
X0000706505Y0003439857D01*
X0000710254Y0003436107D01*
X0000712129Y0003432358D01*
X0000714004Y0003488601D02*
X0000740251Y0003488601D01*
X0000699006Y0003479227D02*
X0000727127Y0003469853D01*
X0000727127Y0003494225D01*
X0000740251Y0003529846D02*
X0000740251Y0003507349D01*
X0000740251Y0003518597D02*
X0000700881Y0003518597D01*
X0000706505Y0003514848D01*
X0000710254Y0003511098D01*
X0000712129Y0003507349D01*
X0000637888Y0003450524D02*
X0000637888Y0003428027D01*
X0000637888Y0003439276D02*
X0000598518Y0003439276D01*
X0000604143Y0003435526D01*
X0000607892Y0003431777D01*
X0000609767Y0003428027D01*
X0000611642Y0003484270D02*
X0000637888Y0003484270D01*
X0000596644Y0003474896D02*
X0000624765Y0003465523D01*
X0000624765Y0003489895D01*
X0000598518Y0003501143D02*
X0000598518Y0003525515D01*
X0000613517Y0003512392D01*
X0000613517Y0003518016D01*
X0000615391Y0003521766D01*
X0000617266Y0003523640D01*
X0000621016Y0003525515D01*
X0000630389Y0003525515D01*
X0000634139Y0003523640D01*
X0000636014Y0003521766D01*
X0000637888Y0003518016D01*
X0000637888Y0003506767D01*
X0000636014Y0003503018D01*
X0000634139Y0003501143D01*
X0002331589Y0003830052D02*
X0002331589Y0003807555D01*
X0002331589Y0003818803D02*
X0002292219Y0003818803D01*
X0002297844Y0003815054D01*
X0002301593Y0003811304D01*
X0002303468Y0003807555D01*
X0002331589Y0003867547D02*
X0002331589Y0003845050D01*
X0002331589Y0003856299D02*
X0002292219Y0003856299D01*
X0002297844Y0003852549D01*
X0002301593Y0003848800D01*
X0002303468Y0003845050D01*
X0002292219Y0003891919D02*
X0002292219Y0003895669D01*
X0002294094Y0003899418D01*
X0002295969Y0003901293D01*
X0002299718Y0003903168D01*
X0002307217Y0003905043D01*
X0002316591Y0003905043D01*
X0002324090Y0003903168D01*
X0002327840Y0003901293D01*
X0002329715Y0003899418D01*
X0002331589Y0003895669D01*
X0002331589Y0003891919D01*
X0002329715Y0003888170D01*
X0002327840Y0003886295D01*
X0002324090Y0003884420D01*
X0002316591Y0003882545D01*
X0002307217Y0003882545D01*
X0002299718Y0003884420D01*
X0002295969Y0003886295D01*
X0002294094Y0003888170D01*
X0002292219Y0003891919D01*
X0002231589Y0003830052D02*
X0002231589Y0003807555D01*
X0002231589Y0003818803D02*
X0002192219Y0003818803D01*
X0002197844Y0003815054D01*
X0002201593Y0003811304D01*
X0002203468Y0003807555D01*
X0002231589Y0003867547D02*
X0002231589Y0003845050D01*
X0002231589Y0003856299D02*
X0002192219Y0003856299D01*
X0002197844Y0003852549D01*
X0002201593Y0003848800D01*
X0002203468Y0003845050D01*
X0002195969Y0003882545D02*
X0002194094Y0003884420D01*
X0002192219Y0003888170D01*
X0002192219Y0003897544D01*
X0002194094Y0003901293D01*
X0002195969Y0003903168D01*
X0002199718Y0003905043D01*
X0002203468Y0003905043D01*
X0002209092Y0003903168D01*
X0002231589Y0003880671D01*
X0002231589Y0003905043D01*
X0002131589Y0003830052D02*
X0002131589Y0003807555D01*
X0002131589Y0003818803D02*
X0002092219Y0003818803D01*
X0002097844Y0003815054D01*
X0002101593Y0003811304D01*
X0002103468Y0003807555D01*
X0002131589Y0003867547D02*
X0002131589Y0003845050D01*
X0002131589Y0003856299D02*
X0002092219Y0003856299D01*
X0002097844Y0003852549D01*
X0002101593Y0003848800D01*
X0002103468Y0003845050D01*
X0002105343Y0003901293D02*
X0002131589Y0003901293D01*
X0002090344Y0003891919D02*
X0002118466Y0003882545D01*
X0002118466Y0003906917D01*
X0002031589Y0003830052D02*
X0002031589Y0003807555D01*
X0002031589Y0003818803D02*
X0001992219Y0003818803D01*
X0001997844Y0003815054D01*
X0002001593Y0003811304D01*
X0002003468Y0003807555D01*
X0002031589Y0003867547D02*
X0002031589Y0003845050D01*
X0002031589Y0003856299D02*
X0001992219Y0003856299D01*
X0001997844Y0003852549D01*
X0002001593Y0003848800D01*
X0002003468Y0003845050D01*
X0001992219Y0003901293D02*
X0001992219Y0003893794D01*
X0001994094Y0003890045D01*
X0001995969Y0003888170D01*
X0002001593Y0003884420D01*
X0002009092Y0003882545D01*
X0002024090Y0003882545D01*
X0002027840Y0003884420D01*
X0002029715Y0003886295D01*
X0002031589Y0003890045D01*
X0002031589Y0003897544D01*
X0002029715Y0003901293D01*
X0002027840Y0003903168D01*
X0002024090Y0003905043D01*
X0002014716Y0003905043D01*
X0002010967Y0003903168D01*
X0002009092Y0003901293D01*
X0002007217Y0003897544D01*
X0002007217Y0003890045D01*
X0002009092Y0003886295D01*
X0002010967Y0003884420D01*
X0002014716Y0003882545D01*
X0001931589Y0003830052D02*
X0001931589Y0003807555D01*
X0001931589Y0003818803D02*
X0001892219Y0003818803D01*
X0001897844Y0003815054D01*
X0001901593Y0003811304D01*
X0001903468Y0003807555D01*
X0001931589Y0003867547D02*
X0001931589Y0003845050D01*
X0001931589Y0003856299D02*
X0001892219Y0003856299D01*
X0001897844Y0003852549D01*
X0001901593Y0003848800D01*
X0001903468Y0003845050D01*
X0001909092Y0003890045D02*
X0001907217Y0003886295D01*
X0001905343Y0003884420D01*
X0001901593Y0003882545D01*
X0001899718Y0003882545D01*
X0001895969Y0003884420D01*
X0001894094Y0003886295D01*
X0001892219Y0003890045D01*
X0001892219Y0003897544D01*
X0001894094Y0003901293D01*
X0001895969Y0003903168D01*
X0001899718Y0003905043D01*
X0001901593Y0003905043D01*
X0001905343Y0003903168D01*
X0001907217Y0003901293D01*
X0001909092Y0003897544D01*
X0001909092Y0003890045D01*
X0001910967Y0003886295D01*
X0001912842Y0003884420D01*
X0001916591Y0003882545D01*
X0001924090Y0003882545D01*
X0001927840Y0003884420D01*
X0001929715Y0003886295D01*
X0001931589Y0003890045D01*
X0001931589Y0003897544D01*
X0001929715Y0003901293D01*
X0001927840Y0003903168D01*
X0001924090Y0003905043D01*
X0001916591Y0003905043D01*
X0001912842Y0003903168D01*
X0001910967Y0003901293D01*
X0001909092Y0003897544D01*
X0001831589Y0003830052D02*
X0001831589Y0003807555D01*
X0001831589Y0003818803D02*
X0001792219Y0003818803D01*
X0001797844Y0003815054D01*
X0001801593Y0003811304D01*
X0001803468Y0003807555D01*
X0001795969Y0003845050D02*
X0001794094Y0003846925D01*
X0001792219Y0003850674D01*
X0001792219Y0003860048D01*
X0001794094Y0003863798D01*
X0001795969Y0003865673D01*
X0001799718Y0003867547D01*
X0001803468Y0003867547D01*
X0001809092Y0003865673D01*
X0001831589Y0003843175D01*
X0001831589Y0003867547D01*
X0001792219Y0003891919D02*
X0001792219Y0003895669D01*
X0001794094Y0003899418D01*
X0001795969Y0003901293D01*
X0001799718Y0003903168D01*
X0001807217Y0003905043D01*
X0001816591Y0003905043D01*
X0001824090Y0003903168D01*
X0001827840Y0003901293D01*
X0001829715Y0003899418D01*
X0001831589Y0003895669D01*
X0001831589Y0003891919D01*
X0001829715Y0003888170D01*
X0001827840Y0003886295D01*
X0001824090Y0003884420D01*
X0001816591Y0003882545D01*
X0001807217Y0003882545D01*
X0001799718Y0003884420D01*
X0001795969Y0003886295D01*
X0001794094Y0003888170D01*
X0001792219Y0003891919D01*
X0001731589Y0003830052D02*
X0001731589Y0003807555D01*
X0001731589Y0003818803D02*
X0001692219Y0003818803D01*
X0001697844Y0003815054D01*
X0001701593Y0003811304D01*
X0001703468Y0003807555D01*
X0001695969Y0003845050D02*
X0001694094Y0003846925D01*
X0001692219Y0003850674D01*
X0001692219Y0003860048D01*
X0001694094Y0003863798D01*
X0001695969Y0003865673D01*
X0001699718Y0003867547D01*
X0001703468Y0003867547D01*
X0001709092Y0003865673D01*
X0001731589Y0003843175D01*
X0001731589Y0003867547D01*
X0001695969Y0003882545D02*
X0001694094Y0003884420D01*
X0001692219Y0003888170D01*
X0001692219Y0003897544D01*
X0001694094Y0003901293D01*
X0001695969Y0003903168D01*
X0001699718Y0003905043D01*
X0001703468Y0003905043D01*
X0001709092Y0003903168D01*
X0001731589Y0003880671D01*
X0001731589Y0003905043D01*
X0001631589Y0003830052D02*
X0001631589Y0003807555D01*
X0001631589Y0003818803D02*
X0001592219Y0003818803D01*
X0001597844Y0003815054D01*
X0001601593Y0003811304D01*
X0001603468Y0003807555D01*
X0001595969Y0003845050D02*
X0001594094Y0003846925D01*
X0001592219Y0003850674D01*
X0001592219Y0003860048D01*
X0001594094Y0003863798D01*
X0001595969Y0003865673D01*
X0001599718Y0003867547D01*
X0001603468Y0003867547D01*
X0001609092Y0003865673D01*
X0001631589Y0003843175D01*
X0001631589Y0003867547D01*
X0001605343Y0003901293D02*
X0001631589Y0003901293D01*
X0001590344Y0003891919D02*
X0001618466Y0003882545D01*
X0001618466Y0003906917D01*
X0001531589Y0003830052D02*
X0001531589Y0003807555D01*
X0001531589Y0003818803D02*
X0001492219Y0003818803D01*
X0001497844Y0003815054D01*
X0001501593Y0003811304D01*
X0001503468Y0003807555D01*
X0001495969Y0003845050D02*
X0001494094Y0003846925D01*
X0001492219Y0003850674D01*
X0001492219Y0003860048D01*
X0001494094Y0003863798D01*
X0001495969Y0003865673D01*
X0001499718Y0003867547D01*
X0001503468Y0003867547D01*
X0001509092Y0003865673D01*
X0001531589Y0003843175D01*
X0001531589Y0003867547D01*
X0001492219Y0003901293D02*
X0001492219Y0003893794D01*
X0001494094Y0003890045D01*
X0001495969Y0003888170D01*
X0001501593Y0003884420D01*
X0001509092Y0003882545D01*
X0001524090Y0003882545D01*
X0001527840Y0003884420D01*
X0001529715Y0003886295D01*
X0001531589Y0003890045D01*
X0001531589Y0003897544D01*
X0001529715Y0003901293D01*
X0001527840Y0003903168D01*
X0001524090Y0003905043D01*
X0001514716Y0003905043D01*
X0001510967Y0003903168D01*
X0001509092Y0003901293D01*
X0001507217Y0003897544D01*
X0001507217Y0003890045D01*
X0001509092Y0003886295D01*
X0001510967Y0003884420D01*
X0001514716Y0003882545D01*
X0001431589Y0003830052D02*
X0001431589Y0003807555D01*
X0001431589Y0003818803D02*
X0001392219Y0003818803D01*
X0001397844Y0003815054D01*
X0001401593Y0003811304D01*
X0001403468Y0003807555D01*
X0001395969Y0003845050D02*
X0001394094Y0003846925D01*
X0001392219Y0003850674D01*
X0001392219Y0003860048D01*
X0001394094Y0003863798D01*
X0001395969Y0003865673D01*
X0001399718Y0003867547D01*
X0001403468Y0003867547D01*
X0001409092Y0003865673D01*
X0001431589Y0003843175D01*
X0001431589Y0003867547D01*
X0001409092Y0003890045D02*
X0001407217Y0003886295D01*
X0001405343Y0003884420D01*
X0001401593Y0003882545D01*
X0001399718Y0003882545D01*
X0001395969Y0003884420D01*
X0001394094Y0003886295D01*
X0001392219Y0003890045D01*
X0001392219Y0003897544D01*
X0001394094Y0003901293D01*
X0001395969Y0003903168D01*
X0001399718Y0003905043D01*
X0001401593Y0003905043D01*
X0001405343Y0003903168D01*
X0001407217Y0003901293D01*
X0001409092Y0003897544D01*
X0001409092Y0003890045D01*
X0001410967Y0003886295D01*
X0001412842Y0003884420D01*
X0001416591Y0003882545D01*
X0001424090Y0003882545D01*
X0001427840Y0003884420D01*
X0001429715Y0003886295D01*
X0001431589Y0003890045D01*
X0001431589Y0003897544D01*
X0001429715Y0003901293D01*
X0001427840Y0003903168D01*
X0001424090Y0003905043D01*
X0001416591Y0003905043D01*
X0001412842Y0003903168D01*
X0001410967Y0003901293D01*
X0001409092Y0003897544D01*
X0001331589Y0003830052D02*
X0001331589Y0003807555D01*
X0001331589Y0003818803D02*
X0001292219Y0003818803D01*
X0001297844Y0003815054D01*
X0001301593Y0003811304D01*
X0001303468Y0003807555D01*
X0001292219Y0003843175D02*
X0001292219Y0003867547D01*
X0001307217Y0003854424D01*
X0001307217Y0003860048D01*
X0001309092Y0003863798D01*
X0001310967Y0003865673D01*
X0001314716Y0003867547D01*
X0001324090Y0003867547D01*
X0001327840Y0003865673D01*
X0001329715Y0003863798D01*
X0001331589Y0003860048D01*
X0001331589Y0003848800D01*
X0001329715Y0003845050D01*
X0001327840Y0003843175D01*
X0001292219Y0003891919D02*
X0001292219Y0003895669D01*
X0001294094Y0003899418D01*
X0001295969Y0003901293D01*
X0001299718Y0003903168D01*
X0001307217Y0003905043D01*
X0001316591Y0003905043D01*
X0001324090Y0003903168D01*
X0001327840Y0003901293D01*
X0001329715Y0003899418D01*
X0001331589Y0003895669D01*
X0001331589Y0003891919D01*
X0001329715Y0003888170D01*
X0001327840Y0003886295D01*
X0001324090Y0003884420D01*
X0001316591Y0003882545D01*
X0001307217Y0003882545D01*
X0001299718Y0003884420D01*
X0001295969Y0003886295D01*
X0001294094Y0003888170D01*
X0001292219Y0003891919D01*
X0001231589Y0003830052D02*
X0001231589Y0003807555D01*
X0001231589Y0003818803D02*
X0001192219Y0003818803D01*
X0001197844Y0003815054D01*
X0001201593Y0003811304D01*
X0001203468Y0003807555D01*
X0001192219Y0003843175D02*
X0001192219Y0003867547D01*
X0001207217Y0003854424D01*
X0001207217Y0003860048D01*
X0001209092Y0003863798D01*
X0001210967Y0003865673D01*
X0001214716Y0003867547D01*
X0001224090Y0003867547D01*
X0001227840Y0003865673D01*
X0001229715Y0003863798D01*
X0001231589Y0003860048D01*
X0001231589Y0003848800D01*
X0001229715Y0003845050D01*
X0001227840Y0003843175D01*
X0001195969Y0003882545D02*
X0001194094Y0003884420D01*
X0001192219Y0003888170D01*
X0001192219Y0003897544D01*
X0001194094Y0003901293D01*
X0001195969Y0003903168D01*
X0001199718Y0003905043D01*
X0001203468Y0003905043D01*
X0001209092Y0003903168D01*
X0001231589Y0003880671D01*
X0001231589Y0003905043D01*
X0001131589Y0003830052D02*
X0001131589Y0003807555D01*
X0001131589Y0003818803D02*
X0001092219Y0003818803D01*
X0001097844Y0003815054D01*
X0001101593Y0003811304D01*
X0001103468Y0003807555D01*
X0001092219Y0003843175D02*
X0001092219Y0003867547D01*
X0001107217Y0003854424D01*
X0001107217Y0003860048D01*
X0001109092Y0003863798D01*
X0001110967Y0003865673D01*
X0001114716Y0003867547D01*
X0001124090Y0003867547D01*
X0001127840Y0003865673D01*
X0001129715Y0003863798D01*
X0001131589Y0003860048D01*
X0001131589Y0003848800D01*
X0001129715Y0003845050D01*
X0001127840Y0003843175D01*
X0001105343Y0003901293D02*
X0001131589Y0003901293D01*
X0001090344Y0003891919D02*
X0001118466Y0003882545D01*
X0001118466Y0003906917D01*
X0001031589Y0003830052D02*
X0001031589Y0003807555D01*
X0001031589Y0003818803D02*
X0000992219Y0003818803D01*
X0000997844Y0003815054D01*
X0001001593Y0003811304D01*
X0001003468Y0003807555D01*
X0000992219Y0003843175D02*
X0000992219Y0003867547D01*
X0001007217Y0003854424D01*
X0001007217Y0003860048D01*
X0001009092Y0003863798D01*
X0001010967Y0003865673D01*
X0001014716Y0003867547D01*
X0001024090Y0003867547D01*
X0001027840Y0003865673D01*
X0001029715Y0003863798D01*
X0001031589Y0003860048D01*
X0001031589Y0003848800D01*
X0001029715Y0003845050D01*
X0001027840Y0003843175D01*
X0000992219Y0003901293D02*
X0000992219Y0003893794D01*
X0000994094Y0003890045D01*
X0000995969Y0003888170D01*
X0001001593Y0003884420D01*
X0001009092Y0003882545D01*
X0001024090Y0003882545D01*
X0001027840Y0003884420D01*
X0001029715Y0003886295D01*
X0001031589Y0003890045D01*
X0001031589Y0003897544D01*
X0001029715Y0003901293D01*
X0001027840Y0003903168D01*
X0001024090Y0003905043D01*
X0001014716Y0003905043D01*
X0001010967Y0003903168D01*
X0001009092Y0003901293D01*
X0001007217Y0003897544D01*
X0001007217Y0003890045D01*
X0001009092Y0003886295D01*
X0001010967Y0003884420D01*
X0001014716Y0003882545D01*
X0000931589Y0003830052D02*
X0000931589Y0003807555D01*
X0000931589Y0003818803D02*
X0000892219Y0003818803D01*
X0000897844Y0003815054D01*
X0000901593Y0003811304D01*
X0000903468Y0003807555D01*
X0000892219Y0003843175D02*
X0000892219Y0003867547D01*
X0000907217Y0003854424D01*
X0000907217Y0003860048D01*
X0000909092Y0003863798D01*
X0000910967Y0003865673D01*
X0000914716Y0003867547D01*
X0000924090Y0003867547D01*
X0000927840Y0003865673D01*
X0000929715Y0003863798D01*
X0000931589Y0003860048D01*
X0000931589Y0003848800D01*
X0000929715Y0003845050D01*
X0000927840Y0003843175D01*
X0000909092Y0003890045D02*
X0000907217Y0003886295D01*
X0000905343Y0003884420D01*
X0000901593Y0003882545D01*
X0000899718Y0003882545D01*
X0000895969Y0003884420D01*
X0000894094Y0003886295D01*
X0000892219Y0003890045D01*
X0000892219Y0003897544D01*
X0000894094Y0003901293D01*
X0000895969Y0003903168D01*
X0000899718Y0003905043D01*
X0000901593Y0003905043D01*
X0000905343Y0003903168D01*
X0000907217Y0003901293D01*
X0000909092Y0003897544D01*
X0000909092Y0003890045D01*
X0000910967Y0003886295D01*
X0000912842Y0003884420D01*
X0000916591Y0003882545D01*
X0000924090Y0003882545D01*
X0000927840Y0003884420D01*
X0000929715Y0003886295D01*
X0000931589Y0003890045D01*
X0000931589Y0003897544D01*
X0000929715Y0003901293D01*
X0000927840Y0003903168D01*
X0000924090Y0003905043D01*
X0000916591Y0003905043D01*
X0000912842Y0003903168D01*
X0000910967Y0003901293D01*
X0000909092Y0003897544D01*
X0000831589Y0003830052D02*
X0000831589Y0003807555D01*
X0000831589Y0003818803D02*
X0000792219Y0003818803D01*
X0000797844Y0003815054D01*
X0000801593Y0003811304D01*
X0000803468Y0003807555D01*
X0000805343Y0003863798D02*
X0000831589Y0003863798D01*
X0000790344Y0003854424D02*
X0000818466Y0003845050D01*
X0000818466Y0003869422D01*
X0000792219Y0003891919D02*
X0000792219Y0003895669D01*
X0000794094Y0003899418D01*
X0000795969Y0003901293D01*
X0000799718Y0003903168D01*
X0000807217Y0003905043D01*
X0000816591Y0003905043D01*
X0000824090Y0003903168D01*
X0000827840Y0003901293D01*
X0000829715Y0003899418D01*
X0000831589Y0003895669D01*
X0000831589Y0003891919D01*
X0000829715Y0003888170D01*
X0000827840Y0003886295D01*
X0000824090Y0003884420D01*
X0000816591Y0003882545D01*
X0000807217Y0003882545D01*
X0000799718Y0003884420D01*
X0000795969Y0003886295D01*
X0000794094Y0003888170D01*
X0000792219Y0003891919D01*
X0000731589Y0003830052D02*
X0000731589Y0003807555D01*
X0000731589Y0003818803D02*
X0000692219Y0003818803D01*
X0000697844Y0003815054D01*
X0000701593Y0003811304D01*
X0000703468Y0003807555D01*
X0000705343Y0003863798D02*
X0000731589Y0003863798D01*
X0000690344Y0003854424D02*
X0000718466Y0003845050D01*
X0000718466Y0003869422D01*
X0000695969Y0003882545D02*
X0000694094Y0003884420D01*
X0000692219Y0003888170D01*
X0000692219Y0003897544D01*
X0000694094Y0003901293D01*
X0000695969Y0003903168D01*
X0000699718Y0003905043D01*
X0000703468Y0003905043D01*
X0000709092Y0003903168D01*
X0000731589Y0003880671D01*
X0000731589Y0003905043D01*
X0000631589Y0003830052D02*
X0000631589Y0003807555D01*
X0000631589Y0003818803D02*
X0000592219Y0003818803D01*
X0000597844Y0003815054D01*
X0000601593Y0003811304D01*
X0000603468Y0003807555D01*
X0000605343Y0003863798D02*
X0000631589Y0003863798D01*
X0000590344Y0003854424D02*
X0000618466Y0003845050D01*
X0000618466Y0003869422D01*
X0000605343Y0003901293D02*
X0000631589Y0003901293D01*
X0000590344Y0003891919D02*
X0000618466Y0003882545D01*
X0000618466Y0003906917D01*
X0002296550Y0001407892D02*
X0002296550Y0001434139D01*
X0002335920Y0001417266D01*
X0002335920Y0001469760D02*
X0002335920Y0001447262D01*
X0002335920Y0001458511D02*
X0002296550Y0001458511D01*
X0002302174Y0001454761D01*
X0002305924Y0001451012D01*
X0002307799Y0001447262D01*
X0002196944Y0001426152D02*
X0002196944Y0001418653D01*
X0002198818Y0001414904D01*
X0002200693Y0001413029D01*
X0002206317Y0001409280D01*
X0002213817Y0001407405D01*
X0002228815Y0001407405D01*
X0002232564Y0001409280D01*
X0002234439Y0001411154D01*
X0002236314Y0001414904D01*
X0002236314Y0001422403D01*
X0002234439Y0001426152D01*
X0002232564Y0001428027D01*
X0002228815Y0001429902D01*
X0002219441Y0001429902D01*
X0002215691Y0001428027D01*
X0002213817Y0001426152D01*
X0002211942Y0001422403D01*
X0002211942Y0001414904D01*
X0002213817Y0001411154D01*
X0002215691Y0001409280D01*
X0002219441Y0001407405D01*
X0002236314Y0001448650D02*
X0002236314Y0001456149D01*
X0002234439Y0001459898D01*
X0002232564Y0001461773D01*
X0002226940Y0001465523D01*
X0002219441Y0001467397D01*
X0002204443Y0001467397D01*
X0002200693Y0001465523D01*
X0002198818Y0001463648D01*
X0002196944Y0001459898D01*
X0002196944Y0001452399D01*
X0002198818Y0001448650D01*
X0002200693Y0001446775D01*
X0002204443Y0001444900D01*
X0002213817Y0001444900D01*
X0002217566Y0001446775D01*
X0002219441Y0001448650D01*
X0002221316Y0001452399D01*
X0002221316Y0001459898D01*
X0002219441Y0001463648D01*
X0002217566Y0001465523D01*
X0002213817Y0001467397D01*
X0002096944Y0001426152D02*
X0002096944Y0001418653D01*
X0002098818Y0001414904D01*
X0002100693Y0001413029D01*
X0002106317Y0001409280D01*
X0002113817Y0001407405D01*
X0002128815Y0001407405D01*
X0002132564Y0001409280D01*
X0002134439Y0001411154D01*
X0002136314Y0001414904D01*
X0002136314Y0001422403D01*
X0002134439Y0001426152D01*
X0002132564Y0001428027D01*
X0002128815Y0001429902D01*
X0002119441Y0001429902D01*
X0002115691Y0001428027D01*
X0002113817Y0001426152D01*
X0002111942Y0001422403D01*
X0002111942Y0001414904D01*
X0002113817Y0001411154D01*
X0002115691Y0001409280D01*
X0002119441Y0001407405D01*
X0002096944Y0001443025D02*
X0002096944Y0001469272D01*
X0002136314Y0001452399D01*
X0001996944Y0001426152D02*
X0001996944Y0001418653D01*
X0001998818Y0001414904D01*
X0002000693Y0001413029D01*
X0002006317Y0001409280D01*
X0002013817Y0001407405D01*
X0002028815Y0001407405D01*
X0002032564Y0001409280D01*
X0002034439Y0001411154D01*
X0002036314Y0001414904D01*
X0002036314Y0001422403D01*
X0002034439Y0001426152D01*
X0002032564Y0001428027D01*
X0002028815Y0001429902D01*
X0002019441Y0001429902D01*
X0002015691Y0001428027D01*
X0002013817Y0001426152D01*
X0002011942Y0001422403D01*
X0002011942Y0001414904D01*
X0002013817Y0001411154D01*
X0002015691Y0001409280D01*
X0002019441Y0001407405D01*
X0001996944Y0001465523D02*
X0001996944Y0001446775D01*
X0002015691Y0001444900D01*
X0002013817Y0001446775D01*
X0002011942Y0001450524D01*
X0002011942Y0001459898D01*
X0002013817Y0001463648D01*
X0002015691Y0001465523D01*
X0002019441Y0001467397D01*
X0002028815Y0001467397D01*
X0002032564Y0001465523D01*
X0002034439Y0001463648D01*
X0002036314Y0001459898D01*
X0002036314Y0001450524D01*
X0002034439Y0001446775D01*
X0002032564Y0001444900D01*
X0001896944Y0001426152D02*
X0001896944Y0001418653D01*
X0001898818Y0001414904D01*
X0001900693Y0001413029D01*
X0001906317Y0001409280D01*
X0001913817Y0001407405D01*
X0001928815Y0001407405D01*
X0001932564Y0001409280D01*
X0001934439Y0001411154D01*
X0001936314Y0001414904D01*
X0001936314Y0001422403D01*
X0001934439Y0001426152D01*
X0001932564Y0001428027D01*
X0001928815Y0001429902D01*
X0001919441Y0001429902D01*
X0001915691Y0001428027D01*
X0001913817Y0001426152D01*
X0001911942Y0001422403D01*
X0001911942Y0001414904D01*
X0001913817Y0001411154D01*
X0001915691Y0001409280D01*
X0001919441Y0001407405D01*
X0001896944Y0001443025D02*
X0001896944Y0001467397D01*
X0001911942Y0001454274D01*
X0001911942Y0001459898D01*
X0001913817Y0001463648D01*
X0001915691Y0001465523D01*
X0001919441Y0001467397D01*
X0001928815Y0001467397D01*
X0001932564Y0001465523D01*
X0001934439Y0001463648D01*
X0001936314Y0001459898D01*
X0001936314Y0001448650D01*
X0001934439Y0001444900D01*
X0001932564Y0001443025D01*
X0001796944Y0001426152D02*
X0001796944Y0001418653D01*
X0001798818Y0001414904D01*
X0001800693Y0001413029D01*
X0001806317Y0001409280D01*
X0001813817Y0001407405D01*
X0001828815Y0001407405D01*
X0001832564Y0001409280D01*
X0001834439Y0001411154D01*
X0001836314Y0001414904D01*
X0001836314Y0001422403D01*
X0001834439Y0001426152D01*
X0001832564Y0001428027D01*
X0001828815Y0001429902D01*
X0001819441Y0001429902D01*
X0001815691Y0001428027D01*
X0001813817Y0001426152D01*
X0001811942Y0001422403D01*
X0001811942Y0001414904D01*
X0001813817Y0001411154D01*
X0001815691Y0001409280D01*
X0001819441Y0001407405D01*
X0001836314Y0001467397D02*
X0001836314Y0001444900D01*
X0001836314Y0001456149D02*
X0001796944Y0001456149D01*
X0001802568Y0001452399D01*
X0001806317Y0001448650D01*
X0001808192Y0001444900D01*
X0001696944Y0001428027D02*
X0001696944Y0001409280D01*
X0001715691Y0001407405D01*
X0001713817Y0001409280D01*
X0001711942Y0001413029D01*
X0001711942Y0001422403D01*
X0001713817Y0001426152D01*
X0001715691Y0001428027D01*
X0001719441Y0001429902D01*
X0001728815Y0001429902D01*
X0001732564Y0001428027D01*
X0001734439Y0001426152D01*
X0001736314Y0001422403D01*
X0001736314Y0001413029D01*
X0001734439Y0001409280D01*
X0001732564Y0001407405D01*
X0001736314Y0001448650D02*
X0001736314Y0001456149D01*
X0001734439Y0001459898D01*
X0001732564Y0001461773D01*
X0001726940Y0001465523D01*
X0001719441Y0001467397D01*
X0001704443Y0001467397D01*
X0001700693Y0001465523D01*
X0001698818Y0001463648D01*
X0001696944Y0001459898D01*
X0001696944Y0001452399D01*
X0001698818Y0001448650D01*
X0001700693Y0001446775D01*
X0001704443Y0001444900D01*
X0001713817Y0001444900D01*
X0001717566Y0001446775D01*
X0001719441Y0001448650D01*
X0001721316Y0001452399D01*
X0001721316Y0001459898D01*
X0001719441Y0001463648D01*
X0001717566Y0001465523D01*
X0001713817Y0001467397D01*
X0001596944Y0001428027D02*
X0001596944Y0001409280D01*
X0001615691Y0001407405D01*
X0001613817Y0001409280D01*
X0001611942Y0001413029D01*
X0001611942Y0001422403D01*
X0001613817Y0001426152D01*
X0001615691Y0001428027D01*
X0001619441Y0001429902D01*
X0001628815Y0001429902D01*
X0001632564Y0001428027D01*
X0001634439Y0001426152D01*
X0001636314Y0001422403D01*
X0001636314Y0001413029D01*
X0001634439Y0001409280D01*
X0001632564Y0001407405D01*
X0001596944Y0001443025D02*
X0001596944Y0001469272D01*
X0001636314Y0001452399D01*
X0001496944Y0001428027D02*
X0001496944Y0001409280D01*
X0001515691Y0001407405D01*
X0001513817Y0001409280D01*
X0001511942Y0001413029D01*
X0001511942Y0001422403D01*
X0001513817Y0001426152D01*
X0001515691Y0001428027D01*
X0001519441Y0001429902D01*
X0001528815Y0001429902D01*
X0001532564Y0001428027D01*
X0001534439Y0001426152D01*
X0001536314Y0001422403D01*
X0001536314Y0001413029D01*
X0001534439Y0001409280D01*
X0001532564Y0001407405D01*
X0001496944Y0001465523D02*
X0001496944Y0001446775D01*
X0001515691Y0001444900D01*
X0001513817Y0001446775D01*
X0001511942Y0001450524D01*
X0001511942Y0001459898D01*
X0001513817Y0001463648D01*
X0001515691Y0001465523D01*
X0001519441Y0001467397D01*
X0001528815Y0001467397D01*
X0001532564Y0001465523D01*
X0001534439Y0001463648D01*
X0001536314Y0001459898D01*
X0001536314Y0001450524D01*
X0001534439Y0001446775D01*
X0001532564Y0001444900D01*
X0001396944Y0001428027D02*
X0001396944Y0001409280D01*
X0001415691Y0001407405D01*
X0001413817Y0001409280D01*
X0001411942Y0001413029D01*
X0001411942Y0001422403D01*
X0001413817Y0001426152D01*
X0001415691Y0001428027D01*
X0001419441Y0001429902D01*
X0001428815Y0001429902D01*
X0001432564Y0001428027D01*
X0001434439Y0001426152D01*
X0001436314Y0001422403D01*
X0001436314Y0001413029D01*
X0001434439Y0001409280D01*
X0001432564Y0001407405D01*
X0001396944Y0001443025D02*
X0001396944Y0001467397D01*
X0001411942Y0001454274D01*
X0001411942Y0001459898D01*
X0001413817Y0001463648D01*
X0001415691Y0001465523D01*
X0001419441Y0001467397D01*
X0001428815Y0001467397D01*
X0001432564Y0001465523D01*
X0001434439Y0001463648D01*
X0001436314Y0001459898D01*
X0001436314Y0001448650D01*
X0001434439Y0001444900D01*
X0001432564Y0001443025D01*
X0001296944Y0001428027D02*
X0001296944Y0001409280D01*
X0001315691Y0001407405D01*
X0001313817Y0001409280D01*
X0001311942Y0001413029D01*
X0001311942Y0001422403D01*
X0001313817Y0001426152D01*
X0001315691Y0001428027D01*
X0001319441Y0001429902D01*
X0001328815Y0001429902D01*
X0001332564Y0001428027D01*
X0001334439Y0001426152D01*
X0001336314Y0001422403D01*
X0001336314Y0001413029D01*
X0001334439Y0001409280D01*
X0001332564Y0001407405D01*
X0001336314Y0001467397D02*
X0001336314Y0001444900D01*
X0001336314Y0001456149D02*
X0001296944Y0001456149D01*
X0001302568Y0001452399D01*
X0001306317Y0001448650D01*
X0001308192Y0001444900D01*
X0001210067Y0001426152D02*
X0001236314Y0001426152D01*
X0001195069Y0001416779D02*
X0001223190Y0001407405D01*
X0001223190Y0001431777D01*
X0001236314Y0001448650D02*
X0001236314Y0001456149D01*
X0001234439Y0001459898D01*
X0001232564Y0001461773D01*
X0001226940Y0001465523D01*
X0001219441Y0001467397D01*
X0001204443Y0001467397D01*
X0001200693Y0001465523D01*
X0001198818Y0001463648D01*
X0001196944Y0001459898D01*
X0001196944Y0001452399D01*
X0001198818Y0001448650D01*
X0001200693Y0001446775D01*
X0001204443Y0001444900D01*
X0001213817Y0001444900D01*
X0001217566Y0001446775D01*
X0001219441Y0001448650D01*
X0001221316Y0001452399D01*
X0001221316Y0001459898D01*
X0001219441Y0001463648D01*
X0001217566Y0001465523D01*
X0001213817Y0001467397D01*
X0001110067Y0001426152D02*
X0001136314Y0001426152D01*
X0001095069Y0001416779D02*
X0001123190Y0001407405D01*
X0001123190Y0001431777D01*
X0001096944Y0001443025D02*
X0001096944Y0001469272D01*
X0001136314Y0001452399D01*
X0001010067Y0001426152D02*
X0001036314Y0001426152D01*
X0000995069Y0001416779D02*
X0001023190Y0001407405D01*
X0001023190Y0001431777D01*
X0000996944Y0001465523D02*
X0000996944Y0001446775D01*
X0001015691Y0001444900D01*
X0001013817Y0001446775D01*
X0001011942Y0001450524D01*
X0001011942Y0001459898D01*
X0001013817Y0001463648D01*
X0001015691Y0001465523D01*
X0001019441Y0001467397D01*
X0001028815Y0001467397D01*
X0001032564Y0001465523D01*
X0001034439Y0001463648D01*
X0001036314Y0001459898D01*
X0001036314Y0001450524D01*
X0001034439Y0001446775D01*
X0001032564Y0001444900D01*
X0000910067Y0001426152D02*
X0000936314Y0001426152D01*
X0000895069Y0001416779D02*
X0000923190Y0001407405D01*
X0000923190Y0001431777D01*
X0000896944Y0001443025D02*
X0000896944Y0001467397D01*
X0000911942Y0001454274D01*
X0000911942Y0001459898D01*
X0000913817Y0001463648D01*
X0000915691Y0001465523D01*
X0000919441Y0001467397D01*
X0000928815Y0001467397D01*
X0000932564Y0001465523D01*
X0000934439Y0001463648D01*
X0000936314Y0001459898D01*
X0000936314Y0001448650D01*
X0000934439Y0001444900D01*
X0000932564Y0001443025D01*
X0000810067Y0001426152D02*
X0000836314Y0001426152D01*
X0000795069Y0001416779D02*
X0000823190Y0001407405D01*
X0000823190Y0001431777D01*
X0000836314Y0001467397D02*
X0000836314Y0001444900D01*
X0000836314Y0001456149D02*
X0000796944Y0001456149D01*
X0000802568Y0001452399D01*
X0000806317Y0001448650D01*
X0000808192Y0001444900D01*
X0000696944Y0001405530D02*
X0000696944Y0001429902D01*
X0000711942Y0001416779D01*
X0000711942Y0001422403D01*
X0000713817Y0001426152D01*
X0000715691Y0001428027D01*
X0000719441Y0001429902D01*
X0000728815Y0001429902D01*
X0000732564Y0001428027D01*
X0000734439Y0001426152D01*
X0000736314Y0001422403D01*
X0000736314Y0001411154D01*
X0000734439Y0001407405D01*
X0000732564Y0001405530D01*
X0000736314Y0001448650D02*
X0000736314Y0001456149D01*
X0000734439Y0001459898D01*
X0000732564Y0001461773D01*
X0000726940Y0001465523D01*
X0000719441Y0001467397D01*
X0000704443Y0001467397D01*
X0000700693Y0001465523D01*
X0000698818Y0001463648D01*
X0000696944Y0001459898D01*
X0000696944Y0001452399D01*
X0000698818Y0001448650D01*
X0000700693Y0001446775D01*
X0000704443Y0001444900D01*
X0000713817Y0001444900D01*
X0000717566Y0001446775D01*
X0000719441Y0001448650D01*
X0000721316Y0001452399D01*
X0000721316Y0001459898D01*
X0000719441Y0001463648D01*
X0000717566Y0001465523D01*
X0000713817Y0001467397D01*
X0000596944Y0001405530D02*
X0000596944Y0001429902D01*
X0000611942Y0001416779D01*
X0000611942Y0001422403D01*
X0000613817Y0001426152D01*
X0000615691Y0001428027D01*
X0000619441Y0001429902D01*
X0000628815Y0001429902D01*
X0000632564Y0001428027D01*
X0000634439Y0001426152D01*
X0000636314Y0001422403D01*
X0000636314Y0001411154D01*
X0000634439Y0001407405D01*
X0000632564Y0001405530D01*
X0000596944Y0001443025D02*
X0000596944Y0001469272D01*
X0000636314Y0001452399D01*
X0002292219Y0001051396D02*
X0002292219Y0001077643D01*
X0002331589Y0001060770D01*
X0002295969Y0001090766D02*
X0002294094Y0001092641D01*
X0002292219Y0001096391D01*
X0002292219Y0001105764D01*
X0002294094Y0001109514D01*
X0002295969Y0001111389D01*
X0002299718Y0001113263D01*
X0002303468Y0001113263D01*
X0002309092Y0001111389D01*
X0002331589Y0001088892D01*
X0002331589Y0001113263D01*
X0002192219Y0001051396D02*
X0002192219Y0001077643D01*
X0002231589Y0001060770D01*
X0002192219Y0001100140D02*
X0002192219Y0001103890D01*
X0002194094Y0001107639D01*
X0002195969Y0001109514D01*
X0002199718Y0001111389D01*
X0002207217Y0001113263D01*
X0002216591Y0001113263D01*
X0002224090Y0001111389D01*
X0002227840Y0001109514D01*
X0002229715Y0001107639D01*
X0002231589Y0001103890D01*
X0002231589Y0001100140D01*
X0002229715Y0001096391D01*
X0002227840Y0001094516D01*
X0002224090Y0001092641D01*
X0002216591Y0001090766D01*
X0002207217Y0001090766D01*
X0002199718Y0001092641D01*
X0002195969Y0001094516D01*
X0002194094Y0001096391D01*
X0002192219Y0001100140D01*
X0002092219Y0001072019D02*
X0002092219Y0001064520D01*
X0002094094Y0001060770D01*
X0002095969Y0001058895D01*
X0002101593Y0001055146D01*
X0002109092Y0001053271D01*
X0002124090Y0001053271D01*
X0002127840Y0001055146D01*
X0002129715Y0001057020D01*
X0002131589Y0001060770D01*
X0002131589Y0001068269D01*
X0002129715Y0001072019D01*
X0002127840Y0001073893D01*
X0002124090Y0001075768D01*
X0002114716Y0001075768D01*
X0002110967Y0001073893D01*
X0002109092Y0001072019D01*
X0002107217Y0001068269D01*
X0002107217Y0001060770D01*
X0002109092Y0001057020D01*
X0002110967Y0001055146D01*
X0002114716Y0001053271D01*
X0002109092Y0001098265D02*
X0002107217Y0001094516D01*
X0002105343Y0001092641D01*
X0002101593Y0001090766D01*
X0002099718Y0001090766D01*
X0002095969Y0001092641D01*
X0002094094Y0001094516D01*
X0002092219Y0001098265D01*
X0002092219Y0001105764D01*
X0002094094Y0001109514D01*
X0002095969Y0001111389D01*
X0002099718Y0001113263D01*
X0002101593Y0001113263D01*
X0002105343Y0001111389D01*
X0002107217Y0001109514D01*
X0002109092Y0001105764D01*
X0002109092Y0001098265D01*
X0002110967Y0001094516D01*
X0002112842Y0001092641D01*
X0002116591Y0001090766D01*
X0002124090Y0001090766D01*
X0002127840Y0001092641D01*
X0002129715Y0001094516D01*
X0002131589Y0001098265D01*
X0002131589Y0001105764D01*
X0002129715Y0001109514D01*
X0002127840Y0001111389D01*
X0002124090Y0001113263D01*
X0002116591Y0001113263D01*
X0002112842Y0001111389D01*
X0002110967Y0001109514D01*
X0002109092Y0001105764D01*
X0001992219Y0001072019D02*
X0001992219Y0001064520D01*
X0001994094Y0001060770D01*
X0001995969Y0001058895D01*
X0002001593Y0001055146D01*
X0002009092Y0001053271D01*
X0002024090Y0001053271D01*
X0002027840Y0001055146D01*
X0002029715Y0001057020D01*
X0002031589Y0001060770D01*
X0002031589Y0001068269D01*
X0002029715Y0001072019D01*
X0002027840Y0001073893D01*
X0002024090Y0001075768D01*
X0002014716Y0001075768D01*
X0002010967Y0001073893D01*
X0002009092Y0001072019D01*
X0002007217Y0001068269D01*
X0002007217Y0001060770D01*
X0002009092Y0001057020D01*
X0002010967Y0001055146D01*
X0002014716Y0001053271D01*
X0001992219Y0001109514D02*
X0001992219Y0001102015D01*
X0001994094Y0001098265D01*
X0001995969Y0001096391D01*
X0002001593Y0001092641D01*
X0002009092Y0001090766D01*
X0002024090Y0001090766D01*
X0002027840Y0001092641D01*
X0002029715Y0001094516D01*
X0002031589Y0001098265D01*
X0002031589Y0001105764D01*
X0002029715Y0001109514D01*
X0002027840Y0001111389D01*
X0002024090Y0001113263D01*
X0002014716Y0001113263D01*
X0002010967Y0001111389D01*
X0002009092Y0001109514D01*
X0002007217Y0001105764D01*
X0002007217Y0001098265D01*
X0002009092Y0001094516D01*
X0002010967Y0001092641D01*
X0002014716Y0001090766D01*
X0001892219Y0001072019D02*
X0001892219Y0001064520D01*
X0001894094Y0001060770D01*
X0001895969Y0001058895D01*
X0001901593Y0001055146D01*
X0001909092Y0001053271D01*
X0001924090Y0001053271D01*
X0001927840Y0001055146D01*
X0001929715Y0001057020D01*
X0001931589Y0001060770D01*
X0001931589Y0001068269D01*
X0001929715Y0001072019D01*
X0001927840Y0001073893D01*
X0001924090Y0001075768D01*
X0001914716Y0001075768D01*
X0001910967Y0001073893D01*
X0001909092Y0001072019D01*
X0001907217Y0001068269D01*
X0001907217Y0001060770D01*
X0001909092Y0001057020D01*
X0001910967Y0001055146D01*
X0001914716Y0001053271D01*
X0001905343Y0001109514D02*
X0001931589Y0001109514D01*
X0001890344Y0001100140D02*
X0001918466Y0001090766D01*
X0001918466Y0001115138D01*
X0001792219Y0001072019D02*
X0001792219Y0001064520D01*
X0001794094Y0001060770D01*
X0001795969Y0001058895D01*
X0001801593Y0001055146D01*
X0001809092Y0001053271D01*
X0001824090Y0001053271D01*
X0001827840Y0001055146D01*
X0001829715Y0001057020D01*
X0001831589Y0001060770D01*
X0001831589Y0001068269D01*
X0001829715Y0001072019D01*
X0001827840Y0001073893D01*
X0001824090Y0001075768D01*
X0001814716Y0001075768D01*
X0001810967Y0001073893D01*
X0001809092Y0001072019D01*
X0001807217Y0001068269D01*
X0001807217Y0001060770D01*
X0001809092Y0001057020D01*
X0001810967Y0001055146D01*
X0001814716Y0001053271D01*
X0001795969Y0001090766D02*
X0001794094Y0001092641D01*
X0001792219Y0001096391D01*
X0001792219Y0001105764D01*
X0001794094Y0001109514D01*
X0001795969Y0001111389D01*
X0001799718Y0001113263D01*
X0001803468Y0001113263D01*
X0001809092Y0001111389D01*
X0001831589Y0001088892D01*
X0001831589Y0001113263D01*
X0001692219Y0001072019D02*
X0001692219Y0001064520D01*
X0001694094Y0001060770D01*
X0001695969Y0001058895D01*
X0001701593Y0001055146D01*
X0001709092Y0001053271D01*
X0001724090Y0001053271D01*
X0001727840Y0001055146D01*
X0001729715Y0001057020D01*
X0001731589Y0001060770D01*
X0001731589Y0001068269D01*
X0001729715Y0001072019D01*
X0001727840Y0001073893D01*
X0001724090Y0001075768D01*
X0001714716Y0001075768D01*
X0001710967Y0001073893D01*
X0001709092Y0001072019D01*
X0001707217Y0001068269D01*
X0001707217Y0001060770D01*
X0001709092Y0001057020D01*
X0001710967Y0001055146D01*
X0001714716Y0001053271D01*
X0001692219Y0001100140D02*
X0001692219Y0001103890D01*
X0001694094Y0001107639D01*
X0001695969Y0001109514D01*
X0001699718Y0001111389D01*
X0001707217Y0001113263D01*
X0001716591Y0001113263D01*
X0001724090Y0001111389D01*
X0001727840Y0001109514D01*
X0001729715Y0001107639D01*
X0001731589Y0001103890D01*
X0001731589Y0001100140D01*
X0001729715Y0001096391D01*
X0001727840Y0001094516D01*
X0001724090Y0001092641D01*
X0001716591Y0001090766D01*
X0001707217Y0001090766D01*
X0001699718Y0001092641D01*
X0001695969Y0001094516D01*
X0001694094Y0001096391D01*
X0001692219Y0001100140D01*
X0001592219Y0001073893D02*
X0001592219Y0001055146D01*
X0001610967Y0001053271D01*
X0001609092Y0001055146D01*
X0001607217Y0001058895D01*
X0001607217Y0001068269D01*
X0001609092Y0001072019D01*
X0001610967Y0001073893D01*
X0001614716Y0001075768D01*
X0001624090Y0001075768D01*
X0001627840Y0001073893D01*
X0001629715Y0001072019D01*
X0001631589Y0001068269D01*
X0001631589Y0001058895D01*
X0001629715Y0001055146D01*
X0001627840Y0001053271D01*
X0001609092Y0001098265D02*
X0001607217Y0001094516D01*
X0001605343Y0001092641D01*
X0001601593Y0001090766D01*
X0001599718Y0001090766D01*
X0001595969Y0001092641D01*
X0001594094Y0001094516D01*
X0001592219Y0001098265D01*
X0001592219Y0001105764D01*
X0001594094Y0001109514D01*
X0001595969Y0001111389D01*
X0001599718Y0001113263D01*
X0001601593Y0001113263D01*
X0001605343Y0001111389D01*
X0001607217Y0001109514D01*
X0001609092Y0001105764D01*
X0001609092Y0001098265D01*
X0001610967Y0001094516D01*
X0001612842Y0001092641D01*
X0001616591Y0001090766D01*
X0001624090Y0001090766D01*
X0001627840Y0001092641D01*
X0001629715Y0001094516D01*
X0001631589Y0001098265D01*
X0001631589Y0001105764D01*
X0001629715Y0001109514D01*
X0001627840Y0001111389D01*
X0001624090Y0001113263D01*
X0001616591Y0001113263D01*
X0001612842Y0001111389D01*
X0001610967Y0001109514D01*
X0001609092Y0001105764D01*
X0001492219Y0001073893D02*
X0001492219Y0001055146D01*
X0001510967Y0001053271D01*
X0001509092Y0001055146D01*
X0001507217Y0001058895D01*
X0001507217Y0001068269D01*
X0001509092Y0001072019D01*
X0001510967Y0001073893D01*
X0001514716Y0001075768D01*
X0001524090Y0001075768D01*
X0001527840Y0001073893D01*
X0001529715Y0001072019D01*
X0001531589Y0001068269D01*
X0001531589Y0001058895D01*
X0001529715Y0001055146D01*
X0001527840Y0001053271D01*
X0001492219Y0001109514D02*
X0001492219Y0001102015D01*
X0001494094Y0001098265D01*
X0001495969Y0001096391D01*
X0001501593Y0001092641D01*
X0001509092Y0001090766D01*
X0001524090Y0001090766D01*
X0001527840Y0001092641D01*
X0001529715Y0001094516D01*
X0001531589Y0001098265D01*
X0001531589Y0001105764D01*
X0001529715Y0001109514D01*
X0001527840Y0001111389D01*
X0001524090Y0001113263D01*
X0001514716Y0001113263D01*
X0001510967Y0001111389D01*
X0001509092Y0001109514D01*
X0001507217Y0001105764D01*
X0001507217Y0001098265D01*
X0001509092Y0001094516D01*
X0001510967Y0001092641D01*
X0001514716Y0001090766D01*
X0001392219Y0001073893D02*
X0001392219Y0001055146D01*
X0001410967Y0001053271D01*
X0001409092Y0001055146D01*
X0001407217Y0001058895D01*
X0001407217Y0001068269D01*
X0001409092Y0001072019D01*
X0001410967Y0001073893D01*
X0001414716Y0001075768D01*
X0001424090Y0001075768D01*
X0001427840Y0001073893D01*
X0001429715Y0001072019D01*
X0001431589Y0001068269D01*
X0001431589Y0001058895D01*
X0001429715Y0001055146D01*
X0001427840Y0001053271D01*
X0001405343Y0001109514D02*
X0001431589Y0001109514D01*
X0001390344Y0001100140D02*
X0001418466Y0001090766D01*
X0001418466Y0001115138D01*
X0001292219Y0001073893D02*
X0001292219Y0001055146D01*
X0001310967Y0001053271D01*
X0001309092Y0001055146D01*
X0001307217Y0001058895D01*
X0001307217Y0001068269D01*
X0001309092Y0001072019D01*
X0001310967Y0001073893D01*
X0001314716Y0001075768D01*
X0001324090Y0001075768D01*
X0001327840Y0001073893D01*
X0001329715Y0001072019D01*
X0001331589Y0001068269D01*
X0001331589Y0001058895D01*
X0001329715Y0001055146D01*
X0001327840Y0001053271D01*
X0001295969Y0001090766D02*
X0001294094Y0001092641D01*
X0001292219Y0001096391D01*
X0001292219Y0001105764D01*
X0001294094Y0001109514D01*
X0001295969Y0001111389D01*
X0001299718Y0001113263D01*
X0001303468Y0001113263D01*
X0001309092Y0001111389D01*
X0001331589Y0001088892D01*
X0001331589Y0001113263D01*
X0001192219Y0001073893D02*
X0001192219Y0001055146D01*
X0001210967Y0001053271D01*
X0001209092Y0001055146D01*
X0001207217Y0001058895D01*
X0001207217Y0001068269D01*
X0001209092Y0001072019D01*
X0001210967Y0001073893D01*
X0001214716Y0001075768D01*
X0001224090Y0001075768D01*
X0001227840Y0001073893D01*
X0001229715Y0001072019D01*
X0001231589Y0001068269D01*
X0001231589Y0001058895D01*
X0001229715Y0001055146D01*
X0001227840Y0001053271D01*
X0001192219Y0001100140D02*
X0001192219Y0001103890D01*
X0001194094Y0001107639D01*
X0001195969Y0001109514D01*
X0001199718Y0001111389D01*
X0001207217Y0001113263D01*
X0001216591Y0001113263D01*
X0001224090Y0001111389D01*
X0001227840Y0001109514D01*
X0001229715Y0001107639D01*
X0001231589Y0001103890D01*
X0001231589Y0001100140D01*
X0001229715Y0001096391D01*
X0001227840Y0001094516D01*
X0001224090Y0001092641D01*
X0001216591Y0001090766D01*
X0001207217Y0001090766D01*
X0001199718Y0001092641D01*
X0001195969Y0001094516D01*
X0001194094Y0001096391D01*
X0001192219Y0001100140D01*
X0001105343Y0001072019D02*
X0001131589Y0001072019D01*
X0001090344Y0001062645D02*
X0001118466Y0001053271D01*
X0001118466Y0001077643D01*
X0001109092Y0001098265D02*
X0001107217Y0001094516D01*
X0001105343Y0001092641D01*
X0001101593Y0001090766D01*
X0001099718Y0001090766D01*
X0001095969Y0001092641D01*
X0001094094Y0001094516D01*
X0001092219Y0001098265D01*
X0001092219Y0001105764D01*
X0001094094Y0001109514D01*
X0001095969Y0001111389D01*
X0001099718Y0001113263D01*
X0001101593Y0001113263D01*
X0001105343Y0001111389D01*
X0001107217Y0001109514D01*
X0001109092Y0001105764D01*
X0001109092Y0001098265D01*
X0001110967Y0001094516D01*
X0001112842Y0001092641D01*
X0001116591Y0001090766D01*
X0001124090Y0001090766D01*
X0001127840Y0001092641D01*
X0001129715Y0001094516D01*
X0001131589Y0001098265D01*
X0001131589Y0001105764D01*
X0001129715Y0001109514D01*
X0001127840Y0001111389D01*
X0001124090Y0001113263D01*
X0001116591Y0001113263D01*
X0001112842Y0001111389D01*
X0001110967Y0001109514D01*
X0001109092Y0001105764D01*
X0001005343Y0001072019D02*
X0001031589Y0001072019D01*
X0000990344Y0001062645D02*
X0001018466Y0001053271D01*
X0001018466Y0001077643D01*
X0000992219Y0001109514D02*
X0000992219Y0001102015D01*
X0000994094Y0001098265D01*
X0000995969Y0001096391D01*
X0001001593Y0001092641D01*
X0001009092Y0001090766D01*
X0001024090Y0001090766D01*
X0001027840Y0001092641D01*
X0001029715Y0001094516D01*
X0001031589Y0001098265D01*
X0001031589Y0001105764D01*
X0001029715Y0001109514D01*
X0001027840Y0001111389D01*
X0001024090Y0001113263D01*
X0001014716Y0001113263D01*
X0001010967Y0001111389D01*
X0001009092Y0001109514D01*
X0001007217Y0001105764D01*
X0001007217Y0001098265D01*
X0001009092Y0001094516D01*
X0001010967Y0001092641D01*
X0001014716Y0001090766D01*
X0000905343Y0001072019D02*
X0000931589Y0001072019D01*
X0000890344Y0001062645D02*
X0000918466Y0001053271D01*
X0000918466Y0001077643D01*
X0000905343Y0001109514D02*
X0000931589Y0001109514D01*
X0000890344Y0001100140D02*
X0000918466Y0001090766D01*
X0000918466Y0001115138D01*
X0000805343Y0001072019D02*
X0000831589Y0001072019D01*
X0000790344Y0001062645D02*
X0000818466Y0001053271D01*
X0000818466Y0001077643D01*
X0000795969Y0001090766D02*
X0000794094Y0001092641D01*
X0000792219Y0001096391D01*
X0000792219Y0001105764D01*
X0000794094Y0001109514D01*
X0000795969Y0001111389D01*
X0000799718Y0001113263D01*
X0000803468Y0001113263D01*
X0000809092Y0001111389D01*
X0000831589Y0001088892D01*
X0000831589Y0001113263D01*
X0000705343Y0001072019D02*
X0000731589Y0001072019D01*
X0000690344Y0001062645D02*
X0000718466Y0001053271D01*
X0000718466Y0001077643D01*
X0000692219Y0001100140D02*
X0000692219Y0001103890D01*
X0000694094Y0001107639D01*
X0000695969Y0001109514D01*
X0000699718Y0001111389D01*
X0000707217Y0001113263D01*
X0000716591Y0001113263D01*
X0000724090Y0001111389D01*
X0000727840Y0001109514D01*
X0000729715Y0001107639D01*
X0000731589Y0001103890D01*
X0000731589Y0001100140D01*
X0000729715Y0001096391D01*
X0000727840Y0001094516D01*
X0000724090Y0001092641D01*
X0000716591Y0001090766D01*
X0000707217Y0001090766D01*
X0000699718Y0001092641D01*
X0000695969Y0001094516D01*
X0000694094Y0001096391D01*
X0000692219Y0001100140D01*
X0000592219Y0001051396D02*
X0000592219Y0001075768D01*
X0000607217Y0001062645D01*
X0000607217Y0001068269D01*
X0000609092Y0001072019D01*
X0000610967Y0001073893D01*
X0000614716Y0001075768D01*
X0000624090Y0001075768D01*
X0000627840Y0001073893D01*
X0000629715Y0001072019D01*
X0000631589Y0001068269D01*
X0000631589Y0001057020D01*
X0000629715Y0001053271D01*
X0000627840Y0001051396D01*
X0000609092Y0001098265D02*
X0000607217Y0001094516D01*
X0000605343Y0001092641D01*
X0000601593Y0001090766D01*
X0000599718Y0001090766D01*
X0000595969Y0001092641D01*
X0000594094Y0001094516D01*
X0000592219Y0001098265D01*
X0000592219Y0001105764D01*
X0000594094Y0001109514D01*
X0000595969Y0001111389D01*
X0000599718Y0001113263D01*
X0000601593Y0001113263D01*
X0000605343Y0001111389D01*
X0000607217Y0001109514D01*
X0000609092Y0001105764D01*
X0000609092Y0001098265D01*
X0000610967Y0001094516D01*
X0000612842Y0001092641D01*
X0000616591Y0001090766D01*
X0000624090Y0001090766D01*
X0000627840Y0001092641D01*
X0000629715Y0001094516D01*
X0000631589Y0001098265D01*
X0000631589Y0001105764D01*
X0000629715Y0001109514D01*
X0000627840Y0001111389D01*
X0000624090Y0001113263D01*
X0000616591Y0001113263D01*
X0000612842Y0001111389D01*
X0000610967Y0001109514D01*
X0000609092Y0001105764D01*
X0000426790Y0001642819D02*
X0000451162Y0001642819D01*
X0000438038Y0001627821D01*
X0000443663Y0001627821D01*
X0000447412Y0001625946D01*
X0000449287Y0001624072D01*
X0000451162Y0001620322D01*
X0000451162Y0001610948D01*
X0000449287Y0001607199D01*
X0000447412Y0001605324D01*
X0000443663Y0001603449D01*
X0000432414Y0001603449D01*
X0000428665Y0001605324D01*
X0000426790Y0001607199D01*
X0000486782Y0001642819D02*
X0000468035Y0001642819D01*
X0000466160Y0001624072D01*
X0000468035Y0001625946D01*
X0000471784Y0001627821D01*
X0000481158Y0001627821D01*
X0000484908Y0001625946D01*
X0000486782Y0001624072D01*
X0000488657Y0001620322D01*
X0000488657Y0001610948D01*
X0000486782Y0001607199D01*
X0000484908Y0001605324D01*
X0000481158Y0001603449D01*
X0000471784Y0001603449D01*
X0000468035Y0001605324D01*
X0000466160Y0001607199D01*
X0000426790Y0001742819D02*
X0000451162Y0001742819D01*
X0000438038Y0001727821D01*
X0000443663Y0001727821D01*
X0000447412Y0001725946D01*
X0000449287Y0001724072D01*
X0000451162Y0001720322D01*
X0000451162Y0001710948D01*
X0000449287Y0001707199D01*
X0000447412Y0001705324D01*
X0000443663Y0001703449D01*
X0000432414Y0001703449D01*
X0000428665Y0001705324D01*
X0000426790Y0001707199D01*
X0000464285Y0001742819D02*
X0000488657Y0001742819D01*
X0000475534Y0001727821D01*
X0000481158Y0001727821D01*
X0000484908Y0001725946D01*
X0000486782Y0001724072D01*
X0000488657Y0001720322D01*
X0000488657Y0001710948D01*
X0000486782Y0001707199D01*
X0000484908Y0001705324D01*
X0000481158Y0001703449D01*
X0000469910Y0001703449D01*
X0000466160Y0001705324D01*
X0000464285Y0001707199D01*
X0000426790Y0001842819D02*
X0000451162Y0001842819D01*
X0000438038Y0001827821D01*
X0000443663Y0001827821D01*
X0000447412Y0001825946D01*
X0000449287Y0001824072D01*
X0000451162Y0001820322D01*
X0000451162Y0001810948D01*
X0000449287Y0001807199D01*
X0000447412Y0001805324D01*
X0000443663Y0001803449D01*
X0000432414Y0001803449D01*
X0000428665Y0001805324D01*
X0000426790Y0001807199D01*
X0000488657Y0001803449D02*
X0000466160Y0001803449D01*
X0000477409Y0001803449D02*
X0000477409Y0001842819D01*
X0000473659Y0001837195D01*
X0000469910Y0001833445D01*
X0000466160Y0001831571D01*
X0000428665Y0001939070D02*
X0000430539Y0001940944D01*
X0000434289Y0001942819D01*
X0000443663Y0001942819D01*
X0000447412Y0001940944D01*
X0000449287Y0001939070D01*
X0000451162Y0001935320D01*
X0000451162Y0001931571D01*
X0000449287Y0001925946D01*
X0000426790Y0001903449D01*
X0000451162Y0001903449D01*
X0000469910Y0001903449D02*
X0000477409Y0001903449D01*
X0000481158Y0001905324D01*
X0000483033Y0001907199D01*
X0000486782Y0001912823D01*
X0000488657Y0001920322D01*
X0000488657Y0001935320D01*
X0000486782Y0001939070D01*
X0000484908Y0001940944D01*
X0000481158Y0001942819D01*
X0000473659Y0001942819D01*
X0000469910Y0001940944D01*
X0000468035Y0001939070D01*
X0000466160Y0001935320D01*
X0000466160Y0001925946D01*
X0000468035Y0001922197D01*
X0000469910Y0001920322D01*
X0000473659Y0001918447D01*
X0000481158Y0001918447D01*
X0000484908Y0001920322D01*
X0000486782Y0001922197D01*
X0000488657Y0001925946D01*
X0000428665Y0002039070D02*
X0000430539Y0002040944D01*
X0000434289Y0002042819D01*
X0000443663Y0002042819D01*
X0000447412Y0002040944D01*
X0000449287Y0002039070D01*
X0000451162Y0002035320D01*
X0000451162Y0002031571D01*
X0000449287Y0002025946D01*
X0000426790Y0002003449D01*
X0000451162Y0002003449D01*
X0000464285Y0002042819D02*
X0000490532Y0002042819D01*
X0000473659Y0002003449D01*
X0000428665Y0002139070D02*
X0000430539Y0002140944D01*
X0000434289Y0002142819D01*
X0000443663Y0002142819D01*
X0000447412Y0002140944D01*
X0000449287Y0002139070D01*
X0000451162Y0002135320D01*
X0000451162Y0002131571D01*
X0000449287Y0002125946D01*
X0000426790Y0002103449D01*
X0000451162Y0002103449D01*
X0000486782Y0002142819D02*
X0000468035Y0002142819D01*
X0000466160Y0002124072D01*
X0000468035Y0002125946D01*
X0000471784Y0002127821D01*
X0000481158Y0002127821D01*
X0000484908Y0002125946D01*
X0000486782Y0002124072D01*
X0000488657Y0002120322D01*
X0000488657Y0002110948D01*
X0000486782Y0002107199D01*
X0000484908Y0002105324D01*
X0000481158Y0002103449D01*
X0000471784Y0002103449D01*
X0000468035Y0002105324D01*
X0000466160Y0002107199D01*
X0000428665Y0002239070D02*
X0000430539Y0002240944D01*
X0000434289Y0002242819D01*
X0000443663Y0002242819D01*
X0000447412Y0002240944D01*
X0000449287Y0002239070D01*
X0000451162Y0002235320D01*
X0000451162Y0002231571D01*
X0000449287Y0002225946D01*
X0000426790Y0002203449D01*
X0000451162Y0002203449D01*
X0000464285Y0002242819D02*
X0000488657Y0002242819D01*
X0000475534Y0002227821D01*
X0000481158Y0002227821D01*
X0000484908Y0002225946D01*
X0000486782Y0002224072D01*
X0000488657Y0002220322D01*
X0000488657Y0002210948D01*
X0000486782Y0002207199D01*
X0000484908Y0002205324D01*
X0000481158Y0002203449D01*
X0000469910Y0002203449D01*
X0000466160Y0002205324D01*
X0000464285Y0002207199D01*
X0000428665Y0002339070D02*
X0000430539Y0002340944D01*
X0000434289Y0002342819D01*
X0000443663Y0002342819D01*
X0000447412Y0002340944D01*
X0000449287Y0002339070D01*
X0000451162Y0002335320D01*
X0000451162Y0002331571D01*
X0000449287Y0002325946D01*
X0000426790Y0002303449D01*
X0000451162Y0002303449D01*
X0000488657Y0002303449D02*
X0000466160Y0002303449D01*
X0000477409Y0002303449D02*
X0000477409Y0002342819D01*
X0000473659Y0002337195D01*
X0000469910Y0002333445D01*
X0000466160Y0002331571D01*
X0000451162Y0002403449D02*
X0000428665Y0002403449D01*
X0000439913Y0002403449D02*
X0000439913Y0002442819D01*
X0000436164Y0002437195D01*
X0000432414Y0002433445D01*
X0000428665Y0002431571D01*
X0000469910Y0002403449D02*
X0000477409Y0002403449D01*
X0000481158Y0002405324D01*
X0000483033Y0002407199D01*
X0000486782Y0002412823D01*
X0000488657Y0002420322D01*
X0000488657Y0002435320D01*
X0000486782Y0002439070D01*
X0000484908Y0002440944D01*
X0000481158Y0002442819D01*
X0000473659Y0002442819D01*
X0000469910Y0002440944D01*
X0000468035Y0002439070D01*
X0000466160Y0002435320D01*
X0000466160Y0002425946D01*
X0000468035Y0002422197D01*
X0000469910Y0002420322D01*
X0000473659Y0002418447D01*
X0000481158Y0002418447D01*
X0000484908Y0002420322D01*
X0000486782Y0002422197D01*
X0000488657Y0002425946D01*
X0000451162Y0002503449D02*
X0000428665Y0002503449D01*
X0000439913Y0002503449D02*
X0000439913Y0002542819D01*
X0000436164Y0002537195D01*
X0000432414Y0002533445D01*
X0000428665Y0002531571D01*
X0000464285Y0002542819D02*
X0000490532Y0002542819D01*
X0000473659Y0002503449D01*
X0000451162Y0002603449D02*
X0000428665Y0002603449D01*
X0000439913Y0002603449D02*
X0000439913Y0002642819D01*
X0000436164Y0002637195D01*
X0000432414Y0002633445D01*
X0000428665Y0002631571D01*
X0000486782Y0002642819D02*
X0000468035Y0002642819D01*
X0000466160Y0002624072D01*
X0000468035Y0002625946D01*
X0000471784Y0002627821D01*
X0000481158Y0002627821D01*
X0000484908Y0002625946D01*
X0000486782Y0002624072D01*
X0000488657Y0002620322D01*
X0000488657Y0002610948D01*
X0000486782Y0002607199D01*
X0000484908Y0002605324D01*
X0000481158Y0002603449D01*
X0000471784Y0002603449D01*
X0000468035Y0002605324D01*
X0000466160Y0002607199D01*
X0000451162Y0002703449D02*
X0000428665Y0002703449D01*
X0000439913Y0002703449D02*
X0000439913Y0002742819D01*
X0000436164Y0002737195D01*
X0000432414Y0002733445D01*
X0000428665Y0002731571D01*
X0000464285Y0002742819D02*
X0000488657Y0002742819D01*
X0000475534Y0002727821D01*
X0000481158Y0002727821D01*
X0000484908Y0002725946D01*
X0000486782Y0002724072D01*
X0000488657Y0002720322D01*
X0000488657Y0002710948D01*
X0000486782Y0002707199D01*
X0000484908Y0002705324D01*
X0000481158Y0002703449D01*
X0000469910Y0002703449D01*
X0000466160Y0002705324D01*
X0000464285Y0002707199D01*
X0000451162Y0002803449D02*
X0000428665Y0002803449D01*
X0000439913Y0002803449D02*
X0000439913Y0002842819D01*
X0000436164Y0002837195D01*
X0000432414Y0002833445D01*
X0000428665Y0002831571D01*
X0000488657Y0002803449D02*
X0000466160Y0002803449D01*
X0000477409Y0002803449D02*
X0000477409Y0002842819D01*
X0000473659Y0002837195D01*
X0000469910Y0002833445D01*
X0000466160Y0002831571D01*
X0000451162Y0002903449D02*
X0000458661Y0002903449D01*
X0000462410Y0002905324D01*
X0000464285Y0002907199D01*
X0000468035Y0002912823D01*
X0000469910Y0002920322D01*
X0000469910Y0002935320D01*
X0000468035Y0002939070D01*
X0000466160Y0002940944D01*
X0000462410Y0002942819D01*
X0000454911Y0002942819D01*
X0000451162Y0002940944D01*
X0000449287Y0002939070D01*
X0000447412Y0002935320D01*
X0000447412Y0002925946D01*
X0000449287Y0002922197D01*
X0000451162Y0002920322D01*
X0000454911Y0002918447D01*
X0000462410Y0002918447D01*
X0000466160Y0002920322D01*
X0000468035Y0002922197D01*
X0000469910Y0002925946D01*
X0000445538Y0003042819D02*
X0000471784Y0003042819D01*
X0000454911Y0003003449D01*
X0000468035Y0003142819D02*
X0000449287Y0003142819D01*
X0000447412Y0003124072D01*
X0000449287Y0003125946D01*
X0000453037Y0003127821D01*
X0000462410Y0003127821D01*
X0000466160Y0003125946D01*
X0000468035Y0003124072D01*
X0000469910Y0003120322D01*
X0000469910Y0003110948D01*
X0000468035Y0003107199D01*
X0000466160Y0003105324D01*
X0000462410Y0003103449D01*
X0000453037Y0003103449D01*
X0000449287Y0003105324D01*
X0000447412Y0003107199D01*
X0000445538Y0003242819D02*
X0000469910Y0003242819D01*
X0000456786Y0003227821D01*
X0000462410Y0003227821D01*
X0000466160Y0003225946D01*
X0000468035Y0003224072D01*
X0000469910Y0003220322D01*
X0000469910Y0003210948D01*
X0000468035Y0003207199D01*
X0000466160Y0003205324D01*
X0000462410Y0003203449D01*
X0000451162Y0003203449D01*
X0000447412Y0003205324D01*
X0000445538Y0003207199D01*
X0000469910Y0003303449D02*
X0000447412Y0003303449D01*
X0000458661Y0003303449D02*
X0000458661Y0003342819D01*
X0000454911Y0003337195D01*
X0000451162Y0003333445D01*
X0000447412Y0003331571D01*
X0000059073Y0001640851D02*
X0000083445Y0001640851D01*
X0000070322Y0001625853D01*
X0000075946Y0001625853D01*
X0000079696Y0001623978D01*
X0000081571Y0001622103D01*
X0000083445Y0001618353D01*
X0000083445Y0001608980D01*
X0000081571Y0001605230D01*
X0000079696Y0001603355D01*
X0000075946Y0001601481D01*
X0000064698Y0001601481D01*
X0000060948Y0001603355D01*
X0000059073Y0001605230D01*
X0000117191Y0001640851D02*
X0000109692Y0001640851D01*
X0000105942Y0001638976D01*
X0000104068Y0001637101D01*
X0000100318Y0001631477D01*
X0000098443Y0001623978D01*
X0000098443Y0001608980D01*
X0000100318Y0001605230D01*
X0000102193Y0001603355D01*
X0000105942Y0001601481D01*
X0000113442Y0001601481D01*
X0000117191Y0001603355D01*
X0000119066Y0001605230D01*
X0000120941Y0001608980D01*
X0000120941Y0001618353D01*
X0000119066Y0001622103D01*
X0000117191Y0001623978D01*
X0000113442Y0001625853D01*
X0000105942Y0001625853D01*
X0000102193Y0001623978D01*
X0000100318Y0001622103D01*
X0000098443Y0001618353D01*
X0000059073Y0001732977D02*
X0000083445Y0001732977D01*
X0000070322Y0001717979D01*
X0000075946Y0001717979D01*
X0000079696Y0001716104D01*
X0000081571Y0001714229D01*
X0000083445Y0001710479D01*
X0000083445Y0001701106D01*
X0000081571Y0001697356D01*
X0000079696Y0001695481D01*
X0000075946Y0001693607D01*
X0000064698Y0001693607D01*
X0000060948Y0001695481D01*
X0000059073Y0001697356D01*
X0000117191Y0001719853D02*
X0000117191Y0001693607D01*
X0000107817Y0001734851D02*
X0000098443Y0001706730D01*
X0000122815Y0001706730D01*
X0000059073Y0001832977D02*
X0000083445Y0001832977D01*
X0000070322Y0001817979D01*
X0000075946Y0001817979D01*
X0000079696Y0001816104D01*
X0000081571Y0001814229D01*
X0000083445Y0001810479D01*
X0000083445Y0001801106D01*
X0000081571Y0001797356D01*
X0000079696Y0001795481D01*
X0000075946Y0001793607D01*
X0000064698Y0001793607D01*
X0000060948Y0001795481D01*
X0000059073Y0001797356D01*
X0000098443Y0001829227D02*
X0000100318Y0001831102D01*
X0000104068Y0001832977D01*
X0000113442Y0001832977D01*
X0000117191Y0001831102D01*
X0000119066Y0001829227D01*
X0000120941Y0001825478D01*
X0000120941Y0001821728D01*
X0000119066Y0001816104D01*
X0000096569Y0001793607D01*
X0000120941Y0001793607D01*
X0000059073Y0001932977D02*
X0000083445Y0001932977D01*
X0000070322Y0001917979D01*
X0000075946Y0001917979D01*
X0000079696Y0001916104D01*
X0000081571Y0001914229D01*
X0000083445Y0001910479D01*
X0000083445Y0001901106D01*
X0000081571Y0001897356D01*
X0000079696Y0001895481D01*
X0000075946Y0001893607D01*
X0000064698Y0001893607D01*
X0000060948Y0001895481D01*
X0000059073Y0001897356D01*
X0000107817Y0001932977D02*
X0000111567Y0001932977D01*
X0000115316Y0001931102D01*
X0000117191Y0001929227D01*
X0000119066Y0001925478D01*
X0000120941Y0001917979D01*
X0000120941Y0001908605D01*
X0000119066Y0001901106D01*
X0000117191Y0001897356D01*
X0000115316Y0001895481D01*
X0000111567Y0001893607D01*
X0000107817Y0001893607D01*
X0000104068Y0001895481D01*
X0000102193Y0001897356D01*
X0000100318Y0001901106D01*
X0000098443Y0001908605D01*
X0000098443Y0001917979D01*
X0000100318Y0001925478D01*
X0000102193Y0001929227D01*
X0000104068Y0001931102D01*
X0000107817Y0001932977D01*
X0000060948Y0002029227D02*
X0000062823Y0002031102D01*
X0000066572Y0002032977D01*
X0000075946Y0002032977D01*
X0000079696Y0002031102D01*
X0000081571Y0002029227D01*
X0000083445Y0002025478D01*
X0000083445Y0002021728D01*
X0000081571Y0002016104D01*
X0000059073Y0001993607D01*
X0000083445Y0001993607D01*
X0000105942Y0002016104D02*
X0000102193Y0002017979D01*
X0000100318Y0002019853D01*
X0000098443Y0002023603D01*
X0000098443Y0002025478D01*
X0000100318Y0002029227D01*
X0000102193Y0002031102D01*
X0000105942Y0002032977D01*
X0000113442Y0002032977D01*
X0000117191Y0002031102D01*
X0000119066Y0002029227D01*
X0000120941Y0002025478D01*
X0000120941Y0002023603D01*
X0000119066Y0002019853D01*
X0000117191Y0002017979D01*
X0000113442Y0002016104D01*
X0000105942Y0002016104D01*
X0000102193Y0002014229D01*
X0000100318Y0002012354D01*
X0000098443Y0002008605D01*
X0000098443Y0002001106D01*
X0000100318Y0001997356D01*
X0000102193Y0001995481D01*
X0000105942Y0001993607D01*
X0000113442Y0001993607D01*
X0000117191Y0001995481D01*
X0000119066Y0001997356D01*
X0000120941Y0002001106D01*
X0000120941Y0002008605D01*
X0000119066Y0002012354D01*
X0000117191Y0002014229D01*
X0000113442Y0002016104D01*
X0000060948Y0002129227D02*
X0000062823Y0002131102D01*
X0000066572Y0002132977D01*
X0000075946Y0002132977D01*
X0000079696Y0002131102D01*
X0000081571Y0002129227D01*
X0000083445Y0002125478D01*
X0000083445Y0002121728D01*
X0000081571Y0002116104D01*
X0000059073Y0002093607D01*
X0000083445Y0002093607D01*
X0000117191Y0002132977D02*
X0000109692Y0002132977D01*
X0000105942Y0002131102D01*
X0000104068Y0002129227D01*
X0000100318Y0002123603D01*
X0000098443Y0002116104D01*
X0000098443Y0002101106D01*
X0000100318Y0002097356D01*
X0000102193Y0002095481D01*
X0000105942Y0002093607D01*
X0000113442Y0002093607D01*
X0000117191Y0002095481D01*
X0000119066Y0002097356D01*
X0000120941Y0002101106D01*
X0000120941Y0002110479D01*
X0000119066Y0002114229D01*
X0000117191Y0002116104D01*
X0000113442Y0002117979D01*
X0000105942Y0002117979D01*
X0000102193Y0002116104D01*
X0000100318Y0002114229D01*
X0000098443Y0002110479D01*
X0000060948Y0002229227D02*
X0000062823Y0002231102D01*
X0000066572Y0002232977D01*
X0000075946Y0002232977D01*
X0000079696Y0002231102D01*
X0000081571Y0002229227D01*
X0000083445Y0002225478D01*
X0000083445Y0002221728D01*
X0000081571Y0002216104D01*
X0000059073Y0002193607D01*
X0000083445Y0002193607D01*
X0000117191Y0002219853D02*
X0000117191Y0002193607D01*
X0000107817Y0002234851D02*
X0000098443Y0002206730D01*
X0000122815Y0002206730D01*
X0000060948Y0002329227D02*
X0000062823Y0002331102D01*
X0000066572Y0002332977D01*
X0000075946Y0002332977D01*
X0000079696Y0002331102D01*
X0000081571Y0002329227D01*
X0000083445Y0002325478D01*
X0000083445Y0002321728D01*
X0000081571Y0002316104D01*
X0000059073Y0002293607D01*
X0000083445Y0002293607D01*
X0000098443Y0002329227D02*
X0000100318Y0002331102D01*
X0000104068Y0002332977D01*
X0000113442Y0002332977D01*
X0000117191Y0002331102D01*
X0000119066Y0002329227D01*
X0000120941Y0002325478D01*
X0000120941Y0002321728D01*
X0000119066Y0002316104D01*
X0000096569Y0002293607D01*
X0000120941Y0002293607D01*
X0000060948Y0002429227D02*
X0000062823Y0002431102D01*
X0000066572Y0002432977D01*
X0000075946Y0002432977D01*
X0000079696Y0002431102D01*
X0000081571Y0002429227D01*
X0000083445Y0002425478D01*
X0000083445Y0002421728D01*
X0000081571Y0002416104D01*
X0000059073Y0002393607D01*
X0000083445Y0002393607D01*
X0000107817Y0002432977D02*
X0000111567Y0002432977D01*
X0000115316Y0002431102D01*
X0000117191Y0002429227D01*
X0000119066Y0002425478D01*
X0000120941Y0002417979D01*
X0000120941Y0002408605D01*
X0000119066Y0002401106D01*
X0000117191Y0002397356D01*
X0000115316Y0002395481D01*
X0000111567Y0002393607D01*
X0000107817Y0002393607D01*
X0000104068Y0002395481D01*
X0000102193Y0002397356D01*
X0000100318Y0002401106D01*
X0000098443Y0002408605D01*
X0000098443Y0002417979D01*
X0000100318Y0002425478D01*
X0000102193Y0002429227D01*
X0000104068Y0002431102D01*
X0000107817Y0002432977D01*
X0000083445Y0002493607D02*
X0000060948Y0002493607D01*
X0000072197Y0002493607D02*
X0000072197Y0002532977D01*
X0000068447Y0002527352D01*
X0000064698Y0002523603D01*
X0000060948Y0002521728D01*
X0000105942Y0002516104D02*
X0000102193Y0002517979D01*
X0000100318Y0002519853D01*
X0000098443Y0002523603D01*
X0000098443Y0002525478D01*
X0000100318Y0002529227D01*
X0000102193Y0002531102D01*
X0000105942Y0002532977D01*
X0000113442Y0002532977D01*
X0000117191Y0002531102D01*
X0000119066Y0002529227D01*
X0000120941Y0002525478D01*
X0000120941Y0002523603D01*
X0000119066Y0002519853D01*
X0000117191Y0002517979D01*
X0000113442Y0002516104D01*
X0000105942Y0002516104D01*
X0000102193Y0002514229D01*
X0000100318Y0002512354D01*
X0000098443Y0002508605D01*
X0000098443Y0002501106D01*
X0000100318Y0002497356D01*
X0000102193Y0002495481D01*
X0000105942Y0002493607D01*
X0000113442Y0002493607D01*
X0000117191Y0002495481D01*
X0000119066Y0002497356D01*
X0000120941Y0002501106D01*
X0000120941Y0002508605D01*
X0000119066Y0002512354D01*
X0000117191Y0002514229D01*
X0000113442Y0002516104D01*
X0000083445Y0002593607D02*
X0000060948Y0002593607D01*
X0000072197Y0002593607D02*
X0000072197Y0002632977D01*
X0000068447Y0002627352D01*
X0000064698Y0002623603D01*
X0000060948Y0002621728D01*
X0000117191Y0002632977D02*
X0000109692Y0002632977D01*
X0000105942Y0002631102D01*
X0000104068Y0002629227D01*
X0000100318Y0002623603D01*
X0000098443Y0002616104D01*
X0000098443Y0002601106D01*
X0000100318Y0002597356D01*
X0000102193Y0002595481D01*
X0000105942Y0002593607D01*
X0000113442Y0002593607D01*
X0000117191Y0002595481D01*
X0000119066Y0002597356D01*
X0000120941Y0002601106D01*
X0000120941Y0002610479D01*
X0000119066Y0002614229D01*
X0000117191Y0002616104D01*
X0000113442Y0002617979D01*
X0000105942Y0002617979D01*
X0000102193Y0002616104D01*
X0000100318Y0002614229D01*
X0000098443Y0002610479D01*
X0000083445Y0002693607D02*
X0000060948Y0002693607D01*
X0000072197Y0002693607D02*
X0000072197Y0002732977D01*
X0000068447Y0002727352D01*
X0000064698Y0002723603D01*
X0000060948Y0002721728D01*
X0000117191Y0002719853D02*
X0000117191Y0002693607D01*
X0000107817Y0002734851D02*
X0000098443Y0002706730D01*
X0000122815Y0002706730D01*
X0000083445Y0002793607D02*
X0000060948Y0002793607D01*
X0000072197Y0002793607D02*
X0000072197Y0002832977D01*
X0000068447Y0002827352D01*
X0000064698Y0002823603D01*
X0000060948Y0002821728D01*
X0000098443Y0002829227D02*
X0000100318Y0002831102D01*
X0000104068Y0002832977D01*
X0000113442Y0002832977D01*
X0000117191Y0002831102D01*
X0000119066Y0002829227D01*
X0000120941Y0002825478D01*
X0000120941Y0002821728D01*
X0000119066Y0002816104D01*
X0000096569Y0002793607D01*
X0000120941Y0002793607D01*
X0000083445Y0002893607D02*
X0000060948Y0002893607D01*
X0000072197Y0002893607D02*
X0000072197Y0002932977D01*
X0000068447Y0002927352D01*
X0000064698Y0002923603D01*
X0000060948Y0002921728D01*
X0000107817Y0002932977D02*
X0000111567Y0002932977D01*
X0000115316Y0002931102D01*
X0000117191Y0002929227D01*
X0000119066Y0002925478D01*
X0000120941Y0002917979D01*
X0000120941Y0002908605D01*
X0000119066Y0002901106D01*
X0000117191Y0002897356D01*
X0000115316Y0002895481D01*
X0000111567Y0002893607D01*
X0000107817Y0002893607D01*
X0000104068Y0002895481D01*
X0000102193Y0002897356D01*
X0000100318Y0002901106D01*
X0000098443Y0002908605D01*
X0000098443Y0002917979D01*
X0000100318Y0002925478D01*
X0000102193Y0002929227D01*
X0000104068Y0002931102D01*
X0000107817Y0002932977D01*
X0000087195Y0003016104D02*
X0000083445Y0003017979D01*
X0000081571Y0003019853D01*
X0000079696Y0003023603D01*
X0000079696Y0003025478D01*
X0000081571Y0003029227D01*
X0000083445Y0003031102D01*
X0000087195Y0003032977D01*
X0000094694Y0003032977D01*
X0000098443Y0003031102D01*
X0000100318Y0003029227D01*
X0000102193Y0003025478D01*
X0000102193Y0003023603D01*
X0000100318Y0003019853D01*
X0000098443Y0003017979D01*
X0000094694Y0003016104D01*
X0000087195Y0003016104D01*
X0000083445Y0003014229D01*
X0000081571Y0003012354D01*
X0000079696Y0003008605D01*
X0000079696Y0003001106D01*
X0000081571Y0002997356D01*
X0000083445Y0002995481D01*
X0000087195Y0002993607D01*
X0000094694Y0002993607D01*
X0000098443Y0002995481D01*
X0000100318Y0002997356D01*
X0000102193Y0003001106D01*
X0000102193Y0003008605D01*
X0000100318Y0003012354D01*
X0000098443Y0003014229D01*
X0000094694Y0003016104D01*
X0000098443Y0003132977D02*
X0000090944Y0003132977D01*
X0000087195Y0003131102D01*
X0000085320Y0003129227D01*
X0000081571Y0003123603D01*
X0000079696Y0003116104D01*
X0000079696Y0003101106D01*
X0000081571Y0003097356D01*
X0000083445Y0003095481D01*
X0000087195Y0003093607D01*
X0000094694Y0003093607D01*
X0000098443Y0003095481D01*
X0000100318Y0003097356D01*
X0000102193Y0003101106D01*
X0000102193Y0003110479D01*
X0000100318Y0003114229D01*
X0000098443Y0003116104D01*
X0000094694Y0003117979D01*
X0000087195Y0003117979D01*
X0000083445Y0003116104D01*
X0000081571Y0003114229D01*
X0000079696Y0003110479D01*
X0000098443Y0003219853D02*
X0000098443Y0003193607D01*
X0000089070Y0003234851D02*
X0000079696Y0003206730D01*
X0000104068Y0003206730D01*
X0000079696Y0003329227D02*
X0000081571Y0003331102D01*
X0000085320Y0003332977D01*
X0000094694Y0003332977D01*
X0000098443Y0003331102D01*
X0000100318Y0003329227D01*
X0000102193Y0003325478D01*
X0000102193Y0003321728D01*
X0000100318Y0003316104D01*
X0000077821Y0003293607D01*
X0000102193Y0003293607D01*
D12*
X0000543897Y0003313976D02*
X0000543897Y0001621062D01*
X0000543897Y0001621062D02*
X0002394291Y0001621062D01*
X0002394291Y0001621062D02*
X0002394291Y0003313976D01*
X0002394291Y0003313976D02*
X0000543897Y0003313976D01*
D13*
X0000370078Y0003270472D02*
X0000370078Y0001568110D01*
X0000370078Y0001568110D02*
X0000165354Y0001568110D01*
X0000165354Y0001568110D02*
X0000165354Y0003372834D01*
X0000165354Y0003372834D02*
X0000267716Y0003372834D01*
X0000267716Y0003372834D02*
X0000267716Y0003270472D01*
X0000267716Y0003270472D02*
X0000370078Y0003270472D01*
X0000370078Y0003320472D02*
X0000370078Y0003372834D01*
X0000370078Y0003372834D02*
X0000320078Y0003372834D01*
X0000617322Y0001366535D02*
X0000669291Y0001366535D01*
X0000564566Y0001264566D02*
X0000564566Y0001316535D01*
X0000564566Y0001316535D02*
X0000564566Y0001317322D01*
X0000666929Y0001366535D02*
X0002369291Y0001366535D01*
X0002369291Y0001366535D02*
X0002369291Y0001161811D01*
X0002369291Y0001161811D02*
X0000564566Y0001161811D01*
X0000564566Y0001161811D02*
X0000564566Y0001264173D01*
X0000616929Y0001366535D02*
X0000564566Y0001366535D01*
X0000564566Y0001366535D02*
X0000564566Y0001316535D01*
X0002772834Y0003314960D02*
X0002772834Y0003262992D01*
X0002670866Y0003367716D02*
X0002722834Y0003367716D01*
X0002722834Y0003367716D02*
X0002723622Y0003367716D01*
X0002772834Y0003265354D02*
X0002772834Y0001562992D01*
X0002772834Y0001562992D02*
X0002568110Y0001562992D01*
X0002568110Y0001562992D02*
X0002568110Y0003367716D01*
X0002568110Y0003367716D02*
X0002670472Y0003367716D01*
X0002772834Y0003315354D02*
X0002772834Y0003367716D01*
X0002772834Y0003367716D02*
X0002722834Y0003367716D01*
X0002316535Y0003566535D02*
X0002264566Y0003566535D01*
X0002369291Y0003668503D02*
X0002369291Y0003616535D01*
X0002369291Y0003616535D02*
X0002369291Y0003615748D01*
X0002266929Y0003566535D02*
X0000564566Y0003566535D01*
X0000564566Y0003566535D02*
X0000564566Y0003771259D01*
X0000564566Y0003771259D02*
X0002369291Y0003771259D01*
X0002369291Y0003771259D02*
X0002369291Y0003668897D01*
X0002316929Y0003566535D02*
X0002369291Y0003566535D01*
X0002369291Y0003566535D02*
X0002369291Y0003616535D01*
D11*
X0002305240Y0001583567D02*
X0002305240Y0001551696D01*
X0002307114Y0001547947D01*
X0002308989Y0001546072D01*
X0002312739Y0001544197D01*
X0002320238Y0001544197D01*
X0002323987Y0001546072D01*
X0002325862Y0001547947D01*
X0002327737Y0001551696D01*
X0002327737Y0001583567D01*
X0002367107Y0001544197D02*
X0002344610Y0001544197D01*
X0002355858Y0001544197D02*
X0002355858Y0001583567D01*
X0002352109Y0001577943D01*
X0002348359Y0001574193D01*
X0002344610Y0001572319D01*
X0000254593Y0003433764D02*
X0000254593Y0003405643D01*
X0000252718Y0003400018D01*
X0000248968Y0003396269D01*
X0000243344Y0003394394D01*
X0000239595Y0003394394D01*
X0000293963Y0003394394D02*
X0000271466Y0003394394D01*
X0000282714Y0003394394D02*
X0000282714Y0003433764D01*
X0000278965Y0003428140D01*
X0000275215Y0003424390D01*
X0000271466Y0003422515D01*
X0000503637Y0001251049D02*
X0000531758Y0001251049D01*
X0000537382Y0001249175D01*
X0000541132Y0001245425D01*
X0000543007Y0001239801D01*
X0000543007Y0001236051D01*
X0000507386Y0001267922D02*
X0000505511Y0001269797D01*
X0000503637Y0001273547D01*
X0000503637Y0001282920D01*
X0000505511Y0001286670D01*
X0000507386Y0001288545D01*
X0000511136Y0001290419D01*
X0000514885Y0001290419D01*
X0000520509Y0001288545D01*
X0000543007Y0001266047D01*
X0000543007Y0001290419D01*
X0002657349Y0003428646D02*
X0002657349Y0003400524D01*
X0002655474Y0003394900D01*
X0002651724Y0003391151D01*
X0002646100Y0003389276D01*
X0002642350Y0003389276D01*
X0002672347Y0003428646D02*
X0002696719Y0003428646D01*
X0002683595Y0003413648D01*
X0002689220Y0003413648D01*
X0002692969Y0003411773D01*
X0002694844Y0003409898D01*
X0002696719Y0003406149D01*
X0002696719Y0003396775D01*
X0002694844Y0003393025D01*
X0002692969Y0003391151D01*
X0002689220Y0003389276D01*
X0002677971Y0003389276D01*
X0002674221Y0003391151D01*
X0002672347Y0003393025D01*
X0002387101Y0003655774D02*
X0002415223Y0003655774D01*
X0002420847Y0003653899D01*
X0002424596Y0003650149D01*
X0002426471Y0003644525D01*
X0002426471Y0003640776D01*
X0002400224Y0003691394D02*
X0002426471Y0003691394D01*
X0002385226Y0003682020D02*
X0002413348Y0003672647D01*
X0002413348Y0003697019D01*
G04 next file*
G04 Gerber Fmt 4.6, Leading zero omitted, Abs format (unit mm)*
G04 Created by KiCad (PCBNEW 4.0.7) date 11/22/17 20:28:19*
G01G01*
G04 APERTURE LIST*
G04 APERTURE END LIST*
D24*
D25*
X0003305118Y0000901574D02*
X0003265748Y0000901574D01*
X0003285433Y0000881889D02*
X0003285433Y0000921259D01*
D26*
X0003212503Y0000138220D02*
X0003242818Y0000138220D01*
X0003242818Y0000153968D02*
X0003242818Y0000121291D01*
D27*
X0003157385Y0000165779D02*
X0003157385Y0000110661D01*
X0003157385Y0000110661D02*
X0003267622Y0000110661D01*
X0003157385Y0000165779D02*
X0003267622Y0000165779D01*
D26*
X0003212503Y0000238220D02*
X0003242818Y0000238220D01*
X0003242818Y0000253968D02*
X0003242818Y0000221291D01*
D27*
X0003157385Y0000265779D02*
X0003157385Y0000210661D01*
X0003157385Y0000210661D02*
X0003267622Y0000210661D01*
X0003157385Y0000265779D02*
X0003267622Y0000265779D01*
D26*
X0003212503Y0000338220D02*
X0003242818Y0000338220D01*
X0003242818Y0000353968D02*
X0003242818Y0000321291D01*
D27*
X0003157385Y0000365779D02*
X0003157385Y0000310661D01*
X0003157385Y0000310661D02*
X0003267622Y0000310661D01*
X0003157385Y0000365779D02*
X0003267622Y0000365779D01*
D26*
X0003212503Y0000438220D02*
X0003242818Y0000438220D01*
X0003242818Y0000453968D02*
X0003242818Y0000421291D01*
D27*
X0003157385Y0000465779D02*
X0003157385Y0000410661D01*
X0003157385Y0000410661D02*
X0003267622Y0000410661D01*
X0003157385Y0000465779D02*
X0003267622Y0000465779D01*
D26*
X0003212503Y0000538220D02*
X0003242818Y0000538220D01*
X0003242818Y0000553968D02*
X0003242818Y0000521291D01*
D27*
X0003157385Y0000565779D02*
X0003157385Y0000510661D01*
X0003157385Y0000510661D02*
X0003267622Y0000510661D01*
X0003157385Y0000565779D02*
X0003267622Y0000565779D01*
D26*
X0003212503Y0000638220D02*
X0003242818Y0000638220D01*
X0003242818Y0000653968D02*
X0003242818Y0000621291D01*
D27*
X0003157385Y0000665779D02*
X0003157385Y0000610661D01*
X0003157385Y0000610661D02*
X0003267622Y0000610661D01*
X0003157385Y0000665779D02*
X0003267622Y0000665779D01*
D26*
X0003212503Y0000738220D02*
X0003242818Y0000738220D01*
X0003242818Y0000753968D02*
X0003242818Y0000721291D01*
D27*
X0003157385Y0000765779D02*
X0003157385Y0000710661D01*
X0003157385Y0000710661D02*
X0003267622Y0000710661D01*
X0003157385Y0000765779D02*
X0003267622Y0000765779D01*
D26*
X0003212503Y0000838220D02*
X0003242818Y0000838220D01*
X0003242818Y0000853968D02*
X0003242818Y0000821291D01*
D27*
X0003157385Y0000865779D02*
X0003157385Y0000810661D01*
X0003157385Y0000810661D02*
X0003267622Y0000810661D01*
X0003157385Y0000865779D02*
X0003267622Y0000865779D01*
X0003333370Y0000085858D02*
X0003438094Y0000085858D01*
X0003333370Y0000788220D02*
X0003333370Y0000085858D01*
X0003438094Y0000788220D02*
X0003438094Y0000085858D01*
X0003333370Y0000788220D02*
X0003438094Y0000788220D01*
X0003333370Y0000838220D02*
X0003333370Y0000890582D01*
X0003333370Y0000890582D02*
X0003385732Y0000890582D01*
X0003018409Y0000085858D02*
X0003123133Y0000085858D01*
X0003018409Y0000788220D02*
X0003018409Y0000085858D01*
X0003123133Y0000788220D02*
X0003123133Y0000085858D01*
X0003018409Y0000788220D02*
X0003123133Y0000788220D01*
X0003018409Y0000838220D02*
X0003018409Y0000890582D01*
X0003018409Y0000890582D02*
X0003070771Y0000890582D01*
D24*
D26*
D24*
D26*
G04 next file*
G04 Gerber Fmt 4.6, Leading zero omitted, Abs format (unit mm)*
G04 Created by KiCad (PCBNEW 4.0.7) date 11/22/17 20:28:19*
G01G01*
G04 APERTURE LIST*
G04 APERTURE END LIST*
D28*
D29*
X0003777559Y0000901574D02*
X0003738188Y0000901574D01*
X0003757874Y0000881889D02*
X0003757874Y0000921259D01*
D30*
X0003684944Y0000138220D02*
X0003715259Y0000138220D01*
X0003715259Y0000153968D02*
X0003715259Y0000121291D01*
D31*
X0003629826Y0000165779D02*
X0003629826Y0000110661D01*
X0003629826Y0000110661D02*
X0003740062Y0000110661D01*
X0003629826Y0000165779D02*
X0003740062Y0000165779D01*
D30*
X0003684944Y0000238220D02*
X0003715259Y0000238220D01*
X0003715259Y0000253968D02*
X0003715259Y0000221291D01*
D31*
X0003629826Y0000265779D02*
X0003629826Y0000210661D01*
X0003629826Y0000210661D02*
X0003740062Y0000210661D01*
X0003629826Y0000265779D02*
X0003740062Y0000265779D01*
D30*
X0003684944Y0000338220D02*
X0003715259Y0000338220D01*
X0003715259Y0000353968D02*
X0003715259Y0000321291D01*
D31*
X0003629826Y0000365779D02*
X0003629826Y0000310661D01*
X0003629826Y0000310661D02*
X0003740062Y0000310661D01*
X0003629826Y0000365779D02*
X0003740062Y0000365779D01*
D30*
X0003684944Y0000438220D02*
X0003715259Y0000438220D01*
X0003715259Y0000453968D02*
X0003715259Y0000421291D01*
D31*
X0003629826Y0000465779D02*
X0003629826Y0000410661D01*
X0003629826Y0000410661D02*
X0003740062Y0000410661D01*
X0003629826Y0000465779D02*
X0003740062Y0000465779D01*
D30*
X0003684944Y0000538220D02*
X0003715259Y0000538220D01*
X0003715259Y0000553968D02*
X0003715259Y0000521291D01*
D31*
X0003629826Y0000565779D02*
X0003629826Y0000510661D01*
X0003629826Y0000510661D02*
X0003740062Y0000510661D01*
X0003629826Y0000565779D02*
X0003740062Y0000565779D01*
D30*
X0003684944Y0000638220D02*
X0003715259Y0000638220D01*
X0003715259Y0000653968D02*
X0003715259Y0000621291D01*
D31*
X0003629826Y0000665779D02*
X0003629826Y0000610661D01*
X0003629826Y0000610661D02*
X0003740062Y0000610661D01*
X0003629826Y0000665779D02*
X0003740062Y0000665779D01*
D30*
X0003684944Y0000738220D02*
X0003715259Y0000738220D01*
X0003715259Y0000753968D02*
X0003715259Y0000721291D01*
D31*
X0003629826Y0000765779D02*
X0003629826Y0000710661D01*
X0003629826Y0000710661D02*
X0003740062Y0000710661D01*
X0003629826Y0000765779D02*
X0003740062Y0000765779D01*
D30*
X0003684944Y0000838220D02*
X0003715259Y0000838220D01*
X0003715259Y0000853968D02*
X0003715259Y0000821291D01*
D31*
X0003629826Y0000865779D02*
X0003629826Y0000810661D01*
X0003629826Y0000810661D02*
X0003740062Y0000810661D01*
X0003629826Y0000865779D02*
X0003740062Y0000865779D01*
X0003805811Y0000085858D02*
X0003910535Y0000085858D01*
X0003805811Y0000788220D02*
X0003805811Y0000085858D01*
X0003910535Y0000788220D02*
X0003910535Y0000085858D01*
X0003805811Y0000788220D02*
X0003910535Y0000788220D01*
X0003805811Y0000838220D02*
X0003805811Y0000890582D01*
X0003805811Y0000890582D02*
X0003858173Y0000890582D01*
X0003490850Y0000085858D02*
X0003595574Y0000085858D01*
X0003490850Y0000788220D02*
X0003490850Y0000085858D01*
X0003595574Y0000788220D02*
X0003595574Y0000085858D01*
X0003490850Y0000788220D02*
X0003595574Y0000788220D01*
X0003490850Y0000838220D02*
X0003490850Y0000890582D01*
X0003490850Y0000890582D02*
X0003543212Y0000890582D01*
D28*
D30*
D28*
D30*
G04 next file*
G04 Gerber Fmt 4.6, Leading zero omitted, Abs format (unit mm)*
G04 Created by KiCad (PCBNEW 4.0.7) date 11/22/17 20:28:19*
G01G01*
G04 APERTURE LIST*
G04 APERTURE END LIST*
D32*
D33*
X0002832677Y0000901574D02*
X0002793307Y0000901574D01*
X0002812992Y0000881889D02*
X0002812992Y0000921259D01*
D34*
X0002740062Y0000138220D02*
X0002770377Y0000138220D01*
X0002770377Y0000153968D02*
X0002770377Y0000121291D01*
D35*
X0002684944Y0000165779D02*
X0002684944Y0000110661D01*
X0002684944Y0000110661D02*
X0002795181Y0000110661D01*
X0002684944Y0000165779D02*
X0002795181Y0000165779D01*
D34*
X0002740062Y0000238220D02*
X0002770377Y0000238220D01*
X0002770377Y0000253968D02*
X0002770377Y0000221291D01*
D35*
X0002684944Y0000265779D02*
X0002684944Y0000210661D01*
X0002684944Y0000210661D02*
X0002795181Y0000210661D01*
X0002684944Y0000265779D02*
X0002795181Y0000265779D01*
D34*
X0002740062Y0000338220D02*
X0002770377Y0000338220D01*
X0002770377Y0000353968D02*
X0002770377Y0000321291D01*
D35*
X0002684944Y0000365779D02*
X0002684944Y0000310661D01*
X0002684944Y0000310661D02*
X0002795181Y0000310661D01*
X0002684944Y0000365779D02*
X0002795181Y0000365779D01*
D34*
X0002740062Y0000438220D02*
X0002770377Y0000438220D01*
X0002770377Y0000453968D02*
X0002770377Y0000421291D01*
D35*
X0002684944Y0000465779D02*
X0002684944Y0000410661D01*
X0002684944Y0000410661D02*
X0002795181Y0000410661D01*
X0002684944Y0000465779D02*
X0002795181Y0000465779D01*
D34*
X0002740062Y0000538220D02*
X0002770377Y0000538220D01*
X0002770377Y0000553968D02*
X0002770377Y0000521291D01*
D35*
X0002684944Y0000565779D02*
X0002684944Y0000510661D01*
X0002684944Y0000510661D02*
X0002795181Y0000510661D01*
X0002684944Y0000565779D02*
X0002795181Y0000565779D01*
D34*
X0002740062Y0000638220D02*
X0002770377Y0000638220D01*
X0002770377Y0000653968D02*
X0002770377Y0000621291D01*
D35*
X0002684944Y0000665779D02*
X0002684944Y0000610661D01*
X0002684944Y0000610661D02*
X0002795181Y0000610661D01*
X0002684944Y0000665779D02*
X0002795181Y0000665779D01*
D34*
X0002740062Y0000738220D02*
X0002770377Y0000738220D01*
X0002770377Y0000753968D02*
X0002770377Y0000721291D01*
D35*
X0002684944Y0000765779D02*
X0002684944Y0000710661D01*
X0002684944Y0000710661D02*
X0002795181Y0000710661D01*
X0002684944Y0000765779D02*
X0002795181Y0000765779D01*
D34*
X0002740062Y0000838220D02*
X0002770377Y0000838220D01*
X0002770377Y0000853968D02*
X0002770377Y0000821291D01*
D35*
X0002684944Y0000865779D02*
X0002684944Y0000810661D01*
X0002684944Y0000810661D02*
X0002795181Y0000810661D01*
X0002684944Y0000865779D02*
X0002795181Y0000865779D01*
X0002860929Y0000085858D02*
X0002965653Y0000085858D01*
X0002860929Y0000788220D02*
X0002860929Y0000085858D01*
X0002965653Y0000788220D02*
X0002965653Y0000085858D01*
X0002860929Y0000788220D02*
X0002965653Y0000788220D01*
X0002860929Y0000838220D02*
X0002860929Y0000890582D01*
X0002860929Y0000890582D02*
X0002913291Y0000890582D01*
X0002545968Y0000085858D02*
X0002650692Y0000085858D01*
X0002545968Y0000788220D02*
X0002545968Y0000085858D01*
X0002650692Y0000788220D02*
X0002650692Y0000085858D01*
X0002545968Y0000788220D02*
X0002650692Y0000788220D01*
X0002545968Y0000838220D02*
X0002545968Y0000890582D01*
X0002545968Y0000890582D02*
X0002598330Y0000890582D01*
D32*
D34*
D32*
D34*
G04 next file*
G04 Gerber Fmt 4.6, Leading zero omitted, Abs format (unit mm)*
G04 Created by KiCad (PCBNEW 4.0.7) date 11/22/17 20:28:19*
G01G01*
G04 APERTURE LIST*
G04 APERTURE END LIST*
D36*
D37*
X0002360236Y0000901574D02*
X0002320866Y0000901574D01*
X0002340551Y0000881889D02*
X0002340551Y0000921259D01*
D38*
X0002267622Y0000138220D02*
X0002297937Y0000138220D01*
X0002297937Y0000153968D02*
X0002297937Y0000121291D01*
D39*
X0002212503Y0000165779D02*
X0002212503Y0000110661D01*
X0002212503Y0000110661D02*
X0002322740Y0000110661D01*
X0002212503Y0000165779D02*
X0002322740Y0000165779D01*
D38*
X0002267622Y0000238220D02*
X0002297937Y0000238220D01*
X0002297937Y0000253968D02*
X0002297937Y0000221291D01*
D39*
X0002212503Y0000265779D02*
X0002212503Y0000210661D01*
X0002212503Y0000210661D02*
X0002322740Y0000210661D01*
X0002212503Y0000265779D02*
X0002322740Y0000265779D01*
D38*
X0002267622Y0000338220D02*
X0002297937Y0000338220D01*
X0002297937Y0000353968D02*
X0002297937Y0000321291D01*
D39*
X0002212503Y0000365779D02*
X0002212503Y0000310661D01*
X0002212503Y0000310661D02*
X0002322740Y0000310661D01*
X0002212503Y0000365779D02*
X0002322740Y0000365779D01*
D38*
X0002267622Y0000438220D02*
X0002297937Y0000438220D01*
X0002297937Y0000453968D02*
X0002297937Y0000421291D01*
D39*
X0002212503Y0000465779D02*
X0002212503Y0000410661D01*
X0002212503Y0000410661D02*
X0002322740Y0000410661D01*
X0002212503Y0000465779D02*
X0002322740Y0000465779D01*
D38*
X0002267622Y0000538220D02*
X0002297937Y0000538220D01*
X0002297937Y0000553968D02*
X0002297937Y0000521291D01*
D39*
X0002212503Y0000565779D02*
X0002212503Y0000510661D01*
X0002212503Y0000510661D02*
X0002322740Y0000510661D01*
X0002212503Y0000565779D02*
X0002322740Y0000565779D01*
D38*
X0002267622Y0000638220D02*
X0002297937Y0000638220D01*
X0002297937Y0000653968D02*
X0002297937Y0000621291D01*
D39*
X0002212503Y0000665779D02*
X0002212503Y0000610661D01*
X0002212503Y0000610661D02*
X0002322740Y0000610661D01*
X0002212503Y0000665779D02*
X0002322740Y0000665779D01*
D38*
X0002267622Y0000738220D02*
X0002297937Y0000738220D01*
X0002297937Y0000753968D02*
X0002297937Y0000721291D01*
D39*
X0002212503Y0000765779D02*
X0002212503Y0000710661D01*
X0002212503Y0000710661D02*
X0002322740Y0000710661D01*
X0002212503Y0000765779D02*
X0002322740Y0000765779D01*
D38*
X0002267622Y0000838220D02*
X0002297937Y0000838220D01*
X0002297937Y0000853968D02*
X0002297937Y0000821291D01*
D39*
X0002212503Y0000865779D02*
X0002212503Y0000810661D01*
X0002212503Y0000810661D02*
X0002322740Y0000810661D01*
X0002212503Y0000865779D02*
X0002322740Y0000865779D01*
X0002388488Y0000085858D02*
X0002493212Y0000085858D01*
X0002388488Y0000788220D02*
X0002388488Y0000085858D01*
X0002493212Y0000788220D02*
X0002493212Y0000085858D01*
X0002388488Y0000788220D02*
X0002493212Y0000788220D01*
X0002388488Y0000838220D02*
X0002388488Y0000890582D01*
X0002388488Y0000890582D02*
X0002440850Y0000890582D01*
X0002073527Y0000085858D02*
X0002178251Y0000085858D01*
X0002073527Y0000788220D02*
X0002073527Y0000085858D01*
X0002178251Y0000788220D02*
X0002178251Y0000085858D01*
X0002073527Y0000788220D02*
X0002178251Y0000788220D01*
X0002073527Y0000838220D02*
X0002073527Y0000890582D01*
X0002073527Y0000890582D02*
X0002125889Y0000890582D01*
D36*
D38*
D36*
D38*
G04 next file*
G04 Gerber Fmt 4.6, Leading zero omitted, Abs format (unit mm)*
G04 Created by KiCad (PCBNEW 4.0.7) date 11/22/17 20:28:19*
G01G01*
G04 APERTURE LIST*
G04 APERTURE END LIST*
D40*
D41*
X0001887795Y0000901574D02*
X0001848425Y0000901574D01*
X0001868110Y0000881889D02*
X0001868110Y0000921259D01*
D42*
X0001795181Y0000138220D02*
X0001825496Y0000138220D01*
X0001825496Y0000153968D02*
X0001825496Y0000121291D01*
D43*
X0001740062Y0000165779D02*
X0001740062Y0000110661D01*
X0001740062Y0000110661D02*
X0001850299Y0000110661D01*
X0001740062Y0000165779D02*
X0001850299Y0000165779D01*
D42*
X0001795181Y0000238220D02*
X0001825496Y0000238220D01*
X0001825496Y0000253968D02*
X0001825496Y0000221291D01*
D43*
X0001740062Y0000265779D02*
X0001740062Y0000210661D01*
X0001740062Y0000210661D02*
X0001850299Y0000210661D01*
X0001740062Y0000265779D02*
X0001850299Y0000265779D01*
D42*
X0001795181Y0000338220D02*
X0001825496Y0000338220D01*
X0001825496Y0000353968D02*
X0001825496Y0000321291D01*
D43*
X0001740062Y0000365779D02*
X0001740062Y0000310661D01*
X0001740062Y0000310661D02*
X0001850299Y0000310661D01*
X0001740062Y0000365779D02*
X0001850299Y0000365779D01*
D42*
X0001795181Y0000438220D02*
X0001825496Y0000438220D01*
X0001825496Y0000453968D02*
X0001825496Y0000421291D01*
D43*
X0001740062Y0000465779D02*
X0001740062Y0000410661D01*
X0001740062Y0000410661D02*
X0001850299Y0000410661D01*
X0001740062Y0000465779D02*
X0001850299Y0000465779D01*
D42*
X0001795181Y0000538220D02*
X0001825496Y0000538220D01*
X0001825496Y0000553968D02*
X0001825496Y0000521291D01*
D43*
X0001740062Y0000565779D02*
X0001740062Y0000510661D01*
X0001740062Y0000510661D02*
X0001850299Y0000510661D01*
X0001740062Y0000565779D02*
X0001850299Y0000565779D01*
D42*
X0001795181Y0000638220D02*
X0001825496Y0000638220D01*
X0001825496Y0000653968D02*
X0001825496Y0000621291D01*
D43*
X0001740062Y0000665779D02*
X0001740062Y0000610661D01*
X0001740062Y0000610661D02*
X0001850299Y0000610661D01*
X0001740062Y0000665779D02*
X0001850299Y0000665779D01*
D42*
X0001795181Y0000738220D02*
X0001825496Y0000738220D01*
X0001825496Y0000753968D02*
X0001825496Y0000721291D01*
D43*
X0001740062Y0000765779D02*
X0001740062Y0000710661D01*
X0001740062Y0000710661D02*
X0001850299Y0000710661D01*
X0001740062Y0000765779D02*
X0001850299Y0000765779D01*
D42*
X0001795181Y0000838220D02*
X0001825496Y0000838220D01*
X0001825496Y0000853968D02*
X0001825496Y0000821291D01*
D43*
X0001740062Y0000865779D02*
X0001740062Y0000810661D01*
X0001740062Y0000810661D02*
X0001850299Y0000810661D01*
X0001740062Y0000865779D02*
X0001850299Y0000865779D01*
X0001916047Y0000085858D02*
X0002020771Y0000085858D01*
X0001916047Y0000788220D02*
X0001916047Y0000085858D01*
X0002020771Y0000788220D02*
X0002020771Y0000085858D01*
X0001916047Y0000788220D02*
X0002020771Y0000788220D01*
X0001916047Y0000838220D02*
X0001916047Y0000890582D01*
X0001916047Y0000890582D02*
X0001968409Y0000890582D01*
X0001601086Y0000085858D02*
X0001705811Y0000085858D01*
X0001601086Y0000788220D02*
X0001601086Y0000085858D01*
X0001705811Y0000788220D02*
X0001705811Y0000085858D01*
X0001601086Y0000788220D02*
X0001705811Y0000788220D01*
X0001601086Y0000838220D02*
X0001601086Y0000890582D01*
X0001601086Y0000890582D02*
X0001653448Y0000890582D01*
D40*
D42*
D40*
D42*
G04 next file*
G04 Gerber Fmt 4.6, Leading zero omitted, Abs format (unit mm)*
G04 Created by KiCad (PCBNEW 4.0.7) date 11/22/17 20:28:19*
G01G01*
G04 APERTURE LIST*
G04 APERTURE END LIST*
D44*
D45*
X0001415354Y0000901574D02*
X0001375984Y0000901574D01*
X0001395669Y0000881889D02*
X0001395669Y0000921259D01*
D46*
X0001322740Y0000138220D02*
X0001353055Y0000138220D01*
X0001353055Y0000153968D02*
X0001353055Y0000121291D01*
D47*
X0001267622Y0000165779D02*
X0001267622Y0000110661D01*
X0001267622Y0000110661D02*
X0001377858Y0000110661D01*
X0001267622Y0000165779D02*
X0001377858Y0000165779D01*
D46*
X0001322740Y0000238220D02*
X0001353055Y0000238220D01*
X0001353055Y0000253968D02*
X0001353055Y0000221291D01*
D47*
X0001267622Y0000265779D02*
X0001267622Y0000210661D01*
X0001267622Y0000210661D02*
X0001377858Y0000210661D01*
X0001267622Y0000265779D02*
X0001377858Y0000265779D01*
D46*
X0001322740Y0000338220D02*
X0001353055Y0000338220D01*
X0001353055Y0000353968D02*
X0001353055Y0000321291D01*
D47*
X0001267622Y0000365779D02*
X0001267622Y0000310661D01*
X0001267622Y0000310661D02*
X0001377858Y0000310661D01*
X0001267622Y0000365779D02*
X0001377858Y0000365779D01*
D46*
X0001322740Y0000438220D02*
X0001353055Y0000438220D01*
X0001353055Y0000453968D02*
X0001353055Y0000421291D01*
D47*
X0001267622Y0000465779D02*
X0001267622Y0000410661D01*
X0001267622Y0000410661D02*
X0001377858Y0000410661D01*
X0001267622Y0000465779D02*
X0001377858Y0000465779D01*
D46*
X0001322740Y0000538220D02*
X0001353055Y0000538220D01*
X0001353055Y0000553968D02*
X0001353055Y0000521291D01*
D47*
X0001267622Y0000565779D02*
X0001267622Y0000510661D01*
X0001267622Y0000510661D02*
X0001377858Y0000510661D01*
X0001267622Y0000565779D02*
X0001377858Y0000565779D01*
D46*
X0001322740Y0000638220D02*
X0001353055Y0000638220D01*
X0001353055Y0000653968D02*
X0001353055Y0000621291D01*
D47*
X0001267622Y0000665779D02*
X0001267622Y0000610661D01*
X0001267622Y0000610661D02*
X0001377858Y0000610661D01*
X0001267622Y0000665779D02*
X0001377858Y0000665779D01*
D46*
X0001322740Y0000738220D02*
X0001353055Y0000738220D01*
X0001353055Y0000753968D02*
X0001353055Y0000721291D01*
D47*
X0001267622Y0000765779D02*
X0001267622Y0000710661D01*
X0001267622Y0000710661D02*
X0001377858Y0000710661D01*
X0001267622Y0000765779D02*
X0001377858Y0000765779D01*
D46*
X0001322740Y0000838220D02*
X0001353055Y0000838220D01*
X0001353055Y0000853968D02*
X0001353055Y0000821291D01*
D47*
X0001267622Y0000865779D02*
X0001267622Y0000810661D01*
X0001267622Y0000810661D02*
X0001377858Y0000810661D01*
X0001267622Y0000865779D02*
X0001377858Y0000865779D01*
X0001443606Y0000085858D02*
X0001548330Y0000085858D01*
X0001443606Y0000788220D02*
X0001443606Y0000085858D01*
X0001548330Y0000788220D02*
X0001548330Y0000085858D01*
X0001443606Y0000788220D02*
X0001548330Y0000788220D01*
X0001443606Y0000838220D02*
X0001443606Y0000890582D01*
X0001443606Y0000890582D02*
X0001495968Y0000890582D01*
X0001128645Y0000085858D02*
X0001233370Y0000085858D01*
X0001128645Y0000788220D02*
X0001128645Y0000085858D01*
X0001233370Y0000788220D02*
X0001233370Y0000085858D01*
X0001128645Y0000788220D02*
X0001233370Y0000788220D01*
X0001128645Y0000838220D02*
X0001128645Y0000890582D01*
X0001128645Y0000890582D02*
X0001181007Y0000890582D01*
D44*
D46*
D44*
D46*
G04 next file*
G04 Gerber Fmt 4.6, Leading zero omitted, Abs format (unit mm)*
G04 Created by KiCad (PCBNEW 4.0.7) date 11/22/17 20:28:19*
G01G01*
G04 APERTURE LIST*
G04 APERTURE END LIST*
D48*
D49*
X0000942913Y0000901574D02*
X0000903543Y0000901574D01*
X0000923228Y0000881889D02*
X0000923228Y0000921259D01*
D50*
X0000850299Y0000138220D02*
X0000880614Y0000138220D01*
X0000880614Y0000153968D02*
X0000880614Y0000121291D01*
D51*
X0000795181Y0000165779D02*
X0000795181Y0000110661D01*
X0000795181Y0000110661D02*
X0000905417Y0000110661D01*
X0000795181Y0000165779D02*
X0000905417Y0000165779D01*
D50*
X0000850299Y0000238220D02*
X0000880614Y0000238220D01*
X0000880614Y0000253968D02*
X0000880614Y0000221291D01*
D51*
X0000795181Y0000265779D02*
X0000795181Y0000210661D01*
X0000795181Y0000210661D02*
X0000905417Y0000210661D01*
X0000795181Y0000265779D02*
X0000905417Y0000265779D01*
D50*
X0000850299Y0000338220D02*
X0000880614Y0000338220D01*
X0000880614Y0000353968D02*
X0000880614Y0000321291D01*
D51*
X0000795181Y0000365779D02*
X0000795181Y0000310661D01*
X0000795181Y0000310661D02*
X0000905417Y0000310661D01*
X0000795181Y0000365779D02*
X0000905417Y0000365779D01*
D50*
X0000850299Y0000438220D02*
X0000880614Y0000438220D01*
X0000880614Y0000453968D02*
X0000880614Y0000421291D01*
D51*
X0000795181Y0000465779D02*
X0000795181Y0000410661D01*
X0000795181Y0000410661D02*
X0000905417Y0000410661D01*
X0000795181Y0000465779D02*
X0000905417Y0000465779D01*
D50*
X0000850299Y0000538220D02*
X0000880614Y0000538220D01*
X0000880614Y0000553968D02*
X0000880614Y0000521291D01*
D51*
X0000795181Y0000565779D02*
X0000795181Y0000510661D01*
X0000795181Y0000510661D02*
X0000905417Y0000510661D01*
X0000795181Y0000565779D02*
X0000905417Y0000565779D01*
D50*
X0000850299Y0000638220D02*
X0000880614Y0000638220D01*
X0000880614Y0000653968D02*
X0000880614Y0000621291D01*
D51*
X0000795181Y0000665779D02*
X0000795181Y0000610661D01*
X0000795181Y0000610661D02*
X0000905417Y0000610661D01*
X0000795181Y0000665779D02*
X0000905417Y0000665779D01*
D50*
X0000850299Y0000738220D02*
X0000880614Y0000738220D01*
X0000880614Y0000753968D02*
X0000880614Y0000721291D01*
D51*
X0000795181Y0000765779D02*
X0000795181Y0000710661D01*
X0000795181Y0000710661D02*
X0000905417Y0000710661D01*
X0000795181Y0000765779D02*
X0000905417Y0000765779D01*
D50*
X0000850299Y0000838220D02*
X0000880614Y0000838220D01*
X0000880614Y0000853968D02*
X0000880614Y0000821291D01*
D51*
X0000795181Y0000865779D02*
X0000795181Y0000810661D01*
X0000795181Y0000810661D02*
X0000905417Y0000810661D01*
X0000795181Y0000865779D02*
X0000905417Y0000865779D01*
X0000971165Y0000085858D02*
X0001075889Y0000085858D01*
X0000971165Y0000788220D02*
X0000971165Y0000085858D01*
X0001075889Y0000788220D02*
X0001075889Y0000085858D01*
X0000971165Y0000788220D02*
X0001075889Y0000788220D01*
X0000971165Y0000838220D02*
X0000971165Y0000890582D01*
X0000971165Y0000890582D02*
X0001023527Y0000890582D01*
X0000656204Y0000085858D02*
X0000760929Y0000085858D01*
X0000656204Y0000788220D02*
X0000656204Y0000085858D01*
X0000760929Y0000788220D02*
X0000760929Y0000085858D01*
X0000656204Y0000788220D02*
X0000760929Y0000788220D01*
X0000656204Y0000838220D02*
X0000656204Y0000890582D01*
X0000656204Y0000890582D02*
X0000708566Y0000890582D01*
D48*
D50*
D48*
D50*
G04 next file*
G04 Gerber Fmt 4.6, Leading zero omitted, Abs format (unit mm)*
G04 Created by KiCad (PCBNEW 4.0.7) date 11/22/17 20:28:19*
G01G01*
G04 APERTURE LIST*
G04 APERTURE END LIST*
D52*
D53*
X0000470472Y0000901574D02*
X0000431102Y0000901574D01*
X0000450787Y0000881889D02*
X0000450787Y0000921259D01*
D54*
X0000377858Y0000138220D02*
X0000408173Y0000138220D01*
X0000408173Y0000153968D02*
X0000408173Y0000121291D01*
D55*
X0000322740Y0000165779D02*
X0000322740Y0000110661D01*
X0000322740Y0000110661D02*
X0000432976Y0000110661D01*
X0000322740Y0000165779D02*
X0000432976Y0000165779D01*
D54*
X0000377858Y0000238220D02*
X0000408173Y0000238220D01*
X0000408173Y0000253968D02*
X0000408173Y0000221291D01*
D55*
X0000322740Y0000265779D02*
X0000322740Y0000210661D01*
X0000322740Y0000210661D02*
X0000432976Y0000210661D01*
X0000322740Y0000265779D02*
X0000432976Y0000265779D01*
D54*
X0000377858Y0000338220D02*
X0000408173Y0000338220D01*
X0000408173Y0000353968D02*
X0000408173Y0000321291D01*
D55*
X0000322740Y0000365779D02*
X0000322740Y0000310661D01*
X0000322740Y0000310661D02*
X0000432976Y0000310661D01*
X0000322740Y0000365779D02*
X0000432976Y0000365779D01*
D54*
X0000377858Y0000438220D02*
X0000408173Y0000438220D01*
X0000408173Y0000453968D02*
X0000408173Y0000421291D01*
D55*
X0000322740Y0000465779D02*
X0000322740Y0000410661D01*
X0000322740Y0000410661D02*
X0000432976Y0000410661D01*
X0000322740Y0000465779D02*
X0000432976Y0000465779D01*
D54*
X0000377858Y0000538220D02*
X0000408173Y0000538220D01*
X0000408173Y0000553968D02*
X0000408173Y0000521291D01*
D55*
X0000322740Y0000565779D02*
X0000322740Y0000510661D01*
X0000322740Y0000510661D02*
X0000432976Y0000510661D01*
X0000322740Y0000565779D02*
X0000432976Y0000565779D01*
D54*
X0000377858Y0000638220D02*
X0000408173Y0000638220D01*
X0000408173Y0000653968D02*
X0000408173Y0000621291D01*
D55*
X0000322740Y0000665779D02*
X0000322740Y0000610661D01*
X0000322740Y0000610661D02*
X0000432976Y0000610661D01*
X0000322740Y0000665779D02*
X0000432976Y0000665779D01*
D54*
X0000377858Y0000738220D02*
X0000408173Y0000738220D01*
X0000408173Y0000753968D02*
X0000408173Y0000721291D01*
D55*
X0000322740Y0000765779D02*
X0000322740Y0000710661D01*
X0000322740Y0000710661D02*
X0000432976Y0000710661D01*
X0000322740Y0000765779D02*
X0000432976Y0000765779D01*
D54*
X0000377858Y0000838220D02*
X0000408173Y0000838220D01*
X0000408173Y0000853968D02*
X0000408173Y0000821291D01*
D55*
X0000322740Y0000865779D02*
X0000322740Y0000810661D01*
X0000322740Y0000810661D02*
X0000432976Y0000810661D01*
X0000322740Y0000865779D02*
X0000432976Y0000865779D01*
X0000498724Y0000085858D02*
X0000603448Y0000085858D01*
X0000498724Y0000788220D02*
X0000498724Y0000085858D01*
X0000603448Y0000788220D02*
X0000603448Y0000085858D01*
X0000498724Y0000788220D02*
X0000603448Y0000788220D01*
X0000498724Y0000838220D02*
X0000498724Y0000890582D01*
X0000498724Y0000890582D02*
X0000551086Y0000890582D01*
X0000183763Y0000085858D02*
X0000288488Y0000085858D01*
X0000183763Y0000788220D02*
X0000183763Y0000085858D01*
X0000288488Y0000788220D02*
X0000288488Y0000085858D01*
X0000183763Y0000788220D02*
X0000288488Y0000788220D01*
X0000183763Y0000838220D02*
X0000183763Y0000890582D01*
X0000183763Y0000890582D02*
X0000236125Y0000890582D01*
D52*
D54*
D52*
D54*
G04 next file*
G04 Gerber Fmt 4.6, Leading zero omitted, Abs format (unit mm)*
G04 Created by KiCad (PCBNEW 4.0.7) date 11/22/17 20:28:19*
G01G01*
G04 APERTURE LIST*
G04 APERTURE END LIST*
D56*
D57*
X0003305118Y0001814960D02*
X0003265748Y0001814960D01*
X0003285433Y0001795275D02*
X0003285433Y0001834645D01*
D58*
X0003212503Y0001051606D02*
X0003242818Y0001051606D01*
X0003242818Y0001067354D02*
X0003242818Y0001034677D01*
D59*
X0003157385Y0001079165D02*
X0003157385Y0001024047D01*
X0003157385Y0001024047D02*
X0003267622Y0001024047D01*
X0003157385Y0001079165D02*
X0003267622Y0001079165D01*
D58*
X0003212503Y0001151606D02*
X0003242818Y0001151606D01*
X0003242818Y0001167354D02*
X0003242818Y0001134677D01*
D59*
X0003157385Y0001179165D02*
X0003157385Y0001124047D01*
X0003157385Y0001124047D02*
X0003267622Y0001124047D01*
X0003157385Y0001179165D02*
X0003267622Y0001179165D01*
D58*
X0003212503Y0001251606D02*
X0003242818Y0001251606D01*
X0003242818Y0001267354D02*
X0003242818Y0001234677D01*
D59*
X0003157385Y0001279165D02*
X0003157385Y0001224047D01*
X0003157385Y0001224047D02*
X0003267622Y0001224047D01*
X0003157385Y0001279165D02*
X0003267622Y0001279165D01*
D58*
X0003212503Y0001351606D02*
X0003242818Y0001351606D01*
X0003242818Y0001367354D02*
X0003242818Y0001334677D01*
D59*
X0003157385Y0001379165D02*
X0003157385Y0001324047D01*
X0003157385Y0001324047D02*
X0003267622Y0001324047D01*
X0003157385Y0001379165D02*
X0003267622Y0001379165D01*
D58*
X0003212503Y0001451606D02*
X0003242818Y0001451606D01*
X0003242818Y0001467354D02*
X0003242818Y0001434677D01*
D59*
X0003157385Y0001479165D02*
X0003157385Y0001424047D01*
X0003157385Y0001424047D02*
X0003267622Y0001424047D01*
X0003157385Y0001479165D02*
X0003267622Y0001479165D01*
D58*
X0003212503Y0001551606D02*
X0003242818Y0001551606D01*
X0003242818Y0001567354D02*
X0003242818Y0001534677D01*
D59*
X0003157385Y0001579165D02*
X0003157385Y0001524047D01*
X0003157385Y0001524047D02*
X0003267622Y0001524047D01*
X0003157385Y0001579165D02*
X0003267622Y0001579165D01*
D58*
X0003212503Y0001651606D02*
X0003242818Y0001651606D01*
X0003242818Y0001667354D02*
X0003242818Y0001634677D01*
D59*
X0003157385Y0001679165D02*
X0003157385Y0001624047D01*
X0003157385Y0001624047D02*
X0003267622Y0001624047D01*
X0003157385Y0001679165D02*
X0003267622Y0001679165D01*
D58*
X0003212503Y0001751606D02*
X0003242818Y0001751606D01*
X0003242818Y0001767354D02*
X0003242818Y0001734677D01*
D59*
X0003157385Y0001779165D02*
X0003157385Y0001724047D01*
X0003157385Y0001724047D02*
X0003267622Y0001724047D01*
X0003157385Y0001779165D02*
X0003267622Y0001779165D01*
X0003333370Y0000999244D02*
X0003438094Y0000999244D01*
X0003333370Y0001701606D02*
X0003333370Y0000999244D01*
X0003438094Y0001701606D02*
X0003438094Y0000999244D01*
X0003333370Y0001701606D02*
X0003438094Y0001701606D01*
X0003333370Y0001751606D02*
X0003333370Y0001803968D01*
X0003333370Y0001803968D02*
X0003385732Y0001803968D01*
X0003018409Y0000999244D02*
X0003123133Y0000999244D01*
X0003018409Y0001701606D02*
X0003018409Y0000999244D01*
X0003123133Y0001701606D02*
X0003123133Y0000999244D01*
X0003018409Y0001701606D02*
X0003123133Y0001701606D01*
X0003018409Y0001751606D02*
X0003018409Y0001803968D01*
X0003018409Y0001803968D02*
X0003070771Y0001803968D01*
D56*
D58*
D56*
D58*
G04 next file*
G04 Gerber Fmt 4.6, Leading zero omitted, Abs format (unit mm)*
G04 Created by KiCad (PCBNEW 4.0.7) date 11/22/17 20:28:19*
G01G01*
G04 APERTURE LIST*
G04 APERTURE END LIST*
D60*
D61*
X0003777559Y0001814960D02*
X0003738188Y0001814960D01*
X0003757874Y0001795275D02*
X0003757874Y0001834645D01*
D62*
X0003684944Y0001051606D02*
X0003715259Y0001051606D01*
X0003715259Y0001067354D02*
X0003715259Y0001034677D01*
D63*
X0003629826Y0001079165D02*
X0003629826Y0001024047D01*
X0003629826Y0001024047D02*
X0003740062Y0001024047D01*
X0003629826Y0001079165D02*
X0003740062Y0001079165D01*
D62*
X0003684944Y0001151606D02*
X0003715259Y0001151606D01*
X0003715259Y0001167354D02*
X0003715259Y0001134677D01*
D63*
X0003629826Y0001179165D02*
X0003629826Y0001124047D01*
X0003629826Y0001124047D02*
X0003740062Y0001124047D01*
X0003629826Y0001179165D02*
X0003740062Y0001179165D01*
D62*
X0003684944Y0001251606D02*
X0003715259Y0001251606D01*
X0003715259Y0001267354D02*
X0003715259Y0001234677D01*
D63*
X0003629826Y0001279165D02*
X0003629826Y0001224047D01*
X0003629826Y0001224047D02*
X0003740062Y0001224047D01*
X0003629826Y0001279165D02*
X0003740062Y0001279165D01*
D62*
X0003684944Y0001351606D02*
X0003715259Y0001351606D01*
X0003715259Y0001367354D02*
X0003715259Y0001334677D01*
D63*
X0003629826Y0001379165D02*
X0003629826Y0001324047D01*
X0003629826Y0001324047D02*
X0003740062Y0001324047D01*
X0003629826Y0001379165D02*
X0003740062Y0001379165D01*
D62*
X0003684944Y0001451606D02*
X0003715259Y0001451606D01*
X0003715259Y0001467354D02*
X0003715259Y0001434677D01*
D63*
X0003629826Y0001479165D02*
X0003629826Y0001424047D01*
X0003629826Y0001424047D02*
X0003740062Y0001424047D01*
X0003629826Y0001479165D02*
X0003740062Y0001479165D01*
D62*
X0003684944Y0001551606D02*
X0003715259Y0001551606D01*
X0003715259Y0001567354D02*
X0003715259Y0001534677D01*
D63*
X0003629826Y0001579165D02*
X0003629826Y0001524047D01*
X0003629826Y0001524047D02*
X0003740062Y0001524047D01*
X0003629826Y0001579165D02*
X0003740062Y0001579165D01*
D62*
X0003684944Y0001651606D02*
X0003715259Y0001651606D01*
X0003715259Y0001667354D02*
X0003715259Y0001634677D01*
D63*
X0003629826Y0001679165D02*
X0003629826Y0001624047D01*
X0003629826Y0001624047D02*
X0003740062Y0001624047D01*
X0003629826Y0001679165D02*
X0003740062Y0001679165D01*
D62*
X0003684944Y0001751606D02*
X0003715259Y0001751606D01*
X0003715259Y0001767354D02*
X0003715259Y0001734677D01*
D63*
X0003629826Y0001779165D02*
X0003629826Y0001724047D01*
X0003629826Y0001724047D02*
X0003740062Y0001724047D01*
X0003629826Y0001779165D02*
X0003740062Y0001779165D01*
X0003805811Y0000999244D02*
X0003910535Y0000999244D01*
X0003805811Y0001701606D02*
X0003805811Y0000999244D01*
X0003910535Y0001701606D02*
X0003910535Y0000999244D01*
X0003805811Y0001701606D02*
X0003910535Y0001701606D01*
X0003805811Y0001751606D02*
X0003805811Y0001803968D01*
X0003805811Y0001803968D02*
X0003858173Y0001803968D01*
X0003490850Y0000999244D02*
X0003595574Y0000999244D01*
X0003490850Y0001701606D02*
X0003490850Y0000999244D01*
X0003595574Y0001701606D02*
X0003595574Y0000999244D01*
X0003490850Y0001701606D02*
X0003595574Y0001701606D01*
X0003490850Y0001751606D02*
X0003490850Y0001803968D01*
X0003490850Y0001803968D02*
X0003543212Y0001803968D01*
D60*
D62*
D60*
D62*
G04 next file*
G04 Gerber Fmt 4.6, Leading zero omitted, Abs format (unit mm)*
G04 Created by KiCad (PCBNEW 4.0.7) date 11/22/17 20:28:19*
G01G01*
G04 APERTURE LIST*
G04 APERTURE END LIST*
D64*
D65*
X0003305118Y0002728346D02*
X0003265748Y0002728346D01*
X0003285433Y0002708661D02*
X0003285433Y0002748031D01*
D66*
X0003212503Y0001964992D02*
X0003242818Y0001964992D01*
X0003242818Y0001980740D02*
X0003242818Y0001948063D01*
D67*
X0003157385Y0001992551D02*
X0003157385Y0001937433D01*
X0003157385Y0001937433D02*
X0003267622Y0001937433D01*
X0003157385Y0001992551D02*
X0003267622Y0001992551D01*
D66*
X0003212503Y0002064992D02*
X0003242818Y0002064992D01*
X0003242818Y0002080740D02*
X0003242818Y0002048063D01*
D67*
X0003157385Y0002092551D02*
X0003157385Y0002037433D01*
X0003157385Y0002037433D02*
X0003267622Y0002037433D01*
X0003157385Y0002092551D02*
X0003267622Y0002092551D01*
D66*
X0003212503Y0002164992D02*
X0003242818Y0002164992D01*
X0003242818Y0002180740D02*
X0003242818Y0002148063D01*
D67*
X0003157385Y0002192551D02*
X0003157385Y0002137433D01*
X0003157385Y0002137433D02*
X0003267622Y0002137433D01*
X0003157385Y0002192551D02*
X0003267622Y0002192551D01*
D66*
X0003212503Y0002264992D02*
X0003242818Y0002264992D01*
X0003242818Y0002280740D02*
X0003242818Y0002248063D01*
D67*
X0003157385Y0002292551D02*
X0003157385Y0002237433D01*
X0003157385Y0002237433D02*
X0003267622Y0002237433D01*
X0003157385Y0002292551D02*
X0003267622Y0002292551D01*
D66*
X0003212503Y0002364992D02*
X0003242818Y0002364992D01*
X0003242818Y0002380740D02*
X0003242818Y0002348063D01*
D67*
X0003157385Y0002392551D02*
X0003157385Y0002337433D01*
X0003157385Y0002337433D02*
X0003267622Y0002337433D01*
X0003157385Y0002392551D02*
X0003267622Y0002392551D01*
D66*
X0003212503Y0002464992D02*
X0003242818Y0002464992D01*
X0003242818Y0002480740D02*
X0003242818Y0002448063D01*
D67*
X0003157385Y0002492551D02*
X0003157385Y0002437433D01*
X0003157385Y0002437433D02*
X0003267622Y0002437433D01*
X0003157385Y0002492551D02*
X0003267622Y0002492551D01*
D66*
X0003212503Y0002564992D02*
X0003242818Y0002564992D01*
X0003242818Y0002580740D02*
X0003242818Y0002548063D01*
D67*
X0003157385Y0002592551D02*
X0003157385Y0002537433D01*
X0003157385Y0002537433D02*
X0003267622Y0002537433D01*
X0003157385Y0002592551D02*
X0003267622Y0002592551D01*
D66*
X0003212503Y0002664992D02*
X0003242818Y0002664992D01*
X0003242818Y0002680740D02*
X0003242818Y0002648063D01*
D67*
X0003157385Y0002692551D02*
X0003157385Y0002637433D01*
X0003157385Y0002637433D02*
X0003267622Y0002637433D01*
X0003157385Y0002692551D02*
X0003267622Y0002692551D01*
X0003333370Y0001912629D02*
X0003438094Y0001912629D01*
X0003333370Y0002614992D02*
X0003333370Y0001912629D01*
X0003438094Y0002614992D02*
X0003438094Y0001912629D01*
X0003333370Y0002614992D02*
X0003438094Y0002614992D01*
X0003333370Y0002664992D02*
X0003333370Y0002717354D01*
X0003333370Y0002717354D02*
X0003385732Y0002717354D01*
X0003018409Y0001912629D02*
X0003123133Y0001912629D01*
X0003018409Y0002614992D02*
X0003018409Y0001912629D01*
X0003123133Y0002614992D02*
X0003123133Y0001912629D01*
X0003018409Y0002614992D02*
X0003123133Y0002614992D01*
X0003018409Y0002664992D02*
X0003018409Y0002717354D01*
X0003018409Y0002717354D02*
X0003070771Y0002717354D01*
D64*
D66*
D64*
D66*
G04 next file*
G04 Gerber Fmt 4.6, Leading zero omitted, Abs format (unit mm)*
G04 Created by KiCad (PCBNEW 4.0.7) date 11/22/17 20:28:19*
G01G01*
G04 APERTURE LIST*
G04 APERTURE END LIST*
D68*
D69*
X0003777559Y0002728346D02*
X0003738188Y0002728346D01*
X0003757874Y0002708661D02*
X0003757874Y0002748031D01*
D70*
X0003684944Y0001964992D02*
X0003715259Y0001964992D01*
X0003715259Y0001980740D02*
X0003715259Y0001948063D01*
D71*
X0003629826Y0001992551D02*
X0003629826Y0001937433D01*
X0003629826Y0001937433D02*
X0003740062Y0001937433D01*
X0003629826Y0001992551D02*
X0003740062Y0001992551D01*
D70*
X0003684944Y0002064992D02*
X0003715259Y0002064992D01*
X0003715259Y0002080740D02*
X0003715259Y0002048063D01*
D71*
X0003629826Y0002092551D02*
X0003629826Y0002037433D01*
X0003629826Y0002037433D02*
X0003740062Y0002037433D01*
X0003629826Y0002092551D02*
X0003740062Y0002092551D01*
D70*
X0003684944Y0002164992D02*
X0003715259Y0002164992D01*
X0003715259Y0002180740D02*
X0003715259Y0002148063D01*
D71*
X0003629826Y0002192551D02*
X0003629826Y0002137433D01*
X0003629826Y0002137433D02*
X0003740062Y0002137433D01*
X0003629826Y0002192551D02*
X0003740062Y0002192551D01*
D70*
X0003684944Y0002264992D02*
X0003715259Y0002264992D01*
X0003715259Y0002280740D02*
X0003715259Y0002248063D01*
D71*
X0003629826Y0002292551D02*
X0003629826Y0002237433D01*
X0003629826Y0002237433D02*
X0003740062Y0002237433D01*
X0003629826Y0002292551D02*
X0003740062Y0002292551D01*
D70*
X0003684944Y0002364992D02*
X0003715259Y0002364992D01*
X0003715259Y0002380740D02*
X0003715259Y0002348063D01*
D71*
X0003629826Y0002392551D02*
X0003629826Y0002337433D01*
X0003629826Y0002337433D02*
X0003740062Y0002337433D01*
X0003629826Y0002392551D02*
X0003740062Y0002392551D01*
D70*
X0003684944Y0002464992D02*
X0003715259Y0002464992D01*
X0003715259Y0002480740D02*
X0003715259Y0002448063D01*
D71*
X0003629826Y0002492551D02*
X0003629826Y0002437433D01*
X0003629826Y0002437433D02*
X0003740062Y0002437433D01*
X0003629826Y0002492551D02*
X0003740062Y0002492551D01*
D70*
X0003684944Y0002564992D02*
X0003715259Y0002564992D01*
X0003715259Y0002580740D02*
X0003715259Y0002548063D01*
D71*
X0003629826Y0002592551D02*
X0003629826Y0002537433D01*
X0003629826Y0002537433D02*
X0003740062Y0002537433D01*
X0003629826Y0002592551D02*
X0003740062Y0002592551D01*
D70*
X0003684944Y0002664992D02*
X0003715259Y0002664992D01*
X0003715259Y0002680740D02*
X0003715259Y0002648063D01*
D71*
X0003629826Y0002692551D02*
X0003629826Y0002637433D01*
X0003629826Y0002637433D02*
X0003740062Y0002637433D01*
X0003629826Y0002692551D02*
X0003740062Y0002692551D01*
X0003805811Y0001912629D02*
X0003910535Y0001912629D01*
X0003805811Y0002614992D02*
X0003805811Y0001912629D01*
X0003910535Y0002614992D02*
X0003910535Y0001912629D01*
X0003805811Y0002614992D02*
X0003910535Y0002614992D01*
X0003805811Y0002664992D02*
X0003805811Y0002717354D01*
X0003805811Y0002717354D02*
X0003858173Y0002717354D01*
X0003490850Y0001912629D02*
X0003595574Y0001912629D01*
X0003490850Y0002614992D02*
X0003490850Y0001912629D01*
X0003595574Y0002614992D02*
X0003595574Y0001912629D01*
X0003490850Y0002614992D02*
X0003595574Y0002614992D01*
X0003490850Y0002664992D02*
X0003490850Y0002717354D01*
X0003490850Y0002717354D02*
X0003543212Y0002717354D01*
D68*
D70*
D68*
D70*
G04 next file*
G04 Gerber Fmt 4.6, Leading zero omitted, Abs format (unit mm)*
G04 Created by KiCad (PCBNEW 4.0.7) date 11/22/17 20:28:19*
G01G01*
G04 APERTURE LIST*
G04 APERTURE END LIST*
D72*
D73*
X0003305118Y0003641732D02*
X0003265748Y0003641732D01*
X0003285433Y0003622047D02*
X0003285433Y0003661417D01*
D74*
X0003212503Y0002878377D02*
X0003242818Y0002878377D01*
X0003242818Y0002894125D02*
X0003242818Y0002861448D01*
D75*
X0003157385Y0002905936D02*
X0003157385Y0002850818D01*
X0003157385Y0002850818D02*
X0003267622Y0002850818D01*
X0003157385Y0002905936D02*
X0003267622Y0002905936D01*
D74*
X0003212503Y0002978377D02*
X0003242818Y0002978377D01*
X0003242818Y0002994125D02*
X0003242818Y0002961448D01*
D75*
X0003157385Y0003005936D02*
X0003157385Y0002950818D01*
X0003157385Y0002950818D02*
X0003267622Y0002950818D01*
X0003157385Y0003005936D02*
X0003267622Y0003005936D01*
D74*
X0003212503Y0003078377D02*
X0003242818Y0003078377D01*
X0003242818Y0003094125D02*
X0003242818Y0003061448D01*
D75*
X0003157385Y0003105936D02*
X0003157385Y0003050818D01*
X0003157385Y0003050818D02*
X0003267622Y0003050818D01*
X0003157385Y0003105936D02*
X0003267622Y0003105936D01*
D74*
X0003212503Y0003178377D02*
X0003242818Y0003178377D01*
X0003242818Y0003194125D02*
X0003242818Y0003161448D01*
D75*
X0003157385Y0003205936D02*
X0003157385Y0003150818D01*
X0003157385Y0003150818D02*
X0003267622Y0003150818D01*
X0003157385Y0003205936D02*
X0003267622Y0003205936D01*
D74*
X0003212503Y0003278377D02*
X0003242818Y0003278377D01*
X0003242818Y0003294125D02*
X0003242818Y0003261448D01*
D75*
X0003157385Y0003305936D02*
X0003157385Y0003250818D01*
X0003157385Y0003250818D02*
X0003267622Y0003250818D01*
X0003157385Y0003305936D02*
X0003267622Y0003305936D01*
D74*
X0003212503Y0003378377D02*
X0003242818Y0003378377D01*
X0003242818Y0003394125D02*
X0003242818Y0003361448D01*
D75*
X0003157385Y0003405936D02*
X0003157385Y0003350818D01*
X0003157385Y0003350818D02*
X0003267622Y0003350818D01*
X0003157385Y0003405936D02*
X0003267622Y0003405936D01*
D74*
X0003212503Y0003478377D02*
X0003242818Y0003478377D01*
X0003242818Y0003494125D02*
X0003242818Y0003461448D01*
D75*
X0003157385Y0003505936D02*
X0003157385Y0003450818D01*
X0003157385Y0003450818D02*
X0003267622Y0003450818D01*
X0003157385Y0003505936D02*
X0003267622Y0003505936D01*
D74*
X0003212503Y0003578377D02*
X0003242818Y0003578377D01*
X0003242818Y0003594125D02*
X0003242818Y0003561448D01*
D75*
X0003157385Y0003605936D02*
X0003157385Y0003550818D01*
X0003157385Y0003550818D02*
X0003267622Y0003550818D01*
X0003157385Y0003605936D02*
X0003267622Y0003605936D01*
X0003333370Y0002826015D02*
X0003438094Y0002826015D01*
X0003333370Y0003528377D02*
X0003333370Y0002826015D01*
X0003438094Y0003528377D02*
X0003438094Y0002826015D01*
X0003333370Y0003528377D02*
X0003438094Y0003528377D01*
X0003333370Y0003578377D02*
X0003333370Y0003630740D01*
X0003333370Y0003630740D02*
X0003385732Y0003630740D01*
X0003018409Y0002826015D02*
X0003123133Y0002826015D01*
X0003018409Y0003528377D02*
X0003018409Y0002826015D01*
X0003123133Y0003528377D02*
X0003123133Y0002826015D01*
X0003018409Y0003528377D02*
X0003123133Y0003528377D01*
X0003018409Y0003578377D02*
X0003018409Y0003630740D01*
X0003018409Y0003630740D02*
X0003070771Y0003630740D01*
D72*
D74*
D72*
D74*
G04 next file*
G04 Gerber Fmt 4.6, Leading zero omitted, Abs format (unit mm)*
G04 Created by KiCad (PCBNEW 4.0.7) date 11/22/17 20:28:19*
G01G01*
G04 APERTURE LIST*
G04 APERTURE END LIST*
D76*
D77*
X0003777559Y0003641732D02*
X0003738188Y0003641732D01*
X0003757874Y0003622047D02*
X0003757874Y0003661417D01*
D78*
X0003684944Y0002878377D02*
X0003715259Y0002878377D01*
X0003715259Y0002894125D02*
X0003715259Y0002861448D01*
D79*
X0003629826Y0002905936D02*
X0003629826Y0002850818D01*
X0003629826Y0002850818D02*
X0003740062Y0002850818D01*
X0003629826Y0002905936D02*
X0003740062Y0002905936D01*
D78*
X0003684944Y0002978377D02*
X0003715259Y0002978377D01*
X0003715259Y0002994125D02*
X0003715259Y0002961448D01*
D79*
X0003629826Y0003005936D02*
X0003629826Y0002950818D01*
X0003629826Y0002950818D02*
X0003740062Y0002950818D01*
X0003629826Y0003005936D02*
X0003740062Y0003005936D01*
D78*
X0003684944Y0003078377D02*
X0003715259Y0003078377D01*
X0003715259Y0003094125D02*
X0003715259Y0003061448D01*
D79*
X0003629826Y0003105936D02*
X0003629826Y0003050818D01*
X0003629826Y0003050818D02*
X0003740062Y0003050818D01*
X0003629826Y0003105936D02*
X0003740062Y0003105936D01*
D78*
X0003684944Y0003178377D02*
X0003715259Y0003178377D01*
X0003715259Y0003194125D02*
X0003715259Y0003161448D01*
D79*
X0003629826Y0003205936D02*
X0003629826Y0003150818D01*
X0003629826Y0003150818D02*
X0003740062Y0003150818D01*
X0003629826Y0003205936D02*
X0003740062Y0003205936D01*
D78*
X0003684944Y0003278377D02*
X0003715259Y0003278377D01*
X0003715259Y0003294125D02*
X0003715259Y0003261448D01*
D79*
X0003629826Y0003305936D02*
X0003629826Y0003250818D01*
X0003629826Y0003250818D02*
X0003740062Y0003250818D01*
X0003629826Y0003305936D02*
X0003740062Y0003305936D01*
D78*
X0003684944Y0003378377D02*
X0003715259Y0003378377D01*
X0003715259Y0003394125D02*
X0003715259Y0003361448D01*
D79*
X0003629826Y0003405936D02*
X0003629826Y0003350818D01*
X0003629826Y0003350818D02*
X0003740062Y0003350818D01*
X0003629826Y0003405936D02*
X0003740062Y0003405936D01*
D78*
X0003684944Y0003478377D02*
X0003715259Y0003478377D01*
X0003715259Y0003494125D02*
X0003715259Y0003461448D01*
D79*
X0003629826Y0003505936D02*
X0003629826Y0003450818D01*
X0003629826Y0003450818D02*
X0003740062Y0003450818D01*
X0003629826Y0003505936D02*
X0003740062Y0003505936D01*
D78*
X0003684944Y0003578377D02*
X0003715259Y0003578377D01*
X0003715259Y0003594125D02*
X0003715259Y0003561448D01*
D79*
X0003629826Y0003605936D02*
X0003629826Y0003550818D01*
X0003629826Y0003550818D02*
X0003740062Y0003550818D01*
X0003629826Y0003605936D02*
X0003740062Y0003605936D01*
X0003805811Y0002826015D02*
X0003910535Y0002826015D01*
X0003805811Y0003528377D02*
X0003805811Y0002826015D01*
X0003910535Y0003528377D02*
X0003910535Y0002826015D01*
X0003805811Y0003528377D02*
X0003910535Y0003528377D01*
X0003805811Y0003578377D02*
X0003805811Y0003630740D01*
X0003805811Y0003630740D02*
X0003858173Y0003630740D01*
X0003490850Y0002826015D02*
X0003595574Y0002826015D01*
X0003490850Y0003528377D02*
X0003490850Y0002826015D01*
X0003595574Y0003528377D02*
X0003595574Y0002826015D01*
X0003490850Y0003528377D02*
X0003595574Y0003528377D01*
X0003490850Y0003578377D02*
X0003490850Y0003630740D01*
X0003490850Y0003630740D02*
X0003543212Y0003630740D01*
D76*
D78*
D76*
D78*
M02*